M48
; DRILL file {KiCad 8.0.8} date 2025-04-25T12:47:38-0700
; FORMAT={-:-/ absolute / inch / decimal}
; #@! TF.CreationDate,2025-04-25T12:47:38-07:00
; #@! TF.GenerationSoftware,Kicad,Pcbnew,8.0.8
; #@! TF.FileFunction,Plated,1,2,PTH
FMAT,2
INCH
; #@! TA.AperFunction,Plated,PTH,ViaDrill
T1C0.0118
; #@! TA.AperFunction,Plated,PTH,ViaDrill
T2C0.0157
; #@! TA.AperFunction,Plated,PTH,ComponentDrill
T3C0.0315
; #@! TA.AperFunction,Plated,PTH,ComponentDrill
T4C0.0354
; #@! TA.AperFunction,Plated,PTH,ComponentDrill
T5C0.0394
; #@! TA.AperFunction,Plated,PTH,ComponentDrill
T6C0.0433
; #@! TA.AperFunction,Plated,PTH,ComponentDrill
T7C0.0512
; #@! TA.AperFunction,Plated,PTH,ComponentDrill
T8C0.0630
; #@! TA.AperFunction,Plated,PTH,ComponentDrill
T9C0.1260
%
G90
G05
T1
X3.1378Y-2.3071
T2
X3.064Y-3.4756
X3.7047Y-3.5157
X4.0354Y-3.5571
X4.3327Y-3.5177
X6.5752Y-2.7441
T3
X1.7756Y-1.7638
X1.7756Y-1.9606
X2.011Y-2.3472
X2.2079Y-2.3472
X2.3189Y-3.0741
X2.3189Y-3.271
X2.8661Y-2.4114
X3.063Y-2.4114
X3.1772Y-3.2392
X3.2756Y-3.2392
X3.8988Y-2.3382
X3.9006Y-1.7825
X3.9006Y-1.8825
X3.9006Y-1.9825
X3.9006Y-2.0825
X4.0024Y-2.2142
X4.1992Y-2.2142
X4.2006Y-1.7825
X4.2006Y-1.8825
X4.2006Y-1.9825
X4.2006Y-2.0825
X4.2988Y-2.2154
X4.2988Y-2.3382
X4.3173Y-1.7823
X4.3701Y-1.9823
X4.4685Y-1.9823
X4.6988Y-2.2154
X4.7173Y-1.7823
X6.8606Y-1.8496
X6.8606Y-2.2496
X7.1268Y-2.2441
X7.5268Y-2.2441
X7.7224Y-1.8512
X7.7224Y-2.2512
T4
X7.0573Y-1.8504
X7.1573Y-1.8504
X7.2675Y-1.8504
X7.3675Y-1.8504
X7.4805Y-1.8504
X7.5805Y-1.8504
T5
X1.7362Y-2.2287
X1.7362Y-2.3287
X1.7917Y-2.7744
X1.7917Y-2.8744
X1.7917Y-2.9744
X1.7917Y-3.0744
X1.7917Y-3.1744
X1.7917Y-3.2744
X1.7917Y-3.3744
X1.7917Y-3.4744
X1.8917Y-2.7744
X1.8917Y-2.8744
X1.8917Y-2.9744
X1.8917Y-3.0744
X1.8917Y-3.1744
X1.8917Y-3.2744
X1.8917Y-3.3744
X1.8917Y-3.4744
X2.7559Y-2.7756
X2.7559Y-2.8756
X2.7559Y-2.9756
X2.7559Y-3.0756
X2.7559Y-3.1756
X2.7559Y-3.2756
X2.7559Y-3.3756
X2.7559Y-3.4756
X2.8559Y-2.7756
X2.8559Y-2.8756
X2.8559Y-2.9756
X2.8559Y-3.0756
X2.8559Y-3.1756
X2.8559Y-3.2756
X2.8559Y-3.3756
X2.8559Y-3.4756
X3.1358Y-1.9843
X3.1358Y-2.1811
X3.252Y-2.4114
X3.752Y-2.4114
X3.937Y-2.7756
X3.937Y-2.8756
X3.937Y-2.9756
X3.937Y-3.0756
X3.937Y-3.1756
X3.937Y-3.2756
X3.937Y-3.3756
X3.937Y-3.4756
X4.037Y-2.7756
X4.037Y-2.8756
X4.037Y-2.9756
X4.037Y-3.0756
X4.037Y-3.1756
X4.037Y-3.2756
X4.037Y-3.3756
X4.037Y-3.4756
X5.1181Y-2.7756
X5.1181Y-2.8756
X5.1181Y-2.9756
X5.1181Y-3.0756
X5.1181Y-3.1756
X5.1181Y-3.2756
X5.1181Y-3.3756
X5.1181Y-3.4756
X5.2181Y-2.7756
X5.2181Y-2.8756
X5.2181Y-2.9756
X5.2181Y-3.0756
X5.2181Y-3.1756
X5.2181Y-3.2756
X5.2181Y-3.3756
X5.2181Y-3.4756
X6.2992Y-2.7756
X6.2992Y-2.8756
X6.2992Y-2.9756
X6.2992Y-3.0756
X6.2992Y-3.1756
X6.2992Y-3.2756
X6.2992Y-3.3756
X6.2992Y-3.4756
X6.3992Y-2.7756
X6.3992Y-2.8756
X6.3992Y-2.9756
X6.3992Y-3.0756
X6.3992Y-3.1756
X6.3992Y-3.2756
X6.3992Y-3.3756
X6.3992Y-3.4756
X7.4803Y-2.7756
X7.4803Y-2.8756
X7.4803Y-2.9756
X7.4803Y-3.0756
X7.4803Y-3.1756
X7.4803Y-3.2756
X7.4803Y-3.3756
X7.4803Y-3.4756
X7.5803Y-2.7756
X7.5803Y-2.8756
X7.5803Y-2.9756
X7.5803Y-3.0756
X7.5803Y-3.1756
X7.5803Y-3.2756
X7.5803Y-3.3756
X7.5803Y-3.4756
T6
X2.0079Y-1.7846
X2.0079Y-1.9606
X2.0079Y-2.0606
X2.0079Y-2.1606
X2.4079Y-1.7846
X3.6Y-2.215
X3.9Y-2.215
T7
X3.5102Y-1.8807
X3.7071Y-1.8807
T8
X4.7657Y-3.7488
T9
X2.1886Y-3.7638
X2.9134Y-1.7913
X6.5827Y-1.7913
X7.1165Y-3.7638
M30
