%TF.GenerationSoftware,KiCad,Pcbnew,(6.0.1)*%
%TF.CreationDate,2022-12-04T20:41:48-08:00*%
%TF.ProjectId,Melper,4d656c70-6572-42e6-9b69-6361645f7063,rev?*%
%TF.SameCoordinates,Original*%
%TF.FileFunction,Soldermask,Top*%
%TF.FilePolarity,Negative*%
%FSLAX46Y46*%
G04 Gerber Fmt 4.6, Leading zero omitted, Abs format (unit mm)*
G04 Created by KiCad (PCBNEW (6.0.1)) date 2022-12-04 20:41:48*
%MOMM*%
%LPD*%
G01*
G04 APERTURE LIST*
%ADD10C,7.500000*%
%ADD11C,1.600000*%
%ADD12R,1.800000X1.800000*%
%ADD13C,1.800000*%
%ADD14R,1.700000X1.700000*%
%ADD15O,1.700000X1.700000*%
%ADD16O,1.600000X1.600000*%
%ADD17R,1.600000X1.600000*%
%ADD18R,1.905000X2.000000*%
%ADD19O,1.905000X2.000000*%
%ADD20C,2.800000*%
%ADD21C,2.600000*%
G04 APERTURE END LIST*
D10*
%TO.C,H2*%
X194760000Y-94600000D03*
%TD*%
D11*
%TO.C,C17*%
X151340000Y-70510000D03*
X156340000Y-70510000D03*
%TD*%
%TO.C,C5*%
X80980000Y-55360000D03*
X80980000Y-50360000D03*
%TD*%
D12*
%TO.C,D1*%
X181795000Y-46000000D03*
D13*
X179255000Y-46000000D03*
%TD*%
D12*
%TO.C,D2*%
X187135000Y-46000000D03*
D13*
X184595000Y-46000000D03*
%TD*%
D14*
%TO.C,J5*%
X190000000Y-70500000D03*
D15*
X192540000Y-70500000D03*
X190000000Y-73040000D03*
X192540000Y-73040000D03*
X190000000Y-75580000D03*
X192540000Y-75580000D03*
X190000000Y-78120000D03*
X192540000Y-78120000D03*
X190000000Y-80660000D03*
X192540000Y-80660000D03*
X190000000Y-83200000D03*
X192540000Y-83200000D03*
X190000000Y-85740000D03*
X192540000Y-85740000D03*
X190000000Y-88280000D03*
X192540000Y-88280000D03*
%TD*%
D14*
%TO.C,J3*%
X100000000Y-70500000D03*
D15*
X102540000Y-70500000D03*
X100000000Y-73040000D03*
X102540000Y-73040000D03*
X100000000Y-75580000D03*
X102540000Y-75580000D03*
X100000000Y-78120000D03*
X102540000Y-78120000D03*
X100000000Y-80660000D03*
X102540000Y-80660000D03*
X100000000Y-83200000D03*
X102540000Y-83200000D03*
X100000000Y-85740000D03*
X102540000Y-85740000D03*
X100000000Y-88280000D03*
X102540000Y-88280000D03*
%TD*%
D11*
%TO.C,C10*%
X96420000Y-80630000D03*
X91420000Y-80630000D03*
%TD*%
D12*
%TO.C,U2*%
X73635000Y-52805000D03*
D13*
X73635000Y-55345000D03*
X73635000Y-57885000D03*
%TD*%
D14*
%TO.C,J4*%
X130000000Y-70500000D03*
D15*
X132540000Y-70500000D03*
X130000000Y-73040000D03*
X132540000Y-73040000D03*
X130000000Y-75580000D03*
X132540000Y-75580000D03*
X130000000Y-78120000D03*
X132540000Y-78120000D03*
X130000000Y-80660000D03*
X132540000Y-80660000D03*
X130000000Y-83200000D03*
X132540000Y-83200000D03*
X130000000Y-85740000D03*
X132540000Y-85740000D03*
X130000000Y-88280000D03*
X132540000Y-88280000D03*
%TD*%
D11*
%TO.C,C18*%
X156380000Y-83200000D03*
X151380000Y-83200000D03*
%TD*%
%TO.C,C7*%
X66100000Y-80640000D03*
X61100000Y-80640000D03*
%TD*%
%TO.C,C21*%
X186110000Y-83190000D03*
X181110000Y-83190000D03*
%TD*%
%TO.C,C8*%
X61020000Y-70530000D03*
X66020000Y-70530000D03*
%TD*%
%TO.C,C15*%
X126090000Y-83210000D03*
X121090000Y-83210000D03*
%TD*%
%TO.C,R1*%
X169020000Y-50960000D03*
D16*
X179180000Y-50960000D03*
%TD*%
D11*
%TO.C,C16*%
X156380000Y-80660000D03*
X151380000Y-80660000D03*
%TD*%
%TO.C,C19*%
X186130000Y-80670000D03*
X181130000Y-80670000D03*
%TD*%
D17*
%TO.C,C6*%
X87620000Y-50350000D03*
D11*
X87620000Y-55350000D03*
%TD*%
%TO.C,C3*%
X61580000Y-47840000D03*
X66580000Y-47840000D03*
%TD*%
D18*
%TO.C,U1*%
X46680000Y-87805000D03*
D19*
X49220000Y-87805000D03*
X51760000Y-87805000D03*
%TD*%
D11*
%TO.C,C4*%
X51770000Y-90830000D03*
X56770000Y-90830000D03*
%TD*%
D12*
%TO.C,D3*%
X192545000Y-46000000D03*
D13*
X190005000Y-46000000D03*
%TD*%
D11*
%TO.C,C11*%
X91270000Y-70520000D03*
X96270000Y-70520000D03*
%TD*%
%TO.C,C20*%
X181160000Y-70520000D03*
X186160000Y-70520000D03*
%TD*%
%TO.C,C9*%
X66100000Y-83200000D03*
X61100000Y-83200000D03*
%TD*%
D20*
%TO.C,TP1*%
X121050000Y-95220000D03*
%TD*%
D11*
%TO.C,R2*%
X194800000Y-55110000D03*
D16*
X184640000Y-55110000D03*
%TD*%
D11*
%TO.C,C14*%
X121250000Y-70510000D03*
X126250000Y-70510000D03*
%TD*%
%TO.C,R3*%
X198060000Y-51570000D03*
D16*
X187900000Y-51570000D03*
%TD*%
D17*
%TO.C,C2*%
X73640000Y-44810000D03*
D11*
X68640000Y-44810000D03*
%TD*%
D14*
%TO.C,J1*%
X44470000Y-73000000D03*
D15*
X44470000Y-75540000D03*
%TD*%
D10*
%TO.C,H1*%
X45590000Y-94600000D03*
%TD*%
D11*
%TO.C,C13*%
X126090000Y-80680000D03*
X121090000Y-80680000D03*
%TD*%
%TO.C,C12*%
X96420000Y-83200000D03*
X91420000Y-83200000D03*
%TD*%
D14*
%TO.C,J6*%
X70000000Y-70500000D03*
D15*
X72540000Y-70500000D03*
X70000000Y-73040000D03*
X72540000Y-73040000D03*
X70000000Y-75580000D03*
X72540000Y-75580000D03*
X70000000Y-78120000D03*
X72540000Y-78120000D03*
X70000000Y-80660000D03*
X72540000Y-80660000D03*
X70000000Y-83200000D03*
X72540000Y-83200000D03*
X70000000Y-85740000D03*
X72540000Y-85740000D03*
X70000000Y-88280000D03*
X72540000Y-88280000D03*
%TD*%
D11*
%TO.C,C1*%
X46700000Y-82610000D03*
X51700000Y-82610000D03*
%TD*%
D14*
%TO.C,J2*%
X160000000Y-70500000D03*
D15*
X162540000Y-70500000D03*
X160000000Y-73040000D03*
X162540000Y-73040000D03*
X160000000Y-75580000D03*
X162540000Y-75580000D03*
X160000000Y-78120000D03*
X162540000Y-78120000D03*
X160000000Y-80660000D03*
X162540000Y-80660000D03*
X160000000Y-83200000D03*
X162540000Y-83200000D03*
X160000000Y-85740000D03*
X162540000Y-85740000D03*
X160000000Y-88280000D03*
X162540000Y-88280000D03*
%TD*%
D21*
%TO.C,L1*%
X61570000Y-52790000D03*
X61570000Y-57790000D03*
%TD*%
M02*
