M48
; DRILL file {KiCad (6.0.1)} date Tue Jan  3 01:23:27 2023
; FORMAT={-:-/ absolute / inch / decimal}
; #@! TF.CreationDate,2023-01-03T01:23:27-08:00
; #@! TF.GenerationSoftware,Kicad,Pcbnew,(6.0.1)
; #@! TF.FileFunction,Plated,1,2,PTH
FMAT,2
INCH
; #@! TA.AperFunction,Plated,PTH,ViaDrill
T1C0.0118
; #@! TA.AperFunction,Plated,PTH,ViaDrill
T2C0.0157
; #@! TA.AperFunction,Plated,PTH,ComponentDrill
T3C0.0315
; #@! TA.AperFunction,Plated,PTH,ComponentDrill
T4C0.0354
; #@! TA.AperFunction,Plated,PTH,ComponentDrill
T5C0.0394
; #@! TA.AperFunction,Plated,PTH,ComponentDrill
T6C0.0433
; #@! TA.AperFunction,Plated,PTH,ComponentDrill
T7C0.0512
; #@! TA.AperFunction,Plated,PTH,ComponentDrill
T8C0.0630
; #@! TA.AperFunction,Plated,PTH,ComponentDrill
T9C0.1260
%
G90
G05
T1
X3.0539Y-2.7354
X3.5748Y-2.728
X3.5752Y-3.4756
T2
X6.5752Y-2.7154
T3
X1.7756Y-1.685
X1.7756Y-1.8819
X1.7756Y-2.0807
X1.7756Y-2.2776
X2.0245Y-2.8773
X2.0245Y-3.0741
X3.0543Y-1.8835
X3.2512Y-1.8835
X3.4646Y-1.7642
X3.6614Y-1.7642
X3.9961Y-1.7271
X3.9961Y-1.9239
X3.9961Y-2.1277
X3.9961Y-2.3245
X6.8606Y-1.8496
X6.8606Y-2.2496
X7.1268Y-2.2441
X7.5268Y-2.2441
X7.7484Y-1.8496
X7.7484Y-2.2496
T4
X7.0573Y-1.8504
X7.1573Y-1.8504
X7.2675Y-1.8504
X7.3675Y-1.8504
X7.4805Y-1.8504
X7.5805Y-1.8504
T5
X1.7048Y-2.974
X1.7048Y-3.074
X2.7559Y-2.7756
X2.7559Y-2.8756
X2.7559Y-2.9756
X2.7559Y-3.0756
X2.7559Y-3.1756
X2.7559Y-3.2756
X2.7559Y-3.3756
X2.7559Y-3.4756
X2.8559Y-2.7756
X2.8559Y-2.8756
X2.8559Y-2.9756
X2.8559Y-3.0756
X2.8559Y-3.1756
X2.8559Y-3.2756
X2.8559Y-3.3756
X2.8559Y-3.4756
X3.5197Y-2.0789
X3.5197Y-2.1789
X3.5197Y-2.2789
X3.937Y-2.7756
X3.937Y-2.8756
X3.937Y-2.9756
X3.937Y-3.0756
X3.937Y-3.1756
X3.937Y-3.2756
X3.937Y-3.3756
X3.937Y-3.4756
X4.037Y-2.7756
X4.037Y-2.8756
X4.037Y-2.9756
X4.037Y-3.0756
X4.037Y-3.1756
X4.037Y-3.2756
X4.037Y-3.3756
X4.037Y-3.4756
X5.1181Y-2.7756
X5.1181Y-2.8756
X5.1181Y-2.9756
X5.1181Y-3.0756
X5.1181Y-3.1756
X5.1181Y-3.2756
X5.1181Y-3.3756
X5.1181Y-3.4756
X5.2181Y-2.7756
X5.2181Y-2.8756
X5.2181Y-2.9756
X5.2181Y-3.0756
X5.2181Y-3.1756
X5.2181Y-3.2756
X5.2181Y-3.3756
X5.2181Y-3.4756
X6.2992Y-2.7756
X6.2992Y-2.8756
X6.2992Y-2.9756
X6.2992Y-3.0756
X6.2992Y-3.1756
X6.2992Y-3.2756
X6.2992Y-3.3756
X6.2992Y-3.4756
X6.3992Y-2.7756
X6.3992Y-2.8756
X6.3992Y-2.9756
X6.3992Y-3.0756
X6.3992Y-3.1756
X6.3992Y-3.2756
X6.3992Y-3.3756
X6.3992Y-3.4756
X7.4803Y-2.7756
X7.4803Y-2.8756
X7.4803Y-2.9756
X7.4803Y-3.0756
X7.4803Y-3.1756
X7.4803Y-3.2756
X7.4803Y-3.3756
X7.4803Y-3.4756
X7.5803Y-2.7756
X7.5803Y-2.8756
X7.5803Y-2.9756
X7.5803Y-3.0756
X7.5803Y-3.1756
X7.5803Y-3.2756
X7.5803Y-3.3756
X7.5803Y-3.4756
T6
X2.0079Y-1.8819
X2.0079Y-1.9819
X2.0079Y-2.0819
T7
X3.0539Y-2.0783
X3.0539Y-2.2752
T8
X4.7657Y-3.7488
T9
X1.7949Y-3.7244
X7.6677Y-3.7244
T0
M30
