%TF.GenerationSoftware,KiCad,Pcbnew,8.0.8*%
%TF.CreationDate,2025-04-25T12:47:42-07:00*%
%TF.ProjectId,Melper,4d656c70-6572-42e6-9b69-6361645f7063,3.5*%
%TF.SameCoordinates,Original*%
%TF.FileFunction,Soldermask,Bot*%
%TF.FilePolarity,Negative*%
%FSLAX46Y46*%
G04 Gerber Fmt 4.6, Leading zero omitted, Abs format (unit mm)*
G04 Created by KiCad (PCBNEW 8.0.8) date 2025-04-25 12:47:42*
%MOMM*%
%LPD*%
G01*
G04 APERTURE LIST*
%ADD10C,5.600000*%
%ADD11R,1.800000X1.800000*%
%ADD12C,1.800000*%
%ADD13R,1.700000X1.700000*%
%ADD14O,1.700000X1.700000*%
%ADD15C,1.600000*%
%ADD16O,1.600000X1.600000*%
%ADD17R,2.000000X2.000000*%
%ADD18C,2.000000*%
%ADD19R,2.400000X1.600000*%
%ADD20O,2.400000X1.600000*%
%ADD21O,2.000000X2.000000*%
%ADD22O,3.500000X3.500000*%
%ADD23R,2.000000X1.905000*%
%ADD24O,2.000000X1.905000*%
%ADD25C,2.800000*%
%ADD26R,1.600000X1.600000*%
%ADD27R,2.200000X2.200000*%
%ADD28O,2.200000X2.200000*%
%ADD29C,2.600000*%
G04 APERTURE END LIST*
D10*
%TO.C,H2*%
X180760000Y-95600000D03*
%TD*%
D11*
%TO.C,D1*%
X181795000Y-47000000D03*
D12*
X179255000Y-47000000D03*
%TD*%
D11*
%TO.C,D2*%
X187135000Y-47000000D03*
D12*
X184595000Y-47000000D03*
%TD*%
D13*
%TO.C,J5*%
X162540000Y-88280000D03*
D14*
X160000000Y-88280000D03*
X162540000Y-85740000D03*
X160000000Y-85740000D03*
X162540000Y-83200000D03*
X160000000Y-83200000D03*
X162540000Y-80660000D03*
X160000000Y-80660000D03*
X162540000Y-78120000D03*
X160000000Y-78120000D03*
X162540000Y-75580000D03*
X160000000Y-75580000D03*
X162540000Y-73040000D03*
X160000000Y-73040000D03*
X162540000Y-70500000D03*
X160000000Y-70500000D03*
%TD*%
D15*
%TO.C,C2*%
X77800000Y-61250000D03*
X72800000Y-61250000D03*
%TD*%
%TO.C,R6*%
X119820000Y-45270000D03*
D16*
X109660000Y-45270000D03*
%TD*%
D13*
%TO.C,J3*%
X102540000Y-88280000D03*
D14*
X100000000Y-88280000D03*
X102540000Y-85740000D03*
X100000000Y-85740000D03*
X102540000Y-83200000D03*
X100000000Y-83200000D03*
X102540000Y-80660000D03*
X100000000Y-80660000D03*
X102540000Y-78120000D03*
X100000000Y-78120000D03*
X102540000Y-75580000D03*
X100000000Y-75580000D03*
X102540000Y-73040000D03*
X100000000Y-73040000D03*
X102540000Y-70500000D03*
X100000000Y-70500000D03*
%TD*%
D17*
%TO.C,C8*%
X79650000Y-50400000D03*
D18*
X79650000Y-55400000D03*
%TD*%
D13*
%TO.C,J7*%
X44100000Y-56610000D03*
D14*
X44100000Y-59150000D03*
%TD*%
D19*
%TO.C,U2*%
X99075000Y-45275000D03*
D20*
X99075000Y-47815000D03*
X99075000Y-50355000D03*
X99075000Y-52895000D03*
X106695000Y-52895000D03*
X106695000Y-50355000D03*
X106695000Y-47815000D03*
X106695000Y-45275000D03*
%TD*%
D13*
%TO.C,J4*%
X132540000Y-88280000D03*
D14*
X130000000Y-88280000D03*
X132540000Y-85740000D03*
X130000000Y-85740000D03*
X132540000Y-83200000D03*
X130000000Y-83200000D03*
X132540000Y-80660000D03*
X130000000Y-80660000D03*
X132540000Y-78120000D03*
X130000000Y-78120000D03*
X132540000Y-75580000D03*
X130000000Y-75580000D03*
X132540000Y-73040000D03*
X130000000Y-73040000D03*
X132540000Y-70500000D03*
X130000000Y-70500000D03*
%TD*%
D15*
%TO.C,C7*%
X58900000Y-78082651D03*
X58900000Y-83082651D03*
%TD*%
%TO.C,R1*%
X174260000Y-57140000D03*
D16*
X174260000Y-46980000D03*
%TD*%
D10*
%TO.C,H4*%
X167200000Y-45500000D03*
%TD*%
D18*
%TO.C,L2*%
X95300000Y-61250000D03*
D21*
X82600000Y-61250000D03*
%TD*%
D22*
%TO.C,U1*%
X67660000Y-52340000D03*
D23*
X51000000Y-49800000D03*
D24*
X51000000Y-52340000D03*
X51000000Y-54880000D03*
%TD*%
D15*
%TO.C,R5*%
X119350000Y-56270000D03*
D16*
X109190000Y-56270000D03*
%TD*%
D15*
%TO.C,C4*%
X51080000Y-59620000D03*
X56080000Y-59620000D03*
%TD*%
D11*
%TO.C,D3*%
X192545000Y-47000000D03*
D12*
X190005000Y-47000000D03*
%TD*%
D25*
%TO.C,TP1*%
X121050000Y-95220000D03*
%TD*%
D26*
%TO.C,C10*%
X83200000Y-82275000D03*
D15*
X80700000Y-82275000D03*
%TD*%
%TO.C,R2*%
X191180000Y-57000000D03*
D16*
X181020000Y-57000000D03*
%TD*%
D15*
%TO.C,R3*%
X196150000Y-47020000D03*
D16*
X196150000Y-57180000D03*
%TD*%
D15*
%TO.C,C3*%
X106660000Y-56240000D03*
X101660000Y-56240000D03*
%TD*%
D10*
%TO.C,H3*%
X74000000Y-45500000D03*
%TD*%
D27*
%TO.C,D6*%
X91440000Y-56260000D03*
D28*
X99060000Y-56260000D03*
%TD*%
D27*
%TO.C,D5*%
X51000000Y-45330000D03*
D28*
X61160000Y-45330000D03*
%TD*%
D13*
%TO.C,J1*%
X48050000Y-88250000D03*
D14*
X45510000Y-88250000D03*
X48050000Y-85710000D03*
X45510000Y-85710000D03*
X48050000Y-83170000D03*
X45510000Y-83170000D03*
X48050000Y-80630000D03*
X45510000Y-80630000D03*
X48050000Y-78090000D03*
X45510000Y-78090000D03*
X48050000Y-75550000D03*
X45510000Y-75550000D03*
X48050000Y-73010000D03*
X45510000Y-73010000D03*
X48050000Y-70470000D03*
X45510000Y-70470000D03*
%TD*%
D26*
%TO.C,C9*%
X111000000Y-50350000D03*
D15*
X113500000Y-50350000D03*
%TD*%
D10*
%TO.C,H1*%
X55590000Y-95600000D03*
%TD*%
D15*
%TO.C,R4*%
X99030000Y-59390000D03*
D16*
X109190000Y-59390000D03*
%TD*%
D13*
%TO.C,J6*%
X192540000Y-88280000D03*
D14*
X190000000Y-88280000D03*
X192540000Y-85740000D03*
X190000000Y-85740000D03*
X192540000Y-83200000D03*
X190000000Y-83200000D03*
X192540000Y-80660000D03*
X190000000Y-80660000D03*
X192540000Y-78120000D03*
X190000000Y-78120000D03*
X192540000Y-75580000D03*
X190000000Y-75580000D03*
X192540000Y-73040000D03*
X190000000Y-73040000D03*
X192540000Y-70500000D03*
X190000000Y-70500000D03*
%TD*%
D15*
%TO.C,C1*%
X45100000Y-49800000D03*
X45100000Y-44800000D03*
%TD*%
D13*
%TO.C,J2*%
X72540000Y-88280000D03*
D14*
X70000000Y-88280000D03*
X72540000Y-85740000D03*
X70000000Y-85740000D03*
X72540000Y-83200000D03*
X70000000Y-83200000D03*
X72540000Y-80660000D03*
X70000000Y-80660000D03*
X72540000Y-78120000D03*
X70000000Y-78120000D03*
X72540000Y-75580000D03*
X70000000Y-75580000D03*
X72540000Y-73040000D03*
X70000000Y-73040000D03*
X72540000Y-70500000D03*
X70000000Y-70500000D03*
%TD*%
D29*
%TO.C,L1*%
X94160000Y-47770000D03*
X89160000Y-47770000D03*
%TD*%
M02*
