%TF.GenerationSoftware,KiCad,Pcbnew,(6.0.1)*%
%TF.CreationDate,2023-01-03T01:23:30-08:00*%
%TF.ProjectId,Melper,4d656c70-6572-42e6-9b69-6361645f7063,2.0*%
%TF.SameCoordinates,Original*%
%TF.FileFunction,Soldermask,Bot*%
%TF.FilePolarity,Negative*%
%FSLAX46Y46*%
G04 Gerber Fmt 4.6, Leading zero omitted, Abs format (unit mm)*
G04 Created by KiCad (PCBNEW (6.0.1)) date 2023-01-03 01:23:30*
%MOMM*%
%LPD*%
G01*
G04 APERTURE LIST*
%ADD10R,1.600000X1.600000*%
%ADD11C,1.600000*%
%ADD12O,3.500000X3.500000*%
%ADD13R,2.000000X1.905000*%
%ADD14O,2.000000X1.905000*%
%ADD15C,5.600000*%
%ADD16R,1.800000X1.800000*%
%ADD17C,1.800000*%
%ADD18R,1.700000X1.700000*%
%ADD19O,1.700000X1.700000*%
%ADD20O,1.600000X1.600000*%
%ADD21C,2.800000*%
%ADD22C,2.600000*%
G04 APERTURE END LIST*
D10*
%TO.C,C7*%
X51422651Y-78082651D03*
D11*
X51422651Y-73082651D03*
%TD*%
D10*
%TO.C,C6*%
X101500000Y-59042651D03*
D11*
X101500000Y-54042651D03*
%TD*%
D10*
%TO.C,C5*%
X101500000Y-43867349D03*
D11*
X101500000Y-48867349D03*
%TD*%
%TO.C,C2*%
X93000000Y-44810000D03*
D10*
X88000000Y-44810000D03*
%TD*%
%TO.C,C1*%
X45100000Y-47800000D03*
D11*
X45100000Y-42800000D03*
%TD*%
D12*
%TO.C,U1*%
X67660000Y-50340000D03*
D13*
X51000000Y-47800000D03*
D14*
X51000000Y-50340000D03*
X51000000Y-52880000D03*
%TD*%
D15*
%TO.C,H2*%
X194760000Y-94600000D03*
%TD*%
D16*
%TO.C,D1*%
X181795000Y-47000000D03*
D17*
X179255000Y-47000000D03*
%TD*%
D16*
%TO.C,D2*%
X187135000Y-47000000D03*
D17*
X184595000Y-47000000D03*
%TD*%
D18*
%TO.C,J5*%
X162540000Y-88280000D03*
D19*
X160000000Y-88280000D03*
X162540000Y-85740000D03*
X160000000Y-85740000D03*
X162540000Y-83200000D03*
X160000000Y-83200000D03*
X162540000Y-80660000D03*
X160000000Y-80660000D03*
X162540000Y-78120000D03*
X160000000Y-78120000D03*
X162540000Y-75580000D03*
X160000000Y-75580000D03*
X162540000Y-73040000D03*
X160000000Y-73040000D03*
X162540000Y-70500000D03*
X160000000Y-70500000D03*
%TD*%
D18*
%TO.C,J3*%
X102540000Y-88280000D03*
D19*
X100000000Y-88280000D03*
X102540000Y-85740000D03*
X100000000Y-85740000D03*
X102540000Y-83200000D03*
X100000000Y-83200000D03*
X102540000Y-80660000D03*
X100000000Y-80660000D03*
X102540000Y-78120000D03*
X100000000Y-78120000D03*
X102540000Y-75580000D03*
X100000000Y-75580000D03*
X102540000Y-73040000D03*
X100000000Y-73040000D03*
X102540000Y-70500000D03*
X100000000Y-70500000D03*
%TD*%
D16*
%TO.C,U2*%
X89400000Y-52805000D03*
D17*
X89400000Y-55345000D03*
X89400000Y-57885000D03*
%TD*%
D18*
%TO.C,J4*%
X132540000Y-88280000D03*
D19*
X130000000Y-88280000D03*
X132540000Y-85740000D03*
X130000000Y-85740000D03*
X132540000Y-83200000D03*
X130000000Y-83200000D03*
X132540000Y-80660000D03*
X130000000Y-80660000D03*
X132540000Y-78120000D03*
X130000000Y-78120000D03*
X132540000Y-75580000D03*
X130000000Y-75580000D03*
X132540000Y-73040000D03*
X130000000Y-73040000D03*
X132540000Y-70500000D03*
X130000000Y-70500000D03*
%TD*%
D11*
%TO.C,R1*%
X174260000Y-57140000D03*
D20*
X174260000Y-46980000D03*
%TD*%
D11*
%TO.C,C3*%
X82580000Y-47840000D03*
X77580000Y-47840000D03*
%TD*%
%TO.C,C4*%
X45100000Y-52850000D03*
X45100000Y-57850000D03*
%TD*%
D16*
%TO.C,D3*%
X192545000Y-47000000D03*
D17*
X190005000Y-47000000D03*
%TD*%
D21*
%TO.C,TP1*%
X121050000Y-95220000D03*
%TD*%
D11*
%TO.C,R2*%
X191180000Y-57000000D03*
D20*
X181020000Y-57000000D03*
%TD*%
D11*
%TO.C,R3*%
X196810000Y-57140000D03*
D20*
X196810000Y-46980000D03*
%TD*%
D18*
%TO.C,J1*%
X43302651Y-75540000D03*
D19*
X43302651Y-78080000D03*
%TD*%
D15*
%TO.C,H1*%
X45590000Y-94600000D03*
%TD*%
D19*
%TO.C,J6*%
X190000000Y-70500000D03*
X192540000Y-70500000D03*
X190000000Y-73040000D03*
X192540000Y-73040000D03*
X190000000Y-75580000D03*
X192540000Y-75580000D03*
X190000000Y-78120000D03*
X192540000Y-78120000D03*
X190000000Y-80660000D03*
X192540000Y-80660000D03*
X190000000Y-83200000D03*
X192540000Y-83200000D03*
X190000000Y-85740000D03*
X192540000Y-85740000D03*
X190000000Y-88280000D03*
D18*
X192540000Y-88280000D03*
%TD*%
%TO.C,J2*%
X72540000Y-88280000D03*
D19*
X70000000Y-88280000D03*
X72540000Y-85740000D03*
X70000000Y-85740000D03*
X72540000Y-83200000D03*
X70000000Y-83200000D03*
X72540000Y-80660000D03*
X70000000Y-80660000D03*
X72540000Y-78120000D03*
X70000000Y-78120000D03*
X72540000Y-75580000D03*
X70000000Y-75580000D03*
X72540000Y-73040000D03*
X70000000Y-73040000D03*
X72540000Y-70500000D03*
X70000000Y-70500000D03*
%TD*%
D22*
%TO.C,L1*%
X77570000Y-52790000D03*
X77570000Y-57790000D03*
%TD*%
M02*
