%TF.GenerationSoftware,KiCad,Pcbnew,8.0.8*%
%TF.CreationDate,2025-04-25T12:47:42-07:00*%
%TF.ProjectId,Melper,4d656c70-6572-42e6-9b69-6361645f7063,3.5*%
%TF.SameCoordinates,Original*%
%TF.FileFunction,Copper,L1,Top*%
%TF.FilePolarity,Positive*%
%FSLAX46Y46*%
G04 Gerber Fmt 4.6, Leading zero omitted, Abs format (unit mm)*
G04 Created by KiCad (PCBNEW 8.0.8) date 2025-04-25 12:47:42*
%MOMM*%
%LPD*%
G01*
G04 APERTURE LIST*
G04 Aperture macros list*
%AMRoundRect*
0 Rectangle with rounded corners*
0 $1 Rounding radius*
0 $2 $3 $4 $5 $6 $7 $8 $9 X,Y pos of 4 corners*
0 Add a 4 corners polygon primitive as box body*
4,1,4,$2,$3,$4,$5,$6,$7,$8,$9,$2,$3,0*
0 Add four circle primitives for the rounded corners*
1,1,$1+$1,$2,$3*
1,1,$1+$1,$4,$5*
1,1,$1+$1,$6,$7*
1,1,$1+$1,$8,$9*
0 Add four rect primitives between the rounded corners*
20,1,$1+$1,$2,$3,$4,$5,0*
20,1,$1+$1,$4,$5,$6,$7,0*
20,1,$1+$1,$6,$7,$8,$9,0*
20,1,$1+$1,$8,$9,$2,$3,0*%
G04 Aperture macros list end*
%TA.AperFunction,ComponentPad*%
%ADD10C,5.600000*%
%TD*%
%TA.AperFunction,SMDPad,CuDef*%
%ADD11C,2.000000*%
%TD*%
%TA.AperFunction,ComponentPad*%
%ADD12R,1.800000X1.800000*%
%TD*%
%TA.AperFunction,ComponentPad*%
%ADD13C,1.800000*%
%TD*%
%TA.AperFunction,ComponentPad*%
%ADD14R,1.700000X1.700000*%
%TD*%
%TA.AperFunction,ComponentPad*%
%ADD15O,1.700000X1.700000*%
%TD*%
%TA.AperFunction,ComponentPad*%
%ADD16C,1.600000*%
%TD*%
%TA.AperFunction,ComponentPad*%
%ADD17O,1.600000X1.600000*%
%TD*%
%TA.AperFunction,ComponentPad*%
%ADD18R,2.000000X2.000000*%
%TD*%
%TA.AperFunction,ComponentPad*%
%ADD19C,2.000000*%
%TD*%
%TA.AperFunction,ComponentPad*%
%ADD20R,2.400000X1.600000*%
%TD*%
%TA.AperFunction,ComponentPad*%
%ADD21O,2.400000X1.600000*%
%TD*%
%TA.AperFunction,SMDPad,CuDef*%
%ADD22RoundRect,0.237500X0.287500X0.237500X-0.287500X0.237500X-0.287500X-0.237500X0.287500X-0.237500X0*%
%TD*%
%TA.AperFunction,ComponentPad*%
%ADD23O,2.000000X2.000000*%
%TD*%
%TA.AperFunction,ComponentPad*%
%ADD24R,2.000000X1.905000*%
%TD*%
%TA.AperFunction,ComponentPad*%
%ADD25O,2.000000X1.905000*%
%TD*%
%TA.AperFunction,ComponentPad*%
%ADD26C,2.800000*%
%TD*%
%TA.AperFunction,ComponentPad*%
%ADD27R,1.600000X1.600000*%
%TD*%
%TA.AperFunction,SMDPad,CuDef*%
%ADD28RoundRect,0.250000X0.300000X1.600000X-0.300000X1.600000X-0.300000X-1.600000X0.300000X-1.600000X0*%
%TD*%
%TA.AperFunction,ComponentPad*%
%ADD29R,2.200000X2.200000*%
%TD*%
%TA.AperFunction,ComponentPad*%
%ADD30O,2.200000X2.200000*%
%TD*%
%TA.AperFunction,ComponentPad*%
%ADD31C,2.600000*%
%TD*%
%TA.AperFunction,ViaPad*%
%ADD32C,0.800000*%
%TD*%
%TA.AperFunction,ViaPad*%
%ADD33C,0.600000*%
%TD*%
%TA.AperFunction,Conductor*%
%ADD34C,0.200000*%
%TD*%
%TA.AperFunction,Conductor*%
%ADD35C,0.600000*%
%TD*%
%TA.AperFunction,Conductor*%
%ADD36C,0.250000*%
%TD*%
G04 APERTURE END LIST*
D10*
%TO.P,H2,1,1*%
%TO.N,GND*%
X180760000Y-95600000D03*
%TD*%
D11*
%TO.P,TP2,1,1*%
%TO.N,+12V*%
X94100000Y-95220000D03*
%TD*%
D12*
%TO.P,D1,1,K*%
%TO.N,GND*%
X181795000Y-47000000D03*
D13*
%TO.P,D1,2,A*%
%TO.N,Net-(D1-A)*%
X179255000Y-47000000D03*
%TD*%
D12*
%TO.P,D2,1,K*%
%TO.N,GND*%
X187135000Y-47000000D03*
D13*
%TO.P,D2,2,A*%
%TO.N,Net-(D2-A)*%
X184595000Y-47000000D03*
%TD*%
D14*
%TO.P,J5,1,Pin_1*%
%TO.N,-12V*%
X162540000Y-88280000D03*
D15*
%TO.P,J5,2,Pin_2*%
X160000000Y-88280000D03*
%TO.P,J5,3,Pin_3*%
%TO.N,GND*%
X162540000Y-85740000D03*
%TO.P,J5,4,Pin_4*%
X160000000Y-85740000D03*
%TO.P,J5,5,Pin_5*%
X162540000Y-83200000D03*
%TO.P,J5,6,Pin_6*%
X160000000Y-83200000D03*
%TO.P,J5,7,Pin_7*%
X162540000Y-80660000D03*
%TO.P,J5,8,Pin_8*%
X160000000Y-80660000D03*
%TO.P,J5,9,Pin_9*%
%TO.N,+12V*%
X162540000Y-78120000D03*
%TO.P,J5,10,Pin_10*%
X160000000Y-78120000D03*
%TO.P,J5,11,Pin_11*%
%TO.N,+5V*%
X162540000Y-75580000D03*
%TO.P,J5,12,Pin_12*%
X160000000Y-75580000D03*
%TO.P,J5,13,Pin_13*%
%TO.N,CV*%
X162540000Y-73040000D03*
%TO.P,J5,14,Pin_14*%
X160000000Y-73040000D03*
%TO.P,J5,15,Pin_15*%
%TO.N,GATE*%
X162540000Y-70500000D03*
%TO.P,J5,16,Pin_16*%
X160000000Y-70500000D03*
%TD*%
D16*
%TO.P,C2,1*%
%TO.N,-12V*%
X77800000Y-61250000D03*
%TO.P,C2,2*%
%TO.N,GND*%
X72800000Y-61250000D03*
%TD*%
%TO.P,R6,1*%
%TO.N,+12V*%
X119820000Y-45270000D03*
D17*
%TO.P,R6,2*%
%TO.N,Net-(U2-DC)*%
X109660000Y-45270000D03*
%TD*%
D14*
%TO.P,J3,1,Pin_1*%
%TO.N,-12V*%
X102540000Y-88280000D03*
D15*
%TO.P,J3,2,Pin_2*%
X100000000Y-88280000D03*
%TO.P,J3,3,Pin_3*%
%TO.N,GND*%
X102540000Y-85740000D03*
%TO.P,J3,4,Pin_4*%
X100000000Y-85740000D03*
%TO.P,J3,5,Pin_5*%
X102540000Y-83200000D03*
%TO.P,J3,6,Pin_6*%
X100000000Y-83200000D03*
%TO.P,J3,7,Pin_7*%
X102540000Y-80660000D03*
%TO.P,J3,8,Pin_8*%
X100000000Y-80660000D03*
%TO.P,J3,9,Pin_9*%
%TO.N,+12V*%
X102540000Y-78120000D03*
%TO.P,J3,10,Pin_10*%
X100000000Y-78120000D03*
%TO.P,J3,11,Pin_11*%
%TO.N,+5V*%
X102540000Y-75580000D03*
%TO.P,J3,12,Pin_12*%
X100000000Y-75580000D03*
%TO.P,J3,13,Pin_13*%
%TO.N,CV*%
X102540000Y-73040000D03*
%TO.P,J3,14,Pin_14*%
X100000000Y-73040000D03*
%TO.P,J3,15,Pin_15*%
%TO.N,GATE*%
X102540000Y-70500000D03*
%TO.P,J3,16,Pin_16*%
X100000000Y-70500000D03*
%TD*%
D18*
%TO.P,C8,1*%
%TO.N,GND*%
X79650000Y-50400000D03*
D19*
%TO.P,C8,2*%
%TO.N,Net-(D6-A)*%
X79650000Y-55400000D03*
%TD*%
D11*
%TO.P,TP4,1,1*%
%TO.N,-12V*%
X102500000Y-95220000D03*
%TD*%
D14*
%TO.P,J7,1,Pin_1*%
%TO.N,GND*%
X44100000Y-56610000D03*
D15*
%TO.P,J7,2,Pin_2*%
%TO.N,+12V*%
X44100000Y-59150000D03*
%TD*%
D20*
%TO.P,U2,1,SwC*%
%TO.N,Net-(U2-DC)*%
X99075000Y-45275000D03*
D21*
%TO.P,U2,2,SwE*%
%TO.N,Net-(D6-K)*%
X99075000Y-47815000D03*
%TO.P,U2,3,TC*%
%TO.N,Net-(U2-TC)*%
X99075000Y-50355000D03*
%TO.P,U2,4,GND*%
%TO.N,Net-(D6-A)*%
X99075000Y-52895000D03*
%TO.P,U2,5,Vfb*%
%TO.N,Net-(U2-Vfb)*%
X106695000Y-52895000D03*
%TO.P,U2,6,Vin*%
%TO.N,+12V*%
X106695000Y-50355000D03*
%TO.P,U2,7,Ipk*%
%TO.N,Net-(U2-DC)*%
X106695000Y-47815000D03*
%TO.P,U2,8,DC*%
X106695000Y-45275000D03*
%TD*%
D22*
%TO.P,D8,1,K*%
%TO.N,Net-(D3-K)*%
X192150000Y-51600000D03*
%TO.P,D8,2,A*%
%TO.N,GND*%
X190400000Y-51600000D03*
%TD*%
D14*
%TO.P,J4,1,Pin_1*%
%TO.N,-12V*%
X132540000Y-88280000D03*
D15*
%TO.P,J4,2,Pin_2*%
X130000000Y-88280000D03*
%TO.P,J4,3,Pin_3*%
%TO.N,GND*%
X132540000Y-85740000D03*
%TO.P,J4,4,Pin_4*%
X130000000Y-85740000D03*
%TO.P,J4,5,Pin_5*%
X132540000Y-83200000D03*
%TO.P,J4,6,Pin_6*%
X130000000Y-83200000D03*
%TO.P,J4,7,Pin_7*%
X132540000Y-80660000D03*
%TO.P,J4,8,Pin_8*%
X130000000Y-80660000D03*
%TO.P,J4,9,Pin_9*%
%TO.N,+12V*%
X132540000Y-78120000D03*
%TO.P,J4,10,Pin_10*%
X130000000Y-78120000D03*
%TO.P,J4,11,Pin_11*%
%TO.N,+5V*%
X132540000Y-75580000D03*
%TO.P,J4,12,Pin_12*%
X130000000Y-75580000D03*
%TO.P,J4,13,Pin_13*%
%TO.N,CV*%
X132540000Y-73040000D03*
%TO.P,J4,14,Pin_14*%
X130000000Y-73040000D03*
%TO.P,J4,15,Pin_15*%
%TO.N,GATE*%
X132540000Y-70500000D03*
%TO.P,J4,16,Pin_16*%
X130000000Y-70500000D03*
%TD*%
D16*
%TO.P,C7,1*%
%TO.N,+12V*%
X58900000Y-78082651D03*
%TO.P,C7,2*%
%TO.N,GND*%
X58900000Y-83082651D03*
%TD*%
%TO.P,R1,1*%
%TO.N,+12V*%
X174260000Y-57140000D03*
D17*
%TO.P,R1,2*%
%TO.N,Net-(D1-A)*%
X174260000Y-46980000D03*
%TD*%
D10*
%TO.P,H4,1,1*%
%TO.N,GND*%
X167200000Y-45500000D03*
%TD*%
D22*
%TO.P,D4,1,K*%
%TO.N,GND*%
X181450000Y-51600000D03*
%TO.P,D4,2,A*%
%TO.N,Net-(D1-A)*%
X179700000Y-51600000D03*
%TD*%
D19*
%TO.P,L2,1,1*%
%TO.N,Net-(D6-A)*%
X95300000Y-61250000D03*
D23*
%TO.P,L2,2,2*%
%TO.N,-12V*%
X82600000Y-61250000D03*
%TD*%
D24*
%TO.P,U1,1,VI*%
%TO.N,+12V*%
X51000000Y-49800000D03*
D25*
%TO.P,U1,2,GND*%
%TO.N,GND*%
X51000000Y-52340000D03*
%TO.P,U1,3,VO*%
%TO.N,+5V*%
X51000000Y-54880000D03*
%TD*%
D16*
%TO.P,R5,1*%
%TO.N,GND*%
X119350000Y-56270000D03*
D17*
%TO.P,R5,2*%
%TO.N,Net-(U2-Vfb)*%
X109190000Y-56270000D03*
%TD*%
D16*
%TO.P,C4,1*%
%TO.N,+5V*%
X51080000Y-59620000D03*
%TO.P,C4,2*%
%TO.N,GND*%
X56080000Y-59620000D03*
%TD*%
D12*
%TO.P,D3,1,K*%
%TO.N,Net-(D3-K)*%
X192545000Y-47000000D03*
D13*
%TO.P,D3,2,A*%
%TO.N,GND*%
X190005000Y-47000000D03*
%TD*%
D26*
%TO.P,TP1,1,1*%
%TO.N,GND*%
X121050000Y-95220000D03*
%TD*%
D27*
%TO.P,C10,1*%
%TO.N,GND*%
X83200000Y-82275000D03*
D16*
%TO.P,C10,2*%
%TO.N,-12V*%
X80700000Y-82275000D03*
%TD*%
%TO.P,R2,1*%
%TO.N,+5V*%
X191180000Y-57000000D03*
D17*
%TO.P,R2,2*%
%TO.N,Net-(D2-A)*%
X181020000Y-57000000D03*
%TD*%
D11*
%TO.P,TP3,1,1*%
%TO.N,+5V*%
X110050000Y-95220000D03*
%TD*%
D28*
%TO.P,L3,1,1*%
%TO.N,Net-(D6-A)*%
X90450000Y-66150000D03*
%TO.P,L3,2,2*%
%TO.N,-12V*%
X87450000Y-66150000D03*
%TD*%
D16*
%TO.P,R3,1*%
%TO.N,Net-(D3-K)*%
X196150000Y-47020000D03*
D17*
%TO.P,R3,2*%
%TO.N,-12V*%
X196150000Y-57180000D03*
%TD*%
D16*
%TO.P,C3,1*%
%TO.N,Net-(U2-TC)*%
X106660000Y-56240000D03*
%TO.P,C3,2*%
%TO.N,Net-(D6-A)*%
X101660000Y-56240000D03*
%TD*%
D22*
%TO.P,D7,1,K*%
%TO.N,GND*%
X186725000Y-51600000D03*
%TO.P,D7,2,A*%
%TO.N,Net-(D2-A)*%
X184975000Y-51600000D03*
%TD*%
D10*
%TO.P,H3,1,1*%
%TO.N,GND*%
X74000000Y-45500000D03*
%TD*%
D29*
%TO.P,D6,1,K*%
%TO.N,Net-(D6-K)*%
X91440000Y-56260000D03*
D30*
%TO.P,D6,2,A*%
%TO.N,Net-(D6-A)*%
X99060000Y-56260000D03*
%TD*%
D29*
%TO.P,D5,1,K*%
%TO.N,+12V*%
X51000000Y-45330000D03*
D30*
%TO.P,D5,2,A*%
%TO.N,+5V*%
X61160000Y-45330000D03*
%TD*%
D14*
%TO.P,J1,1,Pin_1*%
%TO.N,-12V*%
X48050000Y-88250000D03*
D15*
%TO.P,J1,2,Pin_2*%
X45510000Y-88250000D03*
%TO.P,J1,3,Pin_3*%
%TO.N,GND*%
X48050000Y-85710000D03*
%TO.P,J1,4,Pin_4*%
X45510000Y-85710000D03*
%TO.P,J1,5,Pin_5*%
X48050000Y-83170000D03*
%TO.P,J1,6,Pin_6*%
X45510000Y-83170000D03*
%TO.P,J1,7,Pin_7*%
X48050000Y-80630000D03*
%TO.P,J1,8,Pin_8*%
X45510000Y-80630000D03*
%TO.P,J1,9,Pin_9*%
%TO.N,+12V*%
X48050000Y-78090000D03*
%TO.P,J1,10,Pin_10*%
X45510000Y-78090000D03*
%TO.P,J1,11,Pin_11*%
%TO.N,+5V*%
X48050000Y-75550000D03*
%TO.P,J1,12,Pin_12*%
X45510000Y-75550000D03*
%TO.P,J1,13,Pin_13*%
%TO.N,CV*%
X48050000Y-73010000D03*
%TO.P,J1,14,Pin_14*%
X45510000Y-73010000D03*
%TO.P,J1,15,Pin_15*%
%TO.N,GATE*%
X48050000Y-70470000D03*
%TO.P,J1,16,Pin_16*%
X45510000Y-70470000D03*
%TD*%
D27*
%TO.P,C9,1*%
%TO.N,+12V*%
X111000000Y-50350000D03*
D16*
%TO.P,C9,2*%
%TO.N,GND*%
X113500000Y-50350000D03*
%TD*%
D10*
%TO.P,H1,1,1*%
%TO.N,GND*%
X55590000Y-95600000D03*
%TD*%
D16*
%TO.P,R4,1*%
%TO.N,Net-(D6-A)*%
X99030000Y-59390000D03*
D17*
%TO.P,R4,2*%
%TO.N,Net-(U2-Vfb)*%
X109190000Y-59390000D03*
%TD*%
D14*
%TO.P,J6,1,Pin_1*%
%TO.N,-12V*%
X192540000Y-88280000D03*
D15*
%TO.P,J6,2,Pin_2*%
X190000000Y-88280000D03*
%TO.P,J6,3,Pin_3*%
%TO.N,GND*%
X192540000Y-85740000D03*
%TO.P,J6,4,Pin_4*%
X190000000Y-85740000D03*
%TO.P,J6,5,Pin_5*%
X192540000Y-83200000D03*
%TO.P,J6,6,Pin_6*%
X190000000Y-83200000D03*
%TO.P,J6,7,Pin_7*%
X192540000Y-80660000D03*
%TO.P,J6,8,Pin_8*%
X190000000Y-80660000D03*
%TO.P,J6,9,Pin_9*%
%TO.N,+12V*%
X192540000Y-78120000D03*
%TO.P,J6,10,Pin_10*%
X190000000Y-78120000D03*
%TO.P,J6,11,Pin_11*%
%TO.N,+5V*%
X192540000Y-75580000D03*
%TO.P,J6,12,Pin_12*%
X190000000Y-75580000D03*
%TO.P,J6,13,Pin_13*%
%TO.N,CV*%
X192540000Y-73040000D03*
%TO.P,J6,14,Pin_14*%
X190000000Y-73040000D03*
%TO.P,J6,15,Pin_15*%
%TO.N,GATE*%
X192540000Y-70500000D03*
%TO.P,J6,16,Pin_16*%
X190000000Y-70500000D03*
%TD*%
D16*
%TO.P,C1,1*%
%TO.N,+12V*%
X45100000Y-49800000D03*
%TO.P,C1,2*%
%TO.N,GND*%
X45100000Y-44800000D03*
%TD*%
D14*
%TO.P,J2,1,Pin_1*%
%TO.N,-12V*%
X72540000Y-88280000D03*
D15*
%TO.P,J2,2,Pin_2*%
X70000000Y-88280000D03*
%TO.P,J2,3,Pin_3*%
%TO.N,GND*%
X72540000Y-85740000D03*
%TO.P,J2,4,Pin_4*%
X70000000Y-85740000D03*
%TO.P,J2,5,Pin_5*%
X72540000Y-83200000D03*
%TO.P,J2,6,Pin_6*%
X70000000Y-83200000D03*
%TO.P,J2,7,Pin_7*%
X72540000Y-80660000D03*
%TO.P,J2,8,Pin_8*%
X70000000Y-80660000D03*
%TO.P,J2,9,Pin_9*%
%TO.N,+12V*%
X72540000Y-78120000D03*
%TO.P,J2,10,Pin_10*%
X70000000Y-78120000D03*
%TO.P,J2,11,Pin_11*%
%TO.N,+5V*%
X72540000Y-75580000D03*
%TO.P,J2,12,Pin_12*%
X70000000Y-75580000D03*
%TO.P,J2,13,Pin_13*%
%TO.N,CV*%
X72540000Y-73040000D03*
%TO.P,J2,14,Pin_14*%
X70000000Y-73040000D03*
%TO.P,J2,15,Pin_15*%
%TO.N,GATE*%
X72540000Y-70500000D03*
%TO.P,J2,16,Pin_16*%
X70000000Y-70500000D03*
%TD*%
D31*
%TO.P,L1,1,1*%
%TO.N,Net-(D6-K)*%
X94160000Y-47770000D03*
%TO.P,L1,2,2*%
%TO.N,GND*%
X89160000Y-47770000D03*
%TD*%
D32*
%TO.N,+12V*%
X167010000Y-69700000D03*
X94100000Y-89300000D03*
%TO.N,+5V*%
X110050000Y-89350000D03*
%TO.N,-12V*%
X102500000Y-90350000D03*
X77825000Y-88280000D03*
D33*
%TO.N,Net-(D6-A)*%
X79700000Y-58600000D03*
%TD*%
D34*
%TO.N,+12V*%
X174260000Y-57140000D02*
X174260000Y-61720000D01*
D35*
X190000000Y-78120000D02*
X192540000Y-78120000D01*
X100000000Y-78120000D02*
X102540000Y-78120000D01*
X119820000Y-45270000D02*
X116080000Y-45270000D01*
X43430000Y-49800000D02*
X41030000Y-52200000D01*
X160000000Y-78120000D02*
X162540000Y-78120000D01*
X119820000Y-45270000D02*
X116100000Y-41550000D01*
X116100000Y-41550000D02*
X54780000Y-41550000D01*
D34*
X174260000Y-61720000D02*
X167010000Y-68970000D01*
D35*
X51420000Y-78080000D02*
X51422651Y-78082651D01*
X130000000Y-78120000D02*
X132540000Y-78120000D01*
X41030000Y-75807349D02*
X43302651Y-78080000D01*
X106695000Y-50355000D02*
X110995000Y-50355000D01*
X51000000Y-45330000D02*
X51000000Y-49800000D01*
X54780000Y-41550000D02*
X51000000Y-45330000D01*
X162540000Y-78120000D02*
X190000000Y-78120000D01*
X70000000Y-78120000D02*
X72540000Y-78120000D01*
X72540000Y-78120000D02*
X100000000Y-78120000D01*
X69962651Y-78082651D02*
X70000000Y-78120000D01*
X43302651Y-78080000D02*
X51420000Y-78080000D01*
X102540000Y-78120000D02*
X111010000Y-78120000D01*
X45100000Y-49800000D02*
X43430000Y-49800000D01*
X111010000Y-78120000D02*
X130000000Y-78120000D01*
D36*
X94100000Y-95220000D02*
X94100000Y-89300000D01*
D35*
X41030000Y-52200000D02*
X41030000Y-75807349D01*
X132540000Y-78120000D02*
X160000000Y-78120000D01*
X45100000Y-49800000D02*
X51000000Y-49800000D01*
X110995000Y-50355000D02*
X111000000Y-50350000D01*
X116080000Y-45270000D02*
X111000000Y-50350000D01*
D34*
X167010000Y-69700000D02*
X167010000Y-68970000D01*
D35*
X41065000Y-59150000D02*
X44100000Y-59150000D01*
X51422651Y-78082651D02*
X69962651Y-78082651D01*
D34*
%TO.N,+5V*%
X191180000Y-67514345D02*
X193689511Y-70023856D01*
D35*
X48080000Y-75580000D02*
X48050000Y-75550000D01*
D36*
X110050000Y-95220000D02*
X110050000Y-89350000D01*
D35*
X130000000Y-75580000D02*
X132540000Y-75580000D01*
X51000000Y-54880000D02*
X51000000Y-59540000D01*
X70000000Y-75580000D02*
X72540000Y-75580000D01*
X51000000Y-54880000D02*
X51610000Y-54880000D01*
X51050000Y-54930000D02*
X51000000Y-54880000D01*
X72540000Y-75580000D02*
X100000000Y-75580000D01*
D34*
X193689511Y-70023856D02*
X193689511Y-74430489D01*
D35*
X42520000Y-68180000D02*
X42520000Y-72560000D01*
X51080000Y-59620000D02*
X42520000Y-68180000D01*
X51610000Y-54880000D02*
X61160000Y-45330000D01*
X162540000Y-75580000D02*
X187660000Y-75580000D01*
X190000000Y-75580000D02*
X192540000Y-75580000D01*
D34*
X193689511Y-74430489D02*
X192540000Y-75580000D01*
D35*
X160000000Y-75580000D02*
X162540000Y-75580000D01*
X102540000Y-75580000D02*
X130000000Y-75580000D01*
X51000000Y-59540000D02*
X51080000Y-59620000D01*
X42520000Y-72560000D02*
X45510000Y-75550000D01*
X48050000Y-75550000D02*
X45510000Y-75550000D01*
X187660000Y-75580000D02*
X190000000Y-75580000D01*
X70000000Y-75580000D02*
X48080000Y-75580000D01*
X132540000Y-75580000D02*
X160000000Y-75580000D01*
X100000000Y-75580000D02*
X102540000Y-75580000D01*
D34*
X191180000Y-57000000D02*
X191180000Y-67514345D01*
D36*
%TO.N,-12V*%
X102500000Y-95220000D02*
X102500000Y-90350000D01*
D35*
X162540000Y-88280000D02*
X190000000Y-88280000D01*
D34*
X196150000Y-84670000D02*
X196150000Y-57180000D01*
D35*
X102540000Y-88280000D02*
X130000000Y-88280000D01*
X190000000Y-88280000D02*
X192540000Y-88280000D01*
X70000000Y-88280000D02*
X48080000Y-88280000D01*
X82600000Y-61250000D02*
X77800000Y-61250000D01*
X100000000Y-88280000D02*
X102540000Y-88280000D01*
X72540000Y-88280000D02*
X77825000Y-88280000D01*
X70000000Y-88280000D02*
X72540000Y-88280000D01*
X82600000Y-63150000D02*
X85600000Y-66150000D01*
D34*
X192540000Y-88280000D02*
X196150000Y-84670000D01*
D35*
X160000000Y-88280000D02*
X162540000Y-88280000D01*
X85600000Y-66150000D02*
X87450000Y-66150000D01*
X48050000Y-88250000D02*
X45510000Y-88250000D01*
X130000000Y-88280000D02*
X132540000Y-88280000D01*
X77825000Y-88280000D02*
X90810000Y-88280000D01*
X132540000Y-88280000D02*
X160000000Y-88280000D01*
X90810000Y-88280000D02*
X100000000Y-88280000D01*
X48080000Y-88280000D02*
X48050000Y-88250000D01*
X82600000Y-61250000D02*
X82600000Y-63150000D01*
D34*
%TO.N,Net-(D1-A)*%
X179235000Y-46980000D02*
X179255000Y-47000000D01*
X174260000Y-46980000D02*
X179235000Y-46980000D01*
X179700000Y-51600000D02*
X179700000Y-47445000D01*
X179700000Y-47445000D02*
X179255000Y-47000000D01*
%TO.N,Net-(D2-A)*%
X184975000Y-47380000D02*
X184595000Y-47000000D01*
X184975000Y-51600000D02*
X184975000Y-47380000D01*
X184975000Y-51600000D02*
X184975000Y-53045000D01*
X184975000Y-53045000D02*
X181020000Y-57000000D01*
%TO.N,CV*%
X190000000Y-73040000D02*
X192540000Y-73040000D01*
X72540000Y-73040000D02*
X100000000Y-73040000D01*
X102540000Y-73040000D02*
X130000000Y-73040000D01*
X70000000Y-73040000D02*
X72540000Y-73040000D01*
X132540000Y-73040000D02*
X160000000Y-73040000D01*
X48080000Y-73040000D02*
X48050000Y-73010000D01*
X100000000Y-73040000D02*
X102540000Y-73040000D01*
X162540000Y-73040000D02*
X190000000Y-73040000D01*
D36*
X48050000Y-73010000D02*
X45510000Y-73010000D01*
D34*
X130000000Y-73040000D02*
X132540000Y-73040000D01*
X70000000Y-73040000D02*
X48080000Y-73040000D01*
X160000000Y-73040000D02*
X162540000Y-73040000D01*
%TO.N,GATE*%
X102540000Y-70500000D02*
X130000000Y-70500000D01*
X72540000Y-70500000D02*
X100000000Y-70500000D01*
X100000000Y-70500000D02*
X102540000Y-70500000D01*
X48080000Y-70500000D02*
X48050000Y-70470000D01*
X162540000Y-70500000D02*
X190000000Y-70500000D01*
X190000000Y-70500000D02*
X192540000Y-70500000D01*
X130000000Y-70500000D02*
X132540000Y-70500000D01*
X160000000Y-70500000D02*
X132540000Y-70500000D01*
X70000000Y-70500000D02*
X72540000Y-70500000D01*
X162540000Y-70500000D02*
X160000000Y-70500000D01*
X48050000Y-70470000D02*
X45510000Y-70470000D01*
X70000000Y-70500000D02*
X48080000Y-70500000D01*
%TO.N,Net-(D3-K)*%
X196130000Y-47000000D02*
X196150000Y-47020000D01*
X192545000Y-47000000D02*
X196130000Y-47000000D01*
X192150000Y-47395000D02*
X192545000Y-47000000D01*
X192150000Y-51600000D02*
X192150000Y-47395000D01*
D35*
%TO.N,Net-(U2-TC)*%
X104960000Y-56240000D02*
X106660000Y-56240000D01*
X99075000Y-50355000D02*
X104960000Y-56240000D01*
%TO.N,Net-(D6-A)*%
X99075000Y-52895000D02*
X99075000Y-56245000D01*
X99030000Y-59390000D02*
X97160000Y-59390000D01*
X95300000Y-61250000D02*
X95300000Y-62900000D01*
X92050000Y-66150000D02*
X90450000Y-66150000D01*
X92650000Y-58600000D02*
X79700000Y-58600000D01*
X95300000Y-61250000D02*
X92650000Y-58600000D01*
X101660000Y-56240000D02*
X99080000Y-56240000D01*
X99060000Y-59360000D02*
X99030000Y-59390000D01*
X97160000Y-59390000D02*
X95300000Y-61250000D01*
X99075000Y-56245000D02*
X99060000Y-56260000D01*
X99060000Y-56260000D02*
X99060000Y-59360000D01*
X95300000Y-62900000D02*
X92050000Y-66150000D01*
X99080000Y-56240000D02*
X99060000Y-56260000D01*
%TO.N,Net-(D6-K)*%
X99030000Y-47770000D02*
X99075000Y-47815000D01*
X91440000Y-56260000D02*
X91440000Y-50490000D01*
X91440000Y-50490000D02*
X94160000Y-47770000D01*
X94160000Y-47770000D02*
X99030000Y-47770000D01*
%TO.N,Net-(U2-Vfb)*%
X106695000Y-52895000D02*
X109190000Y-55390000D01*
X106690000Y-52900000D02*
X106695000Y-52895000D01*
X109190000Y-55390000D02*
X109190000Y-59390000D01*
%TO.N,Net-(U2-DC)*%
X109655000Y-45275000D02*
X109660000Y-45270000D01*
X99075000Y-45275000D02*
X106695000Y-45275000D01*
X106695000Y-45275000D02*
X109655000Y-45275000D01*
X106695000Y-45275000D02*
X106695000Y-47815000D01*
%TD*%
%TA.AperFunction,Conductor*%
%TO.N,GND*%
G36*
X199892121Y-40070002D02*
G01*
X199938614Y-40123658D01*
X199950000Y-40176000D01*
X199950000Y-99824000D01*
X199929998Y-99892121D01*
X199876342Y-99938614D01*
X199824000Y-99950000D01*
X40176000Y-99950000D01*
X40107879Y-99929998D01*
X40061386Y-99876342D01*
X40050000Y-99824000D01*
X40050000Y-95599996D01*
X52277141Y-95599996D01*
X52277141Y-95600003D01*
X52296561Y-95958183D01*
X52354592Y-96312162D01*
X52450559Y-96657801D01*
X52583326Y-96991021D01*
X52583330Y-96991030D01*
X52751350Y-97307952D01*
X52751352Y-97307956D01*
X52952654Y-97604854D01*
X53078167Y-97752621D01*
X54293367Y-96537421D01*
X54369588Y-96642330D01*
X54547670Y-96820412D01*
X54652576Y-96896631D01*
X53434502Y-98114705D01*
X53434502Y-98114706D01*
X53445297Y-98124932D01*
X53445300Y-98124934D01*
X53730849Y-98342005D01*
X53730867Y-98342017D01*
X54038227Y-98526949D01*
X54038234Y-98526953D01*
X54363766Y-98677561D01*
X54363785Y-98677569D01*
X54703706Y-98792101D01*
X54703723Y-98792106D01*
X55054022Y-98869213D01*
X55054050Y-98869218D01*
X55410637Y-98907999D01*
X55410653Y-98908000D01*
X55769347Y-98908000D01*
X55769362Y-98907999D01*
X56125949Y-98869218D01*
X56125977Y-98869213D01*
X56476276Y-98792106D01*
X56476293Y-98792101D01*
X56816214Y-98677569D01*
X56816233Y-98677561D01*
X57141765Y-98526953D01*
X57141772Y-98526949D01*
X57449132Y-98342017D01*
X57449138Y-98342013D01*
X57734701Y-98124932D01*
X57745495Y-98114706D01*
X57745495Y-98114704D01*
X56527422Y-96896631D01*
X56632330Y-96820412D01*
X56810412Y-96642330D01*
X56886631Y-96537422D01*
X58101830Y-97752621D01*
X58101831Y-97752621D01*
X58227340Y-97604862D01*
X58227342Y-97604858D01*
X58428647Y-97307956D01*
X58428649Y-97307952D01*
X58596669Y-96991030D01*
X58596673Y-96991021D01*
X58729440Y-96657801D01*
X58825407Y-96312162D01*
X58883438Y-95958183D01*
X58902859Y-95600003D01*
X58902859Y-95599996D01*
X58883438Y-95241816D01*
X58825407Y-94887837D01*
X58729440Y-94542198D01*
X58596673Y-94208978D01*
X58596669Y-94208969D01*
X58428649Y-93892047D01*
X58428647Y-93892043D01*
X58227348Y-93595150D01*
X58101830Y-93447378D01*
X56886631Y-94662577D01*
X56810412Y-94557670D01*
X56632330Y-94379588D01*
X56527422Y-94303367D01*
X57745496Y-93085293D01*
X57745496Y-93085292D01*
X57734702Y-93075067D01*
X57734699Y-93075065D01*
X57449150Y-92857994D01*
X57449132Y-92857982D01*
X57141772Y-92673050D01*
X57141765Y-92673046D01*
X56816233Y-92522438D01*
X56816214Y-92522430D01*
X56476293Y-92407898D01*
X56476276Y-92407893D01*
X56125977Y-92330786D01*
X56125949Y-92330781D01*
X55769362Y-92292000D01*
X55410637Y-92292000D01*
X55054050Y-92330781D01*
X55054022Y-92330786D01*
X54703723Y-92407893D01*
X54703706Y-92407898D01*
X54363785Y-92522430D01*
X54363766Y-92522438D01*
X54038234Y-92673046D01*
X54038227Y-92673050D01*
X53730867Y-92857982D01*
X53730861Y-92857986D01*
X53445299Y-93075067D01*
X53434502Y-93085293D01*
X54652577Y-94303368D01*
X54547670Y-94379588D01*
X54369588Y-94557670D01*
X54293368Y-94662577D01*
X53078168Y-93447377D01*
X52952654Y-93595145D01*
X52751352Y-93892043D01*
X52751350Y-93892047D01*
X52583330Y-94208969D01*
X52583326Y-94208978D01*
X52450559Y-94542198D01*
X52354592Y-94887837D01*
X52296561Y-95241816D01*
X52277141Y-95599996D01*
X40050000Y-95599996D01*
X40050000Y-76187577D01*
X40070002Y-76119456D01*
X40123658Y-76072963D01*
X40193932Y-76062859D01*
X40258512Y-76092353D01*
X40292409Y-76139360D01*
X40313514Y-76190314D01*
X40313515Y-76190316D01*
X40339225Y-76228793D01*
X40401997Y-76322738D01*
X42787262Y-78708003D01*
X42919683Y-78796484D01*
X42993251Y-78826956D01*
X43066820Y-78857430D01*
X43223021Y-78888500D01*
X44343320Y-78888500D01*
X44411441Y-78908502D01*
X44436021Y-78929162D01*
X44586762Y-79092908D01*
X44625306Y-79122908D01*
X44764424Y-79231189D01*
X44798205Y-79249470D01*
X44848596Y-79299482D01*
X44863949Y-79368799D01*
X44839389Y-79435412D01*
X44798209Y-79471096D01*
X44764704Y-79489228D01*
X44764698Y-79489232D01*
X44587097Y-79627465D01*
X44434674Y-79793041D01*
X44311580Y-79981451D01*
X44221179Y-80187543D01*
X44221176Y-80187550D01*
X44173455Y-80375999D01*
X44173456Y-80376000D01*
X45079297Y-80376000D01*
X45044075Y-80437007D01*
X45010000Y-80564174D01*
X45010000Y-80695826D01*
X45044075Y-80822993D01*
X45079297Y-80884000D01*
X44173455Y-80884000D01*
X44221176Y-81072449D01*
X44221179Y-81072456D01*
X44311580Y-81278548D01*
X44434674Y-81466958D01*
X44587097Y-81632534D01*
X44764698Y-81770767D01*
X44764699Y-81770768D01*
X44798734Y-81789187D01*
X44849123Y-81839201D01*
X44864475Y-81908518D01*
X44839913Y-81975130D01*
X44798734Y-82010813D01*
X44764699Y-82029231D01*
X44764698Y-82029232D01*
X44587097Y-82167465D01*
X44434674Y-82333041D01*
X44311580Y-82521451D01*
X44221179Y-82727543D01*
X44221176Y-82727550D01*
X44173455Y-82915999D01*
X44173456Y-82916000D01*
X45079297Y-82916000D01*
X45044075Y-82977007D01*
X45010000Y-83104174D01*
X45010000Y-83235826D01*
X45044075Y-83362993D01*
X45079297Y-83424000D01*
X44173455Y-83424000D01*
X44221176Y-83612449D01*
X44221179Y-83612456D01*
X44311580Y-83818548D01*
X44434674Y-84006958D01*
X44587097Y-84172534D01*
X44764698Y-84310767D01*
X44764699Y-84310768D01*
X44798734Y-84329187D01*
X44849123Y-84379201D01*
X44864475Y-84448518D01*
X44839913Y-84515130D01*
X44798734Y-84550813D01*
X44764699Y-84569231D01*
X44764698Y-84569232D01*
X44587097Y-84707465D01*
X44434674Y-84873041D01*
X44311580Y-85061451D01*
X44221179Y-85267543D01*
X44221176Y-85267550D01*
X44173455Y-85455999D01*
X44173456Y-85456000D01*
X45079297Y-85456000D01*
X45044075Y-85517007D01*
X45010000Y-85644174D01*
X45010000Y-85775826D01*
X45044075Y-85902993D01*
X45079297Y-85964000D01*
X44173455Y-85964000D01*
X44221176Y-86152449D01*
X44221179Y-86152456D01*
X44311580Y-86358548D01*
X44434674Y-86546958D01*
X44587097Y-86712534D01*
X44764698Y-86850767D01*
X44764704Y-86850771D01*
X44798207Y-86868902D01*
X44848597Y-86918915D01*
X44863949Y-86988232D01*
X44839388Y-87054845D01*
X44798207Y-87090528D01*
X44764430Y-87108807D01*
X44764424Y-87108811D01*
X44586762Y-87247091D01*
X44434279Y-87412729D01*
X44434275Y-87412734D01*
X44311141Y-87601206D01*
X44220703Y-87807386D01*
X44220702Y-87807387D01*
X44165437Y-88025624D01*
X44146844Y-88250000D01*
X44165437Y-88474375D01*
X44220702Y-88692612D01*
X44220703Y-88692613D01*
X44311141Y-88898793D01*
X44434275Y-89087265D01*
X44434279Y-89087270D01*
X44586762Y-89252908D01*
X44625306Y-89282908D01*
X44764424Y-89391189D01*
X44962426Y-89498342D01*
X44962427Y-89498342D01*
X44962428Y-89498343D01*
X45049810Y-89528341D01*
X45175365Y-89571444D01*
X45397431Y-89608500D01*
X45397435Y-89608500D01*
X45622565Y-89608500D01*
X45622569Y-89608500D01*
X45844635Y-89571444D01*
X46057574Y-89498342D01*
X46255576Y-89391189D01*
X46433240Y-89252906D01*
X46494245Y-89186637D01*
X46555096Y-89150067D01*
X46626061Y-89152200D01*
X46684606Y-89192362D01*
X46705000Y-89227941D01*
X46749111Y-89346204D01*
X46749112Y-89346207D01*
X46836738Y-89463261D01*
X46953792Y-89550887D01*
X46953794Y-89550888D01*
X46953796Y-89550889D01*
X47008900Y-89571442D01*
X47090795Y-89601988D01*
X47090803Y-89601990D01*
X47151350Y-89608499D01*
X47151355Y-89608499D01*
X47151362Y-89608500D01*
X47151368Y-89608500D01*
X48948632Y-89608500D01*
X48948638Y-89608500D01*
X48948645Y-89608499D01*
X48948649Y-89608499D01*
X49009196Y-89601990D01*
X49009199Y-89601989D01*
X49009201Y-89601989D01*
X49146204Y-89550889D01*
X49160848Y-89539927D01*
X49263261Y-89463261D01*
X49350887Y-89346207D01*
X49350887Y-89346206D01*
X49350889Y-89346204D01*
X49401989Y-89209201D01*
X49401990Y-89209196D01*
X49402868Y-89201031D01*
X49430038Y-89135438D01*
X49488356Y-89094948D01*
X49528146Y-89088500D01*
X68842526Y-89088500D01*
X68910647Y-89108502D01*
X68935227Y-89129162D01*
X69076762Y-89282908D01*
X69098722Y-89300000D01*
X69254424Y-89421189D01*
X69452426Y-89528342D01*
X69452427Y-89528342D01*
X69452428Y-89528343D01*
X69518097Y-89550887D01*
X69665365Y-89601444D01*
X69887431Y-89638500D01*
X69887435Y-89638500D01*
X70112565Y-89638500D01*
X70112569Y-89638500D01*
X70334635Y-89601444D01*
X70547574Y-89528342D01*
X70745576Y-89421189D01*
X70923240Y-89282906D01*
X70984245Y-89216637D01*
X71045096Y-89180067D01*
X71116061Y-89182200D01*
X71174606Y-89222362D01*
X71195000Y-89257941D01*
X71239111Y-89376204D01*
X71239112Y-89376207D01*
X71326738Y-89493261D01*
X71443792Y-89580887D01*
X71443794Y-89580888D01*
X71443796Y-89580889D01*
X71498900Y-89601442D01*
X71580795Y-89631988D01*
X71580803Y-89631990D01*
X71641350Y-89638499D01*
X71641355Y-89638499D01*
X71641362Y-89638500D01*
X71641368Y-89638500D01*
X73438632Y-89638500D01*
X73438638Y-89638500D01*
X73438645Y-89638499D01*
X73438649Y-89638499D01*
X73499196Y-89631990D01*
X73499199Y-89631989D01*
X73499201Y-89631989D01*
X73636204Y-89580889D01*
X73690922Y-89539928D01*
X73753261Y-89493261D01*
X73840887Y-89376207D01*
X73840887Y-89376206D01*
X73840889Y-89376204D01*
X73891989Y-89239201D01*
X73893229Y-89227670D01*
X73896093Y-89201032D01*
X73923262Y-89135439D01*
X73981580Y-89094948D01*
X74021371Y-89088500D01*
X77380506Y-89088500D01*
X77431755Y-89099393D01*
X77542712Y-89148794D01*
X77729513Y-89188500D01*
X77920487Y-89188500D01*
X78107288Y-89148794D01*
X78218245Y-89099393D01*
X78269494Y-89088500D01*
X90730370Y-89088500D01*
X93068788Y-89088500D01*
X93136909Y-89108502D01*
X93183402Y-89162158D01*
X93194098Y-89227670D01*
X93186496Y-89299999D01*
X93206457Y-89489927D01*
X93232944Y-89571442D01*
X93265473Y-89671556D01*
X93360960Y-89836944D01*
X93434137Y-89918215D01*
X93464853Y-89982220D01*
X93466500Y-90002524D01*
X93466500Y-93768434D01*
X93446498Y-93836555D01*
X93406335Y-93875866D01*
X93210591Y-93995818D01*
X93210580Y-93995826D01*
X93030030Y-94150030D01*
X92875826Y-94330580D01*
X92875825Y-94330582D01*
X92751759Y-94533038D01*
X92660894Y-94752407D01*
X92605465Y-94983289D01*
X92586835Y-95220000D01*
X92605465Y-95456710D01*
X92660894Y-95687592D01*
X92724604Y-95841401D01*
X92751760Y-95906963D01*
X92817742Y-96014636D01*
X92875825Y-96109417D01*
X92875826Y-96109419D01*
X93030030Y-96289969D01*
X93132639Y-96377605D01*
X93210584Y-96444176D01*
X93413037Y-96568240D01*
X93632406Y-96659105D01*
X93863289Y-96714535D01*
X94100000Y-96733165D01*
X94336711Y-96714535D01*
X94567594Y-96659105D01*
X94786963Y-96568240D01*
X94989416Y-96444176D01*
X95169969Y-96289969D01*
X95324176Y-96109416D01*
X95448240Y-95906963D01*
X95539105Y-95687594D01*
X95594535Y-95456711D01*
X95613165Y-95220000D01*
X95594535Y-94983289D01*
X95539105Y-94752406D01*
X95448240Y-94533037D01*
X95324176Y-94330584D01*
X95324173Y-94330580D01*
X95169969Y-94150030D01*
X94989419Y-93995826D01*
X94989408Y-93995818D01*
X94793665Y-93875866D01*
X94746034Y-93823219D01*
X94733500Y-93768434D01*
X94733500Y-90002524D01*
X94753502Y-89934403D01*
X94765858Y-89918220D01*
X94839040Y-89836944D01*
X94934527Y-89671556D01*
X94993542Y-89489928D01*
X95013504Y-89300000D01*
X95005902Y-89227670D01*
X95018674Y-89157832D01*
X95067177Y-89105985D01*
X95131212Y-89088500D01*
X98842526Y-89088500D01*
X98910647Y-89108502D01*
X98935227Y-89129162D01*
X99076762Y-89282908D01*
X99098722Y-89300000D01*
X99254424Y-89421189D01*
X99452426Y-89528342D01*
X99452427Y-89528342D01*
X99452428Y-89528343D01*
X99518097Y-89550887D01*
X99665365Y-89601444D01*
X99887431Y-89638500D01*
X99887435Y-89638500D01*
X100112565Y-89638500D01*
X100112569Y-89638500D01*
X100334635Y-89601444D01*
X100547574Y-89528342D01*
X100745576Y-89421189D01*
X100923240Y-89282906D01*
X100984245Y-89216637D01*
X101045096Y-89180067D01*
X101116061Y-89182200D01*
X101174606Y-89222362D01*
X101195000Y-89257941D01*
X101239111Y-89376204D01*
X101239112Y-89376207D01*
X101326738Y-89493261D01*
X101443792Y-89580887D01*
X101443794Y-89580888D01*
X101443796Y-89580889D01*
X101498900Y-89601442D01*
X101580795Y-89631988D01*
X101580803Y-89631990D01*
X101641350Y-89638499D01*
X101641355Y-89638499D01*
X101641362Y-89638500D01*
X101643502Y-89638500D01*
X101643978Y-89638639D01*
X101644728Y-89638680D01*
X101644718Y-89638857D01*
X101711623Y-89658502D01*
X101758116Y-89712158D01*
X101768220Y-89782432D01*
X101752621Y-89827500D01*
X101665476Y-89978438D01*
X101665473Y-89978445D01*
X101606457Y-90160072D01*
X101586496Y-90350000D01*
X101606457Y-90539927D01*
X101636526Y-90632470D01*
X101665473Y-90721556D01*
X101760960Y-90886944D01*
X101834137Y-90968215D01*
X101864853Y-91032220D01*
X101866500Y-91052524D01*
X101866500Y-93768434D01*
X101846498Y-93836555D01*
X101806335Y-93875866D01*
X101610591Y-93995818D01*
X101610580Y-93995826D01*
X101430030Y-94150030D01*
X101275826Y-94330580D01*
X101275825Y-94330582D01*
X101151759Y-94533038D01*
X101060894Y-94752407D01*
X101005465Y-94983289D01*
X100986835Y-95220000D01*
X101005465Y-95456710D01*
X101060894Y-95687592D01*
X101124604Y-95841401D01*
X101151760Y-95906963D01*
X101217742Y-96014636D01*
X101275825Y-96109417D01*
X101275826Y-96109419D01*
X101430030Y-96289969D01*
X101532639Y-96377605D01*
X101610584Y-96444176D01*
X101813037Y-96568240D01*
X102032406Y-96659105D01*
X102263289Y-96714535D01*
X102500000Y-96733165D01*
X102736711Y-96714535D01*
X102967594Y-96659105D01*
X103186963Y-96568240D01*
X103389416Y-96444176D01*
X103569969Y-96289969D01*
X103724176Y-96109416D01*
X103848240Y-95906963D01*
X103939105Y-95687594D01*
X103994535Y-95456711D01*
X104013165Y-95220000D01*
X103994535Y-94983289D01*
X103939105Y-94752406D01*
X103848240Y-94533037D01*
X103724176Y-94330584D01*
X103724173Y-94330580D01*
X103569969Y-94150030D01*
X103389419Y-93995826D01*
X103389408Y-93995818D01*
X103193665Y-93875866D01*
X103146034Y-93823219D01*
X103133500Y-93768434D01*
X103133500Y-91052524D01*
X103153502Y-90984403D01*
X103165858Y-90968220D01*
X103239040Y-90886944D01*
X103334527Y-90721556D01*
X103393542Y-90539928D01*
X103413504Y-90350000D01*
X103393542Y-90160072D01*
X103334527Y-89978444D01*
X103247378Y-89827499D01*
X103230641Y-89758505D01*
X103253861Y-89691413D01*
X103309668Y-89647526D01*
X103356498Y-89638500D01*
X103438632Y-89638500D01*
X103438638Y-89638500D01*
X103438645Y-89638499D01*
X103438649Y-89638499D01*
X103499196Y-89631990D01*
X103499199Y-89631989D01*
X103499201Y-89631989D01*
X103636204Y-89580889D01*
X103690922Y-89539928D01*
X103753261Y-89493261D01*
X103840887Y-89376207D01*
X103840887Y-89376206D01*
X103840889Y-89376204D01*
X103891989Y-89239201D01*
X103893229Y-89227670D01*
X103896093Y-89201032D01*
X103923262Y-89135439D01*
X103981580Y-89094948D01*
X104021371Y-89088500D01*
X109024043Y-89088500D01*
X109092164Y-89108502D01*
X109138657Y-89162158D01*
X109149353Y-89227670D01*
X109136496Y-89349999D01*
X109156457Y-89539927D01*
X109186370Y-89631988D01*
X109215473Y-89721556D01*
X109310960Y-89886944D01*
X109384137Y-89968215D01*
X109414853Y-90032220D01*
X109416500Y-90052524D01*
X109416500Y-93768434D01*
X109396498Y-93836555D01*
X109356335Y-93875866D01*
X109160591Y-93995818D01*
X109160580Y-93995826D01*
X108980030Y-94150030D01*
X108825826Y-94330580D01*
X108825825Y-94330582D01*
X108701759Y-94533038D01*
X108610894Y-94752407D01*
X108555465Y-94983289D01*
X108536835Y-95220000D01*
X108555465Y-95456710D01*
X108610894Y-95687592D01*
X108674604Y-95841401D01*
X108701760Y-95906963D01*
X108767742Y-96014636D01*
X108825825Y-96109417D01*
X108825826Y-96109419D01*
X108980030Y-96289969D01*
X109082639Y-96377605D01*
X109160584Y-96444176D01*
X109363037Y-96568240D01*
X109582406Y-96659105D01*
X109813289Y-96714535D01*
X110050000Y-96733165D01*
X110286711Y-96714535D01*
X110517594Y-96659105D01*
X110736963Y-96568240D01*
X110939416Y-96444176D01*
X111119969Y-96289969D01*
X111274176Y-96109416D01*
X111398240Y-95906963D01*
X111489105Y-95687594D01*
X111544535Y-95456711D01*
X111563165Y-95220000D01*
X119137126Y-95220000D01*
X119156596Y-95492233D01*
X119214608Y-95758910D01*
X119214608Y-95758911D01*
X119309988Y-96014636D01*
X119440785Y-96254173D01*
X119533184Y-96377605D01*
X120332496Y-95578293D01*
X120341049Y-95598942D01*
X120428599Y-95729970D01*
X120540030Y-95841401D01*
X120671058Y-95928951D01*
X120691705Y-95937503D01*
X119892393Y-96736814D01*
X120015822Y-96829211D01*
X120255364Y-96960011D01*
X120255363Y-96960011D01*
X120511088Y-97055391D01*
X120777767Y-97113403D01*
X120777765Y-97113403D01*
X121050000Y-97132873D01*
X121322233Y-97113403D01*
X121588910Y-97055391D01*
X121588911Y-97055391D01*
X121844636Y-96960011D01*
X122084177Y-96829212D01*
X122207605Y-96736814D01*
X121408294Y-95937503D01*
X121428942Y-95928951D01*
X121559970Y-95841401D01*
X121671401Y-95729970D01*
X121758951Y-95598942D01*
X121767503Y-95578294D01*
X122566814Y-96377605D01*
X122659212Y-96254177D01*
X122790011Y-96014636D01*
X122885391Y-95758911D01*
X122885391Y-95758910D01*
X122919961Y-95599996D01*
X177447141Y-95599996D01*
X177447141Y-95600003D01*
X177466561Y-95958183D01*
X177524592Y-96312162D01*
X177620559Y-96657801D01*
X177753326Y-96991021D01*
X177753330Y-96991030D01*
X177921350Y-97307952D01*
X177921352Y-97307956D01*
X178122654Y-97604854D01*
X178248167Y-97752621D01*
X179463367Y-96537421D01*
X179539588Y-96642330D01*
X179717670Y-96820412D01*
X179822576Y-96896631D01*
X178604502Y-98114705D01*
X178604502Y-98114706D01*
X178615297Y-98124932D01*
X178615300Y-98124934D01*
X178900849Y-98342005D01*
X178900867Y-98342017D01*
X179208227Y-98526949D01*
X179208234Y-98526953D01*
X179533766Y-98677561D01*
X179533785Y-98677569D01*
X179873706Y-98792101D01*
X179873723Y-98792106D01*
X180224022Y-98869213D01*
X180224050Y-98869218D01*
X180580637Y-98907999D01*
X180580653Y-98908000D01*
X180939347Y-98908000D01*
X180939362Y-98907999D01*
X181295949Y-98869218D01*
X181295977Y-98869213D01*
X181646276Y-98792106D01*
X181646293Y-98792101D01*
X181986214Y-98677569D01*
X181986233Y-98677561D01*
X182311765Y-98526953D01*
X182311772Y-98526949D01*
X182619132Y-98342017D01*
X182619138Y-98342013D01*
X182904701Y-98124932D01*
X182915495Y-98114706D01*
X182915495Y-98114704D01*
X181697422Y-96896631D01*
X181802330Y-96820412D01*
X181980412Y-96642330D01*
X182056631Y-96537422D01*
X183271830Y-97752621D01*
X183271831Y-97752621D01*
X183397340Y-97604862D01*
X183397342Y-97604858D01*
X183598647Y-97307956D01*
X183598649Y-97307952D01*
X183766669Y-96991030D01*
X183766673Y-96991021D01*
X183899440Y-96657801D01*
X183995407Y-96312162D01*
X184053438Y-95958183D01*
X184072859Y-95600003D01*
X184072859Y-95599996D01*
X184053438Y-95241816D01*
X183995407Y-94887837D01*
X183899440Y-94542198D01*
X183766673Y-94208978D01*
X183766669Y-94208969D01*
X183598649Y-93892047D01*
X183598647Y-93892043D01*
X183397348Y-93595150D01*
X183271830Y-93447378D01*
X182056631Y-94662577D01*
X181980412Y-94557670D01*
X181802330Y-94379588D01*
X181697422Y-94303367D01*
X182915496Y-93085293D01*
X182915496Y-93085292D01*
X182904702Y-93075067D01*
X182904699Y-93075065D01*
X182619150Y-92857994D01*
X182619132Y-92857982D01*
X182311772Y-92673050D01*
X182311765Y-92673046D01*
X181986233Y-92522438D01*
X181986214Y-92522430D01*
X181646293Y-92407898D01*
X181646276Y-92407893D01*
X181295977Y-92330786D01*
X181295949Y-92330781D01*
X180939362Y-92292000D01*
X180580637Y-92292000D01*
X180224050Y-92330781D01*
X180224022Y-92330786D01*
X179873723Y-92407893D01*
X179873706Y-92407898D01*
X179533785Y-92522430D01*
X179533766Y-92522438D01*
X179208234Y-92673046D01*
X179208227Y-92673050D01*
X178900867Y-92857982D01*
X178900861Y-92857986D01*
X178615299Y-93075067D01*
X178604502Y-93085293D01*
X179822577Y-94303368D01*
X179717670Y-94379588D01*
X179539588Y-94557670D01*
X179463368Y-94662577D01*
X178248168Y-93447377D01*
X178122654Y-93595145D01*
X177921352Y-93892043D01*
X177921350Y-93892047D01*
X177753330Y-94208969D01*
X177753326Y-94208978D01*
X177620559Y-94542198D01*
X177524592Y-94887837D01*
X177466561Y-95241816D01*
X177447141Y-95599996D01*
X122919961Y-95599996D01*
X122943403Y-95492233D01*
X122962873Y-95220000D01*
X122943403Y-94947766D01*
X122885391Y-94681089D01*
X122885391Y-94681088D01*
X122790011Y-94425363D01*
X122659211Y-94185822D01*
X122566814Y-94062394D01*
X122566814Y-94062393D01*
X121767503Y-94861704D01*
X121758951Y-94841058D01*
X121671401Y-94710030D01*
X121559970Y-94598599D01*
X121428942Y-94511049D01*
X121408294Y-94502496D01*
X122207605Y-93703184D01*
X122084173Y-93610785D01*
X121844635Y-93479988D01*
X121844636Y-93479988D01*
X121588911Y-93384608D01*
X121322232Y-93326596D01*
X121322234Y-93326596D01*
X121050000Y-93307126D01*
X120777766Y-93326596D01*
X120511089Y-93384608D01*
X120511088Y-93384608D01*
X120255363Y-93479988D01*
X120015823Y-93610787D01*
X119892394Y-93703183D01*
X119892393Y-93703184D01*
X120691705Y-94502496D01*
X120671058Y-94511049D01*
X120540030Y-94598599D01*
X120428599Y-94710030D01*
X120341049Y-94841058D01*
X120332496Y-94861705D01*
X119533184Y-94062393D01*
X119533183Y-94062394D01*
X119440787Y-94185823D01*
X119309988Y-94425363D01*
X119214608Y-94681088D01*
X119214608Y-94681089D01*
X119156596Y-94947766D01*
X119137126Y-95220000D01*
X111563165Y-95220000D01*
X111544535Y-94983289D01*
X111489105Y-94752406D01*
X111398240Y-94533037D01*
X111274176Y-94330584D01*
X111274173Y-94330580D01*
X111119969Y-94150030D01*
X110939419Y-93995826D01*
X110939408Y-93995818D01*
X110743665Y-93875866D01*
X110696034Y-93823219D01*
X110683500Y-93768434D01*
X110683500Y-90052524D01*
X110703502Y-89984403D01*
X110715858Y-89968220D01*
X110789040Y-89886944D01*
X110884527Y-89721556D01*
X110943542Y-89539928D01*
X110963504Y-89350000D01*
X110950647Y-89227670D01*
X110963419Y-89157832D01*
X111011922Y-89105985D01*
X111075957Y-89088500D01*
X128842526Y-89088500D01*
X128910647Y-89108502D01*
X128935227Y-89129162D01*
X129076762Y-89282908D01*
X129098722Y-89300000D01*
X129254424Y-89421189D01*
X129452426Y-89528342D01*
X129452427Y-89528342D01*
X129452428Y-89528343D01*
X129518097Y-89550887D01*
X129665365Y-89601444D01*
X129887431Y-89638500D01*
X129887435Y-89638500D01*
X130112565Y-89638500D01*
X130112569Y-89638500D01*
X130334635Y-89601444D01*
X130547574Y-89528342D01*
X130745576Y-89421189D01*
X130923240Y-89282906D01*
X130984245Y-89216637D01*
X131045096Y-89180067D01*
X131116061Y-89182200D01*
X131174606Y-89222362D01*
X131195000Y-89257941D01*
X131239111Y-89376204D01*
X131239112Y-89376207D01*
X131326738Y-89493261D01*
X131443792Y-89580887D01*
X131443794Y-89580888D01*
X131443796Y-89580889D01*
X131498900Y-89601442D01*
X131580795Y-89631988D01*
X131580803Y-89631990D01*
X131641350Y-89638499D01*
X131641355Y-89638499D01*
X131641362Y-89638500D01*
X131641368Y-89638500D01*
X133438632Y-89638500D01*
X133438638Y-89638500D01*
X133438645Y-89638499D01*
X133438649Y-89638499D01*
X133499196Y-89631990D01*
X133499199Y-89631989D01*
X133499201Y-89631989D01*
X133636204Y-89580889D01*
X133690922Y-89539928D01*
X133753261Y-89493261D01*
X133840887Y-89376207D01*
X133840887Y-89376206D01*
X133840889Y-89376204D01*
X133891989Y-89239201D01*
X133893229Y-89227670D01*
X133896093Y-89201032D01*
X133923262Y-89135439D01*
X133981580Y-89094948D01*
X134021371Y-89088500D01*
X158842526Y-89088500D01*
X158910647Y-89108502D01*
X158935227Y-89129162D01*
X159076762Y-89282908D01*
X159098722Y-89300000D01*
X159254424Y-89421189D01*
X159452426Y-89528342D01*
X159452427Y-89528342D01*
X159452428Y-89528343D01*
X159518097Y-89550887D01*
X159665365Y-89601444D01*
X159887431Y-89638500D01*
X159887435Y-89638500D01*
X160112565Y-89638500D01*
X160112569Y-89638500D01*
X160334635Y-89601444D01*
X160547574Y-89528342D01*
X160745576Y-89421189D01*
X160923240Y-89282906D01*
X160984245Y-89216637D01*
X161045096Y-89180067D01*
X161116061Y-89182200D01*
X161174606Y-89222362D01*
X161195000Y-89257941D01*
X161239111Y-89376204D01*
X161239112Y-89376207D01*
X161326738Y-89493261D01*
X161443792Y-89580887D01*
X161443794Y-89580888D01*
X161443796Y-89580889D01*
X161498900Y-89601442D01*
X161580795Y-89631988D01*
X161580803Y-89631990D01*
X161641350Y-89638499D01*
X161641355Y-89638499D01*
X161641362Y-89638500D01*
X161641368Y-89638500D01*
X163438632Y-89638500D01*
X163438638Y-89638500D01*
X163438645Y-89638499D01*
X163438649Y-89638499D01*
X163499196Y-89631990D01*
X163499199Y-89631989D01*
X163499201Y-89631989D01*
X163636204Y-89580889D01*
X163690922Y-89539928D01*
X163753261Y-89493261D01*
X163840887Y-89376207D01*
X163840887Y-89376206D01*
X163840889Y-89376204D01*
X163891989Y-89239201D01*
X163893229Y-89227670D01*
X163896093Y-89201032D01*
X163923262Y-89135439D01*
X163981580Y-89094948D01*
X164021371Y-89088500D01*
X188842526Y-89088500D01*
X188910647Y-89108502D01*
X188935227Y-89129162D01*
X189076762Y-89282908D01*
X189098722Y-89300000D01*
X189254424Y-89421189D01*
X189452426Y-89528342D01*
X189452427Y-89528342D01*
X189452428Y-89528343D01*
X189518097Y-89550887D01*
X189665365Y-89601444D01*
X189887431Y-89638500D01*
X189887435Y-89638500D01*
X190112565Y-89638500D01*
X190112569Y-89638500D01*
X190334635Y-89601444D01*
X190547574Y-89528342D01*
X190745576Y-89421189D01*
X190923240Y-89282906D01*
X190984245Y-89216637D01*
X191045096Y-89180067D01*
X191116061Y-89182200D01*
X191174606Y-89222362D01*
X191195000Y-89257941D01*
X191239111Y-89376204D01*
X191239112Y-89376207D01*
X191326738Y-89493261D01*
X191443792Y-89580887D01*
X191443794Y-89580888D01*
X191443796Y-89580889D01*
X191498900Y-89601442D01*
X191580795Y-89631988D01*
X191580803Y-89631990D01*
X191641350Y-89638499D01*
X191641355Y-89638499D01*
X191641362Y-89638500D01*
X191641368Y-89638500D01*
X193438632Y-89638500D01*
X193438638Y-89638500D01*
X193438645Y-89638499D01*
X193438649Y-89638499D01*
X193499196Y-89631990D01*
X193499199Y-89631989D01*
X193499201Y-89631989D01*
X193636204Y-89580889D01*
X193690922Y-89539928D01*
X193753261Y-89493261D01*
X193840887Y-89376207D01*
X193840887Y-89376206D01*
X193840889Y-89376204D01*
X193891989Y-89239201D01*
X193893800Y-89222362D01*
X193898499Y-89178649D01*
X193898500Y-89178632D01*
X193898500Y-87834239D01*
X193918502Y-87766118D01*
X193935405Y-87745144D01*
X196636916Y-85043633D01*
X196636922Y-85043627D01*
X196717032Y-84904873D01*
X196758500Y-84750110D01*
X196758500Y-84589890D01*
X196758500Y-58416899D01*
X196778502Y-58348778D01*
X196812229Y-58313686D01*
X196863875Y-58277523D01*
X196994300Y-58186198D01*
X197156198Y-58024300D01*
X197287523Y-57836749D01*
X197384284Y-57629243D01*
X197443543Y-57408087D01*
X197463498Y-57180000D01*
X197443543Y-56951913D01*
X197384284Y-56730757D01*
X197287523Y-56523251D01*
X197156198Y-56335700D01*
X196994300Y-56173802D01*
X196968443Y-56155697D01*
X196806749Y-56042477D01*
X196599246Y-55945717D01*
X196599240Y-55945715D01*
X196468898Y-55910790D01*
X196378087Y-55886457D01*
X196150000Y-55866502D01*
X195921913Y-55886457D01*
X195700759Y-55945715D01*
X195700753Y-55945717D01*
X195493250Y-56042477D01*
X195305703Y-56173799D01*
X195305697Y-56173804D01*
X195143804Y-56335697D01*
X195143799Y-56335703D01*
X195012477Y-56523250D01*
X194915717Y-56730753D01*
X194915715Y-56730759D01*
X194865810Y-56917007D01*
X194856457Y-56951913D01*
X194836502Y-57180000D01*
X194856457Y-57408087D01*
X194874194Y-57474282D01*
X194915715Y-57629240D01*
X194915717Y-57629246D01*
X195012477Y-57836749D01*
X195123940Y-57995935D01*
X195143802Y-58024300D01*
X195305700Y-58186198D01*
X195349728Y-58217027D01*
X195487771Y-58313686D01*
X195532099Y-58369143D01*
X195541500Y-58416899D01*
X195541500Y-84365760D01*
X195521498Y-84433881D01*
X195504595Y-84454855D01*
X194002355Y-85957095D01*
X193940043Y-85991121D01*
X193913260Y-85994000D01*
X192970703Y-85994000D01*
X193005925Y-85932993D01*
X193040000Y-85805826D01*
X193040000Y-85674174D01*
X193005925Y-85547007D01*
X192970703Y-85486000D01*
X193876544Y-85486000D01*
X193876544Y-85485999D01*
X193828823Y-85297550D01*
X193828820Y-85297543D01*
X193738419Y-85091451D01*
X193615325Y-84903041D01*
X193462902Y-84737465D01*
X193285301Y-84599232D01*
X193285300Y-84599231D01*
X193251267Y-84580814D01*
X193200876Y-84530801D01*
X193185524Y-84461484D01*
X193210085Y-84394871D01*
X193251267Y-84359186D01*
X193285300Y-84340768D01*
X193285301Y-84340767D01*
X193462902Y-84202534D01*
X193615325Y-84036958D01*
X193738419Y-83848548D01*
X193828820Y-83642456D01*
X193828823Y-83642449D01*
X193876544Y-83454000D01*
X192970703Y-83454000D01*
X193005925Y-83392993D01*
X193040000Y-83265826D01*
X193040000Y-83134174D01*
X193005925Y-83007007D01*
X192970703Y-82946000D01*
X193876544Y-82946000D01*
X193876544Y-82945999D01*
X193828823Y-82757550D01*
X193828820Y-82757543D01*
X193738419Y-82551451D01*
X193615325Y-82363041D01*
X193462902Y-82197465D01*
X193285301Y-82059232D01*
X193285300Y-82059231D01*
X193251267Y-82040814D01*
X193200876Y-81990801D01*
X193185524Y-81921484D01*
X193210085Y-81854871D01*
X193251267Y-81819186D01*
X193285300Y-81800768D01*
X193285301Y-81800767D01*
X193462902Y-81662534D01*
X193615325Y-81496958D01*
X193738419Y-81308548D01*
X193828820Y-81102456D01*
X193828823Y-81102449D01*
X193876544Y-80914000D01*
X192970703Y-80914000D01*
X193005925Y-80852993D01*
X193040000Y-80725826D01*
X193040000Y-80594174D01*
X193005925Y-80467007D01*
X192970703Y-80406000D01*
X193876544Y-80406000D01*
X193876544Y-80405999D01*
X193828823Y-80217550D01*
X193828820Y-80217543D01*
X193738419Y-80011451D01*
X193615325Y-79823041D01*
X193462902Y-79657465D01*
X193285301Y-79519232D01*
X193285300Y-79519231D01*
X193251791Y-79501097D01*
X193201401Y-79451083D01*
X193186050Y-79381766D01*
X193210612Y-79315153D01*
X193251790Y-79279472D01*
X193285576Y-79261189D01*
X193463240Y-79122906D01*
X193615722Y-78957268D01*
X193738860Y-78768791D01*
X193829296Y-78562616D01*
X193884564Y-78344368D01*
X193903156Y-78120000D01*
X193884564Y-77895632D01*
X193829296Y-77677384D01*
X193738860Y-77471209D01*
X193732140Y-77460924D01*
X193615724Y-77282734D01*
X193615720Y-77282729D01*
X193463237Y-77117091D01*
X193381382Y-77053381D01*
X193285576Y-76978811D01*
X193252319Y-76960813D01*
X193201929Y-76910802D01*
X193186576Y-76841485D01*
X193211136Y-76774872D01*
X193252320Y-76739186D01*
X193285576Y-76721189D01*
X193463240Y-76582906D01*
X193615722Y-76417268D01*
X193738860Y-76228791D01*
X193829296Y-76022616D01*
X193884564Y-75804368D01*
X193903156Y-75580000D01*
X193884564Y-75355632D01*
X193849673Y-75217850D01*
X193852340Y-75146904D01*
X193882720Y-75097826D01*
X194052762Y-74927784D01*
X194052772Y-74927777D01*
X194176426Y-74804123D01*
X194176432Y-74804117D01*
X194244466Y-74686279D01*
X194256543Y-74665362D01*
X194298011Y-74510599D01*
X194298011Y-74350379D01*
X194298011Y-69943745D01*
X194256543Y-69788984D01*
X194205168Y-69700000D01*
X194176434Y-69650231D01*
X194176430Y-69650226D01*
X194158933Y-69632729D01*
X194063139Y-69536935D01*
X191825405Y-67299201D01*
X191791379Y-67236889D01*
X191788500Y-67210106D01*
X191788500Y-58236899D01*
X191808502Y-58168778D01*
X191842229Y-58133686D01*
X191900731Y-58092722D01*
X192024300Y-58006198D01*
X192186198Y-57844300D01*
X192317523Y-57656749D01*
X192414284Y-57449243D01*
X192473543Y-57228087D01*
X192493498Y-57000000D01*
X192473543Y-56771913D01*
X192414284Y-56550757D01*
X192317523Y-56343251D01*
X192186198Y-56155700D01*
X192024300Y-55993802D01*
X191836749Y-55862477D01*
X191770919Y-55831780D01*
X191629246Y-55765717D01*
X191629240Y-55765715D01*
X191535771Y-55740670D01*
X191408087Y-55706457D01*
X191180000Y-55686502D01*
X190951913Y-55706457D01*
X190730759Y-55765715D01*
X190730753Y-55765717D01*
X190523250Y-55862477D01*
X190335703Y-55993799D01*
X190335697Y-55993804D01*
X190173804Y-56155697D01*
X190173799Y-56155703D01*
X190042477Y-56343250D01*
X189945717Y-56550753D01*
X189945715Y-56550759D01*
X189900571Y-56719240D01*
X189886457Y-56771913D01*
X189866502Y-57000000D01*
X189886457Y-57228087D01*
X189904672Y-57296067D01*
X189945715Y-57449240D01*
X189945717Y-57449246D01*
X190042477Y-57656749D01*
X190172896Y-57843007D01*
X190173802Y-57844300D01*
X190335700Y-58006198D01*
X190335703Y-58006200D01*
X190517771Y-58133686D01*
X190562099Y-58189143D01*
X190571500Y-58236899D01*
X190571500Y-67434235D01*
X190571500Y-67594455D01*
X190612968Y-67749218D01*
X190612969Y-67749220D01*
X190612970Y-67749222D01*
X190693075Y-67887968D01*
X190693083Y-67887978D01*
X191914687Y-69109581D01*
X191948712Y-69171893D01*
X191943648Y-69242708D01*
X191901101Y-69299544D01*
X191885564Y-69309488D01*
X191815717Y-69347287D01*
X191794422Y-69358812D01*
X191616762Y-69497091D01*
X191464279Y-69662729D01*
X191464275Y-69662734D01*
X191375483Y-69798643D01*
X191321480Y-69844732D01*
X191251132Y-69854307D01*
X191186774Y-69824330D01*
X191164517Y-69798643D01*
X191075724Y-69662734D01*
X191075720Y-69662729D01*
X190923237Y-69497091D01*
X190841382Y-69433381D01*
X190745576Y-69358811D01*
X190547574Y-69251658D01*
X190547572Y-69251657D01*
X190547571Y-69251656D01*
X190334639Y-69178557D01*
X190334630Y-69178555D01*
X190290476Y-69171187D01*
X190112569Y-69141500D01*
X189887431Y-69141500D01*
X189739211Y-69166233D01*
X189665369Y-69178555D01*
X189665360Y-69178557D01*
X189452428Y-69251656D01*
X189452426Y-69251658D01*
X189310538Y-69328444D01*
X189254426Y-69358810D01*
X189254424Y-69358811D01*
X189076762Y-69497091D01*
X188924279Y-69662729D01*
X188924275Y-69662734D01*
X188812112Y-69834415D01*
X188758109Y-69880504D01*
X188706629Y-69891500D01*
X168043314Y-69891500D01*
X167975193Y-69871498D01*
X167928700Y-69817842D01*
X167918004Y-69752330D01*
X167918211Y-69750352D01*
X167923504Y-69700000D01*
X167903542Y-69510072D01*
X167844527Y-69328444D01*
X167810006Y-69268652D01*
X167771193Y-69201425D01*
X167754455Y-69132429D01*
X167777676Y-69065338D01*
X167791211Y-69049336D01*
X174746921Y-62093628D01*
X174827032Y-61954873D01*
X174868500Y-61800110D01*
X174868500Y-61639890D01*
X174868500Y-58376899D01*
X174888502Y-58308778D01*
X174922229Y-58273686D01*
X174960362Y-58246985D01*
X175104300Y-58146198D01*
X175266198Y-57984300D01*
X175397523Y-57796749D01*
X175494284Y-57589243D01*
X175553543Y-57368087D01*
X175573498Y-57140000D01*
X175553543Y-56911913D01*
X175494284Y-56690757D01*
X175397523Y-56483251D01*
X175266198Y-56295700D01*
X175104300Y-56133802D01*
X175078313Y-56115606D01*
X174916749Y-56002477D01*
X174709246Y-55905717D01*
X174709240Y-55905715D01*
X174575950Y-55870000D01*
X174488087Y-55846457D01*
X174260000Y-55826502D01*
X174031913Y-55846457D01*
X173810759Y-55905715D01*
X173810753Y-55905717D01*
X173603250Y-56002477D01*
X173415703Y-56133799D01*
X173415697Y-56133804D01*
X173253804Y-56295697D01*
X173253799Y-56295703D01*
X173122477Y-56483250D01*
X173025717Y-56690753D01*
X173025715Y-56690759D01*
X172978223Y-56868003D01*
X172966457Y-56911913D01*
X172946502Y-57140000D01*
X172966457Y-57368087D01*
X172977175Y-57408086D01*
X173025715Y-57589240D01*
X173025717Y-57589246D01*
X173122477Y-57796749D01*
X173140558Y-57822572D01*
X173253802Y-57984300D01*
X173415700Y-58146198D01*
X173472826Y-58186198D01*
X173597771Y-58273686D01*
X173642099Y-58329143D01*
X173651500Y-58376899D01*
X173651500Y-61415760D01*
X173631498Y-61483881D01*
X173614595Y-61504855D01*
X166523083Y-68596366D01*
X166523075Y-68596376D01*
X166442967Y-68735127D01*
X166442968Y-68735128D01*
X166401500Y-68889890D01*
X166401500Y-68969709D01*
X166381498Y-69037830D01*
X166369137Y-69054019D01*
X166270961Y-69163054D01*
X166270958Y-69163058D01*
X166192158Y-69299544D01*
X166175473Y-69328444D01*
X166165606Y-69358811D01*
X166116457Y-69510072D01*
X166096496Y-69700000D01*
X166101996Y-69752330D01*
X166089224Y-69822168D01*
X166040721Y-69874015D01*
X165976686Y-69891500D01*
X163833371Y-69891500D01*
X163765250Y-69871498D01*
X163727888Y-69834415D01*
X163615724Y-69662734D01*
X163615720Y-69662729D01*
X163463237Y-69497091D01*
X163381382Y-69433381D01*
X163285576Y-69358811D01*
X163087574Y-69251658D01*
X163087572Y-69251657D01*
X163087571Y-69251656D01*
X162874639Y-69178557D01*
X162874630Y-69178555D01*
X162830476Y-69171187D01*
X162652569Y-69141500D01*
X162427431Y-69141500D01*
X162279211Y-69166233D01*
X162205369Y-69178555D01*
X162205360Y-69178557D01*
X161992428Y-69251656D01*
X161992426Y-69251658D01*
X161850538Y-69328444D01*
X161794426Y-69358810D01*
X161794424Y-69358811D01*
X161616762Y-69497091D01*
X161464279Y-69662729D01*
X161464275Y-69662734D01*
X161375483Y-69798643D01*
X161321480Y-69844732D01*
X161251132Y-69854307D01*
X161186774Y-69824330D01*
X161164517Y-69798643D01*
X161075724Y-69662734D01*
X161075720Y-69662729D01*
X160923237Y-69497091D01*
X160841382Y-69433381D01*
X160745576Y-69358811D01*
X160547574Y-69251658D01*
X160547572Y-69251657D01*
X160547571Y-69251656D01*
X160334639Y-69178557D01*
X160334630Y-69178555D01*
X160290476Y-69171187D01*
X160112569Y-69141500D01*
X159887431Y-69141500D01*
X159739211Y-69166233D01*
X159665369Y-69178555D01*
X159665360Y-69178557D01*
X159452428Y-69251656D01*
X159452426Y-69251658D01*
X159310538Y-69328444D01*
X159254426Y-69358810D01*
X159254424Y-69358811D01*
X159076762Y-69497091D01*
X158924279Y-69662729D01*
X158924275Y-69662734D01*
X158812112Y-69834415D01*
X158758109Y-69880504D01*
X158706629Y-69891500D01*
X133833371Y-69891500D01*
X133765250Y-69871498D01*
X133727888Y-69834415D01*
X133615724Y-69662734D01*
X133615720Y-69662729D01*
X133463237Y-69497091D01*
X133381382Y-69433381D01*
X133285576Y-69358811D01*
X133087574Y-69251658D01*
X133087572Y-69251657D01*
X133087571Y-69251656D01*
X132874639Y-69178557D01*
X132874630Y-69178555D01*
X132830476Y-69171187D01*
X132652569Y-69141500D01*
X132427431Y-69141500D01*
X132279211Y-69166233D01*
X132205369Y-69178555D01*
X132205360Y-69178557D01*
X131992428Y-69251656D01*
X131992426Y-69251658D01*
X131850538Y-69328444D01*
X131794426Y-69358810D01*
X131794424Y-69358811D01*
X131616762Y-69497091D01*
X131464279Y-69662729D01*
X131464275Y-69662734D01*
X131375483Y-69798643D01*
X131321480Y-69844732D01*
X131251132Y-69854307D01*
X131186774Y-69824330D01*
X131164517Y-69798643D01*
X131075724Y-69662734D01*
X131075720Y-69662729D01*
X130923237Y-69497091D01*
X130841382Y-69433381D01*
X130745576Y-69358811D01*
X130547574Y-69251658D01*
X130547572Y-69251657D01*
X130547571Y-69251656D01*
X130334639Y-69178557D01*
X130334630Y-69178555D01*
X130290476Y-69171187D01*
X130112569Y-69141500D01*
X129887431Y-69141500D01*
X129739211Y-69166233D01*
X129665369Y-69178555D01*
X129665360Y-69178557D01*
X129452428Y-69251656D01*
X129452426Y-69251658D01*
X129310538Y-69328444D01*
X129254426Y-69358810D01*
X129254424Y-69358811D01*
X129076762Y-69497091D01*
X128924279Y-69662729D01*
X128924275Y-69662734D01*
X128812112Y-69834415D01*
X128758109Y-69880504D01*
X128706629Y-69891500D01*
X103833371Y-69891500D01*
X103765250Y-69871498D01*
X103727888Y-69834415D01*
X103615724Y-69662734D01*
X103615720Y-69662729D01*
X103463237Y-69497091D01*
X103381382Y-69433381D01*
X103285576Y-69358811D01*
X103087574Y-69251658D01*
X103087572Y-69251657D01*
X103087571Y-69251656D01*
X102874639Y-69178557D01*
X102874630Y-69178555D01*
X102830476Y-69171187D01*
X102652569Y-69141500D01*
X102427431Y-69141500D01*
X102279211Y-69166233D01*
X102205369Y-69178555D01*
X102205360Y-69178557D01*
X101992428Y-69251656D01*
X101992426Y-69251658D01*
X101850538Y-69328444D01*
X101794426Y-69358810D01*
X101794424Y-69358811D01*
X101616762Y-69497091D01*
X101464279Y-69662729D01*
X101464275Y-69662734D01*
X101375483Y-69798643D01*
X101321480Y-69844732D01*
X101251132Y-69854307D01*
X101186774Y-69824330D01*
X101164517Y-69798643D01*
X101075724Y-69662734D01*
X101075720Y-69662729D01*
X100923237Y-69497091D01*
X100841382Y-69433381D01*
X100745576Y-69358811D01*
X100547574Y-69251658D01*
X100547572Y-69251657D01*
X100547571Y-69251656D01*
X100334639Y-69178557D01*
X100334630Y-69178555D01*
X100290476Y-69171187D01*
X100112569Y-69141500D01*
X99887431Y-69141500D01*
X99739211Y-69166233D01*
X99665369Y-69178555D01*
X99665360Y-69178557D01*
X99452428Y-69251656D01*
X99452426Y-69251658D01*
X99310538Y-69328444D01*
X99254426Y-69358810D01*
X99254424Y-69358811D01*
X99076762Y-69497091D01*
X98924279Y-69662729D01*
X98924275Y-69662734D01*
X98812112Y-69834415D01*
X98758109Y-69880504D01*
X98706629Y-69891500D01*
X73833371Y-69891500D01*
X73765250Y-69871498D01*
X73727888Y-69834415D01*
X73615724Y-69662734D01*
X73615720Y-69662729D01*
X73463237Y-69497091D01*
X73381382Y-69433381D01*
X73285576Y-69358811D01*
X73087574Y-69251658D01*
X73087572Y-69251657D01*
X73087571Y-69251656D01*
X72874639Y-69178557D01*
X72874630Y-69178555D01*
X72830476Y-69171187D01*
X72652569Y-69141500D01*
X72427431Y-69141500D01*
X72279211Y-69166233D01*
X72205369Y-69178555D01*
X72205360Y-69178557D01*
X71992428Y-69251656D01*
X71992426Y-69251658D01*
X71850538Y-69328444D01*
X71794426Y-69358810D01*
X71794424Y-69358811D01*
X71616762Y-69497091D01*
X71464279Y-69662729D01*
X71464275Y-69662734D01*
X71375483Y-69798643D01*
X71321480Y-69844732D01*
X71251132Y-69854307D01*
X71186774Y-69824330D01*
X71164517Y-69798643D01*
X71075724Y-69662734D01*
X71075720Y-69662729D01*
X70923237Y-69497091D01*
X70841382Y-69433381D01*
X70745576Y-69358811D01*
X70547574Y-69251658D01*
X70547572Y-69251657D01*
X70547571Y-69251656D01*
X70334639Y-69178557D01*
X70334630Y-69178555D01*
X70290476Y-69171187D01*
X70112569Y-69141500D01*
X69887431Y-69141500D01*
X69739211Y-69166233D01*
X69665369Y-69178555D01*
X69665360Y-69178557D01*
X69452428Y-69251656D01*
X69452426Y-69251658D01*
X69310538Y-69328444D01*
X69254426Y-69358810D01*
X69254424Y-69358811D01*
X69076762Y-69497091D01*
X68924279Y-69662729D01*
X68924275Y-69662734D01*
X68812112Y-69834415D01*
X68758109Y-69880504D01*
X68706629Y-69891500D01*
X49361979Y-69891500D01*
X49293858Y-69871498D01*
X49251167Y-69825473D01*
X49248865Y-69821222D01*
X49248860Y-69821209D01*
X49169670Y-69700000D01*
X49125724Y-69632734D01*
X49125720Y-69632729D01*
X48973237Y-69467091D01*
X48891382Y-69403381D01*
X48795576Y-69328811D01*
X48597574Y-69221658D01*
X48597572Y-69221657D01*
X48597571Y-69221656D01*
X48384639Y-69148557D01*
X48384630Y-69148555D01*
X48340476Y-69141187D01*
X48162569Y-69111500D01*
X47937431Y-69111500D01*
X47789211Y-69136233D01*
X47715369Y-69148555D01*
X47715360Y-69148557D01*
X47502428Y-69221656D01*
X47502426Y-69221658D01*
X47304426Y-69328810D01*
X47304424Y-69328811D01*
X47126762Y-69467091D01*
X46974279Y-69632729D01*
X46974275Y-69632734D01*
X46885483Y-69768643D01*
X46831480Y-69814732D01*
X46761132Y-69824307D01*
X46696774Y-69794330D01*
X46674517Y-69768643D01*
X46585724Y-69632734D01*
X46585720Y-69632729D01*
X46433237Y-69467091D01*
X46351382Y-69403381D01*
X46255576Y-69328811D01*
X46057574Y-69221658D01*
X46057572Y-69221657D01*
X46057571Y-69221656D01*
X45844639Y-69148557D01*
X45844630Y-69148555D01*
X45800476Y-69141187D01*
X45622569Y-69111500D01*
X45397431Y-69111500D01*
X45249211Y-69136233D01*
X45175369Y-69148555D01*
X45175360Y-69148557D01*
X44962428Y-69221656D01*
X44962426Y-69221658D01*
X44764426Y-69328810D01*
X44764424Y-69328811D01*
X44586762Y-69467091D01*
X44434279Y-69632729D01*
X44434275Y-69632734D01*
X44311141Y-69821206D01*
X44220703Y-70027386D01*
X44220702Y-70027387D01*
X44165437Y-70245624D01*
X44146844Y-70470000D01*
X44165437Y-70694375D01*
X44220702Y-70912612D01*
X44220703Y-70912613D01*
X44311141Y-71118793D01*
X44434275Y-71307265D01*
X44434279Y-71307270D01*
X44586762Y-71472908D01*
X44625306Y-71502908D01*
X44764424Y-71611189D01*
X44797680Y-71629186D01*
X44848071Y-71679200D01*
X44863423Y-71748516D01*
X44838862Y-71815129D01*
X44797680Y-71850813D01*
X44764426Y-71868810D01*
X44764424Y-71868811D01*
X44586762Y-72007091D01*
X44434279Y-72172729D01*
X44434275Y-72172734D01*
X44311141Y-72361206D01*
X44220703Y-72567386D01*
X44220702Y-72567387D01*
X44164156Y-72790684D01*
X44161836Y-72790096D01*
X44135224Y-72845005D01*
X44074635Y-72882011D01*
X44003657Y-72880384D01*
X43952820Y-72849428D01*
X43365405Y-72262013D01*
X43331379Y-72199701D01*
X43328500Y-72172918D01*
X43328500Y-68567081D01*
X43348502Y-68498960D01*
X43365400Y-68477991D01*
X50593390Y-61250000D01*
X71487004Y-61250000D01*
X71506951Y-61478002D01*
X71566186Y-61699068D01*
X71566188Y-61699073D01*
X71662913Y-61906501D01*
X71712899Y-61977888D01*
X72400000Y-61290788D01*
X72400000Y-61302661D01*
X72427259Y-61404394D01*
X72479920Y-61495606D01*
X72554394Y-61570080D01*
X72645606Y-61622741D01*
X72747339Y-61650000D01*
X72759210Y-61650000D01*
X72072110Y-62337098D01*
X72072110Y-62337100D01*
X72143498Y-62387086D01*
X72350926Y-62483811D01*
X72350931Y-62483813D01*
X72571999Y-62543048D01*
X72571995Y-62543048D01*
X72800000Y-62562995D01*
X73028002Y-62543048D01*
X73249068Y-62483813D01*
X73249073Y-62483811D01*
X73456497Y-62387088D01*
X73527888Y-62337099D01*
X73527888Y-62337097D01*
X72840791Y-61650000D01*
X72852661Y-61650000D01*
X72954394Y-61622741D01*
X73045606Y-61570080D01*
X73120080Y-61495606D01*
X73172741Y-61404394D01*
X73200000Y-61302661D01*
X73200000Y-61290791D01*
X73887097Y-61977888D01*
X73887099Y-61977888D01*
X73937088Y-61906497D01*
X74033811Y-61699073D01*
X74033813Y-61699068D01*
X74093048Y-61478002D01*
X74112995Y-61250000D01*
X76486502Y-61250000D01*
X76506457Y-61478086D01*
X76565715Y-61699240D01*
X76565717Y-61699246D01*
X76662477Y-61906749D01*
X76793335Y-62093634D01*
X76793802Y-62094300D01*
X76955700Y-62256198D01*
X77143251Y-62387523D01*
X77350757Y-62484284D01*
X77571913Y-62543543D01*
X77800000Y-62563498D01*
X78028087Y-62543543D01*
X78249243Y-62484284D01*
X78456749Y-62387523D01*
X78644300Y-62256198D01*
X78805094Y-62095404D01*
X78867406Y-62061379D01*
X78894189Y-62058500D01*
X81255675Y-62058500D01*
X81323796Y-62078502D01*
X81363107Y-62118665D01*
X81375818Y-62139408D01*
X81375826Y-62139419D01*
X81530030Y-62319969D01*
X81710580Y-62474173D01*
X81710588Y-62474179D01*
X81731332Y-62486890D01*
X81778965Y-62539536D01*
X81791500Y-62594324D01*
X81791500Y-63229630D01*
X81822570Y-63385831D01*
X81853043Y-63459399D01*
X81883516Y-63532968D01*
X81971997Y-63665389D01*
X85084611Y-66778003D01*
X85217032Y-66866484D01*
X85277976Y-66891727D01*
X85277977Y-66891728D01*
X85308450Y-66904350D01*
X85364169Y-66927430D01*
X85520370Y-66958500D01*
X86265501Y-66958500D01*
X86333622Y-66978502D01*
X86380115Y-67032158D01*
X86391501Y-67084500D01*
X86391501Y-67800544D01*
X86402112Y-67904425D01*
X86457885Y-68072738D01*
X86550970Y-68223652D01*
X86550975Y-68223658D01*
X86676341Y-68349024D01*
X86676347Y-68349029D01*
X86676348Y-68349030D01*
X86827262Y-68442115D01*
X86995574Y-68497887D01*
X87099455Y-68508500D01*
X87800544Y-68508499D01*
X87904426Y-68497887D01*
X88072738Y-68442115D01*
X88223652Y-68349030D01*
X88349030Y-68223652D01*
X88442115Y-68072738D01*
X88497887Y-67904426D01*
X88508500Y-67800545D01*
X88508499Y-64499456D01*
X88497887Y-64395574D01*
X88442115Y-64227262D01*
X88349030Y-64076348D01*
X88349029Y-64076347D01*
X88349024Y-64076341D01*
X88223658Y-63950975D01*
X88223652Y-63950970D01*
X88072738Y-63857885D01*
X87988582Y-63829999D01*
X87904427Y-63802113D01*
X87904420Y-63802112D01*
X87800553Y-63791500D01*
X87099455Y-63791500D01*
X86995574Y-63802112D01*
X86827261Y-63857885D01*
X86676347Y-63950970D01*
X86676341Y-63950975D01*
X86550975Y-64076341D01*
X86550970Y-64076347D01*
X86457885Y-64227262D01*
X86402113Y-64395572D01*
X86402112Y-64395579D01*
X86391500Y-64499446D01*
X86391500Y-65215500D01*
X86371498Y-65283621D01*
X86317842Y-65330114D01*
X86265500Y-65341500D01*
X85987082Y-65341500D01*
X85918961Y-65321498D01*
X85897987Y-65304595D01*
X83445405Y-62852013D01*
X83411379Y-62789701D01*
X83408500Y-62762918D01*
X83408500Y-62594324D01*
X83428502Y-62526203D01*
X83468668Y-62486890D01*
X83473690Y-62483813D01*
X83489416Y-62474176D01*
X83669969Y-62319969D01*
X83824176Y-62139416D01*
X83948240Y-61936963D01*
X84039105Y-61717594D01*
X84094535Y-61486711D01*
X84113165Y-61250000D01*
X84094535Y-61013289D01*
X84039105Y-60782406D01*
X83948240Y-60563037D01*
X83824176Y-60360584D01*
X83813333Y-60347888D01*
X83669969Y-60180030D01*
X83489419Y-60025826D01*
X83489417Y-60025825D01*
X83489416Y-60025824D01*
X83286963Y-59901760D01*
X83136026Y-59839240D01*
X83067592Y-59810894D01*
X82909651Y-59772976D01*
X82836711Y-59755465D01*
X82600000Y-59736835D01*
X82363289Y-59755465D01*
X82132407Y-59810894D01*
X81913038Y-59901759D01*
X81710582Y-60025825D01*
X81710580Y-60025826D01*
X81530030Y-60180030D01*
X81375826Y-60360580D01*
X81375818Y-60360591D01*
X81363107Y-60381335D01*
X81310460Y-60428966D01*
X81255675Y-60441500D01*
X78894189Y-60441500D01*
X78826068Y-60421498D01*
X78805094Y-60404596D01*
X78748386Y-60347888D01*
X78644300Y-60243802D01*
X78632306Y-60235404D01*
X78456749Y-60112477D01*
X78249246Y-60015717D01*
X78249240Y-60015715D01*
X78143063Y-59987265D01*
X78028087Y-59956457D01*
X77800000Y-59936502D01*
X77571913Y-59956457D01*
X77350759Y-60015715D01*
X77350753Y-60015717D01*
X77143250Y-60112477D01*
X76955703Y-60243799D01*
X76955697Y-60243804D01*
X76793804Y-60405697D01*
X76793799Y-60405703D01*
X76662477Y-60593250D01*
X76565717Y-60800753D01*
X76565715Y-60800759D01*
X76506457Y-61021913D01*
X76486502Y-61250000D01*
X74112995Y-61250000D01*
X74093048Y-61021997D01*
X74033813Y-60800931D01*
X74033811Y-60800926D01*
X73937086Y-60593498D01*
X73887100Y-60522110D01*
X73887098Y-60522110D01*
X73200000Y-61209208D01*
X73200000Y-61197339D01*
X73172741Y-61095606D01*
X73120080Y-61004394D01*
X73045606Y-60929920D01*
X72954394Y-60877259D01*
X72852661Y-60850000D01*
X72840790Y-60850000D01*
X73527888Y-60162899D01*
X73527888Y-60162898D01*
X73456501Y-60112913D01*
X73249073Y-60016188D01*
X73249068Y-60016186D01*
X73028000Y-59956951D01*
X73028004Y-59956951D01*
X72800000Y-59937004D01*
X72571997Y-59956951D01*
X72350931Y-60016186D01*
X72350926Y-60016188D01*
X72143500Y-60112913D01*
X72072109Y-60162900D01*
X72759209Y-60850000D01*
X72747339Y-60850000D01*
X72645606Y-60877259D01*
X72554394Y-60929920D01*
X72479920Y-61004394D01*
X72427259Y-61095606D01*
X72400000Y-61197339D01*
X72400000Y-61209209D01*
X71712900Y-60522109D01*
X71662913Y-60593500D01*
X71566188Y-60800926D01*
X71566186Y-60800931D01*
X71506951Y-61021997D01*
X71487004Y-61250000D01*
X50593390Y-61250000D01*
X50882034Y-60961356D01*
X50944344Y-60927332D01*
X50982109Y-60924933D01*
X51080000Y-60933498D01*
X51308087Y-60913543D01*
X51529243Y-60854284D01*
X51736749Y-60757523D01*
X51924300Y-60626198D01*
X52086198Y-60464300D01*
X52217523Y-60276749D01*
X52314284Y-60069243D01*
X52373543Y-59848087D01*
X52393498Y-59620000D01*
X54767004Y-59620000D01*
X54786951Y-59848002D01*
X54846186Y-60069068D01*
X54846188Y-60069073D01*
X54942913Y-60276501D01*
X54992899Y-60347888D01*
X55680000Y-59660788D01*
X55680000Y-59672661D01*
X55707259Y-59774394D01*
X55759920Y-59865606D01*
X55834394Y-59940080D01*
X55925606Y-59992741D01*
X56027339Y-60020000D01*
X56039210Y-60020000D01*
X55352110Y-60707098D01*
X55352110Y-60707100D01*
X55423498Y-60757086D01*
X55630926Y-60853811D01*
X55630931Y-60853813D01*
X55851999Y-60913048D01*
X55851995Y-60913048D01*
X56080000Y-60932995D01*
X56308002Y-60913048D01*
X56529068Y-60853813D01*
X56529073Y-60853811D01*
X56736497Y-60757088D01*
X56807888Y-60707099D01*
X56807888Y-60707097D01*
X56120791Y-60020000D01*
X56132661Y-60020000D01*
X56234394Y-59992741D01*
X56325606Y-59940080D01*
X56400080Y-59865606D01*
X56452741Y-59774394D01*
X56480000Y-59672661D01*
X56480000Y-59660791D01*
X57167097Y-60347888D01*
X57167099Y-60347888D01*
X57217088Y-60276497D01*
X57313811Y-60069073D01*
X57313813Y-60069068D01*
X57373048Y-59848002D01*
X57392995Y-59620000D01*
X57373048Y-59391997D01*
X57313813Y-59170931D01*
X57313811Y-59170926D01*
X57217086Y-58963498D01*
X57167100Y-58892110D01*
X57167098Y-58892110D01*
X56480000Y-59579208D01*
X56480000Y-59567339D01*
X56452741Y-59465606D01*
X56400080Y-59374394D01*
X56325606Y-59299920D01*
X56234394Y-59247259D01*
X56132661Y-59220000D01*
X56120790Y-59220000D01*
X56807888Y-58532899D01*
X56807888Y-58532898D01*
X56736501Y-58482913D01*
X56529073Y-58386188D01*
X56529068Y-58386186D01*
X56308000Y-58326951D01*
X56308004Y-58326951D01*
X56080000Y-58307004D01*
X55851997Y-58326951D01*
X55630931Y-58386186D01*
X55630926Y-58386188D01*
X55423500Y-58482913D01*
X55352109Y-58532900D01*
X56039209Y-59220000D01*
X56027339Y-59220000D01*
X55925606Y-59247259D01*
X55834394Y-59299920D01*
X55759920Y-59374394D01*
X55707259Y-59465606D01*
X55680000Y-59567339D01*
X55680000Y-59579209D01*
X54992900Y-58892109D01*
X54942913Y-58963500D01*
X54846188Y-59170926D01*
X54846186Y-59170931D01*
X54786951Y-59391997D01*
X54767004Y-59620000D01*
X52393498Y-59620000D01*
X52373543Y-59391913D01*
X52314284Y-59170757D01*
X52217523Y-58963251D01*
X52086198Y-58775700D01*
X51924300Y-58613802D01*
X51862228Y-58570338D01*
X51817900Y-58514880D01*
X51808500Y-58467126D01*
X51808500Y-56197197D01*
X51828502Y-56129076D01*
X51860437Y-56095262D01*
X51999278Y-55994389D01*
X52161889Y-55831778D01*
X52297060Y-55645731D01*
X52401462Y-55440829D01*
X52414728Y-55400000D01*
X78136835Y-55400000D01*
X78155465Y-55636711D01*
X78172210Y-55706457D01*
X78210894Y-55867592D01*
X78283135Y-56041997D01*
X78301760Y-56086963D01*
X78413926Y-56270001D01*
X78425825Y-56289417D01*
X78425826Y-56289419D01*
X78580030Y-56469969D01*
X78760580Y-56624173D01*
X78760584Y-56624176D01*
X78963037Y-56748240D01*
X79182406Y-56839105D01*
X79413289Y-56894535D01*
X79650000Y-56913165D01*
X79886711Y-56894535D01*
X80117594Y-56839105D01*
X80336963Y-56748240D01*
X80539416Y-56624176D01*
X80719969Y-56469969D01*
X80874176Y-56289416D01*
X80998240Y-56086963D01*
X81089105Y-55867594D01*
X81144535Y-55636711D01*
X81163165Y-55400000D01*
X81144535Y-55163289D01*
X81089105Y-54932406D01*
X80998240Y-54713037D01*
X80874176Y-54510584D01*
X80806257Y-54431061D01*
X80719969Y-54330030D01*
X80539419Y-54175826D01*
X80539417Y-54175825D01*
X80539416Y-54175824D01*
X80336963Y-54051760D01*
X80246114Y-54014129D01*
X80117592Y-53960894D01*
X79959651Y-53922976D01*
X79886711Y-53905465D01*
X79650000Y-53886835D01*
X79413289Y-53905465D01*
X79182407Y-53960894D01*
X78963038Y-54051759D01*
X78760582Y-54175825D01*
X78760580Y-54175826D01*
X78580030Y-54330030D01*
X78425826Y-54510580D01*
X78425825Y-54510582D01*
X78301759Y-54713038D01*
X78210894Y-54932407D01*
X78157653Y-55154174D01*
X78155465Y-55163289D01*
X78136835Y-55400000D01*
X52414728Y-55400000D01*
X52472526Y-55222118D01*
X52472526Y-55222112D01*
X52472528Y-55222109D01*
X52477648Y-55189776D01*
X52508058Y-55125622D01*
X52512984Y-55120406D01*
X55293394Y-52339996D01*
X65396654Y-52339996D01*
X65396654Y-52340003D01*
X65416016Y-52635421D01*
X65416018Y-52635435D01*
X65447166Y-52792022D01*
X65468770Y-52900632D01*
X65473776Y-52925795D01*
X65473778Y-52925805D01*
X65568938Y-53206137D01*
X65568944Y-53206151D01*
X65699883Y-53471670D01*
X65864359Y-53717827D01*
X65864361Y-53717830D01*
X65864367Y-53717838D01*
X66059573Y-53940427D01*
X66282162Y-54135633D01*
X66282170Y-54135638D01*
X66282172Y-54135640D01*
X66342315Y-54175826D01*
X66528327Y-54300115D01*
X66793855Y-54431059D01*
X67074203Y-54526224D01*
X67364574Y-54583983D01*
X67533388Y-54595047D01*
X67659997Y-54603346D01*
X67660000Y-54603346D01*
X67660003Y-54603346D01*
X67770784Y-54596084D01*
X67955426Y-54583983D01*
X68245797Y-54526224D01*
X68526145Y-54431059D01*
X68791673Y-54300115D01*
X69037838Y-54135633D01*
X69260427Y-53940427D01*
X69455633Y-53717838D01*
X69620115Y-53471673D01*
X69751059Y-53206145D01*
X69846224Y-52925797D01*
X69903983Y-52635426D01*
X69917692Y-52426262D01*
X69923346Y-52340003D01*
X69923346Y-52339996D01*
X69903983Y-52044578D01*
X69903983Y-52044574D01*
X69846224Y-51754203D01*
X69751059Y-51473855D01*
X69620115Y-51208327D01*
X69455633Y-50962162D01*
X69260427Y-50739573D01*
X69037838Y-50544367D01*
X69037830Y-50544361D01*
X69037827Y-50544359D01*
X68791670Y-50379883D01*
X68526151Y-50248944D01*
X68526145Y-50248941D01*
X68526140Y-50248939D01*
X68526137Y-50248938D01*
X68245805Y-50153778D01*
X68245799Y-50153776D01*
X68245797Y-50153776D01*
X68148566Y-50134435D01*
X67955435Y-50096018D01*
X67955421Y-50096016D01*
X67660003Y-50076654D01*
X67659997Y-50076654D01*
X67364578Y-50096016D01*
X67364564Y-50096018D01*
X67122818Y-50144105D01*
X67074203Y-50153776D01*
X67074201Y-50153776D01*
X67074194Y-50153778D01*
X66793862Y-50248938D01*
X66793848Y-50248944D01*
X66528329Y-50379883D01*
X66282172Y-50544359D01*
X66282165Y-50544364D01*
X66282162Y-50544367D01*
X66059573Y-50739573D01*
X65864367Y-50962162D01*
X65864364Y-50962165D01*
X65864359Y-50962172D01*
X65699883Y-51208329D01*
X65568944Y-51473848D01*
X65568938Y-51473862D01*
X65473778Y-51754194D01*
X65473776Y-51754201D01*
X65473776Y-51754203D01*
X65464105Y-51802818D01*
X65416018Y-52044564D01*
X65416016Y-52044578D01*
X65396654Y-52339996D01*
X55293394Y-52339996D01*
X58281988Y-49351402D01*
X78142000Y-49351402D01*
X78142000Y-50146000D01*
X79219297Y-50146000D01*
X79184075Y-50207007D01*
X79150000Y-50334174D01*
X79150000Y-50465826D01*
X79184075Y-50592993D01*
X79219297Y-50654000D01*
X78142000Y-50654000D01*
X78142000Y-51448597D01*
X78148505Y-51509093D01*
X78199555Y-51645964D01*
X78199555Y-51645965D01*
X78287095Y-51762904D01*
X78404034Y-51850444D01*
X78540906Y-51901494D01*
X78601402Y-51907999D01*
X78601415Y-51908000D01*
X79396000Y-51908000D01*
X79396000Y-50830702D01*
X79457007Y-50865925D01*
X79584174Y-50900000D01*
X79715826Y-50900000D01*
X79842993Y-50865925D01*
X79904000Y-50830702D01*
X79904000Y-51908000D01*
X80698585Y-51908000D01*
X80698597Y-51907999D01*
X80759093Y-51901494D01*
X80895964Y-51850444D01*
X80895965Y-51850444D01*
X81012904Y-51762904D01*
X81100444Y-51645965D01*
X81100444Y-51645964D01*
X81151494Y-51509093D01*
X81157999Y-51448597D01*
X81158000Y-51448585D01*
X81158000Y-50654000D01*
X80080703Y-50654000D01*
X80115925Y-50592993D01*
X80150000Y-50465826D01*
X80150000Y-50334174D01*
X80115925Y-50207007D01*
X80080703Y-50146000D01*
X81158000Y-50146000D01*
X81158000Y-49351414D01*
X81157999Y-49351402D01*
X81151494Y-49290906D01*
X81100444Y-49154035D01*
X81100444Y-49154034D01*
X81012904Y-49037095D01*
X80895965Y-48949555D01*
X80759093Y-48898505D01*
X80698597Y-48892000D01*
X79904000Y-48892000D01*
X79904000Y-49969297D01*
X79842993Y-49934075D01*
X79715826Y-49900000D01*
X79584174Y-49900000D01*
X79457007Y-49934075D01*
X79396000Y-49969297D01*
X79396000Y-48892000D01*
X78601402Y-48892000D01*
X78540906Y-48898505D01*
X78404035Y-48949555D01*
X78404034Y-48949555D01*
X78287095Y-49037095D01*
X78199555Y-49154034D01*
X78199555Y-49154035D01*
X78148505Y-49290906D01*
X78142000Y-49351402D01*
X58281988Y-49351402D01*
X60698184Y-46935206D01*
X60760494Y-46901182D01*
X60816689Y-46901783D01*
X60907597Y-46923609D01*
X61160000Y-46943474D01*
X61412403Y-46923609D01*
X61658591Y-46864505D01*
X61892502Y-46767616D01*
X62108376Y-46635328D01*
X62300898Y-46470898D01*
X62465328Y-46278376D01*
X62597616Y-46062502D01*
X62694505Y-45828591D01*
X62753609Y-45582403D01*
X62773474Y-45330000D01*
X62753609Y-45077597D01*
X62694505Y-44831409D01*
X62597616Y-44597498D01*
X62465328Y-44381624D01*
X62300898Y-44189102D01*
X62108376Y-44024672D01*
X61892502Y-43892384D01*
X61830590Y-43866739D01*
X61658589Y-43795494D01*
X61490177Y-43755062D01*
X61412403Y-43736391D01*
X61160000Y-43716526D01*
X60907597Y-43736391D01*
X60661410Y-43795494D01*
X60427499Y-43892383D01*
X60211625Y-44024671D01*
X60019102Y-44189102D01*
X59854671Y-44381625D01*
X59722383Y-44597499D01*
X59625494Y-44831410D01*
X59574958Y-45041913D01*
X59566391Y-45077597D01*
X59546526Y-45330000D01*
X59566391Y-45582403D01*
X59582512Y-45649555D01*
X59588215Y-45673307D01*
X59584667Y-45744215D01*
X59554791Y-45791815D01*
X52705181Y-52641424D01*
X52642869Y-52675450D01*
X52572054Y-52670385D01*
X52520275Y-52634160D01*
X52485975Y-52594000D01*
X51488438Y-52594000D01*
X51512518Y-52552292D01*
X51550000Y-52412409D01*
X51550000Y-52267591D01*
X51512518Y-52127708D01*
X51488438Y-52086000D01*
X52485974Y-52086000D01*
X52472035Y-51997993D01*
X52400999Y-51779367D01*
X52400996Y-51779361D01*
X52296628Y-51574527D01*
X52171196Y-51401884D01*
X52147337Y-51335016D01*
X52163418Y-51265865D01*
X52214332Y-51216384D01*
X52229084Y-51209774D01*
X52246204Y-51203389D01*
X52363261Y-51115761D01*
X52385029Y-51086682D01*
X52450887Y-50998707D01*
X52450887Y-50998706D01*
X52450889Y-50998704D01*
X52494960Y-50880545D01*
X52501988Y-50861704D01*
X52501990Y-50861696D01*
X52508499Y-50801149D01*
X52508500Y-50801132D01*
X52508500Y-48798867D01*
X52508499Y-48798850D01*
X52501990Y-48738303D01*
X52501988Y-48738295D01*
X52450889Y-48601297D01*
X52450887Y-48601292D01*
X52363261Y-48484238D01*
X52246207Y-48396612D01*
X52246202Y-48396610D01*
X52109204Y-48345511D01*
X52109196Y-48345509D01*
X52048649Y-48339000D01*
X52048638Y-48339000D01*
X51934500Y-48339000D01*
X51866379Y-48318998D01*
X51819886Y-48265342D01*
X51808500Y-48213000D01*
X51808500Y-47064500D01*
X51828502Y-46996379D01*
X51882158Y-46949886D01*
X51934500Y-46938500D01*
X52148632Y-46938500D01*
X52148638Y-46938500D01*
X52148645Y-46938499D01*
X52148649Y-46938499D01*
X52209196Y-46931990D01*
X52209199Y-46931989D01*
X52209201Y-46931989D01*
X52346204Y-46880889D01*
X52368091Y-46864505D01*
X52463261Y-46793261D01*
X52550887Y-46676207D01*
X52550887Y-46676206D01*
X52550889Y-46676204D01*
X52601989Y-46539201D01*
X52602285Y-46536453D01*
X52608499Y-46478649D01*
X52608500Y-46478632D01*
X52608500Y-44917082D01*
X52628502Y-44848961D01*
X52645405Y-44827987D01*
X55077987Y-42395405D01*
X55140299Y-42361379D01*
X55167082Y-42358500D01*
X72351001Y-42358500D01*
X72419122Y-42378502D01*
X72465615Y-42432158D01*
X72475719Y-42502432D01*
X72446225Y-42567012D01*
X72415961Y-42592464D01*
X72140867Y-42757982D01*
X72140861Y-42757986D01*
X71855299Y-42975067D01*
X71844502Y-42985293D01*
X73062577Y-44203368D01*
X72957670Y-44279588D01*
X72779588Y-44457670D01*
X72703368Y-44562577D01*
X71488168Y-43347377D01*
X71362654Y-43495145D01*
X71161352Y-43792043D01*
X71161350Y-43792047D01*
X70993330Y-44108969D01*
X70993326Y-44108978D01*
X70860559Y-44442198D01*
X70764592Y-44787837D01*
X70706561Y-45141816D01*
X70687141Y-45499996D01*
X70687141Y-45500003D01*
X70706561Y-45858183D01*
X70764592Y-46212162D01*
X70860559Y-46557801D01*
X70993326Y-46891021D01*
X70993330Y-46891030D01*
X71161350Y-47207952D01*
X71161352Y-47207956D01*
X71362654Y-47504854D01*
X71488167Y-47652621D01*
X72703367Y-46437421D01*
X72779588Y-46542330D01*
X72957670Y-46720412D01*
X73062576Y-46796631D01*
X71844502Y-48014705D01*
X71844502Y-48014706D01*
X71855297Y-48024932D01*
X71855300Y-48024934D01*
X72140849Y-48242005D01*
X72140867Y-48242017D01*
X72448227Y-48426949D01*
X72448234Y-48426953D01*
X72773766Y-48577561D01*
X72773785Y-48577569D01*
X73113706Y-48692101D01*
X73113723Y-48692106D01*
X73464022Y-48769213D01*
X73464050Y-48769218D01*
X73820637Y-48807999D01*
X73820653Y-48808000D01*
X74179347Y-48808000D01*
X74179362Y-48807999D01*
X74535949Y-48769218D01*
X74535977Y-48769213D01*
X74886276Y-48692106D01*
X74886293Y-48692101D01*
X75226214Y-48577569D01*
X75226233Y-48577561D01*
X75551765Y-48426953D01*
X75551772Y-48426949D01*
X75859132Y-48242017D01*
X75859138Y-48242013D01*
X76144701Y-48024932D01*
X76155495Y-48014706D01*
X76155495Y-48014704D01*
X75910791Y-47770000D01*
X87346930Y-47770000D01*
X87367180Y-48040227D01*
X87427480Y-48304413D01*
X87427481Y-48304416D01*
X87526480Y-48556664D01*
X87661968Y-48791335D01*
X87714092Y-48856696D01*
X87714093Y-48856696D01*
X88557301Y-48013488D01*
X88583978Y-48077890D01*
X88655112Y-48184351D01*
X88745649Y-48274888D01*
X88852110Y-48346022D01*
X88916510Y-48372698D01*
X88072455Y-49216752D01*
X88072455Y-49216753D01*
X88253469Y-49340167D01*
X88253470Y-49340168D01*
X88497602Y-49457735D01*
X88756547Y-49537611D01*
X88756555Y-49537612D01*
X89024513Y-49578000D01*
X89295487Y-49578000D01*
X89563444Y-49537612D01*
X89563452Y-49537611D01*
X89822397Y-49457735D01*
X90066529Y-49340168D01*
X90066530Y-49340167D01*
X90247544Y-49216753D01*
X89403489Y-48372698D01*
X89467890Y-48346022D01*
X89574351Y-48274888D01*
X89664888Y-48184351D01*
X89736022Y-48077890D01*
X89762698Y-48013489D01*
X90605906Y-48856697D01*
X90605907Y-48856696D01*
X90658025Y-48791343D01*
X90658031Y-48791335D01*
X90793519Y-48556664D01*
X90892518Y-48304416D01*
X90892519Y-48304413D01*
X90952819Y-48040227D01*
X90973069Y-47770000D01*
X90952819Y-47499772D01*
X90892519Y-47235586D01*
X90892518Y-47235583D01*
X90793519Y-46983335D01*
X90658031Y-46748664D01*
X90605906Y-46683302D01*
X90605905Y-46683302D01*
X89762697Y-47526509D01*
X89736022Y-47462110D01*
X89664888Y-47355649D01*
X89574351Y-47265112D01*
X89467890Y-47193978D01*
X89403488Y-47167301D01*
X90247543Y-46323246D01*
X90247543Y-46323244D01*
X90066537Y-46199836D01*
X90066529Y-46199831D01*
X89822397Y-46082264D01*
X89563452Y-46002388D01*
X89563444Y-46002387D01*
X89295487Y-45962000D01*
X89024513Y-45962000D01*
X88756555Y-46002387D01*
X88756547Y-46002388D01*
X88497602Y-46082264D01*
X88253470Y-46199831D01*
X88253462Y-46199836D01*
X88072455Y-46323244D01*
X88072455Y-46323246D01*
X88916510Y-47167301D01*
X88852110Y-47193978D01*
X88745649Y-47265112D01*
X88655112Y-47355649D01*
X88583978Y-47462110D01*
X88557301Y-47526510D01*
X87714093Y-46683302D01*
X87714091Y-46683302D01*
X87661968Y-46748664D01*
X87526480Y-46983335D01*
X87427481Y-47235583D01*
X87427480Y-47235586D01*
X87367180Y-47499772D01*
X87346930Y-47770000D01*
X75910791Y-47770000D01*
X74937422Y-46796631D01*
X75042330Y-46720412D01*
X75220412Y-46542330D01*
X75296631Y-46437422D01*
X76511830Y-47652621D01*
X76511831Y-47652621D01*
X76637340Y-47504862D01*
X76637342Y-47504858D01*
X76838647Y-47207956D01*
X76838649Y-47207952D01*
X77006669Y-46891030D01*
X77006673Y-46891021D01*
X77139440Y-46557801D01*
X77235407Y-46212162D01*
X77293438Y-45858183D01*
X77312859Y-45500003D01*
X77312859Y-45499996D01*
X77293438Y-45141816D01*
X77235407Y-44787837D01*
X77139440Y-44442198D01*
X77006673Y-44108978D01*
X77006669Y-44108969D01*
X76838649Y-43792047D01*
X76838647Y-43792043D01*
X76637348Y-43495150D01*
X76511830Y-43347378D01*
X75296631Y-44562577D01*
X75220412Y-44457670D01*
X75042330Y-44279588D01*
X74937422Y-44203367D01*
X76155496Y-42985293D01*
X76155496Y-42985292D01*
X76144702Y-42975067D01*
X76144699Y-42975065D01*
X75859150Y-42757994D01*
X75859132Y-42757982D01*
X75584039Y-42592464D01*
X75535982Y-42540205D01*
X75523806Y-42470260D01*
X75551379Y-42404836D01*
X75609945Y-42364705D01*
X75648999Y-42358500D01*
X115712918Y-42358500D01*
X115781039Y-42378502D01*
X115802013Y-42395405D01*
X116753986Y-43347378D01*
X117653014Y-44246405D01*
X117687039Y-44308717D01*
X117681975Y-44379532D01*
X117639428Y-44436368D01*
X117572908Y-44461179D01*
X117563919Y-44461500D01*
X116000367Y-44461500D01*
X115907765Y-44479920D01*
X115844169Y-44492570D01*
X115844168Y-44492570D01*
X115844165Y-44492571D01*
X115774329Y-44521499D01*
X115697032Y-44553516D01*
X115697030Y-44553516D01*
X115697028Y-44553518D01*
X115564615Y-44641994D01*
X115564608Y-44641999D01*
X111202013Y-49004595D01*
X111139701Y-49038621D01*
X111112918Y-49041500D01*
X110151350Y-49041500D01*
X110090803Y-49048009D01*
X110090795Y-49048011D01*
X109953797Y-49099110D01*
X109953792Y-49099112D01*
X109836738Y-49186738D01*
X109749112Y-49303792D01*
X109749110Y-49303797D01*
X109698011Y-49440795D01*
X109696197Y-49448474D01*
X109693040Y-49447727D01*
X109671596Y-49499536D01*
X109613289Y-49540042D01*
X109573467Y-49546500D01*
X108188674Y-49546500D01*
X108120553Y-49526498D01*
X108096839Y-49505799D01*
X108096569Y-49506070D01*
X107947435Y-49356936D01*
X107947432Y-49356934D01*
X107947430Y-49356932D01*
X107780803Y-49235871D01*
X107705034Y-49197265D01*
X107653422Y-49148519D01*
X107636356Y-49079604D01*
X107659257Y-49012402D01*
X107705034Y-48972735D01*
X107780803Y-48934129D01*
X107947430Y-48813068D01*
X108093068Y-48667430D01*
X108214129Y-48500803D01*
X108307634Y-48317290D01*
X108371280Y-48121408D01*
X108403500Y-47917981D01*
X108403500Y-47712019D01*
X108371280Y-47508592D01*
X108307634Y-47312710D01*
X108214129Y-47129197D01*
X108093068Y-46962570D01*
X108093065Y-46962567D01*
X108093063Y-46962564D01*
X107947435Y-46816936D01*
X107947432Y-46816934D01*
X107947430Y-46816932D01*
X107780803Y-46695871D01*
X107705034Y-46657265D01*
X107653422Y-46608519D01*
X107636356Y-46539604D01*
X107659257Y-46472402D01*
X107705034Y-46432735D01*
X107780803Y-46394129D01*
X107947430Y-46273068D01*
X108021101Y-46199397D01*
X108096569Y-46123930D01*
X108097370Y-46124731D01*
X108152301Y-46088864D01*
X108188674Y-46083500D01*
X108570811Y-46083500D01*
X108638932Y-46103502D01*
X108659906Y-46120404D01*
X108815700Y-46276198D01*
X109003251Y-46407523D01*
X109210757Y-46504284D01*
X109431913Y-46563543D01*
X109660000Y-46583498D01*
X109888087Y-46563543D01*
X110109243Y-46504284D01*
X110316749Y-46407523D01*
X110504300Y-46276198D01*
X110666198Y-46114300D01*
X110797523Y-45926749D01*
X110894284Y-45719243D01*
X110953543Y-45498087D01*
X110973498Y-45270000D01*
X110953543Y-45041913D01*
X110894284Y-44820757D01*
X110797523Y-44613251D01*
X110666198Y-44425700D01*
X110504300Y-44263802D01*
X110454306Y-44228796D01*
X110316749Y-44132477D01*
X110109246Y-44035717D01*
X110109240Y-44035715D01*
X110015771Y-44010670D01*
X109888087Y-43976457D01*
X109660000Y-43956502D01*
X109431913Y-43976457D01*
X109210759Y-44035715D01*
X109210753Y-44035717D01*
X109003250Y-44132477D01*
X108815703Y-44263799D01*
X108649912Y-44429590D01*
X108647954Y-44427632D01*
X108598632Y-44460690D01*
X108560812Y-44466500D01*
X108188674Y-44466500D01*
X108120553Y-44446498D01*
X108096839Y-44425799D01*
X108096569Y-44426070D01*
X107947435Y-44276936D01*
X107947432Y-44276934D01*
X107947430Y-44276932D01*
X107780803Y-44155871D01*
X107597290Y-44062366D01*
X107597287Y-44062365D01*
X107597285Y-44062364D01*
X107401412Y-43998721D01*
X107401410Y-43998720D01*
X107401408Y-43998720D01*
X107197981Y-43966500D01*
X106192019Y-43966500D01*
X105988592Y-43998720D01*
X105988590Y-43998720D01*
X105988587Y-43998721D01*
X105792714Y-44062364D01*
X105792708Y-44062367D01*
X105609193Y-44155873D01*
X105442567Y-44276934D01*
X105442564Y-44276936D01*
X105293431Y-44426070D01*
X105292629Y-44425268D01*
X105237699Y-44461136D01*
X105201326Y-44466500D01*
X100900481Y-44466500D01*
X100832360Y-44446498D01*
X100785867Y-44392842D01*
X100777859Y-44369478D01*
X100776989Y-44365799D01*
X100755698Y-44308717D01*
X100725889Y-44228796D01*
X100725888Y-44228794D01*
X100725887Y-44228792D01*
X100638261Y-44111738D01*
X100521207Y-44024112D01*
X100521202Y-44024110D01*
X100384204Y-43973011D01*
X100384196Y-43973009D01*
X100323649Y-43966500D01*
X100323638Y-43966500D01*
X97826362Y-43966500D01*
X97826350Y-43966500D01*
X97765803Y-43973009D01*
X97765795Y-43973011D01*
X97628797Y-44024110D01*
X97628792Y-44024112D01*
X97511738Y-44111738D01*
X97424112Y-44228792D01*
X97424110Y-44228797D01*
X97373011Y-44365795D01*
X97373009Y-44365803D01*
X97366500Y-44426350D01*
X97366500Y-46123649D01*
X97373009Y-46184196D01*
X97373011Y-46184204D01*
X97424110Y-46321202D01*
X97424112Y-46321207D01*
X97511738Y-46438261D01*
X97628792Y-46525887D01*
X97628794Y-46525888D01*
X97628796Y-46525889D01*
X97664495Y-46539204D01*
X97765795Y-46576988D01*
X97765798Y-46576988D01*
X97765799Y-46576989D01*
X97765804Y-46576990D01*
X97777728Y-46578272D01*
X97843321Y-46605440D01*
X97883813Y-46663757D01*
X97886349Y-46734708D01*
X97850122Y-46795767D01*
X97838326Y-46805484D01*
X97822569Y-46816932D01*
X97774997Y-46864505D01*
X97714905Y-46924596D01*
X97652596Y-46958620D01*
X97625812Y-46961500D01*
X95854234Y-46961500D01*
X95786113Y-46941498D01*
X95745115Y-46898500D01*
X95658445Y-46748382D01*
X95647540Y-46734708D01*
X95489442Y-46536458D01*
X95489441Y-46536457D01*
X95489438Y-46536453D01*
X95311659Y-46371500D01*
X95290743Y-46352093D01*
X95289870Y-46351498D01*
X95192736Y-46285273D01*
X95066786Y-46199401D01*
X95066783Y-46199400D01*
X95066781Y-46199398D01*
X95066780Y-46199397D01*
X94822581Y-46081797D01*
X94822563Y-46081790D01*
X94563568Y-46001901D01*
X94563560Y-46001899D01*
X94563558Y-46001899D01*
X94295528Y-45961500D01*
X94024472Y-45961500D01*
X93756442Y-46001899D01*
X93756440Y-46001899D01*
X93756431Y-46001901D01*
X93497436Y-46081790D01*
X93497423Y-46081795D01*
X93253212Y-46199402D01*
X93253205Y-46199406D01*
X93029263Y-46352088D01*
X93029251Y-46352098D01*
X92830561Y-46536453D01*
X92661554Y-46748382D01*
X92526030Y-46983116D01*
X92526027Y-46983124D01*
X92427002Y-47235437D01*
X92427001Y-47235439D01*
X92366685Y-47499697D01*
X92350774Y-47712019D01*
X92346429Y-47770000D01*
X92366685Y-48040299D01*
X92366686Y-48040303D01*
X92421734Y-48281486D01*
X92417392Y-48352349D01*
X92387989Y-48398618D01*
X90811995Y-49974613D01*
X90811994Y-49974615D01*
X90723516Y-50107032D01*
X90693043Y-50180600D01*
X90662572Y-50254163D01*
X90662570Y-50254168D01*
X90631500Y-50410367D01*
X90631500Y-54525500D01*
X90611498Y-54593621D01*
X90557842Y-54640114D01*
X90505500Y-54651500D01*
X90291350Y-54651500D01*
X90230803Y-54658009D01*
X90230795Y-54658011D01*
X90093797Y-54709110D01*
X90093792Y-54709112D01*
X89976738Y-54796738D01*
X89889112Y-54913792D01*
X89889110Y-54913797D01*
X89838011Y-55050795D01*
X89838009Y-55050803D01*
X89831500Y-55111350D01*
X89831500Y-57408649D01*
X89838009Y-57469196D01*
X89838011Y-57469204D01*
X89892260Y-57614647D01*
X89890715Y-57615222D01*
X89903608Y-57674489D01*
X89878797Y-57741009D01*
X89821961Y-57783556D01*
X89777929Y-57791500D01*
X79752484Y-57791500D01*
X79738377Y-57790708D01*
X79700000Y-57786384D01*
X79661623Y-57790708D01*
X79647516Y-57791500D01*
X79620364Y-57791500D01*
X79580862Y-57799358D01*
X79570391Y-57800986D01*
X79518954Y-57806782D01*
X79518949Y-57806783D01*
X79494920Y-57815192D01*
X79477891Y-57819840D01*
X79464173Y-57822568D01*
X79464161Y-57822572D01*
X79414827Y-57843007D01*
X79408225Y-57845527D01*
X79346985Y-57866957D01*
X79346983Y-57866957D01*
X79346983Y-57866958D01*
X79336582Y-57873493D01*
X79317787Y-57883203D01*
X79317045Y-57883510D01*
X79317027Y-57883520D01*
X79261721Y-57920472D01*
X79258759Y-57922391D01*
X79192722Y-57963885D01*
X79192716Y-57963890D01*
X79063890Y-58092716D01*
X79063885Y-58092722D01*
X79022391Y-58158759D01*
X79020472Y-58161721D01*
X78983520Y-58217027D01*
X78983510Y-58217045D01*
X78983203Y-58217787D01*
X78973493Y-58236582D01*
X78966958Y-58246983D01*
X78945527Y-58308227D01*
X78943007Y-58314827D01*
X78922572Y-58364161D01*
X78922568Y-58364173D01*
X78919840Y-58377891D01*
X78915192Y-58394920D01*
X78906783Y-58418949D01*
X78906782Y-58418954D01*
X78900986Y-58470391D01*
X78899358Y-58480862D01*
X78891500Y-58520364D01*
X78891500Y-58547516D01*
X78890708Y-58561623D01*
X78886384Y-58599999D01*
X78890708Y-58638376D01*
X78891500Y-58652483D01*
X78891500Y-58679635D01*
X78899358Y-58719138D01*
X78900986Y-58729609D01*
X78906782Y-58781042D01*
X78906783Y-58781047D01*
X78915191Y-58805076D01*
X78919839Y-58822103D01*
X78922569Y-58835827D01*
X78922572Y-58835836D01*
X78943009Y-58885175D01*
X78945529Y-58891778D01*
X78966956Y-58953014D01*
X78973488Y-58963409D01*
X78983208Y-58982221D01*
X78983518Y-58982971D01*
X79020449Y-59038243D01*
X79022369Y-59041205D01*
X79063889Y-59107281D01*
X79063892Y-59107285D01*
X79192715Y-59236108D01*
X79192717Y-59236109D01*
X79192719Y-59236111D01*
X79210461Y-59247259D01*
X79258775Y-59277617D01*
X79261739Y-59279538D01*
X79317032Y-59316483D01*
X79317773Y-59316790D01*
X79336594Y-59326514D01*
X79346981Y-59333041D01*
X79346982Y-59333041D01*
X79346985Y-59333043D01*
X79408252Y-59354481D01*
X79414836Y-59356995D01*
X79439896Y-59367375D01*
X79464166Y-59377429D01*
X79464167Y-59377429D01*
X79464169Y-59377430D01*
X79477884Y-59380157D01*
X79494921Y-59384807D01*
X79518953Y-59393217D01*
X79570385Y-59399011D01*
X79580841Y-59400636D01*
X79620370Y-59408500D01*
X79647516Y-59408500D01*
X79661623Y-59409292D01*
X79700000Y-59413616D01*
X79738377Y-59409292D01*
X79752484Y-59408500D01*
X92262918Y-59408500D01*
X92331039Y-59428502D01*
X92352013Y-59445405D01*
X93777722Y-60871114D01*
X93811748Y-60933426D01*
X93811147Y-60989616D01*
X93805465Y-61013285D01*
X93798986Y-61095606D01*
X93786835Y-61250000D01*
X93805465Y-61486711D01*
X93809821Y-61504855D01*
X93860894Y-61717592D01*
X93939141Y-61906497D01*
X93951760Y-61936963D01*
X94048853Y-62095404D01*
X94075825Y-62139417D01*
X94075826Y-62139419D01*
X94230030Y-62319969D01*
X94399622Y-62464814D01*
X94438432Y-62524264D01*
X94438938Y-62595259D01*
X94406887Y-62649720D01*
X91752013Y-65304595D01*
X91689701Y-65338621D01*
X91662918Y-65341500D01*
X91634499Y-65341500D01*
X91566378Y-65321498D01*
X91519885Y-65267842D01*
X91508499Y-65215500D01*
X91508499Y-64499455D01*
X91497887Y-64395574D01*
X91497886Y-64395572D01*
X91442115Y-64227262D01*
X91349030Y-64076348D01*
X91349029Y-64076347D01*
X91349024Y-64076341D01*
X91223658Y-63950975D01*
X91223652Y-63950970D01*
X91072738Y-63857885D01*
X90988582Y-63829999D01*
X90904427Y-63802113D01*
X90904420Y-63802112D01*
X90800553Y-63791500D01*
X90099455Y-63791500D01*
X89995574Y-63802112D01*
X89827261Y-63857885D01*
X89676347Y-63950970D01*
X89676341Y-63950975D01*
X89550975Y-64076341D01*
X89550970Y-64076347D01*
X89457885Y-64227262D01*
X89402113Y-64395572D01*
X89402112Y-64395579D01*
X89391500Y-64499446D01*
X89391500Y-67800544D01*
X89402112Y-67904425D01*
X89457885Y-68072738D01*
X89550970Y-68223652D01*
X89550975Y-68223658D01*
X89676341Y-68349024D01*
X89676347Y-68349029D01*
X89676348Y-68349030D01*
X89827262Y-68442115D01*
X89995574Y-68497887D01*
X90099455Y-68508500D01*
X90800544Y-68508499D01*
X90904426Y-68497887D01*
X91072738Y-68442115D01*
X91223652Y-68349030D01*
X91349030Y-68223652D01*
X91442115Y-68072738D01*
X91497887Y-67904426D01*
X91502435Y-67859905D01*
X91508500Y-67800553D01*
X91508500Y-67084500D01*
X91528502Y-67016379D01*
X91582158Y-66969886D01*
X91634500Y-66958500D01*
X92129629Y-66958500D01*
X92129630Y-66958500D01*
X92285831Y-66927430D01*
X92359399Y-66896956D01*
X92432968Y-66866484D01*
X92565389Y-66778003D01*
X95928003Y-63415389D01*
X96016484Y-63282968D01*
X96046956Y-63209399D01*
X96077430Y-63135831D01*
X96108500Y-62979630D01*
X96108500Y-62594324D01*
X96128502Y-62526203D01*
X96168668Y-62486890D01*
X96173690Y-62483813D01*
X96189416Y-62474176D01*
X96369969Y-62319969D01*
X96524176Y-62139416D01*
X96648240Y-61936963D01*
X96739105Y-61717594D01*
X96794535Y-61486711D01*
X96813165Y-61250000D01*
X96794535Y-61013289D01*
X96788853Y-60989621D01*
X96792401Y-60918713D01*
X96822275Y-60871115D01*
X97457988Y-60235404D01*
X97520300Y-60201379D01*
X97547083Y-60198500D01*
X97935811Y-60198500D01*
X98003932Y-60218502D01*
X98024906Y-60235404D01*
X98185700Y-60396198D01*
X98373251Y-60527523D01*
X98580757Y-60624284D01*
X98801913Y-60683543D01*
X99030000Y-60703498D01*
X99258087Y-60683543D01*
X99479243Y-60624284D01*
X99686749Y-60527523D01*
X99874300Y-60396198D01*
X100036198Y-60234300D01*
X100167523Y-60046749D01*
X100264284Y-59839243D01*
X100323543Y-59618087D01*
X100343498Y-59390000D01*
X100323543Y-59161913D01*
X100264284Y-58940757D01*
X100167523Y-58733251D01*
X100036198Y-58545700D01*
X99905404Y-58414906D01*
X99871379Y-58352594D01*
X99868500Y-58325811D01*
X99868500Y-57721607D01*
X99888502Y-57653486D01*
X99928666Y-57614174D01*
X99941672Y-57606204D01*
X100008376Y-57565328D01*
X100200898Y-57400898D01*
X100365328Y-57208376D01*
X100382717Y-57180000D01*
X100426432Y-57108665D01*
X100479079Y-57061034D01*
X100533864Y-57048500D01*
X100565811Y-57048500D01*
X100633932Y-57068502D01*
X100654906Y-57085404D01*
X100815700Y-57246198D01*
X101003251Y-57377523D01*
X101210757Y-57474284D01*
X101431913Y-57533543D01*
X101660000Y-57553498D01*
X101888087Y-57533543D01*
X102109243Y-57474284D01*
X102316749Y-57377523D01*
X102504300Y-57246198D01*
X102666198Y-57084300D01*
X102797523Y-56896749D01*
X102894284Y-56689243D01*
X102953543Y-56468087D01*
X102973498Y-56240000D01*
X102953543Y-56011913D01*
X102894284Y-55790757D01*
X102797523Y-55583251D01*
X102777290Y-55554356D01*
X102754603Y-55487084D01*
X102771888Y-55418223D01*
X102823657Y-55369639D01*
X102893475Y-55356755D01*
X102959175Y-55383664D01*
X102969599Y-55392991D01*
X104444611Y-56868003D01*
X104577032Y-56956484D01*
X104650600Y-56986956D01*
X104650602Y-56986957D01*
X104682090Y-57000000D01*
X104724169Y-57017430D01*
X104880370Y-57048500D01*
X105039630Y-57048500D01*
X105565811Y-57048500D01*
X105633932Y-57068502D01*
X105654906Y-57085404D01*
X105815700Y-57246198D01*
X106003251Y-57377523D01*
X106210757Y-57474284D01*
X106431913Y-57533543D01*
X106660000Y-57553498D01*
X106888087Y-57533543D01*
X107109243Y-57474284D01*
X107316749Y-57377523D01*
X107504300Y-57246198D01*
X107666198Y-57084300D01*
X107797523Y-56896749D01*
X107803809Y-56883269D01*
X107850724Y-56829982D01*
X107919001Y-56810519D01*
X107986961Y-56831059D01*
X108032200Y-56883265D01*
X108052477Y-56926749D01*
X108183799Y-57114296D01*
X108183804Y-57114302D01*
X108344595Y-57275093D01*
X108378621Y-57337405D01*
X108381500Y-57364188D01*
X108381500Y-58295811D01*
X108361498Y-58363932D01*
X108344596Y-58384906D01*
X108183799Y-58545703D01*
X108052477Y-58733250D01*
X107955717Y-58940753D01*
X107955715Y-58940759D01*
X107929196Y-59039730D01*
X107896457Y-59161913D01*
X107876502Y-59390000D01*
X107896457Y-59618087D01*
X107896970Y-59620000D01*
X107955715Y-59839240D01*
X107955717Y-59839246D01*
X108052477Y-60046749D01*
X108145801Y-60180030D01*
X108183802Y-60234300D01*
X108345700Y-60396198D01*
X108533251Y-60527523D01*
X108740757Y-60624284D01*
X108961913Y-60683543D01*
X109190000Y-60703498D01*
X109418087Y-60683543D01*
X109639243Y-60624284D01*
X109846749Y-60527523D01*
X110034300Y-60396198D01*
X110196198Y-60234300D01*
X110327523Y-60046749D01*
X110424284Y-59839243D01*
X110483543Y-59618087D01*
X110503498Y-59390000D01*
X110483543Y-59161913D01*
X110424284Y-58940757D01*
X110327523Y-58733251D01*
X110196198Y-58545700D01*
X110035404Y-58384906D01*
X110001379Y-58322594D01*
X109998500Y-58295811D01*
X109998500Y-57364188D01*
X110018502Y-57296067D01*
X110035405Y-57275093D01*
X110102130Y-57208368D01*
X110196198Y-57114300D01*
X110327523Y-56926749D01*
X110424284Y-56719243D01*
X110483543Y-56498087D01*
X110503498Y-56270000D01*
X118037004Y-56270000D01*
X118056951Y-56498002D01*
X118116186Y-56719068D01*
X118116188Y-56719073D01*
X118212913Y-56926501D01*
X118262899Y-56997888D01*
X118950000Y-56310788D01*
X118950000Y-56322661D01*
X118977259Y-56424394D01*
X119029920Y-56515606D01*
X119104394Y-56590080D01*
X119195606Y-56642741D01*
X119297339Y-56670000D01*
X119309210Y-56670000D01*
X118622110Y-57357098D01*
X118622110Y-57357100D01*
X118693498Y-57407086D01*
X118900926Y-57503811D01*
X118900931Y-57503813D01*
X119121999Y-57563048D01*
X119121995Y-57563048D01*
X119350000Y-57582995D01*
X119578002Y-57563048D01*
X119799068Y-57503813D01*
X119799073Y-57503811D01*
X120006497Y-57407088D01*
X120077888Y-57357099D01*
X120077888Y-57357097D01*
X119390791Y-56670000D01*
X119402661Y-56670000D01*
X119504394Y-56642741D01*
X119595606Y-56590080D01*
X119670080Y-56515606D01*
X119722741Y-56424394D01*
X119750000Y-56322661D01*
X119750000Y-56310791D01*
X120437097Y-56997888D01*
X120437099Y-56997888D01*
X120487088Y-56926497D01*
X120583811Y-56719073D01*
X120583813Y-56719068D01*
X120643048Y-56498002D01*
X120662995Y-56270000D01*
X120643048Y-56041997D01*
X120583813Y-55820931D01*
X120583811Y-55820926D01*
X120487086Y-55613498D01*
X120437100Y-55542110D01*
X120437098Y-55542110D01*
X119750000Y-56229208D01*
X119750000Y-56217339D01*
X119722741Y-56115606D01*
X119670080Y-56024394D01*
X119595606Y-55949920D01*
X119504394Y-55897259D01*
X119402661Y-55870000D01*
X119390790Y-55870000D01*
X120077888Y-55182899D01*
X120077888Y-55182898D01*
X120006501Y-55132913D01*
X119799073Y-55036188D01*
X119799068Y-55036186D01*
X119578000Y-54976951D01*
X119578004Y-54976951D01*
X119350000Y-54957004D01*
X119121997Y-54976951D01*
X118900931Y-55036186D01*
X118900926Y-55036188D01*
X118693500Y-55132913D01*
X118622109Y-55182900D01*
X119309209Y-55870000D01*
X119297339Y-55870000D01*
X119195606Y-55897259D01*
X119104394Y-55949920D01*
X119029920Y-56024394D01*
X118977259Y-56115606D01*
X118950000Y-56217339D01*
X118950000Y-56229209D01*
X118262900Y-55542109D01*
X118212913Y-55613500D01*
X118116188Y-55820926D01*
X118116186Y-55820931D01*
X118056951Y-56041997D01*
X118037004Y-56270000D01*
X110503498Y-56270000D01*
X110483543Y-56041913D01*
X110424284Y-55820757D01*
X110327523Y-55613251D01*
X110196198Y-55425700D01*
X110034300Y-55263802D01*
X110023382Y-55256157D01*
X109979055Y-55200701D01*
X109972076Y-55177529D01*
X109967430Y-55154169D01*
X109936956Y-55080600D01*
X109906484Y-55007032D01*
X109818003Y-54874611D01*
X108370336Y-53426944D01*
X108336310Y-53364632D01*
X108339597Y-53298913D01*
X108371280Y-53201408D01*
X108403500Y-52997981D01*
X108403500Y-52792019D01*
X108371280Y-52588592D01*
X108307634Y-52392710D01*
X108214129Y-52209197D01*
X108093068Y-52042570D01*
X108093065Y-52042567D01*
X108093063Y-52042564D01*
X107947435Y-51896936D01*
X107947432Y-51896934D01*
X107947430Y-51896932D01*
X107780803Y-51775871D01*
X107705034Y-51737265D01*
X107653422Y-51688519D01*
X107636356Y-51619604D01*
X107659257Y-51552402D01*
X107705034Y-51512735D01*
X107780803Y-51474129D01*
X107947430Y-51353068D01*
X107987720Y-51312778D01*
X108096569Y-51203930D01*
X108097370Y-51204731D01*
X108152301Y-51168864D01*
X108188674Y-51163500D01*
X109575700Y-51163500D01*
X109643821Y-51183502D01*
X109690314Y-51237158D01*
X109696284Y-51254572D01*
X109749110Y-51396202D01*
X109749112Y-51396207D01*
X109836738Y-51513261D01*
X109953792Y-51600887D01*
X109953794Y-51600888D01*
X109953796Y-51600889D01*
X110003972Y-51619604D01*
X110090795Y-51651988D01*
X110090803Y-51651990D01*
X110151350Y-51658499D01*
X110151355Y-51658499D01*
X110151362Y-51658500D01*
X110151368Y-51658500D01*
X111848632Y-51658500D01*
X111848638Y-51658500D01*
X111848645Y-51658499D01*
X111848649Y-51658499D01*
X111909196Y-51651990D01*
X111909199Y-51651989D01*
X111909201Y-51651989D01*
X111925355Y-51645964D01*
X111928045Y-51644960D01*
X112046204Y-51600889D01*
X112069018Y-51583811D01*
X112163261Y-51513261D01*
X112250887Y-51396207D01*
X112250887Y-51396206D01*
X112250889Y-51396204D01*
X112294960Y-51278045D01*
X112301988Y-51259204D01*
X112301990Y-51259196D01*
X112308861Y-51195283D01*
X112309908Y-51195395D01*
X112332056Y-51132567D01*
X112388113Y-51089000D01*
X112404105Y-51086682D01*
X113100000Y-50390788D01*
X113100000Y-50402661D01*
X113127259Y-50504394D01*
X113179920Y-50595606D01*
X113254394Y-50670080D01*
X113345606Y-50722741D01*
X113447339Y-50750000D01*
X113459210Y-50750000D01*
X112772110Y-51437098D01*
X112772110Y-51437100D01*
X112843498Y-51487086D01*
X113050926Y-51583811D01*
X113050931Y-51583813D01*
X113271999Y-51643048D01*
X113271995Y-51643048D01*
X113500000Y-51662995D01*
X113728002Y-51643048D01*
X113949068Y-51583813D01*
X113949073Y-51583811D01*
X114156497Y-51487088D01*
X114227888Y-51437099D01*
X114227888Y-51437097D01*
X113540791Y-50750000D01*
X113552661Y-50750000D01*
X113654394Y-50722741D01*
X113745606Y-50670080D01*
X113820080Y-50595606D01*
X113872741Y-50504394D01*
X113900000Y-50402661D01*
X113900000Y-50390791D01*
X114587097Y-51077888D01*
X114587099Y-51077888D01*
X114637088Y-51006497D01*
X114733811Y-50799073D01*
X114733813Y-50799068D01*
X114793048Y-50578002D01*
X114812995Y-50350000D01*
X114793048Y-50121997D01*
X114733813Y-49900931D01*
X114733811Y-49900926D01*
X114637086Y-49693498D01*
X114587100Y-49622110D01*
X114587098Y-49622110D01*
X113900000Y-50309208D01*
X113900000Y-50297339D01*
X113872741Y-50195606D01*
X113820080Y-50104394D01*
X113745606Y-50029920D01*
X113654394Y-49977259D01*
X113552661Y-49950000D01*
X113540789Y-49950000D01*
X114227888Y-49262899D01*
X114227888Y-49262898D01*
X114156501Y-49212913D01*
X113949073Y-49116188D01*
X113949068Y-49116186D01*
X113728000Y-49056951D01*
X113722587Y-49055997D01*
X113722832Y-49054607D01*
X113662942Y-49031171D01*
X113621311Y-48973661D01*
X113617380Y-48902774D01*
X113650958Y-48842433D01*
X116377987Y-46115405D01*
X116440299Y-46081379D01*
X116467082Y-46078500D01*
X118725811Y-46078500D01*
X118793932Y-46098502D01*
X118814906Y-46115404D01*
X118975700Y-46276198D01*
X119163251Y-46407523D01*
X119370757Y-46504284D01*
X119591913Y-46563543D01*
X119820000Y-46583498D01*
X120048087Y-46563543D01*
X120269243Y-46504284D01*
X120476749Y-46407523D01*
X120664300Y-46276198D01*
X120826198Y-46114300D01*
X120957523Y-45926749D01*
X121054284Y-45719243D01*
X121113031Y-45499996D01*
X163887141Y-45499996D01*
X163887141Y-45500003D01*
X163906561Y-45858183D01*
X163964592Y-46212162D01*
X164060559Y-46557801D01*
X164193326Y-46891021D01*
X164193330Y-46891030D01*
X164361350Y-47207952D01*
X164361352Y-47207956D01*
X164562654Y-47504854D01*
X164688167Y-47652621D01*
X165903367Y-46437421D01*
X165979588Y-46542330D01*
X166157670Y-46720412D01*
X166262576Y-46796631D01*
X165044502Y-48014705D01*
X165044502Y-48014706D01*
X165055297Y-48024932D01*
X165055300Y-48024934D01*
X165340849Y-48242005D01*
X165340867Y-48242017D01*
X165648227Y-48426949D01*
X165648234Y-48426953D01*
X165973766Y-48577561D01*
X165973785Y-48577569D01*
X166313706Y-48692101D01*
X166313723Y-48692106D01*
X166664022Y-48769213D01*
X166664050Y-48769218D01*
X167020637Y-48807999D01*
X167020653Y-48808000D01*
X167379347Y-48808000D01*
X167379362Y-48807999D01*
X167735949Y-48769218D01*
X167735977Y-48769213D01*
X168086276Y-48692106D01*
X168086293Y-48692101D01*
X168426214Y-48577569D01*
X168426233Y-48577561D01*
X168751765Y-48426953D01*
X168751772Y-48426949D01*
X169059132Y-48242017D01*
X169059138Y-48242013D01*
X169344701Y-48024932D01*
X169355495Y-48014706D01*
X169355495Y-48014704D01*
X168137422Y-46796631D01*
X168242330Y-46720412D01*
X168420412Y-46542330D01*
X168496631Y-46437422D01*
X169711830Y-47652621D01*
X169711831Y-47652621D01*
X169837340Y-47504862D01*
X169837342Y-47504858D01*
X170038647Y-47207956D01*
X170038649Y-47207952D01*
X170159500Y-46980000D01*
X172946502Y-46980000D01*
X172966457Y-47208087D01*
X172977175Y-47248086D01*
X173025715Y-47429240D01*
X173025717Y-47429246D01*
X173122477Y-47636749D01*
X173253795Y-47824291D01*
X173253802Y-47824300D01*
X173415700Y-47986198D01*
X173603251Y-48117523D01*
X173810757Y-48214284D01*
X174031913Y-48273543D01*
X174260000Y-48293498D01*
X174488087Y-48273543D01*
X174709243Y-48214284D01*
X174916749Y-48117523D01*
X175104300Y-47986198D01*
X175266198Y-47824300D01*
X175393685Y-47642229D01*
X175449142Y-47597901D01*
X175496898Y-47588500D01*
X177892776Y-47588500D01*
X177960897Y-47608502D01*
X178007390Y-47662158D01*
X178008163Y-47663885D01*
X178012016Y-47672670D01*
X178139685Y-47868083D01*
X178297774Y-48039813D01*
X178297778Y-48039817D01*
X178363650Y-48091087D01*
X178481983Y-48183190D01*
X178687273Y-48294287D01*
X178908049Y-48370080D01*
X178986238Y-48383127D01*
X179050138Y-48414069D01*
X179087166Y-48474645D01*
X179091500Y-48507409D01*
X179091500Y-50613676D01*
X179071498Y-50681797D01*
X179031648Y-50720916D01*
X178946656Y-50773340D01*
X178946647Y-50773347D01*
X178823347Y-50896647D01*
X178823342Y-50896653D01*
X178731791Y-51045080D01*
X178676937Y-51210622D01*
X178666500Y-51312778D01*
X178666500Y-51887212D01*
X178676937Y-51989380D01*
X178731791Y-52154920D01*
X178823342Y-52303346D01*
X178823347Y-52303352D01*
X178946647Y-52426652D01*
X178946653Y-52426657D01*
X178946654Y-52426658D01*
X179095080Y-52518209D01*
X179260619Y-52573062D01*
X179362787Y-52583500D01*
X180037212Y-52583499D01*
X180139381Y-52573062D01*
X180304920Y-52518209D01*
X180453346Y-52426658D01*
X180486259Y-52393744D01*
X180548567Y-52359720D01*
X180619382Y-52364783D01*
X180664448Y-52393745D01*
X180696960Y-52426257D01*
X180696966Y-52426262D01*
X180845292Y-52517751D01*
X181010723Y-52572568D01*
X181010726Y-52572569D01*
X181112815Y-52582999D01*
X181112815Y-52583000D01*
X181196000Y-52583000D01*
X181704000Y-52583000D01*
X181787185Y-52583000D01*
X181787184Y-52582999D01*
X181889273Y-52572569D01*
X181889276Y-52572568D01*
X182054707Y-52517751D01*
X182203033Y-52426262D01*
X182203039Y-52426257D01*
X182326257Y-52303039D01*
X182326262Y-52303033D01*
X182417751Y-52154707D01*
X182472568Y-51989276D01*
X182472569Y-51989273D01*
X182482999Y-51887184D01*
X182483000Y-51887184D01*
X182483000Y-51854000D01*
X181704000Y-51854000D01*
X181704000Y-52583000D01*
X181196000Y-52583000D01*
X181196000Y-51346000D01*
X181704000Y-51346000D01*
X182483000Y-51346000D01*
X182483000Y-51312815D01*
X182472569Y-51210726D01*
X182472568Y-51210723D01*
X182417751Y-51045292D01*
X182326262Y-50896966D01*
X182326257Y-50896960D01*
X182203039Y-50773742D01*
X182203033Y-50773737D01*
X182054707Y-50682248D01*
X181889276Y-50627431D01*
X181889273Y-50627430D01*
X181787184Y-50617000D01*
X181704000Y-50617000D01*
X181704000Y-51346000D01*
X181196000Y-51346000D01*
X181196000Y-50617000D01*
X181112815Y-50617000D01*
X181010726Y-50627430D01*
X181010723Y-50627431D01*
X180845292Y-50682248D01*
X180696966Y-50773737D01*
X180664447Y-50806256D01*
X180602135Y-50840280D01*
X180531319Y-50835214D01*
X180486258Y-50806254D01*
X180453346Y-50773342D01*
X180429952Y-50758912D01*
X180368352Y-50720916D01*
X180320874Y-50668130D01*
X180308500Y-50613676D01*
X180308500Y-48342784D01*
X180328502Y-48274663D01*
X180382158Y-48228170D01*
X180452432Y-48218066D01*
X180517012Y-48247560D01*
X180525537Y-48256717D01*
X180525723Y-48256532D01*
X180532093Y-48262902D01*
X180649034Y-48350444D01*
X180785906Y-48401494D01*
X180846402Y-48407999D01*
X180846415Y-48408000D01*
X181541000Y-48408000D01*
X181541000Y-47372968D01*
X181621306Y-47419333D01*
X181735756Y-47450000D01*
X181854244Y-47450000D01*
X181968694Y-47419333D01*
X182049000Y-47372968D01*
X182049000Y-48408000D01*
X182743585Y-48408000D01*
X182743597Y-48407999D01*
X182804093Y-48401494D01*
X182940964Y-48350444D01*
X182940965Y-48350444D01*
X183057904Y-48262904D01*
X183145444Y-48145965D01*
X183145444Y-48145964D01*
X183196494Y-48009093D01*
X183202999Y-47948597D01*
X183203000Y-47948585D01*
X183203000Y-47867810D01*
X183223002Y-47799689D01*
X183276658Y-47753196D01*
X183346932Y-47743092D01*
X183411512Y-47772586D01*
X183434483Y-47798895D01*
X183479685Y-47868083D01*
X183637774Y-48039813D01*
X183637778Y-48039817D01*
X183703650Y-48091087D01*
X183821983Y-48183190D01*
X184027273Y-48294287D01*
X184248049Y-48370080D01*
X184261234Y-48372280D01*
X184325135Y-48403219D01*
X184362164Y-48463794D01*
X184366500Y-48496562D01*
X184366500Y-50613676D01*
X184346498Y-50681797D01*
X184306648Y-50720916D01*
X184221656Y-50773340D01*
X184221647Y-50773347D01*
X184098347Y-50896647D01*
X184098342Y-50896653D01*
X184006791Y-51045080D01*
X183951937Y-51210622D01*
X183941500Y-51312778D01*
X183941500Y-51887212D01*
X183951937Y-51989380D01*
X184006791Y-52154920D01*
X184098342Y-52303346D01*
X184098347Y-52303352D01*
X184221647Y-52426652D01*
X184221653Y-52426657D01*
X184221654Y-52426658D01*
X184306647Y-52479082D01*
X184354125Y-52531868D01*
X184366500Y-52586323D01*
X184366500Y-52740760D01*
X184346498Y-52808881D01*
X184329595Y-52829855D01*
X181461130Y-55698319D01*
X181398818Y-55732345D01*
X181339424Y-55730931D01*
X181248087Y-55706457D01*
X181020000Y-55686502D01*
X180791913Y-55706457D01*
X180570759Y-55765715D01*
X180570753Y-55765717D01*
X180363250Y-55862477D01*
X180175703Y-55993799D01*
X180175697Y-55993804D01*
X180013804Y-56155697D01*
X180013799Y-56155703D01*
X179882477Y-56343250D01*
X179785717Y-56550753D01*
X179785715Y-56550759D01*
X179740571Y-56719240D01*
X179726457Y-56771913D01*
X179706502Y-57000000D01*
X179726457Y-57228087D01*
X179744672Y-57296067D01*
X179785715Y-57449240D01*
X179785717Y-57449246D01*
X179882477Y-57656749D01*
X180012896Y-57843007D01*
X180013802Y-57844300D01*
X180175700Y-58006198D01*
X180363251Y-58137523D01*
X180570757Y-58234284D01*
X180791913Y-58293543D01*
X181020000Y-58313498D01*
X181248087Y-58293543D01*
X181469243Y-58234284D01*
X181676749Y-58137523D01*
X181864300Y-58006198D01*
X182026198Y-57844300D01*
X182157523Y-57656749D01*
X182254284Y-57449243D01*
X182313543Y-57228087D01*
X182333498Y-57000000D01*
X182313543Y-56771913D01*
X182289068Y-56680573D01*
X182290756Y-56609599D01*
X182321677Y-56558870D01*
X185461922Y-53418627D01*
X185542032Y-53279872D01*
X185563055Y-53201412D01*
X185563056Y-53201409D01*
X185566092Y-53190075D01*
X185583500Y-53125111D01*
X185583500Y-52586323D01*
X185603502Y-52518202D01*
X185643353Y-52479082D01*
X185728346Y-52426658D01*
X185761259Y-52393744D01*
X185823567Y-52359720D01*
X185894382Y-52364783D01*
X185939448Y-52393745D01*
X185971960Y-52426257D01*
X185971966Y-52426262D01*
X186120292Y-52517751D01*
X186285723Y-52572568D01*
X186285726Y-52572569D01*
X186387815Y-52582999D01*
X186387815Y-52583000D01*
X186471000Y-52583000D01*
X186979000Y-52583000D01*
X187062185Y-52583000D01*
X187062184Y-52582999D01*
X187164273Y-52572569D01*
X187164276Y-52572568D01*
X187329707Y-52517751D01*
X187478033Y-52426262D01*
X187478039Y-52426257D01*
X187601257Y-52303039D01*
X187601262Y-52303033D01*
X187692751Y-52154707D01*
X187747568Y-51989276D01*
X187747569Y-51989273D01*
X187757999Y-51887184D01*
X187758000Y-51887184D01*
X189367000Y-51887184D01*
X189377430Y-51989273D01*
X189377431Y-51989276D01*
X189432248Y-52154707D01*
X189523737Y-52303033D01*
X189523742Y-52303039D01*
X189646960Y-52426257D01*
X189646966Y-52426262D01*
X189795292Y-52517751D01*
X189960723Y-52572568D01*
X189960726Y-52572569D01*
X190062815Y-52582999D01*
X190062815Y-52583000D01*
X190146000Y-52583000D01*
X190146000Y-51854000D01*
X189367000Y-51854000D01*
X189367000Y-51887184D01*
X187758000Y-51887184D01*
X187758000Y-51854000D01*
X186979000Y-51854000D01*
X186979000Y-52583000D01*
X186471000Y-52583000D01*
X186471000Y-51346000D01*
X186979000Y-51346000D01*
X187758000Y-51346000D01*
X187758000Y-51312815D01*
X189367000Y-51312815D01*
X189367000Y-51346000D01*
X190146000Y-51346000D01*
X190146000Y-50617000D01*
X190062815Y-50617000D01*
X189960726Y-50627430D01*
X189960723Y-50627431D01*
X189795292Y-50682248D01*
X189646966Y-50773737D01*
X189646960Y-50773742D01*
X189523742Y-50896960D01*
X189523737Y-50896966D01*
X189432248Y-51045292D01*
X189377431Y-51210723D01*
X189377430Y-51210726D01*
X189367000Y-51312815D01*
X187758000Y-51312815D01*
X187747569Y-51210726D01*
X187747568Y-51210723D01*
X187692751Y-51045292D01*
X187601262Y-50896966D01*
X187601257Y-50896960D01*
X187478039Y-50773742D01*
X187478033Y-50773737D01*
X187329707Y-50682248D01*
X187164276Y-50627431D01*
X187164273Y-50627430D01*
X187062184Y-50617000D01*
X186979000Y-50617000D01*
X186979000Y-51346000D01*
X186471000Y-51346000D01*
X186471000Y-50617000D01*
X186387815Y-50617000D01*
X186285726Y-50627430D01*
X186285723Y-50627431D01*
X186120292Y-50682248D01*
X185971966Y-50773737D01*
X185939447Y-50806256D01*
X185877135Y-50840280D01*
X185806319Y-50835214D01*
X185761258Y-50806254D01*
X185728346Y-50773342D01*
X185704952Y-50758912D01*
X185643352Y-50720916D01*
X185595874Y-50668130D01*
X185583500Y-50613676D01*
X185583500Y-48255955D01*
X185603502Y-48187834D01*
X185657158Y-48141341D01*
X185727432Y-48131237D01*
X185792012Y-48160731D01*
X185810368Y-48180446D01*
X185872095Y-48262904D01*
X185989034Y-48350444D01*
X186125906Y-48401494D01*
X186186402Y-48407999D01*
X186186415Y-48408000D01*
X186881000Y-48408000D01*
X186881000Y-47372968D01*
X186961306Y-47419333D01*
X187075756Y-47450000D01*
X187194244Y-47450000D01*
X187308694Y-47419333D01*
X187389000Y-47372968D01*
X187389000Y-48408000D01*
X188083585Y-48408000D01*
X188083597Y-48407999D01*
X188144093Y-48401494D01*
X188280964Y-48350444D01*
X188280965Y-48350444D01*
X188397904Y-48262904D01*
X188485444Y-48145965D01*
X188485444Y-48145964D01*
X188536494Y-48009093D01*
X188542999Y-47948597D01*
X188543000Y-47948585D01*
X188543000Y-47759754D01*
X188563002Y-47691633D01*
X188616658Y-47645140D01*
X188686932Y-47635036D01*
X188751512Y-47664530D01*
X188774483Y-47690839D01*
X188845795Y-47799991D01*
X188845796Y-47799991D01*
X189561666Y-47084121D01*
X189585667Y-47173694D01*
X189644910Y-47276306D01*
X189728694Y-47360090D01*
X189831306Y-47419333D01*
X189920875Y-47443333D01*
X189203680Y-48160528D01*
X189203681Y-48160529D01*
X189232249Y-48182765D01*
X189232258Y-48182771D01*
X189437474Y-48293827D01*
X189437477Y-48293829D01*
X189658167Y-48369592D01*
X189658176Y-48369594D01*
X189888334Y-48408000D01*
X190121666Y-48408000D01*
X190351823Y-48369594D01*
X190351832Y-48369592D01*
X190572522Y-48293829D01*
X190572525Y-48293827D01*
X190777738Y-48182772D01*
X190806317Y-48160528D01*
X190089123Y-47443333D01*
X190178694Y-47419333D01*
X190281306Y-47360090D01*
X190365090Y-47276306D01*
X190424333Y-47173694D01*
X190448333Y-47084122D01*
X191099595Y-47735384D01*
X191133620Y-47797697D01*
X191136500Y-47824480D01*
X191136500Y-47948649D01*
X191143009Y-48009196D01*
X191143011Y-48009204D01*
X191194110Y-48146202D01*
X191194112Y-48146207D01*
X191281738Y-48263261D01*
X191398791Y-48350886D01*
X191398792Y-48350886D01*
X191398796Y-48350889D01*
X191459535Y-48373543D01*
X191516368Y-48416089D01*
X191541179Y-48482610D01*
X191541500Y-48491598D01*
X191541500Y-50613676D01*
X191521498Y-50681797D01*
X191481648Y-50720916D01*
X191396656Y-50773340D01*
X191396647Y-50773347D01*
X191363741Y-50806254D01*
X191301429Y-50840280D01*
X191230614Y-50835215D01*
X191185551Y-50806254D01*
X191153039Y-50773742D01*
X191153033Y-50773737D01*
X191004707Y-50682248D01*
X190839276Y-50627431D01*
X190839273Y-50627430D01*
X190737184Y-50617000D01*
X190654000Y-50617000D01*
X190654000Y-52583000D01*
X190737185Y-52583000D01*
X190737184Y-52582999D01*
X190839273Y-52572569D01*
X190839276Y-52572568D01*
X191004707Y-52517751D01*
X191153033Y-52426262D01*
X191185549Y-52393746D01*
X191247861Y-52359720D01*
X191318677Y-52364784D01*
X191363740Y-52393744D01*
X191396654Y-52426658D01*
X191545080Y-52518209D01*
X191710619Y-52573062D01*
X191812787Y-52583500D01*
X192487212Y-52583499D01*
X192589381Y-52573062D01*
X192754920Y-52518209D01*
X192903346Y-52426658D01*
X193026658Y-52303346D01*
X193118209Y-52154920D01*
X193173062Y-51989381D01*
X193183500Y-51887213D01*
X193183499Y-51312788D01*
X193173062Y-51210619D01*
X193118209Y-51045080D01*
X193026658Y-50896654D01*
X193026657Y-50896653D01*
X193026652Y-50896647D01*
X192903352Y-50773347D01*
X192903343Y-50773340D01*
X192818352Y-50720916D01*
X192770874Y-50668130D01*
X192758500Y-50613676D01*
X192758500Y-48534500D01*
X192778502Y-48466379D01*
X192832158Y-48419886D01*
X192884500Y-48408500D01*
X193493632Y-48408500D01*
X193493638Y-48408500D01*
X193493645Y-48408499D01*
X193493649Y-48408499D01*
X193554196Y-48401990D01*
X193554199Y-48401989D01*
X193554201Y-48401989D01*
X193557679Y-48400692D01*
X193604771Y-48383127D01*
X193691204Y-48350889D01*
X193691799Y-48350444D01*
X193808261Y-48263261D01*
X193895887Y-48146207D01*
X193895887Y-48146206D01*
X193895889Y-48146204D01*
X193944936Y-48014705D01*
X193946988Y-48009204D01*
X193946990Y-48009196D01*
X193953499Y-47948649D01*
X193953500Y-47948632D01*
X193953500Y-47734500D01*
X193973502Y-47666379D01*
X194027158Y-47619886D01*
X194079500Y-47608500D01*
X194900381Y-47608500D01*
X194968502Y-47628502D01*
X195007562Y-47673233D01*
X195009726Y-47671985D01*
X195012474Y-47676746D01*
X195122599Y-47834019D01*
X195143802Y-47864300D01*
X195305700Y-48026198D01*
X195493251Y-48157523D01*
X195700757Y-48254284D01*
X195921913Y-48313543D01*
X196150000Y-48333498D01*
X196378087Y-48313543D01*
X196599243Y-48254284D01*
X196806749Y-48157523D01*
X196994300Y-48026198D01*
X197156198Y-47864300D01*
X197287523Y-47676749D01*
X197384284Y-47469243D01*
X197443543Y-47248087D01*
X197463498Y-47020000D01*
X197443543Y-46791913D01*
X197384284Y-46570757D01*
X197287523Y-46363251D01*
X197156198Y-46175700D01*
X196994300Y-46013802D01*
X196961448Y-45990799D01*
X196806749Y-45882477D01*
X196599246Y-45785717D01*
X196599240Y-45785715D01*
X196505771Y-45760670D01*
X196378087Y-45726457D01*
X196150000Y-45706502D01*
X195921913Y-45726457D01*
X195700759Y-45785715D01*
X195700753Y-45785717D01*
X195493250Y-45882477D01*
X195305703Y-46013799D01*
X195305697Y-46013804D01*
X195143804Y-46175697D01*
X195143799Y-46175703D01*
X195030318Y-46337771D01*
X194974861Y-46382099D01*
X194927105Y-46391500D01*
X194079500Y-46391500D01*
X194011379Y-46371498D01*
X193964886Y-46317842D01*
X193953500Y-46265500D01*
X193953500Y-46051367D01*
X193953499Y-46051350D01*
X193946990Y-45990803D01*
X193946988Y-45990795D01*
X193908311Y-45887100D01*
X193895889Y-45853796D01*
X193895888Y-45853794D01*
X193895887Y-45853792D01*
X193808261Y-45736738D01*
X193691207Y-45649112D01*
X193691202Y-45649110D01*
X193554204Y-45598011D01*
X193554196Y-45598009D01*
X193493649Y-45591500D01*
X193493638Y-45591500D01*
X191596362Y-45591500D01*
X191596350Y-45591500D01*
X191535803Y-45598009D01*
X191535795Y-45598011D01*
X191398797Y-45649110D01*
X191398792Y-45649112D01*
X191281738Y-45736738D01*
X191194112Y-45853792D01*
X191194110Y-45853797D01*
X191143011Y-45990795D01*
X191143009Y-45990803D01*
X191136500Y-46051350D01*
X191136500Y-46175519D01*
X191116498Y-46243640D01*
X191099595Y-46264614D01*
X190448333Y-46915875D01*
X190424333Y-46826306D01*
X190365090Y-46723694D01*
X190281306Y-46639910D01*
X190178694Y-46580667D01*
X190089122Y-46556666D01*
X190806318Y-45839470D01*
X190777743Y-45817229D01*
X190777741Y-45817228D01*
X190572525Y-45706172D01*
X190572522Y-45706170D01*
X190351832Y-45630407D01*
X190351823Y-45630405D01*
X190121666Y-45592000D01*
X189888334Y-45592000D01*
X189658176Y-45630405D01*
X189658167Y-45630407D01*
X189437477Y-45706170D01*
X189437474Y-45706172D01*
X189232259Y-45817227D01*
X189203681Y-45839470D01*
X189203680Y-45839470D01*
X189920876Y-46556666D01*
X189831306Y-46580667D01*
X189728694Y-46639910D01*
X189644910Y-46723694D01*
X189585667Y-46826306D01*
X189561666Y-46915876D01*
X188845796Y-46200006D01*
X188845795Y-46200007D01*
X188774483Y-46309160D01*
X188720480Y-46355249D01*
X188650132Y-46364824D01*
X188585775Y-46334847D01*
X188547841Y-46274834D01*
X188543000Y-46240245D01*
X188543000Y-46051414D01*
X188542999Y-46051402D01*
X188536494Y-45990906D01*
X188485444Y-45854035D01*
X188485444Y-45854034D01*
X188397904Y-45737095D01*
X188280965Y-45649555D01*
X188144093Y-45598505D01*
X188083597Y-45592000D01*
X187389000Y-45592000D01*
X187389000Y-46627031D01*
X187308694Y-46580667D01*
X187194244Y-46550000D01*
X187075756Y-46550000D01*
X186961306Y-46580667D01*
X186881000Y-46627031D01*
X186881000Y-45592000D01*
X186186402Y-45592000D01*
X186125906Y-45598505D01*
X185989035Y-45649555D01*
X185989034Y-45649555D01*
X185872095Y-45737095D01*
X185784555Y-45854034D01*
X185784554Y-45854037D01*
X185761121Y-45916863D01*
X185718574Y-45973698D01*
X185652054Y-45998508D01*
X185582680Y-45983416D01*
X185556644Y-45963069D01*
X185556054Y-45963711D01*
X185552221Y-45960182D01*
X185422492Y-45859210D01*
X185368017Y-45816810D01*
X185162727Y-45705713D01*
X185162724Y-45705712D01*
X185162723Y-45705711D01*
X184941955Y-45629921D01*
X184941948Y-45629919D01*
X184843411Y-45613476D01*
X184711712Y-45591500D01*
X184478288Y-45591500D01*
X184363066Y-45610727D01*
X184248051Y-45629919D01*
X184248044Y-45629921D01*
X184027276Y-45705711D01*
X184027273Y-45705713D01*
X183821985Y-45816809D01*
X183821983Y-45816810D01*
X183637778Y-45960182D01*
X183637774Y-45960186D01*
X183479687Y-46131914D01*
X183434483Y-46201105D01*
X183380479Y-46247193D01*
X183310131Y-46256768D01*
X183245774Y-46226790D01*
X183207840Y-46166777D01*
X183203000Y-46132189D01*
X183203000Y-46051414D01*
X183202999Y-46051402D01*
X183196494Y-45990906D01*
X183145444Y-45854035D01*
X183145444Y-45854034D01*
X183057904Y-45737095D01*
X182940965Y-45649555D01*
X182804093Y-45598505D01*
X182743597Y-45592000D01*
X182049000Y-45592000D01*
X182049000Y-46627031D01*
X181968694Y-46580667D01*
X181854244Y-46550000D01*
X181735756Y-46550000D01*
X181621306Y-46580667D01*
X181541000Y-46627031D01*
X181541000Y-45592000D01*
X180846402Y-45592000D01*
X180785906Y-45598505D01*
X180649035Y-45649555D01*
X180649034Y-45649555D01*
X180532095Y-45737095D01*
X180444555Y-45854034D01*
X180444554Y-45854037D01*
X180421121Y-45916863D01*
X180378574Y-45973698D01*
X180312054Y-45998508D01*
X180242680Y-45983416D01*
X180216644Y-45963069D01*
X180216054Y-45963711D01*
X180212221Y-45960182D01*
X180082492Y-45859210D01*
X180028017Y-45816810D01*
X179822727Y-45705713D01*
X179822724Y-45705712D01*
X179822723Y-45705711D01*
X179601955Y-45629921D01*
X179601948Y-45629919D01*
X179503411Y-45613476D01*
X179371712Y-45591500D01*
X179138288Y-45591500D01*
X179023066Y-45610727D01*
X178908051Y-45629919D01*
X178908044Y-45629921D01*
X178687276Y-45705711D01*
X178687273Y-45705713D01*
X178481985Y-45816809D01*
X178481983Y-45816810D01*
X178297778Y-45960182D01*
X178297774Y-45960186D01*
X178139685Y-46131916D01*
X178020454Y-46314415D01*
X177966451Y-46360504D01*
X177914971Y-46371500D01*
X175496898Y-46371500D01*
X175428777Y-46351498D01*
X175393685Y-46317770D01*
X175266204Y-46135708D01*
X175266200Y-46135703D01*
X175266198Y-46135700D01*
X175104300Y-45973802D01*
X175104151Y-45973698D01*
X174916749Y-45842477D01*
X174709246Y-45745717D01*
X174709240Y-45745715D01*
X174562895Y-45706502D01*
X174488087Y-45686457D01*
X174260000Y-45666502D01*
X174031913Y-45686457D01*
X173810759Y-45745715D01*
X173810753Y-45745717D01*
X173603250Y-45842477D01*
X173415703Y-45973799D01*
X173415697Y-45973804D01*
X173253804Y-46135697D01*
X173253799Y-46135703D01*
X173122477Y-46323250D01*
X173025717Y-46530753D01*
X173025715Y-46530759D01*
X172981473Y-46695873D01*
X172966457Y-46751913D01*
X172946502Y-46980000D01*
X170159500Y-46980000D01*
X170206669Y-46891030D01*
X170206673Y-46891021D01*
X170339440Y-46557801D01*
X170435407Y-46212162D01*
X170493438Y-45858183D01*
X170512859Y-45500003D01*
X170512859Y-45499996D01*
X170493438Y-45141816D01*
X170435407Y-44787837D01*
X170339440Y-44442198D01*
X170206673Y-44108978D01*
X170206669Y-44108969D01*
X170038649Y-43792047D01*
X170038647Y-43792043D01*
X169837348Y-43495150D01*
X169711830Y-43347378D01*
X168496631Y-44562577D01*
X168420412Y-44457670D01*
X168242330Y-44279588D01*
X168137422Y-44203367D01*
X169355496Y-42985293D01*
X169355496Y-42985292D01*
X169344702Y-42975067D01*
X169344699Y-42975065D01*
X169059150Y-42757994D01*
X169059132Y-42757982D01*
X168751772Y-42573050D01*
X168751765Y-42573046D01*
X168426233Y-42422438D01*
X168426214Y-42422430D01*
X168086293Y-42307898D01*
X168086276Y-42307893D01*
X167735977Y-42230786D01*
X167735949Y-42230781D01*
X167379362Y-42192000D01*
X167020637Y-42192000D01*
X166664050Y-42230781D01*
X166664022Y-42230786D01*
X166313723Y-42307893D01*
X166313706Y-42307898D01*
X165973785Y-42422430D01*
X165973766Y-42422438D01*
X165648234Y-42573046D01*
X165648227Y-42573050D01*
X165340867Y-42757982D01*
X165340861Y-42757986D01*
X165055299Y-42975067D01*
X165044502Y-42985293D01*
X166262577Y-44203368D01*
X166157670Y-44279588D01*
X165979588Y-44457670D01*
X165903368Y-44562577D01*
X164688168Y-43347377D01*
X164562654Y-43495145D01*
X164361352Y-43792043D01*
X164361350Y-43792047D01*
X164193330Y-44108969D01*
X164193326Y-44108978D01*
X164060559Y-44442198D01*
X163964592Y-44787837D01*
X163906561Y-45141816D01*
X163887141Y-45499996D01*
X121113031Y-45499996D01*
X121113543Y-45498087D01*
X121133498Y-45270000D01*
X121113543Y-45041913D01*
X121054284Y-44820757D01*
X120957523Y-44613251D01*
X120826198Y-44425700D01*
X120664300Y-44263802D01*
X120614306Y-44228796D01*
X120476749Y-44132477D01*
X120269246Y-44035717D01*
X120269240Y-44035715D01*
X120175771Y-44010670D01*
X120048087Y-43976457D01*
X119820000Y-43956502D01*
X119819998Y-43956502D01*
X119722106Y-43965066D01*
X119652502Y-43951076D01*
X119622031Y-43928640D01*
X116615394Y-40922001D01*
X116615388Y-40921996D01*
X116482968Y-40833516D01*
X116409399Y-40803043D01*
X116335836Y-40772572D01*
X116335831Y-40772570D01*
X116179632Y-40741500D01*
X116179630Y-40741500D01*
X54700370Y-40741500D01*
X54700367Y-40741500D01*
X54544168Y-40772570D01*
X54544163Y-40772572D01*
X54483222Y-40797815D01*
X54397030Y-40833516D01*
X54264611Y-40921996D01*
X54264605Y-40922001D01*
X51502013Y-43684595D01*
X51439701Y-43718621D01*
X51412918Y-43721500D01*
X49851350Y-43721500D01*
X49790803Y-43728009D01*
X49790795Y-43728011D01*
X49653797Y-43779110D01*
X49653792Y-43779112D01*
X49536738Y-43866738D01*
X49449112Y-43983792D01*
X49449110Y-43983797D01*
X49398011Y-44120795D01*
X49398009Y-44120803D01*
X49391500Y-44181350D01*
X49391500Y-46478649D01*
X49398009Y-46539196D01*
X49398011Y-46539204D01*
X49449110Y-46676202D01*
X49449112Y-46676207D01*
X49536738Y-46793261D01*
X49653792Y-46880887D01*
X49653794Y-46880888D01*
X49653796Y-46880889D01*
X49708203Y-46901182D01*
X49790795Y-46931988D01*
X49790803Y-46931990D01*
X49851350Y-46938499D01*
X49851355Y-46938499D01*
X49851362Y-46938500D01*
X50065500Y-46938500D01*
X50133621Y-46958502D01*
X50180114Y-47012158D01*
X50191500Y-47064500D01*
X50191500Y-48213000D01*
X50171498Y-48281121D01*
X50117842Y-48327614D01*
X50065500Y-48339000D01*
X49951350Y-48339000D01*
X49890803Y-48345509D01*
X49890795Y-48345511D01*
X49753797Y-48396610D01*
X49753792Y-48396612D01*
X49636738Y-48484238D01*
X49549112Y-48601292D01*
X49549110Y-48601297D01*
X49498011Y-48738295D01*
X49498009Y-48738303D01*
X49491500Y-48798850D01*
X49491500Y-48865500D01*
X49471498Y-48933621D01*
X49417842Y-48980114D01*
X49365500Y-48991500D01*
X46194189Y-48991500D01*
X46126068Y-48971498D01*
X46105094Y-48954596D01*
X46042498Y-48892000D01*
X45944300Y-48793802D01*
X45909183Y-48769213D01*
X45756749Y-48662477D01*
X45549246Y-48565717D01*
X45549240Y-48565715D01*
X45432744Y-48534500D01*
X45328087Y-48506457D01*
X45100000Y-48486502D01*
X44871913Y-48506457D01*
X44650759Y-48565715D01*
X44650753Y-48565717D01*
X44443250Y-48662477D01*
X44255703Y-48793799D01*
X44094906Y-48954596D01*
X44032594Y-48988621D01*
X44005811Y-48991500D01*
X43515863Y-48991500D01*
X43515843Y-48991499D01*
X43509630Y-48991499D01*
X43350370Y-48991499D01*
X43350369Y-48991499D01*
X43220085Y-49017414D01*
X43220085Y-49017415D01*
X43211446Y-49019133D01*
X43194167Y-49022570D01*
X43194161Y-49022572D01*
X43181945Y-49027633D01*
X43181944Y-49027634D01*
X43047031Y-49083516D01*
X42914615Y-49171994D01*
X42914608Y-49171999D01*
X40401999Y-51684608D01*
X40401994Y-51684615D01*
X40313515Y-51817031D01*
X40306128Y-51834869D01*
X40306126Y-51834874D01*
X40292408Y-51867991D01*
X40247859Y-51923271D01*
X40180496Y-51945691D01*
X40111705Y-51928132D01*
X40063327Y-51876169D01*
X40050000Y-51819771D01*
X40050000Y-44800000D01*
X43787004Y-44800000D01*
X43806951Y-45028002D01*
X43866186Y-45249068D01*
X43866188Y-45249073D01*
X43962913Y-45456501D01*
X44012899Y-45527888D01*
X44700000Y-44840788D01*
X44700000Y-44852661D01*
X44727259Y-44954394D01*
X44779920Y-45045606D01*
X44854394Y-45120080D01*
X44945606Y-45172741D01*
X45047339Y-45200000D01*
X45059210Y-45200000D01*
X44372110Y-45887098D01*
X44372110Y-45887100D01*
X44443498Y-45937086D01*
X44650926Y-46033811D01*
X44650931Y-46033813D01*
X44871999Y-46093048D01*
X44871995Y-46093048D01*
X45100000Y-46112995D01*
X45328002Y-46093048D01*
X45549068Y-46033813D01*
X45549073Y-46033811D01*
X45756497Y-45937088D01*
X45827888Y-45887099D01*
X45827888Y-45887097D01*
X45140791Y-45200000D01*
X45152661Y-45200000D01*
X45254394Y-45172741D01*
X45345606Y-45120080D01*
X45420080Y-45045606D01*
X45472741Y-44954394D01*
X45500000Y-44852661D01*
X45500000Y-44840791D01*
X46187097Y-45527888D01*
X46187099Y-45527888D01*
X46237088Y-45456497D01*
X46333811Y-45249073D01*
X46333813Y-45249068D01*
X46393048Y-45028002D01*
X46412995Y-44800000D01*
X46393048Y-44571997D01*
X46333813Y-44350931D01*
X46333811Y-44350926D01*
X46237086Y-44143498D01*
X46187100Y-44072110D01*
X46187098Y-44072110D01*
X45500000Y-44759208D01*
X45500000Y-44747339D01*
X45472741Y-44645606D01*
X45420080Y-44554394D01*
X45345606Y-44479920D01*
X45254394Y-44427259D01*
X45152661Y-44400000D01*
X45140790Y-44400000D01*
X45827888Y-43712899D01*
X45827888Y-43712898D01*
X45756501Y-43662913D01*
X45549073Y-43566188D01*
X45549068Y-43566186D01*
X45328000Y-43506951D01*
X45328004Y-43506951D01*
X45100000Y-43487004D01*
X44871997Y-43506951D01*
X44650931Y-43566186D01*
X44650926Y-43566188D01*
X44443500Y-43662913D01*
X44372109Y-43712900D01*
X45059209Y-44400000D01*
X45047339Y-44400000D01*
X44945606Y-44427259D01*
X44854394Y-44479920D01*
X44779920Y-44554394D01*
X44727259Y-44645606D01*
X44700000Y-44747339D01*
X44700000Y-44759209D01*
X44012900Y-44072109D01*
X43962913Y-44143500D01*
X43866188Y-44350926D01*
X43866186Y-44350931D01*
X43806951Y-44571997D01*
X43787004Y-44800000D01*
X40050000Y-44800000D01*
X40050000Y-40176000D01*
X40070002Y-40107879D01*
X40123658Y-40061386D01*
X40176000Y-40050000D01*
X199824000Y-40050000D01*
X199892121Y-40070002D01*
G37*
%TD.AperFunction*%
%TA.AperFunction,Conductor*%
G36*
X51341869Y-78890922D02*
G01*
X51342162Y-78890980D01*
X51343021Y-78891151D01*
X57805811Y-78891151D01*
X57873932Y-78911153D01*
X57894906Y-78928055D01*
X58055700Y-79088849D01*
X58243251Y-79220174D01*
X58450757Y-79316935D01*
X58671913Y-79376194D01*
X58900000Y-79396149D01*
X59128087Y-79376194D01*
X59349243Y-79316935D01*
X59556749Y-79220174D01*
X59744300Y-79088849D01*
X59905094Y-78928055D01*
X59967406Y-78894030D01*
X59994189Y-78891151D01*
X68812894Y-78891151D01*
X68881015Y-78911153D01*
X68918378Y-78948238D01*
X68924274Y-78957263D01*
X68924279Y-78957270D01*
X69076762Y-79122908D01*
X69131331Y-79165381D01*
X69254424Y-79261189D01*
X69288205Y-79279470D01*
X69338596Y-79329482D01*
X69353949Y-79398799D01*
X69329389Y-79465412D01*
X69288209Y-79501096D01*
X69254704Y-79519228D01*
X69254698Y-79519232D01*
X69077097Y-79657465D01*
X68924674Y-79823041D01*
X68801580Y-80011451D01*
X68711179Y-80217543D01*
X68711176Y-80217550D01*
X68663455Y-80405999D01*
X68663456Y-80406000D01*
X69569297Y-80406000D01*
X69534075Y-80467007D01*
X69500000Y-80594174D01*
X69500000Y-80725826D01*
X69534075Y-80852993D01*
X69569297Y-80914000D01*
X68663455Y-80914000D01*
X68711176Y-81102449D01*
X68711179Y-81102456D01*
X68801580Y-81308548D01*
X68924674Y-81496958D01*
X69077097Y-81662534D01*
X69254698Y-81800767D01*
X69254699Y-81800768D01*
X69288734Y-81819187D01*
X69339123Y-81869201D01*
X69354475Y-81938518D01*
X69329913Y-82005130D01*
X69288734Y-82040813D01*
X69254699Y-82059231D01*
X69254698Y-82059232D01*
X69077097Y-82197465D01*
X68924674Y-82363041D01*
X68801580Y-82551451D01*
X68711179Y-82757543D01*
X68711176Y-82757550D01*
X68663455Y-82945999D01*
X68663456Y-82946000D01*
X69569297Y-82946000D01*
X69534075Y-83007007D01*
X69500000Y-83134174D01*
X69500000Y-83265826D01*
X69534075Y-83392993D01*
X69569297Y-83454000D01*
X68663455Y-83454000D01*
X68711176Y-83642449D01*
X68711179Y-83642456D01*
X68801580Y-83848548D01*
X68924674Y-84036958D01*
X69077097Y-84202534D01*
X69254698Y-84340767D01*
X69254699Y-84340768D01*
X69288734Y-84359187D01*
X69339123Y-84409201D01*
X69354475Y-84478518D01*
X69329913Y-84545130D01*
X69288734Y-84580813D01*
X69254699Y-84599231D01*
X69254698Y-84599232D01*
X69077097Y-84737465D01*
X68924674Y-84903041D01*
X68801580Y-85091451D01*
X68711179Y-85297543D01*
X68711176Y-85297550D01*
X68663455Y-85485999D01*
X68663456Y-85486000D01*
X69569297Y-85486000D01*
X69534075Y-85547007D01*
X69500000Y-85674174D01*
X69500000Y-85805826D01*
X69534075Y-85932993D01*
X69569297Y-85994000D01*
X68663455Y-85994000D01*
X68711176Y-86182449D01*
X68711179Y-86182456D01*
X68801580Y-86388548D01*
X68924674Y-86576958D01*
X69077097Y-86742534D01*
X69254698Y-86880767D01*
X69254704Y-86880771D01*
X69288207Y-86898902D01*
X69338597Y-86948915D01*
X69353949Y-87018232D01*
X69329388Y-87084845D01*
X69288207Y-87120528D01*
X69254430Y-87138807D01*
X69254424Y-87138811D01*
X69076762Y-87277091D01*
X68935227Y-87430838D01*
X68874373Y-87467409D01*
X68842526Y-87471500D01*
X49534367Y-87471500D01*
X49466246Y-87451498D01*
X49419753Y-87397842D01*
X49409147Y-87354686D01*
X49408861Y-87354717D01*
X49408632Y-87352592D01*
X49408548Y-87352248D01*
X49408500Y-87351364D01*
X49401990Y-87290803D01*
X49401988Y-87290795D01*
X49362079Y-87183797D01*
X49350889Y-87153796D01*
X49350888Y-87153794D01*
X49350887Y-87153792D01*
X49263261Y-87036738D01*
X49146207Y-86949112D01*
X49146204Y-86949111D01*
X49030686Y-86906024D01*
X48973851Y-86863477D01*
X48949041Y-86796957D01*
X48964133Y-86727583D01*
X48982019Y-86702632D01*
X49125323Y-86546961D01*
X49248419Y-86358548D01*
X49338820Y-86152456D01*
X49338823Y-86152449D01*
X49386544Y-85964000D01*
X48480703Y-85964000D01*
X48515925Y-85902993D01*
X48550000Y-85775826D01*
X48550000Y-85644174D01*
X48515925Y-85517007D01*
X48480703Y-85456000D01*
X49386544Y-85456000D01*
X49386544Y-85455999D01*
X49338823Y-85267550D01*
X49338820Y-85267543D01*
X49248419Y-85061451D01*
X49125325Y-84873041D01*
X48972902Y-84707465D01*
X48795301Y-84569232D01*
X48795300Y-84569231D01*
X48761267Y-84550814D01*
X48710876Y-84500801D01*
X48695524Y-84431484D01*
X48720085Y-84364871D01*
X48761267Y-84329186D01*
X48795300Y-84310768D01*
X48795301Y-84310767D01*
X48972902Y-84172534D01*
X49125325Y-84006958D01*
X49248419Y-83818548D01*
X49338820Y-83612456D01*
X49338823Y-83612449D01*
X49386544Y-83424000D01*
X48480703Y-83424000D01*
X48515925Y-83362993D01*
X48550000Y-83235826D01*
X48550000Y-83104174D01*
X48544233Y-83082651D01*
X57587004Y-83082651D01*
X57606951Y-83310653D01*
X57666186Y-83531719D01*
X57666188Y-83531724D01*
X57762913Y-83739152D01*
X57812899Y-83810539D01*
X58500000Y-83123439D01*
X58500000Y-83135312D01*
X58527259Y-83237045D01*
X58579920Y-83328257D01*
X58654394Y-83402731D01*
X58745606Y-83455392D01*
X58847339Y-83482651D01*
X58859210Y-83482651D01*
X58172110Y-84169749D01*
X58172110Y-84169751D01*
X58243498Y-84219737D01*
X58450926Y-84316462D01*
X58450931Y-84316464D01*
X58671999Y-84375699D01*
X58671995Y-84375699D01*
X58900000Y-84395646D01*
X59128002Y-84375699D01*
X59349068Y-84316464D01*
X59349073Y-84316462D01*
X59556497Y-84219739D01*
X59627888Y-84169750D01*
X59627888Y-84169748D01*
X58940791Y-83482651D01*
X58952661Y-83482651D01*
X59054394Y-83455392D01*
X59145606Y-83402731D01*
X59220080Y-83328257D01*
X59272741Y-83237045D01*
X59300000Y-83135312D01*
X59300000Y-83123442D01*
X59987097Y-83810539D01*
X59987099Y-83810539D01*
X60037088Y-83739148D01*
X60133811Y-83531724D01*
X60133813Y-83531719D01*
X60193048Y-83310653D01*
X60212995Y-83082651D01*
X60193048Y-82854648D01*
X60133813Y-82633582D01*
X60133811Y-82633577D01*
X60037086Y-82426149D01*
X59987100Y-82354761D01*
X59987098Y-82354761D01*
X59300000Y-83041859D01*
X59300000Y-83029990D01*
X59272741Y-82928257D01*
X59220080Y-82837045D01*
X59145606Y-82762571D01*
X59054394Y-82709910D01*
X58952661Y-82682651D01*
X58940790Y-82682651D01*
X59627888Y-81995550D01*
X59627888Y-81995549D01*
X59556501Y-81945564D01*
X59349073Y-81848839D01*
X59349068Y-81848837D01*
X59128000Y-81789602D01*
X59128004Y-81789602D01*
X58900000Y-81769655D01*
X58671997Y-81789602D01*
X58450931Y-81848837D01*
X58450926Y-81848839D01*
X58243500Y-81945564D01*
X58172109Y-81995551D01*
X58859209Y-82682651D01*
X58847339Y-82682651D01*
X58745606Y-82709910D01*
X58654394Y-82762571D01*
X58579920Y-82837045D01*
X58527259Y-82928257D01*
X58500000Y-83029990D01*
X58500000Y-83041860D01*
X57812900Y-82354760D01*
X57762913Y-82426151D01*
X57666188Y-82633577D01*
X57666186Y-82633582D01*
X57606951Y-82854648D01*
X57587004Y-83082651D01*
X48544233Y-83082651D01*
X48515925Y-82977007D01*
X48480703Y-82916000D01*
X49386544Y-82916000D01*
X49386544Y-82915999D01*
X49338823Y-82727550D01*
X49338820Y-82727543D01*
X49248419Y-82521451D01*
X49125325Y-82333041D01*
X48972902Y-82167465D01*
X48795301Y-82029232D01*
X48795300Y-82029231D01*
X48761267Y-82010814D01*
X48710876Y-81960801D01*
X48695524Y-81891484D01*
X48720085Y-81824871D01*
X48761267Y-81789186D01*
X48795300Y-81770768D01*
X48795301Y-81770767D01*
X48972902Y-81632534D01*
X49125325Y-81466958D01*
X49248419Y-81278548D01*
X49338820Y-81072456D01*
X49338823Y-81072449D01*
X49386544Y-80884000D01*
X48480703Y-80884000D01*
X48515925Y-80822993D01*
X48550000Y-80695826D01*
X48550000Y-80564174D01*
X48515925Y-80437007D01*
X48480703Y-80376000D01*
X49386544Y-80376000D01*
X49386544Y-80375999D01*
X49338823Y-80187550D01*
X49338820Y-80187543D01*
X49248419Y-79981451D01*
X49125325Y-79793041D01*
X48972902Y-79627465D01*
X48795301Y-79489232D01*
X48795300Y-79489231D01*
X48761791Y-79471097D01*
X48711401Y-79421083D01*
X48696050Y-79351766D01*
X48720612Y-79285153D01*
X48761790Y-79249472D01*
X48795576Y-79231189D01*
X48973240Y-79092906D01*
X49074470Y-78982941D01*
X49123979Y-78929162D01*
X49184833Y-78892591D01*
X49216680Y-78888500D01*
X51317283Y-78888500D01*
X51341869Y-78890922D01*
G37*
%TD.AperFunction*%
%TA.AperFunction,Conductor*%
G36*
X98910647Y-78948502D02*
G01*
X98935227Y-78969162D01*
X99076762Y-79122908D01*
X99131331Y-79165381D01*
X99254424Y-79261189D01*
X99288205Y-79279470D01*
X99338596Y-79329482D01*
X99353949Y-79398799D01*
X99329389Y-79465412D01*
X99288209Y-79501096D01*
X99254704Y-79519228D01*
X99254698Y-79519232D01*
X99077097Y-79657465D01*
X98924674Y-79823041D01*
X98801580Y-80011451D01*
X98711179Y-80217543D01*
X98711176Y-80217550D01*
X98663455Y-80405999D01*
X98663456Y-80406000D01*
X99569297Y-80406000D01*
X99534075Y-80467007D01*
X99500000Y-80594174D01*
X99500000Y-80725826D01*
X99534075Y-80852993D01*
X99569297Y-80914000D01*
X98663455Y-80914000D01*
X98711176Y-81102449D01*
X98711179Y-81102456D01*
X98801580Y-81308548D01*
X98924674Y-81496958D01*
X99077097Y-81662534D01*
X99254698Y-81800767D01*
X99254699Y-81800768D01*
X99288734Y-81819187D01*
X99339123Y-81869201D01*
X99354475Y-81938518D01*
X99329913Y-82005130D01*
X99288734Y-82040813D01*
X99254699Y-82059231D01*
X99254698Y-82059232D01*
X99077097Y-82197465D01*
X98924674Y-82363041D01*
X98801580Y-82551451D01*
X98711179Y-82757543D01*
X98711176Y-82757550D01*
X98663455Y-82945999D01*
X98663456Y-82946000D01*
X99569297Y-82946000D01*
X99534075Y-83007007D01*
X99500000Y-83134174D01*
X99500000Y-83265826D01*
X99534075Y-83392993D01*
X99569297Y-83454000D01*
X98663455Y-83454000D01*
X98711176Y-83642449D01*
X98711179Y-83642456D01*
X98801580Y-83848548D01*
X98924674Y-84036958D01*
X99077097Y-84202534D01*
X99254698Y-84340767D01*
X99254699Y-84340768D01*
X99288734Y-84359187D01*
X99339123Y-84409201D01*
X99354475Y-84478518D01*
X99329913Y-84545130D01*
X99288734Y-84580813D01*
X99254699Y-84599231D01*
X99254698Y-84599232D01*
X99077097Y-84737465D01*
X98924674Y-84903041D01*
X98801580Y-85091451D01*
X98711179Y-85297543D01*
X98711176Y-85297550D01*
X98663455Y-85485999D01*
X98663456Y-85486000D01*
X99569297Y-85486000D01*
X99534075Y-85547007D01*
X99500000Y-85674174D01*
X99500000Y-85805826D01*
X99534075Y-85932993D01*
X99569297Y-85994000D01*
X98663455Y-85994000D01*
X98711176Y-86182449D01*
X98711179Y-86182456D01*
X98801580Y-86388548D01*
X98924674Y-86576958D01*
X99077097Y-86742534D01*
X99254698Y-86880767D01*
X99254704Y-86880771D01*
X99288207Y-86898902D01*
X99338597Y-86948915D01*
X99353949Y-87018232D01*
X99329388Y-87084845D01*
X99288207Y-87120528D01*
X99254430Y-87138807D01*
X99254424Y-87138811D01*
X99076762Y-87277091D01*
X98935227Y-87430838D01*
X98874373Y-87467409D01*
X98842526Y-87471500D01*
X78269494Y-87471500D01*
X78218245Y-87460607D01*
X78107288Y-87411206D01*
X77920487Y-87371500D01*
X77729513Y-87371500D01*
X77542711Y-87411206D01*
X77431755Y-87460607D01*
X77380506Y-87471500D01*
X74021371Y-87471500D01*
X73953250Y-87451498D01*
X73906757Y-87397842D01*
X73896093Y-87358968D01*
X73891990Y-87320803D01*
X73891988Y-87320795D01*
X73840889Y-87183797D01*
X73840887Y-87183792D01*
X73753261Y-87066738D01*
X73636207Y-86979112D01*
X73636204Y-86979111D01*
X73520686Y-86936024D01*
X73463851Y-86893477D01*
X73439041Y-86826957D01*
X73454133Y-86757583D01*
X73472019Y-86732632D01*
X73615323Y-86576961D01*
X73738419Y-86388548D01*
X73828820Y-86182456D01*
X73828823Y-86182449D01*
X73876544Y-85994000D01*
X72970703Y-85994000D01*
X73005925Y-85932993D01*
X73040000Y-85805826D01*
X73040000Y-85674174D01*
X73005925Y-85547007D01*
X72970703Y-85486000D01*
X73876544Y-85486000D01*
X73876544Y-85485999D01*
X73828823Y-85297550D01*
X73828820Y-85297543D01*
X73738419Y-85091451D01*
X73615325Y-84903041D01*
X73462902Y-84737465D01*
X73285301Y-84599232D01*
X73285300Y-84599231D01*
X73251267Y-84580814D01*
X73200876Y-84530801D01*
X73185524Y-84461484D01*
X73210085Y-84394871D01*
X73251267Y-84359186D01*
X73285300Y-84340768D01*
X73285301Y-84340767D01*
X73462902Y-84202534D01*
X73615325Y-84036958D01*
X73738419Y-83848548D01*
X73828820Y-83642456D01*
X73828823Y-83642449D01*
X73876544Y-83454000D01*
X72970703Y-83454000D01*
X73005925Y-83392993D01*
X73040000Y-83265826D01*
X73040000Y-83134174D01*
X73005925Y-83007007D01*
X72970703Y-82946000D01*
X73876544Y-82946000D01*
X73876544Y-82945999D01*
X73828823Y-82757550D01*
X73828820Y-82757543D01*
X73738419Y-82551451D01*
X73615325Y-82363041D01*
X73534278Y-82275000D01*
X79386502Y-82275000D01*
X79406457Y-82503087D01*
X79417861Y-82545647D01*
X79465715Y-82724240D01*
X79465717Y-82724246D01*
X79562477Y-82931749D01*
X79683210Y-83104174D01*
X79693802Y-83119300D01*
X79855700Y-83281198D01*
X80043251Y-83412523D01*
X80250757Y-83509284D01*
X80471913Y-83568543D01*
X80700000Y-83588498D01*
X80928087Y-83568543D01*
X81149243Y-83509284D01*
X81356749Y-83412523D01*
X81544300Y-83281198D01*
X81690029Y-83135468D01*
X81752337Y-83101446D01*
X81823153Y-83106510D01*
X81879989Y-83149057D01*
X81897177Y-83180533D01*
X81949556Y-83320966D01*
X82037095Y-83437904D01*
X82154034Y-83525444D01*
X82290906Y-83576494D01*
X82351402Y-83582999D01*
X82351415Y-83583000D01*
X82946000Y-83583000D01*
X82946000Y-82586686D01*
X82954394Y-82595080D01*
X83045606Y-82647741D01*
X83147339Y-82675000D01*
X83252661Y-82675000D01*
X83354394Y-82647741D01*
X83445606Y-82595080D01*
X83454000Y-82586686D01*
X83454000Y-83583000D01*
X84048585Y-83583000D01*
X84048597Y-83582999D01*
X84109093Y-83576494D01*
X84245964Y-83525444D01*
X84245965Y-83525444D01*
X84362904Y-83437904D01*
X84450444Y-83320965D01*
X84450444Y-83320964D01*
X84501494Y-83184093D01*
X84507999Y-83123597D01*
X84508000Y-83123585D01*
X84508000Y-82529000D01*
X83511686Y-82529000D01*
X83520080Y-82520606D01*
X83572741Y-82429394D01*
X83600000Y-82327661D01*
X83600000Y-82222339D01*
X83572741Y-82120606D01*
X83520080Y-82029394D01*
X83511686Y-82021000D01*
X84508000Y-82021000D01*
X84508000Y-81426414D01*
X84507999Y-81426402D01*
X84501494Y-81365906D01*
X84450444Y-81229035D01*
X84450444Y-81229034D01*
X84362904Y-81112095D01*
X84245965Y-81024555D01*
X84109093Y-80973505D01*
X84048597Y-80967000D01*
X83454000Y-80967000D01*
X83454000Y-81963314D01*
X83445606Y-81954920D01*
X83354394Y-81902259D01*
X83252661Y-81875000D01*
X83147339Y-81875000D01*
X83045606Y-81902259D01*
X82954394Y-81954920D01*
X82946000Y-81963314D01*
X82946000Y-80967000D01*
X82351402Y-80967000D01*
X82290906Y-80973505D01*
X82154035Y-81024555D01*
X82154034Y-81024555D01*
X82037095Y-81112095D01*
X81949555Y-81229034D01*
X81949553Y-81229039D01*
X81897176Y-81369466D01*
X81854629Y-81426302D01*
X81788109Y-81451112D01*
X81718735Y-81436020D01*
X81690026Y-81414528D01*
X81544302Y-81268804D01*
X81544296Y-81268799D01*
X81356749Y-81137477D01*
X81149246Y-81040717D01*
X81149240Y-81040715D01*
X81055771Y-81015670D01*
X80928087Y-80981457D01*
X80700000Y-80961502D01*
X80471913Y-80981457D01*
X80250759Y-81040715D01*
X80250753Y-81040717D01*
X80043250Y-81137477D01*
X79855703Y-81268799D01*
X79855697Y-81268804D01*
X79693804Y-81430697D01*
X79693799Y-81430703D01*
X79562477Y-81618250D01*
X79465717Y-81825753D01*
X79465715Y-81825759D01*
X79408091Y-82040814D01*
X79406457Y-82046913D01*
X79386502Y-82275000D01*
X73534278Y-82275000D01*
X73462902Y-82197465D01*
X73285301Y-82059232D01*
X73285300Y-82059231D01*
X73251267Y-82040814D01*
X73200876Y-81990801D01*
X73185524Y-81921484D01*
X73210085Y-81854871D01*
X73251267Y-81819186D01*
X73285300Y-81800768D01*
X73285301Y-81800767D01*
X73462902Y-81662534D01*
X73615325Y-81496958D01*
X73738419Y-81308548D01*
X73828820Y-81102456D01*
X73828823Y-81102449D01*
X73876544Y-80914000D01*
X72970703Y-80914000D01*
X73005925Y-80852993D01*
X73040000Y-80725826D01*
X73040000Y-80594174D01*
X73005925Y-80467007D01*
X72970703Y-80406000D01*
X73876544Y-80406000D01*
X73876544Y-80405999D01*
X73828823Y-80217550D01*
X73828820Y-80217543D01*
X73738419Y-80011451D01*
X73615325Y-79823041D01*
X73462902Y-79657465D01*
X73285301Y-79519232D01*
X73285300Y-79519231D01*
X73251791Y-79501097D01*
X73201401Y-79451083D01*
X73186050Y-79381766D01*
X73210612Y-79315153D01*
X73251790Y-79279472D01*
X73285576Y-79261189D01*
X73463240Y-79122906D01*
X73604773Y-78969162D01*
X73665627Y-78932591D01*
X73697474Y-78928500D01*
X98842526Y-78928500D01*
X98910647Y-78948502D01*
G37*
%TD.AperFunction*%
%TA.AperFunction,Conductor*%
G36*
X128910647Y-78948502D02*
G01*
X128935227Y-78969162D01*
X129076762Y-79122908D01*
X129131331Y-79165381D01*
X129254424Y-79261189D01*
X129288205Y-79279470D01*
X129338596Y-79329482D01*
X129353949Y-79398799D01*
X129329389Y-79465412D01*
X129288209Y-79501096D01*
X129254704Y-79519228D01*
X129254698Y-79519232D01*
X129077097Y-79657465D01*
X128924674Y-79823041D01*
X128801580Y-80011451D01*
X128711179Y-80217543D01*
X128711176Y-80217550D01*
X128663455Y-80405999D01*
X128663456Y-80406000D01*
X129569297Y-80406000D01*
X129534075Y-80467007D01*
X129500000Y-80594174D01*
X129500000Y-80725826D01*
X129534075Y-80852993D01*
X129569297Y-80914000D01*
X128663455Y-80914000D01*
X128711176Y-81102449D01*
X128711179Y-81102456D01*
X128801580Y-81308548D01*
X128924674Y-81496958D01*
X129077097Y-81662534D01*
X129254698Y-81800767D01*
X129254699Y-81800768D01*
X129288734Y-81819187D01*
X129339123Y-81869201D01*
X129354475Y-81938518D01*
X129329913Y-82005130D01*
X129288734Y-82040813D01*
X129254699Y-82059231D01*
X129254698Y-82059232D01*
X129077097Y-82197465D01*
X128924674Y-82363041D01*
X128801580Y-82551451D01*
X128711179Y-82757543D01*
X128711176Y-82757550D01*
X128663455Y-82945999D01*
X128663456Y-82946000D01*
X129569297Y-82946000D01*
X129534075Y-83007007D01*
X129500000Y-83134174D01*
X129500000Y-83265826D01*
X129534075Y-83392993D01*
X129569297Y-83454000D01*
X128663455Y-83454000D01*
X128711176Y-83642449D01*
X128711179Y-83642456D01*
X128801580Y-83848548D01*
X128924674Y-84036958D01*
X129077097Y-84202534D01*
X129254698Y-84340767D01*
X129254699Y-84340768D01*
X129288734Y-84359187D01*
X129339123Y-84409201D01*
X129354475Y-84478518D01*
X129329913Y-84545130D01*
X129288734Y-84580813D01*
X129254699Y-84599231D01*
X129254698Y-84599232D01*
X129077097Y-84737465D01*
X128924674Y-84903041D01*
X128801580Y-85091451D01*
X128711179Y-85297543D01*
X128711176Y-85297550D01*
X128663455Y-85485999D01*
X128663456Y-85486000D01*
X129569297Y-85486000D01*
X129534075Y-85547007D01*
X129500000Y-85674174D01*
X129500000Y-85805826D01*
X129534075Y-85932993D01*
X129569297Y-85994000D01*
X128663455Y-85994000D01*
X128711176Y-86182449D01*
X128711179Y-86182456D01*
X128801580Y-86388548D01*
X128924674Y-86576958D01*
X129077097Y-86742534D01*
X129254698Y-86880767D01*
X129254704Y-86880771D01*
X129288207Y-86898902D01*
X129338597Y-86948915D01*
X129353949Y-87018232D01*
X129329388Y-87084845D01*
X129288207Y-87120528D01*
X129254430Y-87138807D01*
X129254424Y-87138811D01*
X129076762Y-87277091D01*
X128935227Y-87430838D01*
X128874373Y-87467409D01*
X128842526Y-87471500D01*
X104021371Y-87471500D01*
X103953250Y-87451498D01*
X103906757Y-87397842D01*
X103896093Y-87358968D01*
X103891990Y-87320803D01*
X103891988Y-87320795D01*
X103840889Y-87183797D01*
X103840887Y-87183792D01*
X103753261Y-87066738D01*
X103636207Y-86979112D01*
X103636204Y-86979111D01*
X103520686Y-86936024D01*
X103463851Y-86893477D01*
X103439041Y-86826957D01*
X103454133Y-86757583D01*
X103472019Y-86732632D01*
X103615323Y-86576961D01*
X103738419Y-86388548D01*
X103828820Y-86182456D01*
X103828823Y-86182449D01*
X103876544Y-85994000D01*
X102970703Y-85994000D01*
X103005925Y-85932993D01*
X103040000Y-85805826D01*
X103040000Y-85674174D01*
X103005925Y-85547007D01*
X102970703Y-85486000D01*
X103876544Y-85486000D01*
X103876544Y-85485999D01*
X103828823Y-85297550D01*
X103828820Y-85297543D01*
X103738419Y-85091451D01*
X103615325Y-84903041D01*
X103462902Y-84737465D01*
X103285301Y-84599232D01*
X103285300Y-84599231D01*
X103251267Y-84580814D01*
X103200876Y-84530801D01*
X103185524Y-84461484D01*
X103210085Y-84394871D01*
X103251267Y-84359186D01*
X103285300Y-84340768D01*
X103285301Y-84340767D01*
X103462902Y-84202534D01*
X103615325Y-84036958D01*
X103738419Y-83848548D01*
X103828820Y-83642456D01*
X103828823Y-83642449D01*
X103876544Y-83454000D01*
X102970703Y-83454000D01*
X103005925Y-83392993D01*
X103040000Y-83265826D01*
X103040000Y-83134174D01*
X103005925Y-83007007D01*
X102970703Y-82946000D01*
X103876544Y-82946000D01*
X103876544Y-82945999D01*
X103828823Y-82757550D01*
X103828820Y-82757543D01*
X103738419Y-82551451D01*
X103615325Y-82363041D01*
X103462902Y-82197465D01*
X103285301Y-82059232D01*
X103285300Y-82059231D01*
X103251267Y-82040814D01*
X103200876Y-81990801D01*
X103185524Y-81921484D01*
X103210085Y-81854871D01*
X103251267Y-81819186D01*
X103285300Y-81800768D01*
X103285301Y-81800767D01*
X103462902Y-81662534D01*
X103615325Y-81496958D01*
X103738419Y-81308548D01*
X103828820Y-81102456D01*
X103828823Y-81102449D01*
X103876544Y-80914000D01*
X102970703Y-80914000D01*
X103005925Y-80852993D01*
X103040000Y-80725826D01*
X103040000Y-80594174D01*
X103005925Y-80467007D01*
X102970703Y-80406000D01*
X103876544Y-80406000D01*
X103876544Y-80405999D01*
X103828823Y-80217550D01*
X103828820Y-80217543D01*
X103738419Y-80011451D01*
X103615325Y-79823041D01*
X103462902Y-79657465D01*
X103285301Y-79519232D01*
X103285300Y-79519231D01*
X103251791Y-79501097D01*
X103201401Y-79451083D01*
X103186050Y-79381766D01*
X103210612Y-79315153D01*
X103251790Y-79279472D01*
X103285576Y-79261189D01*
X103463240Y-79122906D01*
X103604773Y-78969162D01*
X103665627Y-78932591D01*
X103697474Y-78928500D01*
X110930370Y-78928500D01*
X128842526Y-78928500D01*
X128910647Y-78948502D01*
G37*
%TD.AperFunction*%
%TA.AperFunction,Conductor*%
G36*
X158910647Y-78948502D02*
G01*
X158935227Y-78969162D01*
X159076762Y-79122908D01*
X159131331Y-79165381D01*
X159254424Y-79261189D01*
X159288205Y-79279470D01*
X159338596Y-79329482D01*
X159353949Y-79398799D01*
X159329389Y-79465412D01*
X159288209Y-79501096D01*
X159254704Y-79519228D01*
X159254698Y-79519232D01*
X159077097Y-79657465D01*
X158924674Y-79823041D01*
X158801580Y-80011451D01*
X158711179Y-80217543D01*
X158711176Y-80217550D01*
X158663455Y-80405999D01*
X158663456Y-80406000D01*
X159569297Y-80406000D01*
X159534075Y-80467007D01*
X159500000Y-80594174D01*
X159500000Y-80725826D01*
X159534075Y-80852993D01*
X159569297Y-80914000D01*
X158663455Y-80914000D01*
X158711176Y-81102449D01*
X158711179Y-81102456D01*
X158801580Y-81308548D01*
X158924674Y-81496958D01*
X159077097Y-81662534D01*
X159254698Y-81800767D01*
X159254699Y-81800768D01*
X159288734Y-81819187D01*
X159339123Y-81869201D01*
X159354475Y-81938518D01*
X159329913Y-82005130D01*
X159288734Y-82040813D01*
X159254699Y-82059231D01*
X159254698Y-82059232D01*
X159077097Y-82197465D01*
X158924674Y-82363041D01*
X158801580Y-82551451D01*
X158711179Y-82757543D01*
X158711176Y-82757550D01*
X158663455Y-82945999D01*
X158663456Y-82946000D01*
X159569297Y-82946000D01*
X159534075Y-83007007D01*
X159500000Y-83134174D01*
X159500000Y-83265826D01*
X159534075Y-83392993D01*
X159569297Y-83454000D01*
X158663455Y-83454000D01*
X158711176Y-83642449D01*
X158711179Y-83642456D01*
X158801580Y-83848548D01*
X158924674Y-84036958D01*
X159077097Y-84202534D01*
X159254698Y-84340767D01*
X159254699Y-84340768D01*
X159288734Y-84359187D01*
X159339123Y-84409201D01*
X159354475Y-84478518D01*
X159329913Y-84545130D01*
X159288734Y-84580813D01*
X159254699Y-84599231D01*
X159254698Y-84599232D01*
X159077097Y-84737465D01*
X158924674Y-84903041D01*
X158801580Y-85091451D01*
X158711179Y-85297543D01*
X158711176Y-85297550D01*
X158663455Y-85485999D01*
X158663456Y-85486000D01*
X159569297Y-85486000D01*
X159534075Y-85547007D01*
X159500000Y-85674174D01*
X159500000Y-85805826D01*
X159534075Y-85932993D01*
X159569297Y-85994000D01*
X158663455Y-85994000D01*
X158711176Y-86182449D01*
X158711179Y-86182456D01*
X158801580Y-86388548D01*
X158924674Y-86576958D01*
X159077097Y-86742534D01*
X159254698Y-86880767D01*
X159254704Y-86880771D01*
X159288207Y-86898902D01*
X159338597Y-86948915D01*
X159353949Y-87018232D01*
X159329388Y-87084845D01*
X159288207Y-87120528D01*
X159254430Y-87138807D01*
X159254424Y-87138811D01*
X159076762Y-87277091D01*
X158935227Y-87430838D01*
X158874373Y-87467409D01*
X158842526Y-87471500D01*
X134021371Y-87471500D01*
X133953250Y-87451498D01*
X133906757Y-87397842D01*
X133896093Y-87358968D01*
X133891990Y-87320803D01*
X133891988Y-87320795D01*
X133840889Y-87183797D01*
X133840887Y-87183792D01*
X133753261Y-87066738D01*
X133636207Y-86979112D01*
X133636204Y-86979111D01*
X133520686Y-86936024D01*
X133463851Y-86893477D01*
X133439041Y-86826957D01*
X133454133Y-86757583D01*
X133472019Y-86732632D01*
X133615323Y-86576961D01*
X133738419Y-86388548D01*
X133828820Y-86182456D01*
X133828823Y-86182449D01*
X133876544Y-85994000D01*
X132970703Y-85994000D01*
X133005925Y-85932993D01*
X133040000Y-85805826D01*
X133040000Y-85674174D01*
X133005925Y-85547007D01*
X132970703Y-85486000D01*
X133876544Y-85486000D01*
X133876544Y-85485999D01*
X133828823Y-85297550D01*
X133828820Y-85297543D01*
X133738419Y-85091451D01*
X133615325Y-84903041D01*
X133462902Y-84737465D01*
X133285301Y-84599232D01*
X133285300Y-84599231D01*
X133251267Y-84580814D01*
X133200876Y-84530801D01*
X133185524Y-84461484D01*
X133210085Y-84394871D01*
X133251267Y-84359186D01*
X133285300Y-84340768D01*
X133285301Y-84340767D01*
X133462902Y-84202534D01*
X133615325Y-84036958D01*
X133738419Y-83848548D01*
X133828820Y-83642456D01*
X133828823Y-83642449D01*
X133876544Y-83454000D01*
X132970703Y-83454000D01*
X133005925Y-83392993D01*
X133040000Y-83265826D01*
X133040000Y-83134174D01*
X133005925Y-83007007D01*
X132970703Y-82946000D01*
X133876544Y-82946000D01*
X133876544Y-82945999D01*
X133828823Y-82757550D01*
X133828820Y-82757543D01*
X133738419Y-82551451D01*
X133615325Y-82363041D01*
X133462902Y-82197465D01*
X133285301Y-82059232D01*
X133285300Y-82059231D01*
X133251267Y-82040814D01*
X133200876Y-81990801D01*
X133185524Y-81921484D01*
X133210085Y-81854871D01*
X133251267Y-81819186D01*
X133285300Y-81800768D01*
X133285301Y-81800767D01*
X133462902Y-81662534D01*
X133615325Y-81496958D01*
X133738419Y-81308548D01*
X133828820Y-81102456D01*
X133828823Y-81102449D01*
X133876544Y-80914000D01*
X132970703Y-80914000D01*
X133005925Y-80852993D01*
X133040000Y-80725826D01*
X133040000Y-80594174D01*
X133005925Y-80467007D01*
X132970703Y-80406000D01*
X133876544Y-80406000D01*
X133876544Y-80405999D01*
X133828823Y-80217550D01*
X133828820Y-80217543D01*
X133738419Y-80011451D01*
X133615325Y-79823041D01*
X133462902Y-79657465D01*
X133285301Y-79519232D01*
X133285300Y-79519231D01*
X133251791Y-79501097D01*
X133201401Y-79451083D01*
X133186050Y-79381766D01*
X133210612Y-79315153D01*
X133251790Y-79279472D01*
X133285576Y-79261189D01*
X133463240Y-79122906D01*
X133604773Y-78969162D01*
X133665627Y-78932591D01*
X133697474Y-78928500D01*
X158842526Y-78928500D01*
X158910647Y-78948502D01*
G37*
%TD.AperFunction*%
%TA.AperFunction,Conductor*%
G36*
X188910647Y-78948502D02*
G01*
X188935227Y-78969162D01*
X189076762Y-79122908D01*
X189131331Y-79165381D01*
X189254424Y-79261189D01*
X189288205Y-79279470D01*
X189338596Y-79329482D01*
X189353949Y-79398799D01*
X189329389Y-79465412D01*
X189288209Y-79501096D01*
X189254704Y-79519228D01*
X189254698Y-79519232D01*
X189077097Y-79657465D01*
X188924674Y-79823041D01*
X188801580Y-80011451D01*
X188711179Y-80217543D01*
X188711176Y-80217550D01*
X188663455Y-80405999D01*
X188663456Y-80406000D01*
X189569297Y-80406000D01*
X189534075Y-80467007D01*
X189500000Y-80594174D01*
X189500000Y-80725826D01*
X189534075Y-80852993D01*
X189569297Y-80914000D01*
X188663455Y-80914000D01*
X188711176Y-81102449D01*
X188711179Y-81102456D01*
X188801580Y-81308548D01*
X188924674Y-81496958D01*
X189077097Y-81662534D01*
X189254698Y-81800767D01*
X189254699Y-81800768D01*
X189288734Y-81819187D01*
X189339123Y-81869201D01*
X189354475Y-81938518D01*
X189329913Y-82005130D01*
X189288734Y-82040813D01*
X189254699Y-82059231D01*
X189254698Y-82059232D01*
X189077097Y-82197465D01*
X188924674Y-82363041D01*
X188801580Y-82551451D01*
X188711179Y-82757543D01*
X188711176Y-82757550D01*
X188663455Y-82945999D01*
X188663456Y-82946000D01*
X189569297Y-82946000D01*
X189534075Y-83007007D01*
X189500000Y-83134174D01*
X189500000Y-83265826D01*
X189534075Y-83392993D01*
X189569297Y-83454000D01*
X188663455Y-83454000D01*
X188711176Y-83642449D01*
X188711179Y-83642456D01*
X188801580Y-83848548D01*
X188924674Y-84036958D01*
X189077097Y-84202534D01*
X189254698Y-84340767D01*
X189254699Y-84340768D01*
X189288734Y-84359187D01*
X189339123Y-84409201D01*
X189354475Y-84478518D01*
X189329913Y-84545130D01*
X189288734Y-84580813D01*
X189254699Y-84599231D01*
X189254698Y-84599232D01*
X189077097Y-84737465D01*
X188924674Y-84903041D01*
X188801580Y-85091451D01*
X188711179Y-85297543D01*
X188711176Y-85297550D01*
X188663455Y-85485999D01*
X188663456Y-85486000D01*
X189569297Y-85486000D01*
X189534075Y-85547007D01*
X189500000Y-85674174D01*
X189500000Y-85805826D01*
X189534075Y-85932993D01*
X189569297Y-85994000D01*
X188663455Y-85994000D01*
X188711176Y-86182449D01*
X188711179Y-86182456D01*
X188801580Y-86388548D01*
X188924674Y-86576958D01*
X189077097Y-86742534D01*
X189254698Y-86880767D01*
X189254704Y-86880771D01*
X189288207Y-86898902D01*
X189338597Y-86948915D01*
X189353949Y-87018232D01*
X189329388Y-87084845D01*
X189288207Y-87120528D01*
X189254430Y-87138807D01*
X189254424Y-87138811D01*
X189076762Y-87277091D01*
X188935227Y-87430838D01*
X188874373Y-87467409D01*
X188842526Y-87471500D01*
X164021371Y-87471500D01*
X163953250Y-87451498D01*
X163906757Y-87397842D01*
X163896093Y-87358968D01*
X163891990Y-87320803D01*
X163891988Y-87320795D01*
X163840889Y-87183797D01*
X163840887Y-87183792D01*
X163753261Y-87066738D01*
X163636207Y-86979112D01*
X163636204Y-86979111D01*
X163520686Y-86936024D01*
X163463851Y-86893477D01*
X163439041Y-86826957D01*
X163454133Y-86757583D01*
X163472019Y-86732632D01*
X163615323Y-86576961D01*
X163738419Y-86388548D01*
X163828820Y-86182456D01*
X163828823Y-86182449D01*
X163876544Y-85994000D01*
X162970703Y-85994000D01*
X163005925Y-85932993D01*
X163040000Y-85805826D01*
X163040000Y-85674174D01*
X163005925Y-85547007D01*
X162970703Y-85486000D01*
X163876544Y-85486000D01*
X163876544Y-85485999D01*
X163828823Y-85297550D01*
X163828820Y-85297543D01*
X163738419Y-85091451D01*
X163615325Y-84903041D01*
X163462902Y-84737465D01*
X163285301Y-84599232D01*
X163285300Y-84599231D01*
X163251267Y-84580814D01*
X163200876Y-84530801D01*
X163185524Y-84461484D01*
X163210085Y-84394871D01*
X163251267Y-84359186D01*
X163285300Y-84340768D01*
X163285301Y-84340767D01*
X163462902Y-84202534D01*
X163615325Y-84036958D01*
X163738419Y-83848548D01*
X163828820Y-83642456D01*
X163828823Y-83642449D01*
X163876544Y-83454000D01*
X162970703Y-83454000D01*
X163005925Y-83392993D01*
X163040000Y-83265826D01*
X163040000Y-83134174D01*
X163005925Y-83007007D01*
X162970703Y-82946000D01*
X163876544Y-82946000D01*
X163876544Y-82945999D01*
X163828823Y-82757550D01*
X163828820Y-82757543D01*
X163738419Y-82551451D01*
X163615325Y-82363041D01*
X163462902Y-82197465D01*
X163285301Y-82059232D01*
X163285300Y-82059231D01*
X163251267Y-82040814D01*
X163200876Y-81990801D01*
X163185524Y-81921484D01*
X163210085Y-81854871D01*
X163251267Y-81819186D01*
X163285300Y-81800768D01*
X163285301Y-81800767D01*
X163462902Y-81662534D01*
X163615325Y-81496958D01*
X163738419Y-81308548D01*
X163828820Y-81102456D01*
X163828823Y-81102449D01*
X163876544Y-80914000D01*
X162970703Y-80914000D01*
X163005925Y-80852993D01*
X163040000Y-80725826D01*
X163040000Y-80594174D01*
X163005925Y-80467007D01*
X162970703Y-80406000D01*
X163876544Y-80406000D01*
X163876544Y-80405999D01*
X163828823Y-80217550D01*
X163828820Y-80217543D01*
X163738419Y-80011451D01*
X163615325Y-79823041D01*
X163462902Y-79657465D01*
X163285301Y-79519232D01*
X163285300Y-79519231D01*
X163251791Y-79501097D01*
X163201401Y-79451083D01*
X163186050Y-79381766D01*
X163210612Y-79315153D01*
X163251790Y-79279472D01*
X163285576Y-79261189D01*
X163463240Y-79122906D01*
X163604773Y-78969162D01*
X163665627Y-78932591D01*
X163697474Y-78928500D01*
X188842526Y-78928500D01*
X188910647Y-78948502D01*
G37*
%TD.AperFunction*%
%TA.AperFunction,Conductor*%
G36*
X72074075Y-85547007D02*
G01*
X72040000Y-85674174D01*
X72040000Y-85805826D01*
X72074075Y-85932993D01*
X72109297Y-85994000D01*
X70430703Y-85994000D01*
X70465925Y-85932993D01*
X70500000Y-85805826D01*
X70500000Y-85674174D01*
X70465925Y-85547007D01*
X70430703Y-85486000D01*
X72109297Y-85486000D01*
X72074075Y-85547007D01*
G37*
%TD.AperFunction*%
%TA.AperFunction,Conductor*%
G36*
X102074075Y-85547007D02*
G01*
X102040000Y-85674174D01*
X102040000Y-85805826D01*
X102074075Y-85932993D01*
X102109297Y-85994000D01*
X100430703Y-85994000D01*
X100465925Y-85932993D01*
X100500000Y-85805826D01*
X100500000Y-85674174D01*
X100465925Y-85547007D01*
X100430703Y-85486000D01*
X102109297Y-85486000D01*
X102074075Y-85547007D01*
G37*
%TD.AperFunction*%
%TA.AperFunction,Conductor*%
G36*
X132074075Y-85547007D02*
G01*
X132040000Y-85674174D01*
X132040000Y-85805826D01*
X132074075Y-85932993D01*
X132109297Y-85994000D01*
X130430703Y-85994000D01*
X130465925Y-85932993D01*
X130500000Y-85805826D01*
X130500000Y-85674174D01*
X130465925Y-85547007D01*
X130430703Y-85486000D01*
X132109297Y-85486000D01*
X132074075Y-85547007D01*
G37*
%TD.AperFunction*%
%TA.AperFunction,Conductor*%
G36*
X162074075Y-85547007D02*
G01*
X162040000Y-85674174D01*
X162040000Y-85805826D01*
X162074075Y-85932993D01*
X162109297Y-85994000D01*
X160430703Y-85994000D01*
X160465925Y-85932993D01*
X160500000Y-85805826D01*
X160500000Y-85674174D01*
X160465925Y-85547007D01*
X160430703Y-85486000D01*
X162109297Y-85486000D01*
X162074075Y-85547007D01*
G37*
%TD.AperFunction*%
%TA.AperFunction,Conductor*%
G36*
X192074075Y-85547007D02*
G01*
X192040000Y-85674174D01*
X192040000Y-85805826D01*
X192074075Y-85932993D01*
X192109297Y-85994000D01*
X190430703Y-85994000D01*
X190465925Y-85932993D01*
X190500000Y-85805826D01*
X190500000Y-85674174D01*
X190465925Y-85547007D01*
X190430703Y-85486000D01*
X192109297Y-85486000D01*
X192074075Y-85547007D01*
G37*
%TD.AperFunction*%
%TA.AperFunction,Conductor*%
G36*
X47584075Y-85517007D02*
G01*
X47550000Y-85644174D01*
X47550000Y-85775826D01*
X47584075Y-85902993D01*
X47619297Y-85964000D01*
X45940703Y-85964000D01*
X45975925Y-85902993D01*
X46010000Y-85775826D01*
X46010000Y-85644174D01*
X45975925Y-85517007D01*
X45940703Y-85456000D01*
X47619297Y-85456000D01*
X47584075Y-85517007D01*
G37*
%TD.AperFunction*%
%TA.AperFunction,Conductor*%
G36*
X70254000Y-85309297D02*
G01*
X70192993Y-85274075D01*
X70065826Y-85240000D01*
X69934174Y-85240000D01*
X69807007Y-85274075D01*
X69746000Y-85309297D01*
X69746000Y-83630702D01*
X69807007Y-83665925D01*
X69934174Y-83700000D01*
X70065826Y-83700000D01*
X70192993Y-83665925D01*
X70254000Y-83630702D01*
X70254000Y-85309297D01*
G37*
%TD.AperFunction*%
%TA.AperFunction,Conductor*%
G36*
X72794000Y-85309297D02*
G01*
X72732993Y-85274075D01*
X72605826Y-85240000D01*
X72474174Y-85240000D01*
X72347007Y-85274075D01*
X72286000Y-85309297D01*
X72286000Y-83630702D01*
X72347007Y-83665925D01*
X72474174Y-83700000D01*
X72605826Y-83700000D01*
X72732993Y-83665925D01*
X72794000Y-83630702D01*
X72794000Y-85309297D01*
G37*
%TD.AperFunction*%
%TA.AperFunction,Conductor*%
G36*
X100254000Y-85309297D02*
G01*
X100192993Y-85274075D01*
X100065826Y-85240000D01*
X99934174Y-85240000D01*
X99807007Y-85274075D01*
X99746000Y-85309297D01*
X99746000Y-83630702D01*
X99807007Y-83665925D01*
X99934174Y-83700000D01*
X100065826Y-83700000D01*
X100192993Y-83665925D01*
X100254000Y-83630702D01*
X100254000Y-85309297D01*
G37*
%TD.AperFunction*%
%TA.AperFunction,Conductor*%
G36*
X102794000Y-85309297D02*
G01*
X102732993Y-85274075D01*
X102605826Y-85240000D01*
X102474174Y-85240000D01*
X102347007Y-85274075D01*
X102286000Y-85309297D01*
X102286000Y-83630702D01*
X102347007Y-83665925D01*
X102474174Y-83700000D01*
X102605826Y-83700000D01*
X102732993Y-83665925D01*
X102794000Y-83630702D01*
X102794000Y-85309297D01*
G37*
%TD.AperFunction*%
%TA.AperFunction,Conductor*%
G36*
X130254000Y-85309297D02*
G01*
X130192993Y-85274075D01*
X130065826Y-85240000D01*
X129934174Y-85240000D01*
X129807007Y-85274075D01*
X129746000Y-85309297D01*
X129746000Y-83630702D01*
X129807007Y-83665925D01*
X129934174Y-83700000D01*
X130065826Y-83700000D01*
X130192993Y-83665925D01*
X130254000Y-83630702D01*
X130254000Y-85309297D01*
G37*
%TD.AperFunction*%
%TA.AperFunction,Conductor*%
G36*
X132794000Y-85309297D02*
G01*
X132732993Y-85274075D01*
X132605826Y-85240000D01*
X132474174Y-85240000D01*
X132347007Y-85274075D01*
X132286000Y-85309297D01*
X132286000Y-83630702D01*
X132347007Y-83665925D01*
X132474174Y-83700000D01*
X132605826Y-83700000D01*
X132732993Y-83665925D01*
X132794000Y-83630702D01*
X132794000Y-85309297D01*
G37*
%TD.AperFunction*%
%TA.AperFunction,Conductor*%
G36*
X160254000Y-85309297D02*
G01*
X160192993Y-85274075D01*
X160065826Y-85240000D01*
X159934174Y-85240000D01*
X159807007Y-85274075D01*
X159746000Y-85309297D01*
X159746000Y-83630702D01*
X159807007Y-83665925D01*
X159934174Y-83700000D01*
X160065826Y-83700000D01*
X160192993Y-83665925D01*
X160254000Y-83630702D01*
X160254000Y-85309297D01*
G37*
%TD.AperFunction*%
%TA.AperFunction,Conductor*%
G36*
X162794000Y-85309297D02*
G01*
X162732993Y-85274075D01*
X162605826Y-85240000D01*
X162474174Y-85240000D01*
X162347007Y-85274075D01*
X162286000Y-85309297D01*
X162286000Y-83630702D01*
X162347007Y-83665925D01*
X162474174Y-83700000D01*
X162605826Y-83700000D01*
X162732993Y-83665925D01*
X162794000Y-83630702D01*
X162794000Y-85309297D01*
G37*
%TD.AperFunction*%
%TA.AperFunction,Conductor*%
G36*
X190254000Y-85309297D02*
G01*
X190192993Y-85274075D01*
X190065826Y-85240000D01*
X189934174Y-85240000D01*
X189807007Y-85274075D01*
X189746000Y-85309297D01*
X189746000Y-83630702D01*
X189807007Y-83665925D01*
X189934174Y-83700000D01*
X190065826Y-83700000D01*
X190192993Y-83665925D01*
X190254000Y-83630702D01*
X190254000Y-85309297D01*
G37*
%TD.AperFunction*%
%TA.AperFunction,Conductor*%
G36*
X192794000Y-85309297D02*
G01*
X192732993Y-85274075D01*
X192605826Y-85240000D01*
X192474174Y-85240000D01*
X192347007Y-85274075D01*
X192286000Y-85309297D01*
X192286000Y-83630702D01*
X192347007Y-83665925D01*
X192474174Y-83700000D01*
X192605826Y-83700000D01*
X192732993Y-83665925D01*
X192794000Y-83630702D01*
X192794000Y-85309297D01*
G37*
%TD.AperFunction*%
%TA.AperFunction,Conductor*%
G36*
X45764000Y-85279297D02*
G01*
X45702993Y-85244075D01*
X45575826Y-85210000D01*
X45444174Y-85210000D01*
X45317007Y-85244075D01*
X45256000Y-85279297D01*
X45256000Y-83600702D01*
X45317007Y-83635925D01*
X45444174Y-83670000D01*
X45575826Y-83670000D01*
X45702993Y-83635925D01*
X45764000Y-83600702D01*
X45764000Y-85279297D01*
G37*
%TD.AperFunction*%
%TA.AperFunction,Conductor*%
G36*
X48304000Y-85279297D02*
G01*
X48242993Y-85244075D01*
X48115826Y-85210000D01*
X47984174Y-85210000D01*
X47857007Y-85244075D01*
X47796000Y-85279297D01*
X47796000Y-83600702D01*
X47857007Y-83635925D01*
X47984174Y-83670000D01*
X48115826Y-83670000D01*
X48242993Y-83635925D01*
X48304000Y-83600702D01*
X48304000Y-85279297D01*
G37*
%TD.AperFunction*%
%TA.AperFunction,Conductor*%
G36*
X72074075Y-83007007D02*
G01*
X72040000Y-83134174D01*
X72040000Y-83265826D01*
X72074075Y-83392993D01*
X72109297Y-83454000D01*
X70430703Y-83454000D01*
X70465925Y-83392993D01*
X70500000Y-83265826D01*
X70500000Y-83134174D01*
X70465925Y-83007007D01*
X70430703Y-82946000D01*
X72109297Y-82946000D01*
X72074075Y-83007007D01*
G37*
%TD.AperFunction*%
%TA.AperFunction,Conductor*%
G36*
X102074075Y-83007007D02*
G01*
X102040000Y-83134174D01*
X102040000Y-83265826D01*
X102074075Y-83392993D01*
X102109297Y-83454000D01*
X100430703Y-83454000D01*
X100465925Y-83392993D01*
X100500000Y-83265826D01*
X100500000Y-83134174D01*
X100465925Y-83007007D01*
X100430703Y-82946000D01*
X102109297Y-82946000D01*
X102074075Y-83007007D01*
G37*
%TD.AperFunction*%
%TA.AperFunction,Conductor*%
G36*
X132074075Y-83007007D02*
G01*
X132040000Y-83134174D01*
X132040000Y-83265826D01*
X132074075Y-83392993D01*
X132109297Y-83454000D01*
X130430703Y-83454000D01*
X130465925Y-83392993D01*
X130500000Y-83265826D01*
X130500000Y-83134174D01*
X130465925Y-83007007D01*
X130430703Y-82946000D01*
X132109297Y-82946000D01*
X132074075Y-83007007D01*
G37*
%TD.AperFunction*%
%TA.AperFunction,Conductor*%
G36*
X162074075Y-83007007D02*
G01*
X162040000Y-83134174D01*
X162040000Y-83265826D01*
X162074075Y-83392993D01*
X162109297Y-83454000D01*
X160430703Y-83454000D01*
X160465925Y-83392993D01*
X160500000Y-83265826D01*
X160500000Y-83134174D01*
X160465925Y-83007007D01*
X160430703Y-82946000D01*
X162109297Y-82946000D01*
X162074075Y-83007007D01*
G37*
%TD.AperFunction*%
%TA.AperFunction,Conductor*%
G36*
X192074075Y-83007007D02*
G01*
X192040000Y-83134174D01*
X192040000Y-83265826D01*
X192074075Y-83392993D01*
X192109297Y-83454000D01*
X190430703Y-83454000D01*
X190465925Y-83392993D01*
X190500000Y-83265826D01*
X190500000Y-83134174D01*
X190465925Y-83007007D01*
X190430703Y-82946000D01*
X192109297Y-82946000D01*
X192074075Y-83007007D01*
G37*
%TD.AperFunction*%
%TA.AperFunction,Conductor*%
G36*
X47584075Y-82977007D02*
G01*
X47550000Y-83104174D01*
X47550000Y-83235826D01*
X47584075Y-83362993D01*
X47619297Y-83424000D01*
X45940703Y-83424000D01*
X45975925Y-83362993D01*
X46010000Y-83235826D01*
X46010000Y-83104174D01*
X45975925Y-82977007D01*
X45940703Y-82916000D01*
X47619297Y-82916000D01*
X47584075Y-82977007D01*
G37*
%TD.AperFunction*%
%TA.AperFunction,Conductor*%
G36*
X70254000Y-82769297D02*
G01*
X70192993Y-82734075D01*
X70065826Y-82700000D01*
X69934174Y-82700000D01*
X69807007Y-82734075D01*
X69746000Y-82769297D01*
X69746000Y-81090702D01*
X69807007Y-81125925D01*
X69934174Y-81160000D01*
X70065826Y-81160000D01*
X70192993Y-81125925D01*
X70254000Y-81090702D01*
X70254000Y-82769297D01*
G37*
%TD.AperFunction*%
%TA.AperFunction,Conductor*%
G36*
X72794000Y-82769297D02*
G01*
X72732993Y-82734075D01*
X72605826Y-82700000D01*
X72474174Y-82700000D01*
X72347007Y-82734075D01*
X72286000Y-82769297D01*
X72286000Y-81090702D01*
X72347007Y-81125925D01*
X72474174Y-81160000D01*
X72605826Y-81160000D01*
X72732993Y-81125925D01*
X72794000Y-81090702D01*
X72794000Y-82769297D01*
G37*
%TD.AperFunction*%
%TA.AperFunction,Conductor*%
G36*
X100254000Y-82769297D02*
G01*
X100192993Y-82734075D01*
X100065826Y-82700000D01*
X99934174Y-82700000D01*
X99807007Y-82734075D01*
X99746000Y-82769297D01*
X99746000Y-81090702D01*
X99807007Y-81125925D01*
X99934174Y-81160000D01*
X100065826Y-81160000D01*
X100192993Y-81125925D01*
X100254000Y-81090702D01*
X100254000Y-82769297D01*
G37*
%TD.AperFunction*%
%TA.AperFunction,Conductor*%
G36*
X102794000Y-82769297D02*
G01*
X102732993Y-82734075D01*
X102605826Y-82700000D01*
X102474174Y-82700000D01*
X102347007Y-82734075D01*
X102286000Y-82769297D01*
X102286000Y-81090702D01*
X102347007Y-81125925D01*
X102474174Y-81160000D01*
X102605826Y-81160000D01*
X102732993Y-81125925D01*
X102794000Y-81090702D01*
X102794000Y-82769297D01*
G37*
%TD.AperFunction*%
%TA.AperFunction,Conductor*%
G36*
X130254000Y-82769297D02*
G01*
X130192993Y-82734075D01*
X130065826Y-82700000D01*
X129934174Y-82700000D01*
X129807007Y-82734075D01*
X129746000Y-82769297D01*
X129746000Y-81090702D01*
X129807007Y-81125925D01*
X129934174Y-81160000D01*
X130065826Y-81160000D01*
X130192993Y-81125925D01*
X130254000Y-81090702D01*
X130254000Y-82769297D01*
G37*
%TD.AperFunction*%
%TA.AperFunction,Conductor*%
G36*
X132794000Y-82769297D02*
G01*
X132732993Y-82734075D01*
X132605826Y-82700000D01*
X132474174Y-82700000D01*
X132347007Y-82734075D01*
X132286000Y-82769297D01*
X132286000Y-81090702D01*
X132347007Y-81125925D01*
X132474174Y-81160000D01*
X132605826Y-81160000D01*
X132732993Y-81125925D01*
X132794000Y-81090702D01*
X132794000Y-82769297D01*
G37*
%TD.AperFunction*%
%TA.AperFunction,Conductor*%
G36*
X160254000Y-82769297D02*
G01*
X160192993Y-82734075D01*
X160065826Y-82700000D01*
X159934174Y-82700000D01*
X159807007Y-82734075D01*
X159746000Y-82769297D01*
X159746000Y-81090702D01*
X159807007Y-81125925D01*
X159934174Y-81160000D01*
X160065826Y-81160000D01*
X160192993Y-81125925D01*
X160254000Y-81090702D01*
X160254000Y-82769297D01*
G37*
%TD.AperFunction*%
%TA.AperFunction,Conductor*%
G36*
X162794000Y-82769297D02*
G01*
X162732993Y-82734075D01*
X162605826Y-82700000D01*
X162474174Y-82700000D01*
X162347007Y-82734075D01*
X162286000Y-82769297D01*
X162286000Y-81090702D01*
X162347007Y-81125925D01*
X162474174Y-81160000D01*
X162605826Y-81160000D01*
X162732993Y-81125925D01*
X162794000Y-81090702D01*
X162794000Y-82769297D01*
G37*
%TD.AperFunction*%
%TA.AperFunction,Conductor*%
G36*
X190254000Y-82769297D02*
G01*
X190192993Y-82734075D01*
X190065826Y-82700000D01*
X189934174Y-82700000D01*
X189807007Y-82734075D01*
X189746000Y-82769297D01*
X189746000Y-81090702D01*
X189807007Y-81125925D01*
X189934174Y-81160000D01*
X190065826Y-81160000D01*
X190192993Y-81125925D01*
X190254000Y-81090702D01*
X190254000Y-82769297D01*
G37*
%TD.AperFunction*%
%TA.AperFunction,Conductor*%
G36*
X192794000Y-82769297D02*
G01*
X192732993Y-82734075D01*
X192605826Y-82700000D01*
X192474174Y-82700000D01*
X192347007Y-82734075D01*
X192286000Y-82769297D01*
X192286000Y-81090702D01*
X192347007Y-81125925D01*
X192474174Y-81160000D01*
X192605826Y-81160000D01*
X192732993Y-81125925D01*
X192794000Y-81090702D01*
X192794000Y-82769297D01*
G37*
%TD.AperFunction*%
%TA.AperFunction,Conductor*%
G36*
X45764000Y-82739297D02*
G01*
X45702993Y-82704075D01*
X45575826Y-82670000D01*
X45444174Y-82670000D01*
X45317007Y-82704075D01*
X45256000Y-82739297D01*
X45256000Y-81060702D01*
X45317007Y-81095925D01*
X45444174Y-81130000D01*
X45575826Y-81130000D01*
X45702993Y-81095925D01*
X45764000Y-81060702D01*
X45764000Y-82739297D01*
G37*
%TD.AperFunction*%
%TA.AperFunction,Conductor*%
G36*
X48304000Y-82739297D02*
G01*
X48242993Y-82704075D01*
X48115826Y-82670000D01*
X47984174Y-82670000D01*
X47857007Y-82704075D01*
X47796000Y-82739297D01*
X47796000Y-81060702D01*
X47857007Y-81095925D01*
X47984174Y-81130000D01*
X48115826Y-81130000D01*
X48242993Y-81095925D01*
X48304000Y-81060702D01*
X48304000Y-82739297D01*
G37*
%TD.AperFunction*%
%TA.AperFunction,Conductor*%
G36*
X72074075Y-80467007D02*
G01*
X72040000Y-80594174D01*
X72040000Y-80725826D01*
X72074075Y-80852993D01*
X72109297Y-80914000D01*
X70430703Y-80914000D01*
X70465925Y-80852993D01*
X70500000Y-80725826D01*
X70500000Y-80594174D01*
X70465925Y-80467007D01*
X70430703Y-80406000D01*
X72109297Y-80406000D01*
X72074075Y-80467007D01*
G37*
%TD.AperFunction*%
%TA.AperFunction,Conductor*%
G36*
X102074075Y-80467007D02*
G01*
X102040000Y-80594174D01*
X102040000Y-80725826D01*
X102074075Y-80852993D01*
X102109297Y-80914000D01*
X100430703Y-80914000D01*
X100465925Y-80852993D01*
X100500000Y-80725826D01*
X100500000Y-80594174D01*
X100465925Y-80467007D01*
X100430703Y-80406000D01*
X102109297Y-80406000D01*
X102074075Y-80467007D01*
G37*
%TD.AperFunction*%
%TA.AperFunction,Conductor*%
G36*
X132074075Y-80467007D02*
G01*
X132040000Y-80594174D01*
X132040000Y-80725826D01*
X132074075Y-80852993D01*
X132109297Y-80914000D01*
X130430703Y-80914000D01*
X130465925Y-80852993D01*
X130500000Y-80725826D01*
X130500000Y-80594174D01*
X130465925Y-80467007D01*
X130430703Y-80406000D01*
X132109297Y-80406000D01*
X132074075Y-80467007D01*
G37*
%TD.AperFunction*%
%TA.AperFunction,Conductor*%
G36*
X162074075Y-80467007D02*
G01*
X162040000Y-80594174D01*
X162040000Y-80725826D01*
X162074075Y-80852993D01*
X162109297Y-80914000D01*
X160430703Y-80914000D01*
X160465925Y-80852993D01*
X160500000Y-80725826D01*
X160500000Y-80594174D01*
X160465925Y-80467007D01*
X160430703Y-80406000D01*
X162109297Y-80406000D01*
X162074075Y-80467007D01*
G37*
%TD.AperFunction*%
%TA.AperFunction,Conductor*%
G36*
X192074075Y-80467007D02*
G01*
X192040000Y-80594174D01*
X192040000Y-80725826D01*
X192074075Y-80852993D01*
X192109297Y-80914000D01*
X190430703Y-80914000D01*
X190465925Y-80852993D01*
X190500000Y-80725826D01*
X190500000Y-80594174D01*
X190465925Y-80467007D01*
X190430703Y-80406000D01*
X192109297Y-80406000D01*
X192074075Y-80467007D01*
G37*
%TD.AperFunction*%
%TA.AperFunction,Conductor*%
G36*
X47584075Y-80437007D02*
G01*
X47550000Y-80564174D01*
X47550000Y-80695826D01*
X47584075Y-80822993D01*
X47619297Y-80884000D01*
X45940703Y-80884000D01*
X45975925Y-80822993D01*
X46010000Y-80695826D01*
X46010000Y-80564174D01*
X45975925Y-80437007D01*
X45940703Y-80376000D01*
X47619297Y-80376000D01*
X47584075Y-80437007D01*
G37*
%TD.AperFunction*%
%TA.AperFunction,Conductor*%
G36*
X44073932Y-50628502D02*
G01*
X44094906Y-50645404D01*
X44255700Y-50806198D01*
X44443251Y-50937523D01*
X44650757Y-51034284D01*
X44871913Y-51093543D01*
X45100000Y-51113498D01*
X45328087Y-51093543D01*
X45549243Y-51034284D01*
X45756749Y-50937523D01*
X45944300Y-50806198D01*
X46105094Y-50645404D01*
X46167406Y-50611379D01*
X46194189Y-50608500D01*
X49365500Y-50608500D01*
X49433621Y-50628502D01*
X49480114Y-50682158D01*
X49491500Y-50734500D01*
X49491500Y-50801149D01*
X49498009Y-50861696D01*
X49498011Y-50861704D01*
X49549110Y-50998702D01*
X49549112Y-50998707D01*
X49636738Y-51115761D01*
X49753792Y-51203387D01*
X49753796Y-51203389D01*
X49770898Y-51209767D01*
X49827734Y-51252312D01*
X49852546Y-51318832D01*
X49837456Y-51388206D01*
X49828803Y-51401883D01*
X49703372Y-51574524D01*
X49599003Y-51779361D01*
X49599000Y-51779367D01*
X49527964Y-51997993D01*
X49514025Y-52086000D01*
X50511562Y-52086000D01*
X50487482Y-52127708D01*
X50450000Y-52267591D01*
X50450000Y-52412409D01*
X50487482Y-52552292D01*
X50511562Y-52594000D01*
X49514025Y-52594000D01*
X49527964Y-52682006D01*
X49599000Y-52900632D01*
X49599003Y-52900638D01*
X49703371Y-53105472D01*
X49838495Y-53291454D01*
X49838497Y-53291457D01*
X50001042Y-53454002D01*
X50001045Y-53454004D01*
X50075025Y-53507754D01*
X50118379Y-53563976D01*
X50124454Y-53634712D01*
X50091323Y-53697504D01*
X50075026Y-53711626D01*
X50000715Y-53765616D01*
X49838115Y-53928216D01*
X49838113Y-53928219D01*
X49702940Y-54114268D01*
X49598541Y-54319163D01*
X49598538Y-54319169D01*
X49598538Y-54319171D01*
X49580772Y-54373848D01*
X49527474Y-54537879D01*
X49512647Y-54631498D01*
X49491500Y-54765017D01*
X49491500Y-54994983D01*
X49500341Y-55050803D01*
X49527474Y-55222120D01*
X49537183Y-55252000D01*
X49598538Y-55440829D01*
X49598539Y-55440832D01*
X49598541Y-55440836D01*
X49686388Y-55613246D01*
X49702940Y-55645731D01*
X49838111Y-55831778D01*
X49838113Y-55831780D01*
X49838115Y-55831783D01*
X50000716Y-55994384D01*
X50000719Y-55994386D01*
X50000722Y-55994389D01*
X50139561Y-56095261D01*
X50182915Y-56151483D01*
X50191500Y-56197197D01*
X50191500Y-58605812D01*
X50171498Y-58673933D01*
X50154595Y-58694907D01*
X50073804Y-58775697D01*
X50073799Y-58775703D01*
X49942477Y-58963250D01*
X49845717Y-59170753D01*
X49845715Y-59170759D01*
X49786457Y-59391913D01*
X49766502Y-59620000D01*
X49775066Y-59717890D01*
X49761076Y-59787495D01*
X49738640Y-59817966D01*
X42053595Y-67503012D01*
X41991283Y-67537038D01*
X41920468Y-67531973D01*
X41863632Y-67489426D01*
X41838821Y-67422906D01*
X41838500Y-67413917D01*
X41838500Y-60084500D01*
X41858502Y-60016379D01*
X41912158Y-59969886D01*
X41964500Y-59958500D01*
X42942526Y-59958500D01*
X43010647Y-59978502D01*
X43035227Y-59999162D01*
X43099739Y-60069240D01*
X43139943Y-60112913D01*
X43176762Y-60152908D01*
X43211610Y-60180031D01*
X43354424Y-60291189D01*
X43552426Y-60398342D01*
X43552427Y-60398342D01*
X43552428Y-60398343D01*
X43619877Y-60421498D01*
X43765365Y-60471444D01*
X43987431Y-60508500D01*
X43987435Y-60508500D01*
X44212565Y-60508500D01*
X44212569Y-60508500D01*
X44434635Y-60471444D01*
X44647574Y-60398342D01*
X44845576Y-60291189D01*
X45023240Y-60152906D01*
X45175722Y-59987268D01*
X45298860Y-59798791D01*
X45389296Y-59592616D01*
X45444564Y-59374368D01*
X45463156Y-59150000D01*
X45444564Y-58925632D01*
X45403126Y-58761997D01*
X45389297Y-58707387D01*
X45389296Y-58707386D01*
X45389296Y-58707384D01*
X45298860Y-58501209D01*
X45278726Y-58470391D01*
X45175724Y-58312734D01*
X45175714Y-58312722D01*
X45032159Y-58156782D01*
X45000737Y-58093117D01*
X45008723Y-58022571D01*
X45053582Y-57967542D01*
X45080827Y-57953388D01*
X45195965Y-57910444D01*
X45312904Y-57822904D01*
X45400444Y-57705965D01*
X45400444Y-57705964D01*
X45451494Y-57569093D01*
X45457999Y-57508597D01*
X45458000Y-57508585D01*
X45458000Y-56864000D01*
X44530703Y-56864000D01*
X44565925Y-56802993D01*
X44600000Y-56675826D01*
X44600000Y-56544174D01*
X44565925Y-56417007D01*
X44530703Y-56356000D01*
X45458000Y-56356000D01*
X45458000Y-55711414D01*
X45457999Y-55711402D01*
X45451494Y-55650906D01*
X45400444Y-55514035D01*
X45400444Y-55514034D01*
X45312904Y-55397095D01*
X45195965Y-55309555D01*
X45059093Y-55258505D01*
X44998597Y-55252000D01*
X44354000Y-55252000D01*
X44354000Y-56179297D01*
X44292993Y-56144075D01*
X44165826Y-56110000D01*
X44034174Y-56110000D01*
X43907007Y-56144075D01*
X43846000Y-56179297D01*
X43846000Y-55252000D01*
X43201402Y-55252000D01*
X43140906Y-55258505D01*
X43004035Y-55309555D01*
X43004034Y-55309555D01*
X42887095Y-55397095D01*
X42799555Y-55514034D01*
X42799555Y-55514035D01*
X42748505Y-55650906D01*
X42742000Y-55711402D01*
X42742000Y-56356000D01*
X43669297Y-56356000D01*
X43634075Y-56417007D01*
X43600000Y-56544174D01*
X43600000Y-56675826D01*
X43634075Y-56802993D01*
X43669297Y-56864000D01*
X42742000Y-56864000D01*
X42742000Y-57508597D01*
X42748505Y-57569093D01*
X42799555Y-57705964D01*
X42799555Y-57705965D01*
X42887095Y-57822904D01*
X43004034Y-57910444D01*
X43119172Y-57953388D01*
X43176008Y-57995935D01*
X43200819Y-58062455D01*
X43185728Y-58131829D01*
X43167841Y-58156782D01*
X43035227Y-58300838D01*
X42974374Y-58337409D01*
X42942526Y-58341500D01*
X41964500Y-58341500D01*
X41896379Y-58321498D01*
X41849886Y-58267842D01*
X41838500Y-58215500D01*
X41838500Y-52587082D01*
X41858502Y-52518961D01*
X41875405Y-52497987D01*
X43727987Y-50645405D01*
X43790299Y-50611379D01*
X43817082Y-50608500D01*
X44005811Y-50608500D01*
X44073932Y-50628502D01*
G37*
%TD.AperFunction*%
%TD*%
M02*
