%TF.GenerationSoftware,KiCad,Pcbnew,(6.0.1)*%
%TF.CreationDate,2024-03-11T08:14:04-07:00*%
%TF.ProjectId,Melper,4d656c70-6572-42e6-9b69-6361645f7063,3.2*%
%TF.SameCoordinates,Original*%
%TF.FileFunction,Copper,L1,Top*%
%TF.FilePolarity,Positive*%
%FSLAX46Y46*%
G04 Gerber Fmt 4.6, Leading zero omitted, Abs format (unit mm)*
G04 Created by KiCad (PCBNEW (6.0.1)) date 2024-03-11 08:14:04*
%MOMM*%
%LPD*%
G01*
G04 APERTURE LIST*
%TA.AperFunction,ComponentPad*%
%ADD10C,5.600000*%
%TD*%
%TA.AperFunction,SMDPad,CuDef*%
%ADD11C,2.000000*%
%TD*%
%TA.AperFunction,ComponentPad*%
%ADD12R,1.600000X1.600000*%
%TD*%
%TA.AperFunction,ComponentPad*%
%ADD13C,1.600000*%
%TD*%
%TA.AperFunction,ComponentPad*%
%ADD14R,1.800000X1.800000*%
%TD*%
%TA.AperFunction,ComponentPad*%
%ADD15C,1.800000*%
%TD*%
%TA.AperFunction,ComponentPad*%
%ADD16R,1.700000X1.700000*%
%TD*%
%TA.AperFunction,ComponentPad*%
%ADD17O,1.700000X1.700000*%
%TD*%
%TA.AperFunction,ComponentPad*%
%ADD18O,1.600000X1.600000*%
%TD*%
%TA.AperFunction,ComponentPad*%
%ADD19R,2.000000X1.905000*%
%TD*%
%TA.AperFunction,ComponentPad*%
%ADD20O,2.000000X1.905000*%
%TD*%
%TA.AperFunction,ComponentPad*%
%ADD21C,2.800000*%
%TD*%
%TA.AperFunction,ComponentPad*%
%ADD22C,2.600000*%
%TD*%
%TA.AperFunction,ViaPad*%
%ADD23C,0.600000*%
%TD*%
%TA.AperFunction,ViaPad*%
%ADD24C,0.800000*%
%TD*%
%TA.AperFunction,Conductor*%
%ADD25C,0.600000*%
%TD*%
%TA.AperFunction,Conductor*%
%ADD26C,0.200000*%
%TD*%
%TA.AperFunction,Conductor*%
%ADD27C,0.250000*%
%TD*%
G04 APERTURE END LIST*
D10*
%TO.P,H2,1,1*%
%TO.N,GND*%
X180760000Y-95600000D03*
%TD*%
D11*
%TO.P,TP2,1,1*%
%TO.N,+12V*%
X94100000Y-95220000D03*
%TD*%
D12*
%TO.P,C5,1*%
%TO.N,GND*%
X101500000Y-43867349D03*
D13*
%TO.P,C5,2*%
%TO.N,-12V*%
X101500000Y-48867349D03*
%TD*%
D14*
%TO.P,D1,1,K*%
%TO.N,GND*%
X181795000Y-47000000D03*
D15*
%TO.P,D1,2,A*%
%TO.N,Net-(D1-Pad2)*%
X179255000Y-47000000D03*
%TD*%
D14*
%TO.P,D2,1,K*%
%TO.N,GND*%
X187135000Y-47000000D03*
D15*
%TO.P,D2,2,A*%
%TO.N,Net-(D2-Pad2)*%
X184595000Y-47000000D03*
%TD*%
D16*
%TO.P,J5,1,Pin_1*%
%TO.N,-12V*%
X162540000Y-88280000D03*
D17*
%TO.P,J5,2,Pin_2*%
X160000000Y-88280000D03*
%TO.P,J5,3,Pin_3*%
%TO.N,GND*%
X162540000Y-85740000D03*
%TO.P,J5,4,Pin_4*%
X160000000Y-85740000D03*
%TO.P,J5,5,Pin_5*%
X162540000Y-83200000D03*
%TO.P,J5,6,Pin_6*%
X160000000Y-83200000D03*
%TO.P,J5,7,Pin_7*%
X162540000Y-80660000D03*
%TO.P,J5,8,Pin_8*%
X160000000Y-80660000D03*
%TO.P,J5,9,Pin_9*%
%TO.N,+12V*%
X162540000Y-78120000D03*
%TO.P,J5,10,Pin_10*%
X160000000Y-78120000D03*
%TO.P,J5,11,Pin_11*%
%TO.N,+5V*%
X162540000Y-75580000D03*
%TO.P,J5,12,Pin_12*%
X160000000Y-75580000D03*
%TO.P,J5,13,Pin_13*%
%TO.N,CV*%
X162540000Y-73040000D03*
%TO.P,J5,14,Pin_14*%
X160000000Y-73040000D03*
%TO.P,J5,15,Pin_15*%
%TO.N,GATE*%
X162540000Y-70500000D03*
%TO.P,J5,16,Pin_16*%
X160000000Y-70500000D03*
%TD*%
D16*
%TO.P,J3,1,Pin_1*%
%TO.N,-12V*%
X102540000Y-88280000D03*
D17*
%TO.P,J3,2,Pin_2*%
X100000000Y-88280000D03*
%TO.P,J3,3,Pin_3*%
%TO.N,GND*%
X102540000Y-85740000D03*
%TO.P,J3,4,Pin_4*%
X100000000Y-85740000D03*
%TO.P,J3,5,Pin_5*%
X102540000Y-83200000D03*
%TO.P,J3,6,Pin_6*%
X100000000Y-83200000D03*
%TO.P,J3,7,Pin_7*%
X102540000Y-80660000D03*
%TO.P,J3,8,Pin_8*%
X100000000Y-80660000D03*
%TO.P,J3,9,Pin_9*%
%TO.N,+12V*%
X102540000Y-78120000D03*
%TO.P,J3,10,Pin_10*%
X100000000Y-78120000D03*
%TO.P,J3,11,Pin_11*%
%TO.N,+5V*%
X102540000Y-75580000D03*
%TO.P,J3,12,Pin_12*%
X100000000Y-75580000D03*
%TO.P,J3,13,Pin_13*%
%TO.N,CV*%
X102540000Y-73040000D03*
%TO.P,J3,14,Pin_14*%
X100000000Y-73040000D03*
%TO.P,J3,15,Pin_15*%
%TO.N,GATE*%
X102540000Y-70500000D03*
%TO.P,J3,16,Pin_16*%
X100000000Y-70500000D03*
%TD*%
D11*
%TO.P,TP4,1,1*%
%TO.N,-12V*%
X102500000Y-95220000D03*
%TD*%
D16*
%TO.P,J7,1,Pin_1*%
%TO.N,GND*%
X44100000Y-56610000D03*
D17*
%TO.P,J7,2,Pin_2*%
%TO.N,+12V*%
X44100000Y-59150000D03*
%TD*%
D14*
%TO.P,U2,1,IN*%
%TO.N,Net-(C2-Pad1)*%
X89400000Y-52805000D03*
D15*
%TO.P,U2,2,OUT*%
%TO.N,-12V*%
X89400000Y-55345000D03*
%TO.P,U2,3,GND*%
%TO.N,GND*%
X89400000Y-57885000D03*
%TD*%
D16*
%TO.P,J4,1,Pin_1*%
%TO.N,-12V*%
X132540000Y-88280000D03*
D17*
%TO.P,J4,2,Pin_2*%
X130000000Y-88280000D03*
%TO.P,J4,3,Pin_3*%
%TO.N,GND*%
X132540000Y-85740000D03*
%TO.P,J4,4,Pin_4*%
X130000000Y-85740000D03*
%TO.P,J4,5,Pin_5*%
X132540000Y-83200000D03*
%TO.P,J4,6,Pin_6*%
X130000000Y-83200000D03*
%TO.P,J4,7,Pin_7*%
X132540000Y-80660000D03*
%TO.P,J4,8,Pin_8*%
X130000000Y-80660000D03*
%TO.P,J4,9,Pin_9*%
%TO.N,+12V*%
X132540000Y-78120000D03*
%TO.P,J4,10,Pin_10*%
X130000000Y-78120000D03*
%TO.P,J4,11,Pin_11*%
%TO.N,+5V*%
X132540000Y-75580000D03*
%TO.P,J4,12,Pin_12*%
X130000000Y-75580000D03*
%TO.P,J4,13,Pin_13*%
%TO.N,CV*%
X132540000Y-73040000D03*
%TO.P,J4,14,Pin_14*%
X130000000Y-73040000D03*
%TO.P,J4,15,Pin_15*%
%TO.N,GATE*%
X132540000Y-70500000D03*
%TO.P,J4,16,Pin_16*%
X130000000Y-70500000D03*
%TD*%
D12*
%TO.P,C7,1*%
%TO.N,+12V*%
X58900000Y-78082651D03*
D13*
%TO.P,C7,2*%
%TO.N,GND*%
X58900000Y-83082651D03*
%TD*%
%TO.P,R1,1*%
%TO.N,+12V*%
X174260000Y-57140000D03*
D18*
%TO.P,R1,2*%
%TO.N,Net-(D1-Pad2)*%
X174260000Y-46980000D03*
%TD*%
D12*
%TO.P,C6,1*%
%TO.N,GND*%
X101500000Y-59042651D03*
D13*
%TO.P,C6,2*%
%TO.N,-12V*%
X101500000Y-54042651D03*
%TD*%
%TO.P,C3,1*%
%TO.N,Net-(C2-Pad1)*%
X77580000Y-47840000D03*
%TO.P,C3,2*%
%TO.N,GND*%
X82580000Y-47840000D03*
%TD*%
D19*
%TO.P,U1,1,VI*%
%TO.N,+12V*%
X51000000Y-47800000D03*
D20*
%TO.P,U1,2,GND*%
%TO.N,GND*%
X51000000Y-50340000D03*
%TO.P,U1,3,VO*%
%TO.N,+5V*%
X51000000Y-52880000D03*
%TD*%
D13*
%TO.P,C4,1*%
%TO.N,+5V*%
X51050000Y-59000000D03*
%TO.P,C4,2*%
%TO.N,GND*%
X56050000Y-59000000D03*
%TD*%
D14*
%TO.P,D3,1,K*%
%TO.N,-12V*%
X192545000Y-47000000D03*
D15*
%TO.P,D3,2,A*%
%TO.N,Net-(D3-Pad2)*%
X190005000Y-47000000D03*
%TD*%
D21*
%TO.P,TP1,1,1*%
%TO.N,GND*%
X121050000Y-95220000D03*
%TD*%
D13*
%TO.P,R2,1*%
%TO.N,+5V*%
X191180000Y-57000000D03*
D18*
%TO.P,R2,2*%
%TO.N,Net-(D2-Pad2)*%
X181020000Y-57000000D03*
%TD*%
D11*
%TO.P,TP3,1,1*%
%TO.N,+5V*%
X110050000Y-95220000D03*
%TD*%
D13*
%TO.P,R3,1*%
%TO.N,GND*%
X196810000Y-57140000D03*
D18*
%TO.P,R3,2*%
%TO.N,Net-(D3-Pad2)*%
X196810000Y-46980000D03*
%TD*%
D12*
%TO.P,C2,1*%
%TO.N,Net-(C2-Pad1)*%
X88000000Y-44810000D03*
D13*
%TO.P,C2,2*%
%TO.N,GND*%
X93000000Y-44810000D03*
%TD*%
D16*
%TO.P,J1,1,Pin_1*%
%TO.N,-12V*%
X48050000Y-88250000D03*
D17*
%TO.P,J1,2,Pin_2*%
X45510000Y-88250000D03*
%TO.P,J1,3,Pin_3*%
%TO.N,GND*%
X48050000Y-85710000D03*
%TO.P,J1,4,Pin_4*%
X45510000Y-85710000D03*
%TO.P,J1,5,Pin_5*%
X48050000Y-83170000D03*
%TO.P,J1,6,Pin_6*%
X45510000Y-83170000D03*
%TO.P,J1,7,Pin_7*%
X48050000Y-80630000D03*
%TO.P,J1,8,Pin_8*%
X45510000Y-80630000D03*
%TO.P,J1,9,Pin_9*%
%TO.N,+12V*%
X48050000Y-78090000D03*
%TO.P,J1,10,Pin_10*%
X45510000Y-78090000D03*
%TO.P,J1,11,Pin_11*%
%TO.N,+5V*%
X48050000Y-75550000D03*
%TO.P,J1,12,Pin_12*%
X45510000Y-75550000D03*
%TO.P,J1,13,Pin_13*%
%TO.N,CV*%
X48050000Y-73010000D03*
%TO.P,J1,14,Pin_14*%
X45510000Y-73010000D03*
%TO.P,J1,15,Pin_15*%
%TO.N,GATE*%
X48050000Y-70470000D03*
%TO.P,J1,16,Pin_16*%
X45510000Y-70470000D03*
%TD*%
D10*
%TO.P,H1,1,1*%
%TO.N,GND*%
X55590000Y-95600000D03*
%TD*%
D16*
%TO.P,J6,1,Pin_1*%
%TO.N,-12V*%
X192540000Y-88280000D03*
D17*
%TO.P,J6,2,Pin_2*%
X190000000Y-88280000D03*
%TO.P,J6,3,Pin_3*%
%TO.N,GND*%
X192540000Y-85740000D03*
%TO.P,J6,4,Pin_4*%
X190000000Y-85740000D03*
%TO.P,J6,5,Pin_5*%
X192540000Y-83200000D03*
%TO.P,J6,6,Pin_6*%
X190000000Y-83200000D03*
%TO.P,J6,7,Pin_7*%
X192540000Y-80660000D03*
%TO.P,J6,8,Pin_8*%
X190000000Y-80660000D03*
%TO.P,J6,9,Pin_9*%
%TO.N,+12V*%
X192540000Y-78120000D03*
%TO.P,J6,10,Pin_10*%
X190000000Y-78120000D03*
%TO.P,J6,11,Pin_11*%
%TO.N,+5V*%
X192540000Y-75580000D03*
%TO.P,J6,12,Pin_12*%
X190000000Y-75580000D03*
%TO.P,J6,13,Pin_13*%
%TO.N,CV*%
X192540000Y-73040000D03*
%TO.P,J6,14,Pin_14*%
X190000000Y-73040000D03*
%TO.P,J6,15,Pin_15*%
%TO.N,GATE*%
X192540000Y-70500000D03*
%TO.P,J6,16,Pin_16*%
X190000000Y-70500000D03*
%TD*%
D12*
%TO.P,C1,1*%
%TO.N,+12V*%
X45100000Y-47800000D03*
D13*
%TO.P,C1,2*%
%TO.N,GND*%
X45100000Y-42800000D03*
%TD*%
D16*
%TO.P,J2,1,Pin_1*%
%TO.N,-12V*%
X72540000Y-88280000D03*
D17*
%TO.P,J2,2,Pin_2*%
X70000000Y-88280000D03*
%TO.P,J2,3,Pin_3*%
%TO.N,GND*%
X72540000Y-85740000D03*
%TO.P,J2,4,Pin_4*%
X70000000Y-85740000D03*
%TO.P,J2,5,Pin_5*%
X72540000Y-83200000D03*
%TO.P,J2,6,Pin_6*%
X70000000Y-83200000D03*
%TO.P,J2,7,Pin_7*%
X72540000Y-80660000D03*
%TO.P,J2,8,Pin_8*%
X70000000Y-80660000D03*
%TO.P,J2,9,Pin_9*%
%TO.N,+12V*%
X72540000Y-78120000D03*
%TO.P,J2,10,Pin_10*%
X70000000Y-78120000D03*
%TO.P,J2,11,Pin_11*%
%TO.N,+5V*%
X72540000Y-75580000D03*
%TO.P,J2,12,Pin_12*%
X70000000Y-75580000D03*
%TO.P,J2,13,Pin_13*%
%TO.N,CV*%
X72540000Y-73040000D03*
%TO.P,J2,14,Pin_14*%
X70000000Y-73040000D03*
%TO.P,J2,15,Pin_15*%
%TO.N,GATE*%
X72540000Y-70500000D03*
%TO.P,J2,16,Pin_16*%
X70000000Y-70500000D03*
%TD*%
D22*
%TO.P,L1,1*%
%TO.N,Net-(C2-Pad1)*%
X77570000Y-52790000D03*
%TO.P,L1,2*%
%TO.N,+12V*%
X77570000Y-57790000D03*
%TD*%
D23*
%TO.N,+12V*%
X77570000Y-69480000D03*
D24*
X167010000Y-68970000D03*
X94100000Y-89300000D03*
%TO.N,+5V*%
X110050000Y-89350000D03*
D23*
%TO.N,-12V*%
X90799511Y-69290489D03*
D24*
X102500000Y-90350000D03*
D23*
X90810000Y-88280000D03*
%TD*%
D25*
%TO.N,+12V*%
X43302651Y-78080000D02*
X51420000Y-78080000D01*
D26*
X174260000Y-57140000D02*
X174260000Y-61720000D01*
D25*
X190000000Y-78120000D02*
X192540000Y-78120000D01*
X100000000Y-78120000D02*
X102540000Y-78120000D01*
X160000000Y-78120000D02*
X162540000Y-78120000D01*
X45100000Y-47800000D02*
X43430000Y-47800000D01*
X77570000Y-57790000D02*
X77570000Y-69480000D01*
D26*
X174260000Y-61720000D02*
X167010000Y-68970000D01*
D25*
X43430000Y-47800000D02*
X41030000Y-50200000D01*
X130000000Y-78120000D02*
X132540000Y-78120000D01*
X162540000Y-78120000D02*
X190000000Y-78120000D01*
X70000000Y-78120000D02*
X72540000Y-78120000D01*
X41030000Y-55780000D02*
X41030000Y-75807349D01*
X102540000Y-78120000D02*
X130000000Y-78120000D01*
X51420000Y-78080000D02*
X51422651Y-78082651D01*
X72540000Y-78120000D02*
X100000000Y-78120000D01*
X51422651Y-78082651D02*
X69962651Y-78082651D01*
X69962651Y-78082651D02*
X70000000Y-78120000D01*
X41030000Y-52730000D02*
X41030000Y-55780000D01*
D27*
X94100000Y-95220000D02*
X94100000Y-89300000D01*
D25*
X132540000Y-78120000D02*
X160000000Y-78120000D01*
X45100000Y-47800000D02*
X51000000Y-47800000D01*
X41030000Y-75807349D02*
X43302651Y-78080000D01*
X41030000Y-50200000D02*
X41030000Y-52730000D01*
X41065000Y-59150000D02*
X44100000Y-59150000D01*
%TO.N,Net-(C2-Pad1)*%
X77570000Y-47850000D02*
X77580000Y-47840000D01*
X89400000Y-46210000D02*
X88000000Y-44810000D01*
X89400000Y-52805000D02*
X89400000Y-46210000D01*
X77570000Y-52790000D02*
X89385000Y-52790000D01*
X89385000Y-52790000D02*
X89400000Y-52805000D01*
X77570000Y-52790000D02*
X77570000Y-47850000D01*
%TO.N,+5V*%
X51050000Y-59000000D02*
X51050000Y-52930000D01*
D26*
X191180000Y-67514345D02*
X193689511Y-70023856D01*
D25*
X48080000Y-75580000D02*
X48050000Y-75550000D01*
D27*
X110050000Y-95220000D02*
X110050000Y-89350000D01*
D25*
X130000000Y-75580000D02*
X132540000Y-75580000D01*
X70000000Y-75580000D02*
X72540000Y-75580000D01*
X51050000Y-52930000D02*
X51000000Y-52880000D01*
X72540000Y-75580000D02*
X100000000Y-75580000D01*
D26*
X193689511Y-70023856D02*
X193689511Y-74430489D01*
D25*
X162540000Y-75580000D02*
X187660000Y-75580000D01*
X190000000Y-75580000D02*
X192540000Y-75580000D01*
D26*
X193689511Y-74430489D02*
X192540000Y-75580000D01*
D25*
X160000000Y-75580000D02*
X162540000Y-75580000D01*
X42750000Y-67300000D02*
X51050000Y-59000000D01*
X102540000Y-75580000D02*
X130000000Y-75580000D01*
X48050000Y-75550000D02*
X45510000Y-75550000D01*
X42750000Y-72790000D02*
X42750000Y-67300000D01*
X187660000Y-75580000D02*
X190000000Y-75580000D01*
X70000000Y-75580000D02*
X48080000Y-75580000D01*
X132540000Y-75580000D02*
X160000000Y-75580000D01*
X45510000Y-75550000D02*
X42750000Y-72790000D01*
X100000000Y-75580000D02*
X102540000Y-75580000D01*
D26*
X191180000Y-57000000D02*
X191180000Y-67514345D01*
D25*
%TO.N,-12V*%
X90799511Y-56744511D02*
X90799511Y-69290489D01*
D27*
X102500000Y-95220000D02*
X102500000Y-90350000D01*
D26*
X192545000Y-47000000D02*
X193689511Y-48144511D01*
D25*
X162540000Y-88280000D02*
X190000000Y-88280000D01*
D26*
X195470000Y-62690000D02*
X195470000Y-85350000D01*
D25*
X100197651Y-55345000D02*
X101500000Y-54042651D01*
X101500000Y-54042651D02*
X101500000Y-48867349D01*
X102540000Y-88280000D02*
X130000000Y-88280000D01*
X190000000Y-88280000D02*
X192540000Y-88280000D01*
X70000000Y-88280000D02*
X48080000Y-88280000D01*
X89400000Y-55345000D02*
X90799511Y-56744511D01*
X100000000Y-88280000D02*
X102540000Y-88280000D01*
X70000000Y-88280000D02*
X72540000Y-88280000D01*
D26*
X195470000Y-85350000D02*
X192540000Y-88280000D01*
X193689511Y-60909511D02*
X195470000Y-62690000D01*
D25*
X160000000Y-88280000D02*
X162540000Y-88280000D01*
X48050000Y-88250000D02*
X45510000Y-88250000D01*
X89400000Y-55345000D02*
X100197651Y-55345000D01*
D26*
X193689511Y-48144511D02*
X193689511Y-60909511D01*
D25*
X130000000Y-88280000D02*
X132540000Y-88280000D01*
X72540000Y-88280000D02*
X90810000Y-88280000D01*
X132540000Y-88280000D02*
X160000000Y-88280000D01*
X90810000Y-88280000D02*
X100000000Y-88280000D01*
X48080000Y-88280000D02*
X48050000Y-88250000D01*
D26*
%TO.N,Net-(D1-Pad2)*%
X179235000Y-46980000D02*
X179255000Y-47000000D01*
X174260000Y-46980000D02*
X179235000Y-46980000D01*
%TO.N,Net-(D2-Pad2)*%
X184595000Y-53425000D02*
X181020000Y-57000000D01*
X184595000Y-47000000D02*
X184595000Y-53425000D01*
%TO.N,Net-(D3-Pad2)*%
X195630489Y-45800489D02*
X196810000Y-46980000D01*
X191204511Y-45800489D02*
X195630489Y-45800489D01*
X190005000Y-47000000D02*
X191204511Y-45800489D01*
%TO.N,CV*%
X190000000Y-73040000D02*
X192540000Y-73040000D01*
X72540000Y-73040000D02*
X100000000Y-73040000D01*
X102540000Y-73040000D02*
X130000000Y-73040000D01*
X70000000Y-73040000D02*
X72540000Y-73040000D01*
X132540000Y-73040000D02*
X160000000Y-73040000D01*
X48080000Y-73040000D02*
X48050000Y-73010000D01*
X100000000Y-73040000D02*
X102540000Y-73040000D01*
X162540000Y-73040000D02*
X190000000Y-73040000D01*
D27*
X48050000Y-73010000D02*
X45510000Y-73010000D01*
D26*
X130000000Y-73040000D02*
X132540000Y-73040000D01*
X70000000Y-73040000D02*
X48080000Y-73040000D01*
X160000000Y-73040000D02*
X162540000Y-73040000D01*
%TO.N,GATE*%
X102540000Y-70500000D02*
X130000000Y-70500000D01*
X72540000Y-70500000D02*
X100000000Y-70500000D01*
X100000000Y-70500000D02*
X102540000Y-70500000D01*
X48080000Y-70500000D02*
X48050000Y-70470000D01*
X162540000Y-70500000D02*
X190000000Y-70500000D01*
X190000000Y-70500000D02*
X192540000Y-70500000D01*
X130000000Y-70500000D02*
X132540000Y-70500000D01*
X160000000Y-70500000D02*
X132540000Y-70500000D01*
X70000000Y-70500000D02*
X72540000Y-70500000D01*
X162540000Y-70500000D02*
X160000000Y-70500000D01*
X48050000Y-70470000D02*
X45510000Y-70470000D01*
X70000000Y-70500000D02*
X48080000Y-70500000D01*
%TD*%
%TA.AperFunction,Conductor*%
%TO.N,GND*%
G36*
X199434121Y-40528002D02*
G01*
X199480614Y-40581658D01*
X199492000Y-40634000D01*
X199492000Y-99366000D01*
X199471998Y-99434121D01*
X199418342Y-99480614D01*
X199366000Y-99492000D01*
X40634000Y-99492000D01*
X40565879Y-99471998D01*
X40519386Y-99418342D01*
X40508000Y-99366000D01*
X40508000Y-98116381D01*
X53439160Y-98116381D01*
X53439237Y-98117470D01*
X53441698Y-98121206D01*
X53715632Y-98331404D01*
X53721262Y-98335259D01*
X54021591Y-98517862D01*
X54027593Y-98521080D01*
X54345897Y-98670184D01*
X54352202Y-98672732D01*
X54684743Y-98786587D01*
X54691313Y-98788446D01*
X55034183Y-98865714D01*
X55040912Y-98866853D01*
X55390143Y-98906643D01*
X55396933Y-98907046D01*
X55748419Y-98908886D01*
X55755220Y-98908554D01*
X56104853Y-98872423D01*
X56111581Y-98871357D01*
X56455274Y-98797676D01*
X56461822Y-98795897D01*
X56795549Y-98685527D01*
X56801891Y-98683041D01*
X57121718Y-98537288D01*
X57127777Y-98534121D01*
X57429995Y-98354676D01*
X57435659Y-98350884D01*
X57716732Y-98139849D01*
X57721958Y-98135464D01*
X57731613Y-98126428D01*
X57737540Y-98116381D01*
X178609160Y-98116381D01*
X178609237Y-98117470D01*
X178611698Y-98121206D01*
X178885632Y-98331404D01*
X178891262Y-98335259D01*
X179191591Y-98517862D01*
X179197593Y-98521080D01*
X179515897Y-98670184D01*
X179522202Y-98672732D01*
X179854743Y-98786587D01*
X179861313Y-98788446D01*
X180204183Y-98865714D01*
X180210912Y-98866853D01*
X180560143Y-98906643D01*
X180566933Y-98907046D01*
X180918419Y-98908886D01*
X180925220Y-98908554D01*
X181274853Y-98872423D01*
X181281581Y-98871357D01*
X181625274Y-98797676D01*
X181631822Y-98795897D01*
X181965549Y-98685527D01*
X181971891Y-98683041D01*
X182291718Y-98537288D01*
X182297777Y-98534121D01*
X182599995Y-98354676D01*
X182605659Y-98350884D01*
X182886732Y-98139849D01*
X182891958Y-98135464D01*
X182901613Y-98126428D01*
X182909682Y-98112750D01*
X182909654Y-98112024D01*
X182904512Y-98103723D01*
X180772810Y-95972020D01*
X180758869Y-95964408D01*
X180757034Y-95964539D01*
X180750420Y-95968790D01*
X178616774Y-98102437D01*
X178609160Y-98116381D01*
X57737540Y-98116381D01*
X57739682Y-98112750D01*
X57739654Y-98112024D01*
X57734512Y-98103723D01*
X55602810Y-95972020D01*
X55588869Y-95964408D01*
X55587034Y-95964539D01*
X55580420Y-95968790D01*
X53446774Y-98102437D01*
X53439160Y-98116381D01*
X40508000Y-98116381D01*
X40508000Y-95591832D01*
X52277333Y-95591832D01*
X52295117Y-95942893D01*
X52295827Y-95949649D01*
X52351420Y-96296723D01*
X52352859Y-96303378D01*
X52445608Y-96642410D01*
X52447757Y-96648871D01*
X52576581Y-96975912D01*
X52579412Y-96982095D01*
X52742803Y-97293310D01*
X52746286Y-97299152D01*
X52942330Y-97590896D01*
X52946433Y-97596340D01*
X53066425Y-97738836D01*
X53079164Y-97747279D01*
X53089608Y-97741181D01*
X55217980Y-95612810D01*
X55224357Y-95601131D01*
X55954408Y-95601131D01*
X55954539Y-95602966D01*
X55958790Y-95609580D01*
X58089009Y-97739798D01*
X58102605Y-97747223D01*
X58112218Y-97740522D01*
X58212518Y-97623912D01*
X58216676Y-97618514D01*
X58415762Y-97328840D01*
X58419310Y-97323029D01*
X58585942Y-97013559D01*
X58588849Y-97007381D01*
X58698313Y-96737806D01*
X119897361Y-96737806D01*
X119904751Y-96748108D01*
X119946630Y-96782203D01*
X119953909Y-96787318D01*
X120177756Y-96922085D01*
X120185670Y-96926118D01*
X120426286Y-97028006D01*
X120434691Y-97030883D01*
X120687257Y-97097850D01*
X120695989Y-97099516D01*
X120955474Y-97130227D01*
X120964340Y-97130645D01*
X121225561Y-97124490D01*
X121234414Y-97123653D01*
X121492162Y-97080752D01*
X121500796Y-97078679D01*
X121749930Y-96999888D01*
X121758192Y-96996617D01*
X121993731Y-96883513D01*
X122001455Y-96879107D01*
X122195268Y-96749606D01*
X122203556Y-96739688D01*
X122196299Y-96725509D01*
X121062812Y-95592022D01*
X121048868Y-95584408D01*
X121047035Y-95584539D01*
X121040420Y-95588790D01*
X119904527Y-96724683D01*
X119897361Y-96737806D01*
X58698313Y-96737806D01*
X58721090Y-96681713D01*
X58723304Y-96675283D01*
X58819598Y-96337237D01*
X58821105Y-96330607D01*
X58880332Y-95984118D01*
X58881112Y-95977378D01*
X58902668Y-95624925D01*
X58902784Y-95621323D01*
X58902853Y-95601819D01*
X58902761Y-95598194D01*
X58883666Y-95245615D01*
X58882931Y-95238849D01*
X58826130Y-94891985D01*
X58824663Y-94885313D01*
X58730736Y-94546627D01*
X58728562Y-94540163D01*
X58598598Y-94213578D01*
X58595742Y-94207398D01*
X58431269Y-93896763D01*
X58427769Y-93890937D01*
X58230697Y-93599862D01*
X58226590Y-93594453D01*
X58113565Y-93461179D01*
X58100740Y-93452743D01*
X58090416Y-93458795D01*
X55962020Y-95587190D01*
X55954408Y-95601131D01*
X55224357Y-95601131D01*
X55225592Y-95598869D01*
X55225461Y-95597034D01*
X55221210Y-95590420D01*
X53090992Y-93460203D01*
X53077455Y-93452811D01*
X53067753Y-93459599D01*
X52960430Y-93585257D01*
X52956296Y-93590664D01*
X52758215Y-93881041D01*
X52754697Y-93886851D01*
X52589134Y-94196922D01*
X52586259Y-94203087D01*
X52455155Y-94529218D01*
X52452962Y-94535658D01*
X52357846Y-94874044D01*
X52356363Y-94880679D01*
X52298350Y-95227354D01*
X52297591Y-95234126D01*
X52277357Y-95585037D01*
X52277333Y-95591832D01*
X40508000Y-95591832D01*
X40508000Y-93086862D01*
X53439950Y-93086862D01*
X53439986Y-93087704D01*
X53445037Y-93095826D01*
X55577190Y-95227980D01*
X55591131Y-95235592D01*
X55592966Y-95235461D01*
X55599580Y-95231210D01*
X57732798Y-93097991D01*
X57740412Y-93084047D01*
X57740344Y-93083089D01*
X57735836Y-93076272D01*
X57734418Y-93075065D01*
X57454813Y-92862064D01*
X57449187Y-92858240D01*
X57148214Y-92676681D01*
X57142202Y-92673484D01*
X56823370Y-92525487D01*
X56817070Y-92522967D01*
X56484129Y-92410273D01*
X56477551Y-92408437D01*
X56134417Y-92332367D01*
X56127678Y-92331251D01*
X55778310Y-92292680D01*
X55771529Y-92292301D01*
X55420015Y-92291687D01*
X55413242Y-92292042D01*
X55063720Y-92329395D01*
X55057010Y-92330482D01*
X54713586Y-92405361D01*
X54707011Y-92407172D01*
X54373683Y-92518702D01*
X54367361Y-92521205D01*
X54048034Y-92668079D01*
X54041991Y-92671265D01*
X53740401Y-92851763D01*
X53734755Y-92855571D01*
X53454408Y-93067596D01*
X53449211Y-93071987D01*
X53447972Y-93073155D01*
X53439950Y-93086862D01*
X40508000Y-93086862D01*
X40508000Y-88216695D01*
X44147251Y-88216695D01*
X44160110Y-88439715D01*
X44161247Y-88444761D01*
X44161248Y-88444767D01*
X44185304Y-88551508D01*
X44209222Y-88657639D01*
X44293266Y-88864616D01*
X44409987Y-89055088D01*
X44556250Y-89223938D01*
X44728126Y-89366632D01*
X44921000Y-89479338D01*
X44925825Y-89481180D01*
X44925826Y-89481181D01*
X44965173Y-89496206D01*
X45129692Y-89559030D01*
X45134760Y-89560061D01*
X45134763Y-89560062D01*
X45209312Y-89575229D01*
X45348597Y-89603567D01*
X45353772Y-89603757D01*
X45353774Y-89603757D01*
X45566673Y-89611564D01*
X45566677Y-89611564D01*
X45571837Y-89611753D01*
X45576957Y-89611097D01*
X45576959Y-89611097D01*
X45788288Y-89584025D01*
X45788289Y-89584025D01*
X45793416Y-89583368D01*
X45802592Y-89580615D01*
X46002429Y-89520661D01*
X46002434Y-89520659D01*
X46007384Y-89519174D01*
X46207994Y-89420896D01*
X46389860Y-89291173D01*
X46498091Y-89183319D01*
X46560462Y-89149404D01*
X46631268Y-89154592D01*
X46688030Y-89197238D01*
X46705012Y-89228341D01*
X46714608Y-89253938D01*
X46749385Y-89346705D01*
X46836739Y-89463261D01*
X46953295Y-89550615D01*
X47089684Y-89601745D01*
X47151866Y-89608500D01*
X48948134Y-89608500D01*
X49010316Y-89601745D01*
X49146705Y-89550615D01*
X49263261Y-89463261D01*
X49350615Y-89346705D01*
X49401745Y-89210316D01*
X49402769Y-89200889D01*
X49403243Y-89199747D01*
X49404425Y-89194778D01*
X49405229Y-89194969D01*
X49430013Y-89135328D01*
X49488377Y-89094903D01*
X49528032Y-89088500D01*
X68845389Y-89088500D01*
X68913510Y-89108502D01*
X68940625Y-89132001D01*
X69046250Y-89253938D01*
X69218126Y-89396632D01*
X69411000Y-89509338D01*
X69619692Y-89589030D01*
X69624760Y-89590061D01*
X69624763Y-89590062D01*
X69728154Y-89611097D01*
X69838597Y-89633567D01*
X69843772Y-89633757D01*
X69843774Y-89633757D01*
X70056673Y-89641564D01*
X70056677Y-89641564D01*
X70061837Y-89641753D01*
X70066957Y-89641097D01*
X70066959Y-89641097D01*
X70278288Y-89614025D01*
X70278289Y-89614025D01*
X70283416Y-89613368D01*
X70315451Y-89603757D01*
X70492429Y-89550661D01*
X70492434Y-89550659D01*
X70497384Y-89549174D01*
X70697994Y-89450896D01*
X70879860Y-89321173D01*
X70988091Y-89213319D01*
X71050462Y-89179404D01*
X71121268Y-89184592D01*
X71178030Y-89227238D01*
X71195012Y-89258341D01*
X71213091Y-89306565D01*
X71239385Y-89376705D01*
X71326739Y-89493261D01*
X71443295Y-89580615D01*
X71579684Y-89631745D01*
X71641866Y-89638500D01*
X73438134Y-89638500D01*
X73500316Y-89631745D01*
X73636705Y-89580615D01*
X73753261Y-89493261D01*
X73840615Y-89376705D01*
X73891745Y-89240316D01*
X73895004Y-89210316D01*
X73896028Y-89200892D01*
X73923270Y-89135330D01*
X73981634Y-89094904D01*
X74021291Y-89088500D01*
X90747584Y-89088500D01*
X90764248Y-89089607D01*
X90785979Y-89092507D01*
X90785984Y-89092507D01*
X90792961Y-89093438D01*
X90799972Y-89092800D01*
X90799976Y-89092800D01*
X90841516Y-89089019D01*
X90852936Y-89088500D01*
X93068788Y-89088500D01*
X93136909Y-89108502D01*
X93183402Y-89162158D01*
X93194098Y-89227670D01*
X93193595Y-89232460D01*
X93186496Y-89300000D01*
X93187186Y-89306565D01*
X93205539Y-89481181D01*
X93206458Y-89489928D01*
X93265473Y-89671556D01*
X93360960Y-89836944D01*
X93434137Y-89918215D01*
X93464853Y-89982221D01*
X93466500Y-90002524D01*
X93466500Y-93768434D01*
X93446498Y-93836555D01*
X93406335Y-93875867D01*
X93214798Y-93993241D01*
X93214792Y-93993245D01*
X93210584Y-93995824D01*
X93030031Y-94150031D01*
X92875824Y-94330584D01*
X92873245Y-94334792D01*
X92873241Y-94334798D01*
X92754346Y-94528817D01*
X92751760Y-94533037D01*
X92749867Y-94537607D01*
X92749865Y-94537611D01*
X92689998Y-94682144D01*
X92660895Y-94752406D01*
X92659740Y-94757218D01*
X92614389Y-94946119D01*
X92605465Y-94983289D01*
X92586835Y-95220000D01*
X92605465Y-95456711D01*
X92606619Y-95461518D01*
X92606620Y-95461524D01*
X92639432Y-95598194D01*
X92660895Y-95687594D01*
X92662788Y-95692165D01*
X92662789Y-95692167D01*
X92733832Y-95863680D01*
X92751760Y-95906963D01*
X92754346Y-95911183D01*
X92873241Y-96105202D01*
X92873245Y-96105208D01*
X92875824Y-96109416D01*
X93030031Y-96289969D01*
X93210584Y-96444176D01*
X93214792Y-96446755D01*
X93214798Y-96446759D01*
X93408817Y-96565654D01*
X93413037Y-96568240D01*
X93417607Y-96570133D01*
X93417611Y-96570135D01*
X93627833Y-96657211D01*
X93632406Y-96659105D01*
X93712609Y-96678360D01*
X93858476Y-96713380D01*
X93858482Y-96713381D01*
X93863289Y-96714535D01*
X94100000Y-96733165D01*
X94336711Y-96714535D01*
X94341518Y-96713381D01*
X94341524Y-96713380D01*
X94487391Y-96678360D01*
X94567594Y-96659105D01*
X94572167Y-96657211D01*
X94782389Y-96570135D01*
X94782393Y-96570133D01*
X94786963Y-96568240D01*
X94791183Y-96565654D01*
X94985202Y-96446759D01*
X94985208Y-96446755D01*
X94989416Y-96444176D01*
X95169969Y-96289969D01*
X95324176Y-96109416D01*
X95326755Y-96105208D01*
X95326759Y-96105202D01*
X95445654Y-95911183D01*
X95448240Y-95906963D01*
X95466169Y-95863680D01*
X95537211Y-95692167D01*
X95537212Y-95692165D01*
X95539105Y-95687594D01*
X95560568Y-95598194D01*
X95593380Y-95461524D01*
X95593381Y-95461518D01*
X95594535Y-95456711D01*
X95613165Y-95220000D01*
X95594535Y-94983289D01*
X95585612Y-94946119D01*
X95540260Y-94757218D01*
X95539105Y-94752406D01*
X95510002Y-94682144D01*
X95450135Y-94537611D01*
X95450133Y-94537607D01*
X95448240Y-94533037D01*
X95445654Y-94528817D01*
X95326759Y-94334798D01*
X95326755Y-94334792D01*
X95324176Y-94330584D01*
X95169969Y-94150031D01*
X94989416Y-93995824D01*
X94985208Y-93993245D01*
X94985202Y-93993241D01*
X94793665Y-93875867D01*
X94746034Y-93823219D01*
X94733500Y-93768434D01*
X94733500Y-90002524D01*
X94753502Y-89934403D01*
X94765858Y-89918221D01*
X94839040Y-89836944D01*
X94934527Y-89671556D01*
X94993542Y-89489928D01*
X94994462Y-89481181D01*
X95012814Y-89306565D01*
X95013504Y-89300000D01*
X95006405Y-89232460D01*
X95005902Y-89227670D01*
X95018674Y-89157832D01*
X95067176Y-89105985D01*
X95131212Y-89088500D01*
X98845389Y-89088500D01*
X98913510Y-89108502D01*
X98940625Y-89132001D01*
X99046250Y-89253938D01*
X99218126Y-89396632D01*
X99411000Y-89509338D01*
X99619692Y-89589030D01*
X99624760Y-89590061D01*
X99624763Y-89590062D01*
X99728154Y-89611097D01*
X99838597Y-89633567D01*
X99843772Y-89633757D01*
X99843774Y-89633757D01*
X100056673Y-89641564D01*
X100056677Y-89641564D01*
X100061837Y-89641753D01*
X100066957Y-89641097D01*
X100066959Y-89641097D01*
X100278288Y-89614025D01*
X100278289Y-89614025D01*
X100283416Y-89613368D01*
X100315451Y-89603757D01*
X100492429Y-89550661D01*
X100492434Y-89550659D01*
X100497384Y-89549174D01*
X100697994Y-89450896D01*
X100879860Y-89321173D01*
X100988091Y-89213319D01*
X101050462Y-89179404D01*
X101121268Y-89184592D01*
X101178030Y-89227238D01*
X101195012Y-89258341D01*
X101213091Y-89306565D01*
X101239385Y-89376705D01*
X101326739Y-89493261D01*
X101443295Y-89580615D01*
X101579684Y-89631745D01*
X101641866Y-89638500D01*
X101645282Y-89638500D01*
X101648680Y-89638684D01*
X101648609Y-89639999D01*
X101711623Y-89658502D01*
X101758116Y-89712158D01*
X101768220Y-89782432D01*
X101752621Y-89827499D01*
X101721602Y-89881226D01*
X101679495Y-89954158D01*
X101665473Y-89978444D01*
X101606458Y-90160072D01*
X101586496Y-90350000D01*
X101606458Y-90539928D01*
X101665473Y-90721556D01*
X101760960Y-90886944D01*
X101834137Y-90968215D01*
X101864853Y-91032221D01*
X101866500Y-91052524D01*
X101866500Y-93768434D01*
X101846498Y-93836555D01*
X101806335Y-93875867D01*
X101614798Y-93993241D01*
X101614792Y-93993245D01*
X101610584Y-93995824D01*
X101430031Y-94150031D01*
X101275824Y-94330584D01*
X101273245Y-94334792D01*
X101273241Y-94334798D01*
X101154346Y-94528817D01*
X101151760Y-94533037D01*
X101149867Y-94537607D01*
X101149865Y-94537611D01*
X101089998Y-94682144D01*
X101060895Y-94752406D01*
X101059740Y-94757218D01*
X101014389Y-94946119D01*
X101005465Y-94983289D01*
X100986835Y-95220000D01*
X101005465Y-95456711D01*
X101006619Y-95461518D01*
X101006620Y-95461524D01*
X101039432Y-95598194D01*
X101060895Y-95687594D01*
X101062788Y-95692165D01*
X101062789Y-95692167D01*
X101133832Y-95863680D01*
X101151760Y-95906963D01*
X101154346Y-95911183D01*
X101273241Y-96105202D01*
X101273245Y-96105208D01*
X101275824Y-96109416D01*
X101430031Y-96289969D01*
X101610584Y-96444176D01*
X101614792Y-96446755D01*
X101614798Y-96446759D01*
X101808817Y-96565654D01*
X101813037Y-96568240D01*
X101817607Y-96570133D01*
X101817611Y-96570135D01*
X102027833Y-96657211D01*
X102032406Y-96659105D01*
X102112609Y-96678360D01*
X102258476Y-96713380D01*
X102258482Y-96713381D01*
X102263289Y-96714535D01*
X102500000Y-96733165D01*
X102736711Y-96714535D01*
X102741518Y-96713381D01*
X102741524Y-96713380D01*
X102887391Y-96678360D01*
X102967594Y-96659105D01*
X102972167Y-96657211D01*
X103182389Y-96570135D01*
X103182393Y-96570133D01*
X103186963Y-96568240D01*
X103191183Y-96565654D01*
X103385202Y-96446759D01*
X103385208Y-96446755D01*
X103389416Y-96444176D01*
X103569969Y-96289969D01*
X103724176Y-96109416D01*
X103726755Y-96105208D01*
X103726759Y-96105202D01*
X103845654Y-95911183D01*
X103848240Y-95906963D01*
X103866169Y-95863680D01*
X103937211Y-95692167D01*
X103937212Y-95692165D01*
X103939105Y-95687594D01*
X103960568Y-95598194D01*
X103993380Y-95461524D01*
X103993381Y-95461518D01*
X103994535Y-95456711D01*
X104013165Y-95220000D01*
X103994535Y-94983289D01*
X103985612Y-94946119D01*
X103940260Y-94757218D01*
X103939105Y-94752406D01*
X103910002Y-94682144D01*
X103850135Y-94537611D01*
X103850133Y-94537607D01*
X103848240Y-94533037D01*
X103845654Y-94528817D01*
X103726759Y-94334798D01*
X103726755Y-94334792D01*
X103724176Y-94330584D01*
X103569969Y-94150031D01*
X103389416Y-93995824D01*
X103385208Y-93993245D01*
X103385202Y-93993241D01*
X103193665Y-93875867D01*
X103146034Y-93823219D01*
X103133500Y-93768434D01*
X103133500Y-91052524D01*
X103153502Y-90984403D01*
X103165858Y-90968221D01*
X103239040Y-90886944D01*
X103334527Y-90721556D01*
X103393542Y-90539928D01*
X103413504Y-90350000D01*
X103393542Y-90160072D01*
X103334527Y-89978444D01*
X103320506Y-89954158D01*
X103278398Y-89881226D01*
X103247379Y-89827499D01*
X103230641Y-89758505D01*
X103253861Y-89691413D01*
X103309668Y-89647526D01*
X103356498Y-89638500D01*
X103438134Y-89638500D01*
X103500316Y-89631745D01*
X103636705Y-89580615D01*
X103753261Y-89493261D01*
X103840615Y-89376705D01*
X103891745Y-89240316D01*
X103895004Y-89210316D01*
X103896028Y-89200892D01*
X103923270Y-89135330D01*
X103981634Y-89094904D01*
X104021291Y-89088500D01*
X109024043Y-89088500D01*
X109092164Y-89108502D01*
X109138657Y-89162158D01*
X109149353Y-89227670D01*
X109143062Y-89287529D01*
X109136496Y-89350000D01*
X109137186Y-89356565D01*
X109153437Y-89511181D01*
X109156458Y-89539928D01*
X109215473Y-89721556D01*
X109218776Y-89727278D01*
X109218777Y-89727279D01*
X109250620Y-89782432D01*
X109310960Y-89886944D01*
X109384137Y-89968215D01*
X109414853Y-90032221D01*
X109416500Y-90052524D01*
X109416500Y-93768434D01*
X109396498Y-93836555D01*
X109356335Y-93875867D01*
X109164798Y-93993241D01*
X109164792Y-93993245D01*
X109160584Y-93995824D01*
X108980031Y-94150031D01*
X108825824Y-94330584D01*
X108823245Y-94334792D01*
X108823241Y-94334798D01*
X108704346Y-94528817D01*
X108701760Y-94533037D01*
X108699867Y-94537607D01*
X108699865Y-94537611D01*
X108639998Y-94682144D01*
X108610895Y-94752406D01*
X108609740Y-94757218D01*
X108564389Y-94946119D01*
X108555465Y-94983289D01*
X108536835Y-95220000D01*
X108555465Y-95456711D01*
X108556619Y-95461518D01*
X108556620Y-95461524D01*
X108589432Y-95598194D01*
X108610895Y-95687594D01*
X108612788Y-95692165D01*
X108612789Y-95692167D01*
X108683832Y-95863680D01*
X108701760Y-95906963D01*
X108704346Y-95911183D01*
X108823241Y-96105202D01*
X108823245Y-96105208D01*
X108825824Y-96109416D01*
X108980031Y-96289969D01*
X109160584Y-96444176D01*
X109164792Y-96446755D01*
X109164798Y-96446759D01*
X109358817Y-96565654D01*
X109363037Y-96568240D01*
X109367607Y-96570133D01*
X109367611Y-96570135D01*
X109577833Y-96657211D01*
X109582406Y-96659105D01*
X109662609Y-96678360D01*
X109808476Y-96713380D01*
X109808482Y-96713381D01*
X109813289Y-96714535D01*
X110050000Y-96733165D01*
X110286711Y-96714535D01*
X110291518Y-96713381D01*
X110291524Y-96713380D01*
X110437391Y-96678360D01*
X110517594Y-96659105D01*
X110522167Y-96657211D01*
X110732389Y-96570135D01*
X110732393Y-96570133D01*
X110736963Y-96568240D01*
X110741183Y-96565654D01*
X110935202Y-96446759D01*
X110935208Y-96446755D01*
X110939416Y-96444176D01*
X111119969Y-96289969D01*
X111274176Y-96109416D01*
X111276755Y-96105208D01*
X111276759Y-96105202D01*
X111395654Y-95911183D01*
X111398240Y-95906963D01*
X111416169Y-95863680D01*
X111487211Y-95692167D01*
X111487212Y-95692165D01*
X111489105Y-95687594D01*
X111510568Y-95598194D01*
X111543380Y-95461524D01*
X111543381Y-95461518D01*
X111544535Y-95456711D01*
X111563165Y-95220000D01*
X111558786Y-95164367D01*
X119138245Y-95164367D01*
X119148503Y-95425459D01*
X119149478Y-95434288D01*
X119196422Y-95691332D01*
X119198631Y-95699934D01*
X119281324Y-95947796D01*
X119284728Y-95956014D01*
X119401519Y-96189750D01*
X119406043Y-96197398D01*
X119521352Y-96364235D01*
X119531673Y-96372589D01*
X119545323Y-96365467D01*
X120677978Y-95232812D01*
X120684356Y-95221132D01*
X121414408Y-95221132D01*
X121414539Y-95222965D01*
X121418790Y-95229580D01*
X122555517Y-96366307D01*
X122568917Y-96373624D01*
X122578821Y-96366637D01*
X122594686Y-96347763D01*
X122599905Y-96340580D01*
X122738171Y-96118876D01*
X122742333Y-96111017D01*
X122847988Y-95872030D01*
X122850994Y-95863680D01*
X122921921Y-95612192D01*
X122923722Y-95603499D01*
X122925289Y-95591832D01*
X177447333Y-95591832D01*
X177465117Y-95942893D01*
X177465827Y-95949649D01*
X177521420Y-96296723D01*
X177522859Y-96303378D01*
X177615608Y-96642410D01*
X177617757Y-96648871D01*
X177746581Y-96975912D01*
X177749412Y-96982095D01*
X177912803Y-97293310D01*
X177916286Y-97299152D01*
X178112330Y-97590896D01*
X178116433Y-97596340D01*
X178236425Y-97738836D01*
X178249164Y-97747279D01*
X178259608Y-97741181D01*
X180387980Y-95612810D01*
X180394357Y-95601131D01*
X181124408Y-95601131D01*
X181124539Y-95602966D01*
X181128790Y-95609580D01*
X183259009Y-97739798D01*
X183272605Y-97747223D01*
X183282218Y-97740522D01*
X183382518Y-97623912D01*
X183386676Y-97618514D01*
X183585762Y-97328840D01*
X183589310Y-97323029D01*
X183755942Y-97013559D01*
X183758849Y-97007381D01*
X183891090Y-96681713D01*
X183893304Y-96675283D01*
X183989598Y-96337237D01*
X183991105Y-96330607D01*
X184050332Y-95984118D01*
X184051112Y-95977378D01*
X184072668Y-95624925D01*
X184072784Y-95621323D01*
X184072853Y-95601819D01*
X184072761Y-95598194D01*
X184053666Y-95245615D01*
X184052931Y-95238849D01*
X183996130Y-94891985D01*
X183994663Y-94885313D01*
X183900736Y-94546627D01*
X183898562Y-94540163D01*
X183768598Y-94213578D01*
X183765742Y-94207398D01*
X183601269Y-93896763D01*
X183597769Y-93890937D01*
X183400697Y-93599862D01*
X183396590Y-93594453D01*
X183283565Y-93461179D01*
X183270740Y-93452743D01*
X183260416Y-93458795D01*
X181132020Y-95587190D01*
X181124408Y-95601131D01*
X180394357Y-95601131D01*
X180395592Y-95598869D01*
X180395461Y-95597034D01*
X180391210Y-95590420D01*
X178260992Y-93460203D01*
X178247455Y-93452811D01*
X178237753Y-93459599D01*
X178130430Y-93585257D01*
X178126296Y-93590664D01*
X177928215Y-93881041D01*
X177924697Y-93886851D01*
X177759134Y-94196922D01*
X177756259Y-94203087D01*
X177625155Y-94529218D01*
X177622962Y-94535658D01*
X177527846Y-94874044D01*
X177526363Y-94880679D01*
X177468350Y-95227354D01*
X177467591Y-95234126D01*
X177447357Y-95585037D01*
X177447333Y-95591832D01*
X122925289Y-95591832D01*
X122958672Y-95343292D01*
X122959200Y-95336899D01*
X122962773Y-95223222D01*
X122962646Y-95216779D01*
X122944106Y-94954923D01*
X122942853Y-94946119D01*
X122887858Y-94690677D01*
X122885379Y-94682144D01*
X122794941Y-94437002D01*
X122791286Y-94428907D01*
X122667206Y-94198947D01*
X122662447Y-94191449D01*
X122577759Y-94076790D01*
X122566631Y-94068348D01*
X122554038Y-94075172D01*
X121422022Y-95207188D01*
X121414408Y-95221132D01*
X120684356Y-95221132D01*
X120685592Y-95218868D01*
X120685461Y-95217035D01*
X120681210Y-95210420D01*
X119545819Y-94075029D01*
X119532978Y-94068017D01*
X119522289Y-94075813D01*
X119470663Y-94141299D01*
X119465658Y-94148663D01*
X119334420Y-94374605D01*
X119330516Y-94382575D01*
X119232420Y-94624763D01*
X119229676Y-94633207D01*
X119166683Y-94886800D01*
X119165156Y-94895551D01*
X119138524Y-95155483D01*
X119138245Y-95164367D01*
X111558786Y-95164367D01*
X111544535Y-94983289D01*
X111535612Y-94946119D01*
X111490260Y-94757218D01*
X111489105Y-94752406D01*
X111460002Y-94682144D01*
X111400135Y-94537611D01*
X111400133Y-94537607D01*
X111398240Y-94533037D01*
X111395654Y-94528817D01*
X111276759Y-94334798D01*
X111276755Y-94334792D01*
X111274176Y-94330584D01*
X111119969Y-94150031D01*
X110939416Y-93995824D01*
X110935208Y-93993245D01*
X110935202Y-93993241D01*
X110743665Y-93875867D01*
X110696034Y-93823219D01*
X110683500Y-93768434D01*
X110683500Y-93702688D01*
X119898045Y-93702688D01*
X119905025Y-93715815D01*
X121037188Y-94847978D01*
X121051132Y-94855592D01*
X121052965Y-94855461D01*
X121059580Y-94851210D01*
X122194804Y-93715986D01*
X122201658Y-93703434D01*
X122193450Y-93692363D01*
X122103762Y-93623916D01*
X122096313Y-93619023D01*
X121868353Y-93491359D01*
X121860303Y-93487571D01*
X121616617Y-93393295D01*
X121608127Y-93390683D01*
X121353578Y-93331683D01*
X121344800Y-93330293D01*
X121084478Y-93307746D01*
X121075607Y-93307606D01*
X120814696Y-93321965D01*
X120805886Y-93323079D01*
X120549607Y-93374055D01*
X120541050Y-93376396D01*
X120294496Y-93462980D01*
X120286362Y-93466500D01*
X120054477Y-93586955D01*
X120046905Y-93591594D01*
X119906447Y-93691967D01*
X119898045Y-93702688D01*
X110683500Y-93702688D01*
X110683500Y-93086862D01*
X178609950Y-93086862D01*
X178609986Y-93087704D01*
X178615037Y-93095826D01*
X180747190Y-95227980D01*
X180761131Y-95235592D01*
X180762966Y-95235461D01*
X180769580Y-95231210D01*
X182902798Y-93097991D01*
X182910412Y-93084047D01*
X182910344Y-93083089D01*
X182905836Y-93076272D01*
X182904418Y-93075065D01*
X182624813Y-92862064D01*
X182619187Y-92858240D01*
X182318214Y-92676681D01*
X182312202Y-92673484D01*
X181993370Y-92525487D01*
X181987070Y-92522967D01*
X181654129Y-92410273D01*
X181647551Y-92408437D01*
X181304417Y-92332367D01*
X181297678Y-92331251D01*
X180948310Y-92292680D01*
X180941529Y-92292301D01*
X180590015Y-92291687D01*
X180583242Y-92292042D01*
X180233720Y-92329395D01*
X180227010Y-92330482D01*
X179883586Y-92405361D01*
X179877011Y-92407172D01*
X179543683Y-92518702D01*
X179537361Y-92521205D01*
X179218034Y-92668079D01*
X179211991Y-92671265D01*
X178910401Y-92851763D01*
X178904755Y-92855571D01*
X178624408Y-93067596D01*
X178619211Y-93071987D01*
X178617972Y-93073155D01*
X178609950Y-93086862D01*
X110683500Y-93086862D01*
X110683500Y-90052524D01*
X110703502Y-89984403D01*
X110715858Y-89968221D01*
X110789040Y-89886944D01*
X110849380Y-89782432D01*
X110881223Y-89727279D01*
X110881224Y-89727278D01*
X110884527Y-89721556D01*
X110943542Y-89539928D01*
X110946564Y-89511181D01*
X110962814Y-89356565D01*
X110963504Y-89350000D01*
X110956938Y-89287529D01*
X110950647Y-89227670D01*
X110963419Y-89157832D01*
X111011921Y-89105985D01*
X111075957Y-89088500D01*
X128845389Y-89088500D01*
X128913510Y-89108502D01*
X128940625Y-89132001D01*
X129046250Y-89253938D01*
X129218126Y-89396632D01*
X129411000Y-89509338D01*
X129619692Y-89589030D01*
X129624760Y-89590061D01*
X129624763Y-89590062D01*
X129728154Y-89611097D01*
X129838597Y-89633567D01*
X129843772Y-89633757D01*
X129843774Y-89633757D01*
X130056673Y-89641564D01*
X130056677Y-89641564D01*
X130061837Y-89641753D01*
X130066957Y-89641097D01*
X130066959Y-89641097D01*
X130278288Y-89614025D01*
X130278289Y-89614025D01*
X130283416Y-89613368D01*
X130315451Y-89603757D01*
X130492429Y-89550661D01*
X130492434Y-89550659D01*
X130497384Y-89549174D01*
X130697994Y-89450896D01*
X130879860Y-89321173D01*
X130988091Y-89213319D01*
X131050462Y-89179404D01*
X131121268Y-89184592D01*
X131178030Y-89227238D01*
X131195012Y-89258341D01*
X131213091Y-89306565D01*
X131239385Y-89376705D01*
X131326739Y-89493261D01*
X131443295Y-89580615D01*
X131579684Y-89631745D01*
X131641866Y-89638500D01*
X133438134Y-89638500D01*
X133500316Y-89631745D01*
X133636705Y-89580615D01*
X133753261Y-89493261D01*
X133840615Y-89376705D01*
X133891745Y-89240316D01*
X133895004Y-89210316D01*
X133896028Y-89200892D01*
X133923270Y-89135330D01*
X133981634Y-89094904D01*
X134021291Y-89088500D01*
X158845389Y-89088500D01*
X158913510Y-89108502D01*
X158940625Y-89132001D01*
X159046250Y-89253938D01*
X159218126Y-89396632D01*
X159411000Y-89509338D01*
X159619692Y-89589030D01*
X159624760Y-89590061D01*
X159624763Y-89590062D01*
X159728154Y-89611097D01*
X159838597Y-89633567D01*
X159843772Y-89633757D01*
X159843774Y-89633757D01*
X160056673Y-89641564D01*
X160056677Y-89641564D01*
X160061837Y-89641753D01*
X160066957Y-89641097D01*
X160066959Y-89641097D01*
X160278288Y-89614025D01*
X160278289Y-89614025D01*
X160283416Y-89613368D01*
X160315451Y-89603757D01*
X160492429Y-89550661D01*
X160492434Y-89550659D01*
X160497384Y-89549174D01*
X160697994Y-89450896D01*
X160879860Y-89321173D01*
X160988091Y-89213319D01*
X161050462Y-89179404D01*
X161121268Y-89184592D01*
X161178030Y-89227238D01*
X161195012Y-89258341D01*
X161213091Y-89306565D01*
X161239385Y-89376705D01*
X161326739Y-89493261D01*
X161443295Y-89580615D01*
X161579684Y-89631745D01*
X161641866Y-89638500D01*
X163438134Y-89638500D01*
X163500316Y-89631745D01*
X163636705Y-89580615D01*
X163753261Y-89493261D01*
X163840615Y-89376705D01*
X163891745Y-89240316D01*
X163895004Y-89210316D01*
X163896028Y-89200892D01*
X163923270Y-89135330D01*
X163981634Y-89094904D01*
X164021291Y-89088500D01*
X188845389Y-89088500D01*
X188913510Y-89108502D01*
X188940625Y-89132001D01*
X189046250Y-89253938D01*
X189218126Y-89396632D01*
X189411000Y-89509338D01*
X189619692Y-89589030D01*
X189624760Y-89590061D01*
X189624763Y-89590062D01*
X189728154Y-89611097D01*
X189838597Y-89633567D01*
X189843772Y-89633757D01*
X189843774Y-89633757D01*
X190056673Y-89641564D01*
X190056677Y-89641564D01*
X190061837Y-89641753D01*
X190066957Y-89641097D01*
X190066959Y-89641097D01*
X190278288Y-89614025D01*
X190278289Y-89614025D01*
X190283416Y-89613368D01*
X190315451Y-89603757D01*
X190492429Y-89550661D01*
X190492434Y-89550659D01*
X190497384Y-89549174D01*
X190697994Y-89450896D01*
X190879860Y-89321173D01*
X190988091Y-89213319D01*
X191050462Y-89179404D01*
X191121268Y-89184592D01*
X191178030Y-89227238D01*
X191195012Y-89258341D01*
X191213091Y-89306565D01*
X191239385Y-89376705D01*
X191326739Y-89493261D01*
X191443295Y-89580615D01*
X191579684Y-89631745D01*
X191641866Y-89638500D01*
X193438134Y-89638500D01*
X193500316Y-89631745D01*
X193636705Y-89580615D01*
X193753261Y-89493261D01*
X193840615Y-89376705D01*
X193891745Y-89240316D01*
X193898500Y-89178134D01*
X193898500Y-87834239D01*
X193918502Y-87766118D01*
X193935405Y-87745144D01*
X195866234Y-85814315D01*
X195878625Y-85803448D01*
X195897437Y-85789013D01*
X195903987Y-85783987D01*
X195928474Y-85752075D01*
X195928478Y-85752071D01*
X196001524Y-85656876D01*
X196062838Y-85508851D01*
X196065391Y-85489457D01*
X196070174Y-85453124D01*
X196078500Y-85389886D01*
X196078500Y-85389880D01*
X196082672Y-85358189D01*
X196083750Y-85350000D01*
X196079578Y-85318307D01*
X196078500Y-85301862D01*
X196078500Y-62738144D01*
X196079578Y-62721698D01*
X196082673Y-62698188D01*
X196083751Y-62690000D01*
X196062838Y-62531149D01*
X196001524Y-62383124D01*
X195928478Y-62287929D01*
X195928474Y-62287925D01*
X195928471Y-62287921D01*
X195909016Y-62262566D01*
X195909013Y-62262563D01*
X195903987Y-62256013D01*
X195897432Y-62250983D01*
X195878621Y-62236548D01*
X195866230Y-62225681D01*
X194334916Y-60694367D01*
X194300890Y-60632055D01*
X194298011Y-60605272D01*
X194298011Y-58226062D01*
X196088493Y-58226062D01*
X196097789Y-58238077D01*
X196148994Y-58273931D01*
X196158489Y-58279414D01*
X196355947Y-58371490D01*
X196366239Y-58375236D01*
X196576688Y-58431625D01*
X196587481Y-58433528D01*
X196804525Y-58452517D01*
X196815475Y-58452517D01*
X197032519Y-58433528D01*
X197043312Y-58431625D01*
X197253761Y-58375236D01*
X197264053Y-58371490D01*
X197461511Y-58279414D01*
X197471006Y-58273931D01*
X197523048Y-58237491D01*
X197531424Y-58227012D01*
X197524356Y-58213566D01*
X196822812Y-57512022D01*
X196808868Y-57504408D01*
X196807035Y-57504539D01*
X196800420Y-57508790D01*
X196094923Y-58214287D01*
X196088493Y-58226062D01*
X194298011Y-58226062D01*
X194298011Y-57145475D01*
X195497483Y-57145475D01*
X195516472Y-57362519D01*
X195518375Y-57373312D01*
X195574764Y-57583761D01*
X195578510Y-57594053D01*
X195670586Y-57791511D01*
X195676069Y-57801006D01*
X195712509Y-57853048D01*
X195722988Y-57861424D01*
X195736434Y-57854356D01*
X196437978Y-57152812D01*
X196444356Y-57141132D01*
X197174408Y-57141132D01*
X197174539Y-57142965D01*
X197178790Y-57149580D01*
X197884287Y-57855077D01*
X197896062Y-57861507D01*
X197908077Y-57852211D01*
X197943931Y-57801006D01*
X197949414Y-57791511D01*
X198041490Y-57594053D01*
X198045236Y-57583761D01*
X198101625Y-57373312D01*
X198103528Y-57362519D01*
X198122517Y-57145475D01*
X198122517Y-57134525D01*
X198103528Y-56917481D01*
X198101625Y-56906688D01*
X198045236Y-56696239D01*
X198041490Y-56685947D01*
X197949414Y-56488489D01*
X197943931Y-56478994D01*
X197907491Y-56426952D01*
X197897012Y-56418576D01*
X197883566Y-56425644D01*
X197182022Y-57127188D01*
X197174408Y-57141132D01*
X196444356Y-57141132D01*
X196445592Y-57138868D01*
X196445461Y-57137035D01*
X196441210Y-57130420D01*
X195735713Y-56424923D01*
X195723938Y-56418493D01*
X195711923Y-56427789D01*
X195676069Y-56478994D01*
X195670586Y-56488489D01*
X195578510Y-56685947D01*
X195574764Y-56696239D01*
X195518375Y-56906688D01*
X195516472Y-56917481D01*
X195497483Y-57134525D01*
X195497483Y-57145475D01*
X194298011Y-57145475D01*
X194298011Y-56052988D01*
X196088576Y-56052988D01*
X196095644Y-56066434D01*
X196797188Y-56767978D01*
X196811132Y-56775592D01*
X196812965Y-56775461D01*
X196819580Y-56771210D01*
X197525077Y-56065713D01*
X197531507Y-56053938D01*
X197522211Y-56041923D01*
X197471006Y-56006069D01*
X197461511Y-56000586D01*
X197264053Y-55908510D01*
X197253761Y-55904764D01*
X197043312Y-55848375D01*
X197032519Y-55846472D01*
X196815475Y-55827483D01*
X196804525Y-55827483D01*
X196587481Y-55846472D01*
X196576688Y-55848375D01*
X196366239Y-55904764D01*
X196355947Y-55908510D01*
X196158489Y-56000586D01*
X196148994Y-56006069D01*
X196096952Y-56042509D01*
X196088576Y-56052988D01*
X194298011Y-56052988D01*
X194298011Y-48192647D01*
X194299089Y-48176201D01*
X194302183Y-48152699D01*
X194303261Y-48144511D01*
X194298011Y-48104631D01*
X194298011Y-48104626D01*
X194285525Y-48009784D01*
X194283427Y-47993849D01*
X194282349Y-47985661D01*
X194266805Y-47948134D01*
X194221035Y-47837635D01*
X194215421Y-47830318D01*
X194158744Y-47756456D01*
X194147988Y-47742439D01*
X194147985Y-47742436D01*
X194123498Y-47710524D01*
X194116943Y-47705494D01*
X194098132Y-47691059D01*
X194085741Y-47680192D01*
X193990405Y-47584856D01*
X193956379Y-47522544D01*
X193953500Y-47495761D01*
X193953500Y-46534989D01*
X193973502Y-46466868D01*
X194027158Y-46420375D01*
X194079500Y-46408989D01*
X195326250Y-46408989D01*
X195394371Y-46428991D01*
X195415345Y-46445894D01*
X195508319Y-46538868D01*
X195542345Y-46601180D01*
X195540931Y-46660574D01*
X195518012Y-46746109D01*
X195516457Y-46751913D01*
X195496502Y-46980000D01*
X195516457Y-47208087D01*
X195517881Y-47213400D01*
X195517881Y-47213402D01*
X195566873Y-47396239D01*
X195575716Y-47429243D01*
X195578039Y-47434224D01*
X195578039Y-47434225D01*
X195670151Y-47631762D01*
X195670154Y-47631767D01*
X195672477Y-47636749D01*
X195720613Y-47705494D01*
X195790453Y-47805235D01*
X195803802Y-47824300D01*
X195965700Y-47986198D01*
X195970208Y-47989355D01*
X195970211Y-47989357D01*
X196024771Y-48027560D01*
X196153251Y-48117523D01*
X196158233Y-48119846D01*
X196158238Y-48119849D01*
X196353699Y-48210993D01*
X196360757Y-48214284D01*
X196366065Y-48215706D01*
X196366067Y-48215707D01*
X196576598Y-48272119D01*
X196576600Y-48272119D01*
X196581913Y-48273543D01*
X196810000Y-48293498D01*
X197038087Y-48273543D01*
X197043400Y-48272119D01*
X197043402Y-48272119D01*
X197253933Y-48215707D01*
X197253935Y-48215706D01*
X197259243Y-48214284D01*
X197266301Y-48210993D01*
X197461762Y-48119849D01*
X197461767Y-48119846D01*
X197466749Y-48117523D01*
X197595229Y-48027560D01*
X197649789Y-47989357D01*
X197649792Y-47989355D01*
X197654300Y-47986198D01*
X197816198Y-47824300D01*
X197829548Y-47805235D01*
X197899387Y-47705494D01*
X197947523Y-47636749D01*
X197949846Y-47631767D01*
X197949849Y-47631762D01*
X198041961Y-47434225D01*
X198041961Y-47434224D01*
X198044284Y-47429243D01*
X198053128Y-47396239D01*
X198102119Y-47213402D01*
X198102119Y-47213400D01*
X198103543Y-47208087D01*
X198123498Y-46980000D01*
X198103543Y-46751913D01*
X198101988Y-46746109D01*
X198045707Y-46536067D01*
X198045706Y-46536065D01*
X198044284Y-46530757D01*
X198029128Y-46498255D01*
X197949849Y-46328238D01*
X197949846Y-46328233D01*
X197947523Y-46323251D01*
X197816198Y-46135700D01*
X197654300Y-45973802D01*
X197649792Y-45970645D01*
X197649789Y-45970643D01*
X197543276Y-45896062D01*
X197466749Y-45842477D01*
X197461767Y-45840154D01*
X197461762Y-45840151D01*
X197264225Y-45748039D01*
X197264224Y-45748039D01*
X197259243Y-45745716D01*
X197253935Y-45744294D01*
X197253933Y-45744293D01*
X197043402Y-45687881D01*
X197043400Y-45687881D01*
X197038087Y-45686457D01*
X196810000Y-45666502D01*
X196581913Y-45686457D01*
X196576600Y-45687881D01*
X196576598Y-45687881D01*
X196490574Y-45710931D01*
X196419597Y-45709241D01*
X196368868Y-45678319D01*
X196094804Y-45404255D01*
X196083937Y-45391864D01*
X196069502Y-45373052D01*
X196064476Y-45366502D01*
X196032564Y-45342015D01*
X196032558Y-45342009D01*
X195943918Y-45273993D01*
X195943916Y-45273992D01*
X195937365Y-45268965D01*
X195789340Y-45207651D01*
X195781153Y-45206573D01*
X195781152Y-45206573D01*
X195769947Y-45205098D01*
X195738751Y-45200991D01*
X195670374Y-45191989D01*
X195670371Y-45191989D01*
X195670363Y-45191988D01*
X195638678Y-45187817D01*
X195630489Y-45186739D01*
X195598796Y-45190911D01*
X195582353Y-45191989D01*
X191252647Y-45191989D01*
X191236204Y-45190911D01*
X191204511Y-45186739D01*
X191196322Y-45187817D01*
X191164637Y-45191988D01*
X191164628Y-45191989D01*
X191164626Y-45191989D01*
X191164620Y-45191990D01*
X191164618Y-45191990D01*
X191065054Y-45205098D01*
X191053847Y-45206573D01*
X191053845Y-45206574D01*
X191045660Y-45207651D01*
X190897635Y-45268965D01*
X190851816Y-45304123D01*
X190802448Y-45342004D01*
X190802432Y-45342018D01*
X190777077Y-45361473D01*
X190777074Y-45361476D01*
X190770524Y-45366502D01*
X190765494Y-45373057D01*
X190751059Y-45391868D01*
X190740192Y-45404259D01*
X190529222Y-45615229D01*
X190466910Y-45649255D01*
X190398069Y-45644908D01*
X190385077Y-45640308D01*
X190366028Y-45633562D01*
X190360935Y-45632655D01*
X190360932Y-45632654D01*
X190143095Y-45593851D01*
X190143089Y-45593850D01*
X190138006Y-45592945D01*
X190060644Y-45592000D01*
X189911581Y-45590179D01*
X189911579Y-45590179D01*
X189906411Y-45590116D01*
X189677464Y-45625150D01*
X189457314Y-45697106D01*
X189452726Y-45699494D01*
X189452722Y-45699496D01*
X189286361Y-45786098D01*
X189251872Y-45804052D01*
X189247739Y-45807155D01*
X189247736Y-45807157D01*
X189109159Y-45911204D01*
X189066655Y-45943117D01*
X189059609Y-45950490D01*
X188942697Y-46072832D01*
X188906639Y-46110564D01*
X188903725Y-46114836D01*
X188903724Y-46114837D01*
X188869580Y-46164891D01*
X188776119Y-46301899D01*
X188775470Y-46301456D01*
X188727504Y-46347825D01*
X188657885Y-46361740D01*
X188591794Y-46335807D01*
X188550215Y-46278260D01*
X188542999Y-46236231D01*
X188542999Y-46055331D01*
X188542629Y-46048510D01*
X188537105Y-45997648D01*
X188533479Y-45982396D01*
X188488324Y-45861946D01*
X188479786Y-45846351D01*
X188403285Y-45744276D01*
X188390724Y-45731715D01*
X188288649Y-45655214D01*
X188273054Y-45646676D01*
X188152606Y-45601522D01*
X188137351Y-45597895D01*
X188086486Y-45592369D01*
X188079672Y-45592000D01*
X187407115Y-45592000D01*
X187391876Y-45596475D01*
X187390671Y-45597865D01*
X187389000Y-45605548D01*
X187389000Y-48389884D01*
X187393475Y-48405123D01*
X187394865Y-48406328D01*
X187402548Y-48407999D01*
X188079669Y-48407999D01*
X188086490Y-48407629D01*
X188137352Y-48402105D01*
X188152604Y-48398479D01*
X188273054Y-48353324D01*
X188288649Y-48344786D01*
X188390724Y-48268285D01*
X188403285Y-48255724D01*
X188479786Y-48153649D01*
X188488324Y-48138054D01*
X188533478Y-48017606D01*
X188537105Y-48002351D01*
X188542631Y-47951486D01*
X188543000Y-47944672D01*
X188543000Y-47756840D01*
X188563002Y-47688719D01*
X188616658Y-47642226D01*
X188686932Y-47632122D01*
X188751512Y-47661616D01*
X188776433Y-47691005D01*
X188861799Y-47830309D01*
X188864501Y-47834719D01*
X189016147Y-48009784D01*
X189130385Y-48104626D01*
X189188616Y-48152970D01*
X189194349Y-48157730D01*
X189394322Y-48274584D01*
X189399147Y-48276426D01*
X189399148Y-48276427D01*
X189445306Y-48294053D01*
X189610694Y-48357209D01*
X189615760Y-48358240D01*
X189615761Y-48358240D01*
X189668846Y-48369040D01*
X189837656Y-48403385D01*
X189967089Y-48408131D01*
X190063949Y-48411683D01*
X190063953Y-48411683D01*
X190069113Y-48411872D01*
X190074233Y-48411216D01*
X190074235Y-48411216D01*
X190148166Y-48401745D01*
X190298847Y-48382442D01*
X190303795Y-48380957D01*
X190303802Y-48380956D01*
X190515747Y-48317369D01*
X190520690Y-48315886D01*
X190566390Y-48293498D01*
X190724049Y-48216262D01*
X190724052Y-48216260D01*
X190728684Y-48213991D01*
X190917243Y-48079494D01*
X190962309Y-48034585D01*
X191024681Y-48000669D01*
X191095487Y-48005857D01*
X191152249Y-48048503D01*
X191169231Y-48079607D01*
X191191143Y-48138056D01*
X191194385Y-48146705D01*
X191281739Y-48263261D01*
X191398295Y-48350615D01*
X191534684Y-48401745D01*
X191596866Y-48408500D01*
X192955011Y-48408500D01*
X193023132Y-48428502D01*
X193069625Y-48482158D01*
X193081011Y-48534500D01*
X193081011Y-60861375D01*
X193079933Y-60877818D01*
X193075761Y-60909511D01*
X193081011Y-60949391D01*
X193081011Y-60949396D01*
X193094120Y-61048968D01*
X193096673Y-61068362D01*
X193157987Y-61216387D01*
X193163014Y-61222938D01*
X193163015Y-61222940D01*
X193231031Y-61311580D01*
X193231037Y-61311586D01*
X193255524Y-61343498D01*
X193262079Y-61348528D01*
X193280890Y-61362963D01*
X193293281Y-61373830D01*
X194824595Y-62905144D01*
X194858621Y-62967456D01*
X194861500Y-62994239D01*
X194861500Y-85045761D01*
X194841498Y-85113882D01*
X194824595Y-85134856D01*
X193994121Y-85965330D01*
X193931809Y-85999356D01*
X193870247Y-85997340D01*
X193858617Y-85994000D01*
X188683225Y-85994000D01*
X188669694Y-85997973D01*
X188668257Y-86007966D01*
X188698565Y-86142446D01*
X188701645Y-86152275D01*
X188781770Y-86349603D01*
X188786413Y-86358794D01*
X188897694Y-86540388D01*
X188903777Y-86548699D01*
X189043213Y-86709667D01*
X189050580Y-86716883D01*
X189214434Y-86852916D01*
X189222881Y-86858831D01*
X189291969Y-86899203D01*
X189340693Y-86950842D01*
X189353764Y-87020625D01*
X189327033Y-87086396D01*
X189286584Y-87119752D01*
X189273607Y-87126507D01*
X189269474Y-87129610D01*
X189269471Y-87129612D01*
X189099100Y-87257530D01*
X189094965Y-87260635D01*
X188940629Y-87422138D01*
X188938632Y-87425065D01*
X188880603Y-87465148D01*
X188841102Y-87471500D01*
X164021291Y-87471500D01*
X163953170Y-87451498D01*
X163906677Y-87397842D01*
X163896028Y-87359108D01*
X163892598Y-87327540D01*
X163891745Y-87319684D01*
X163840615Y-87183295D01*
X163753261Y-87066739D01*
X163636705Y-86979385D01*
X163517687Y-86934767D01*
X163460923Y-86892125D01*
X163436223Y-86825564D01*
X163451430Y-86756215D01*
X163472977Y-86727535D01*
X163574052Y-86626812D01*
X163580730Y-86618965D01*
X163705003Y-86446020D01*
X163710313Y-86437183D01*
X163804670Y-86246267D01*
X163808469Y-86236672D01*
X163870377Y-86032910D01*
X163872555Y-86022837D01*
X163873986Y-86011962D01*
X163871775Y-85997778D01*
X163858617Y-85994000D01*
X158683225Y-85994000D01*
X158669694Y-85997973D01*
X158668257Y-86007966D01*
X158698565Y-86142446D01*
X158701645Y-86152275D01*
X158781770Y-86349603D01*
X158786413Y-86358794D01*
X158897694Y-86540388D01*
X158903777Y-86548699D01*
X159043213Y-86709667D01*
X159050580Y-86716883D01*
X159214434Y-86852916D01*
X159222881Y-86858831D01*
X159291969Y-86899203D01*
X159340693Y-86950842D01*
X159353764Y-87020625D01*
X159327033Y-87086396D01*
X159286584Y-87119752D01*
X159273607Y-87126507D01*
X159269474Y-87129610D01*
X159269471Y-87129612D01*
X159099100Y-87257530D01*
X159094965Y-87260635D01*
X158940629Y-87422138D01*
X158938632Y-87425065D01*
X158880603Y-87465148D01*
X158841102Y-87471500D01*
X134021291Y-87471500D01*
X133953170Y-87451498D01*
X133906677Y-87397842D01*
X133896028Y-87359108D01*
X133892598Y-87327540D01*
X133891745Y-87319684D01*
X133840615Y-87183295D01*
X133753261Y-87066739D01*
X133636705Y-86979385D01*
X133517687Y-86934767D01*
X133460923Y-86892125D01*
X133436223Y-86825564D01*
X133451430Y-86756215D01*
X133472977Y-86727535D01*
X133574052Y-86626812D01*
X133580730Y-86618965D01*
X133705003Y-86446020D01*
X133710313Y-86437183D01*
X133804670Y-86246267D01*
X133808469Y-86236672D01*
X133870377Y-86032910D01*
X133872555Y-86022837D01*
X133873986Y-86011962D01*
X133871775Y-85997778D01*
X133858617Y-85994000D01*
X128683225Y-85994000D01*
X128669694Y-85997973D01*
X128668257Y-86007966D01*
X128698565Y-86142446D01*
X128701645Y-86152275D01*
X128781770Y-86349603D01*
X128786413Y-86358794D01*
X128897694Y-86540388D01*
X128903777Y-86548699D01*
X129043213Y-86709667D01*
X129050580Y-86716883D01*
X129214434Y-86852916D01*
X129222881Y-86858831D01*
X129291969Y-86899203D01*
X129340693Y-86950842D01*
X129353764Y-87020625D01*
X129327033Y-87086396D01*
X129286584Y-87119752D01*
X129273607Y-87126507D01*
X129269474Y-87129610D01*
X129269471Y-87129612D01*
X129099100Y-87257530D01*
X129094965Y-87260635D01*
X128940629Y-87422138D01*
X128938632Y-87425065D01*
X128880603Y-87465148D01*
X128841102Y-87471500D01*
X104021291Y-87471500D01*
X103953170Y-87451498D01*
X103906677Y-87397842D01*
X103896028Y-87359108D01*
X103892598Y-87327540D01*
X103891745Y-87319684D01*
X103840615Y-87183295D01*
X103753261Y-87066739D01*
X103636705Y-86979385D01*
X103517687Y-86934767D01*
X103460923Y-86892125D01*
X103436223Y-86825564D01*
X103451430Y-86756215D01*
X103472977Y-86727535D01*
X103574052Y-86626812D01*
X103580730Y-86618965D01*
X103705003Y-86446020D01*
X103710313Y-86437183D01*
X103804670Y-86246267D01*
X103808469Y-86236672D01*
X103870377Y-86032910D01*
X103872555Y-86022837D01*
X103873986Y-86011962D01*
X103871775Y-85997778D01*
X103858617Y-85994000D01*
X98683225Y-85994000D01*
X98669694Y-85997973D01*
X98668257Y-86007966D01*
X98698565Y-86142446D01*
X98701645Y-86152275D01*
X98781770Y-86349603D01*
X98786413Y-86358794D01*
X98897694Y-86540388D01*
X98903777Y-86548699D01*
X99043213Y-86709667D01*
X99050580Y-86716883D01*
X99214434Y-86852916D01*
X99222881Y-86858831D01*
X99291969Y-86899203D01*
X99340693Y-86950842D01*
X99353764Y-87020625D01*
X99327033Y-87086396D01*
X99286584Y-87119752D01*
X99273607Y-87126507D01*
X99269474Y-87129610D01*
X99269471Y-87129612D01*
X99099100Y-87257530D01*
X99094965Y-87260635D01*
X98940629Y-87422138D01*
X98938632Y-87425065D01*
X98880603Y-87465148D01*
X98841102Y-87471500D01*
X90865905Y-87471500D01*
X90850986Y-87470614D01*
X90847326Y-87470178D01*
X90815680Y-87466404D01*
X90808677Y-87467140D01*
X90808676Y-87467140D01*
X90773760Y-87470810D01*
X90760589Y-87471500D01*
X74021291Y-87471500D01*
X73953170Y-87451498D01*
X73906677Y-87397842D01*
X73896028Y-87359108D01*
X73892598Y-87327540D01*
X73891745Y-87319684D01*
X73840615Y-87183295D01*
X73753261Y-87066739D01*
X73636705Y-86979385D01*
X73517687Y-86934767D01*
X73460923Y-86892125D01*
X73436223Y-86825564D01*
X73451430Y-86756215D01*
X73472977Y-86727535D01*
X73574052Y-86626812D01*
X73580730Y-86618965D01*
X73705003Y-86446020D01*
X73710313Y-86437183D01*
X73804670Y-86246267D01*
X73808469Y-86236672D01*
X73870377Y-86032910D01*
X73872555Y-86022837D01*
X73873986Y-86011962D01*
X73871775Y-85997778D01*
X73858617Y-85994000D01*
X68683225Y-85994000D01*
X68669694Y-85997973D01*
X68668257Y-86007966D01*
X68698565Y-86142446D01*
X68701645Y-86152275D01*
X68781770Y-86349603D01*
X68786413Y-86358794D01*
X68897694Y-86540388D01*
X68903777Y-86548699D01*
X69043213Y-86709667D01*
X69050580Y-86716883D01*
X69214434Y-86852916D01*
X69222881Y-86858831D01*
X69291969Y-86899203D01*
X69340693Y-86950842D01*
X69353764Y-87020625D01*
X69327033Y-87086396D01*
X69286584Y-87119752D01*
X69273607Y-87126507D01*
X69269474Y-87129610D01*
X69269471Y-87129612D01*
X69099100Y-87257530D01*
X69094965Y-87260635D01*
X68940629Y-87422138D01*
X68938632Y-87425065D01*
X68880603Y-87465148D01*
X68841102Y-87471500D01*
X49534155Y-87471500D01*
X49466034Y-87451498D01*
X49419541Y-87397842D01*
X49408500Y-87352964D01*
X49408500Y-87351866D01*
X49401745Y-87289684D01*
X49350615Y-87153295D01*
X49263261Y-87036739D01*
X49146705Y-86949385D01*
X49078871Y-86923955D01*
X49027687Y-86904767D01*
X48970923Y-86862125D01*
X48946223Y-86795564D01*
X48961430Y-86726215D01*
X48982977Y-86697535D01*
X49084052Y-86596812D01*
X49090730Y-86588965D01*
X49215003Y-86416020D01*
X49220313Y-86407183D01*
X49314670Y-86216267D01*
X49318469Y-86206672D01*
X49380377Y-86002910D01*
X49382555Y-85992837D01*
X49383986Y-85981962D01*
X49381775Y-85967778D01*
X49368617Y-85964000D01*
X44193225Y-85964000D01*
X44179694Y-85967973D01*
X44178257Y-85977966D01*
X44208565Y-86112446D01*
X44211645Y-86122275D01*
X44291770Y-86319603D01*
X44296413Y-86328794D01*
X44407694Y-86510388D01*
X44413777Y-86518699D01*
X44553213Y-86679667D01*
X44560580Y-86686883D01*
X44724434Y-86822916D01*
X44732881Y-86828831D01*
X44801969Y-86869203D01*
X44850693Y-86920842D01*
X44863764Y-86990625D01*
X44837033Y-87056396D01*
X44796584Y-87089752D01*
X44783607Y-87096507D01*
X44779474Y-87099610D01*
X44779471Y-87099612D01*
X44609100Y-87227530D01*
X44604965Y-87230635D01*
X44579264Y-87257530D01*
X44488690Y-87352310D01*
X44450629Y-87392138D01*
X44447715Y-87396410D01*
X44447714Y-87396411D01*
X44410136Y-87451498D01*
X44324743Y-87576680D01*
X44230688Y-87779305D01*
X44170989Y-87994570D01*
X44147251Y-88216695D01*
X40508000Y-88216695D01*
X40508000Y-85474183D01*
X68664389Y-85474183D01*
X68665912Y-85482607D01*
X68678292Y-85486000D01*
X69727885Y-85486000D01*
X69743124Y-85481525D01*
X69744329Y-85480135D01*
X69746000Y-85472452D01*
X69746000Y-85467885D01*
X70254000Y-85467885D01*
X70258475Y-85483124D01*
X70259865Y-85484329D01*
X70267548Y-85486000D01*
X72267885Y-85486000D01*
X72283124Y-85481525D01*
X72284329Y-85480135D01*
X72286000Y-85472452D01*
X72286000Y-85467885D01*
X72794000Y-85467885D01*
X72798475Y-85483124D01*
X72799865Y-85484329D01*
X72807548Y-85486000D01*
X73858344Y-85486000D01*
X73871875Y-85482027D01*
X73873002Y-85474183D01*
X98664389Y-85474183D01*
X98665912Y-85482607D01*
X98678292Y-85486000D01*
X99727885Y-85486000D01*
X99743124Y-85481525D01*
X99744329Y-85480135D01*
X99746000Y-85472452D01*
X99746000Y-85467885D01*
X100254000Y-85467885D01*
X100258475Y-85483124D01*
X100259865Y-85484329D01*
X100267548Y-85486000D01*
X102267885Y-85486000D01*
X102283124Y-85481525D01*
X102284329Y-85480135D01*
X102286000Y-85472452D01*
X102286000Y-85467885D01*
X102794000Y-85467885D01*
X102798475Y-85483124D01*
X102799865Y-85484329D01*
X102807548Y-85486000D01*
X103858344Y-85486000D01*
X103871875Y-85482027D01*
X103873002Y-85474183D01*
X128664389Y-85474183D01*
X128665912Y-85482607D01*
X128678292Y-85486000D01*
X129727885Y-85486000D01*
X129743124Y-85481525D01*
X129744329Y-85480135D01*
X129746000Y-85472452D01*
X129746000Y-85467885D01*
X130254000Y-85467885D01*
X130258475Y-85483124D01*
X130259865Y-85484329D01*
X130267548Y-85486000D01*
X132267885Y-85486000D01*
X132283124Y-85481525D01*
X132284329Y-85480135D01*
X132286000Y-85472452D01*
X132286000Y-85467885D01*
X132794000Y-85467885D01*
X132798475Y-85483124D01*
X132799865Y-85484329D01*
X132807548Y-85486000D01*
X133858344Y-85486000D01*
X133871875Y-85482027D01*
X133873002Y-85474183D01*
X158664389Y-85474183D01*
X158665912Y-85482607D01*
X158678292Y-85486000D01*
X159727885Y-85486000D01*
X159743124Y-85481525D01*
X159744329Y-85480135D01*
X159746000Y-85472452D01*
X159746000Y-85467885D01*
X160254000Y-85467885D01*
X160258475Y-85483124D01*
X160259865Y-85484329D01*
X160267548Y-85486000D01*
X162267885Y-85486000D01*
X162283124Y-85481525D01*
X162284329Y-85480135D01*
X162286000Y-85472452D01*
X162286000Y-85467885D01*
X162794000Y-85467885D01*
X162798475Y-85483124D01*
X162799865Y-85484329D01*
X162807548Y-85486000D01*
X163858344Y-85486000D01*
X163871875Y-85482027D01*
X163873002Y-85474183D01*
X188664389Y-85474183D01*
X188665912Y-85482607D01*
X188678292Y-85486000D01*
X189727885Y-85486000D01*
X189743124Y-85481525D01*
X189744329Y-85480135D01*
X189746000Y-85472452D01*
X189746000Y-85467885D01*
X190254000Y-85467885D01*
X190258475Y-85483124D01*
X190259865Y-85484329D01*
X190267548Y-85486000D01*
X192267885Y-85486000D01*
X192283124Y-85481525D01*
X192284329Y-85480135D01*
X192286000Y-85472452D01*
X192286000Y-85467885D01*
X192794000Y-85467885D01*
X192798475Y-85483124D01*
X192799865Y-85484329D01*
X192807548Y-85486000D01*
X193858344Y-85486000D01*
X193871875Y-85482027D01*
X193873180Y-85472947D01*
X193831214Y-85305875D01*
X193827894Y-85296124D01*
X193742972Y-85100814D01*
X193738105Y-85091739D01*
X193622426Y-84912926D01*
X193616136Y-84904757D01*
X193472806Y-84747240D01*
X193465273Y-84740215D01*
X193298139Y-84608222D01*
X193289552Y-84602517D01*
X193252116Y-84581851D01*
X193202146Y-84531419D01*
X193187374Y-84461976D01*
X193212490Y-84395571D01*
X193239842Y-84368964D01*
X193415327Y-84243792D01*
X193423200Y-84237139D01*
X193574052Y-84086812D01*
X193580730Y-84078965D01*
X193705003Y-83906020D01*
X193710313Y-83897183D01*
X193804670Y-83706267D01*
X193808469Y-83696672D01*
X193870377Y-83492910D01*
X193872555Y-83482837D01*
X193873986Y-83471962D01*
X193871775Y-83457778D01*
X193858617Y-83454000D01*
X192812115Y-83454000D01*
X192796876Y-83458475D01*
X192795672Y-83459864D01*
X192794000Y-83467548D01*
X192794000Y-85467885D01*
X192286000Y-85467885D01*
X192286000Y-83472115D01*
X192281525Y-83456876D01*
X192280135Y-83455671D01*
X192272452Y-83454000D01*
X190272115Y-83454000D01*
X190256876Y-83458475D01*
X190255672Y-83459864D01*
X190254000Y-83467548D01*
X190254000Y-85467885D01*
X189746000Y-85467885D01*
X189746000Y-83472115D01*
X189741525Y-83456876D01*
X189740135Y-83455671D01*
X189732452Y-83454000D01*
X188683225Y-83454000D01*
X188669694Y-83457973D01*
X188668257Y-83467966D01*
X188698565Y-83602446D01*
X188701645Y-83612275D01*
X188781770Y-83809603D01*
X188786413Y-83818794D01*
X188897694Y-84000388D01*
X188903777Y-84008699D01*
X189043213Y-84169667D01*
X189050580Y-84176883D01*
X189214434Y-84312916D01*
X189222881Y-84318831D01*
X189292479Y-84359501D01*
X189341203Y-84411140D01*
X189354274Y-84480923D01*
X189327543Y-84546694D01*
X189287087Y-84580053D01*
X189278462Y-84584542D01*
X189269738Y-84590036D01*
X189099433Y-84717905D01*
X189091726Y-84724748D01*
X188944590Y-84878717D01*
X188938104Y-84886727D01*
X188818098Y-85062649D01*
X188813000Y-85071623D01*
X188723338Y-85264783D01*
X188719775Y-85274470D01*
X188664389Y-85474183D01*
X163873002Y-85474183D01*
X163873180Y-85472947D01*
X163831214Y-85305875D01*
X163827894Y-85296124D01*
X163742972Y-85100814D01*
X163738105Y-85091739D01*
X163622426Y-84912926D01*
X163616136Y-84904757D01*
X163472806Y-84747240D01*
X163465273Y-84740215D01*
X163298139Y-84608222D01*
X163289552Y-84602517D01*
X163252116Y-84581851D01*
X163202146Y-84531419D01*
X163187374Y-84461976D01*
X163212490Y-84395571D01*
X163239842Y-84368964D01*
X163415327Y-84243792D01*
X163423200Y-84237139D01*
X163574052Y-84086812D01*
X163580730Y-84078965D01*
X163705003Y-83906020D01*
X163710313Y-83897183D01*
X163804670Y-83706267D01*
X163808469Y-83696672D01*
X163870377Y-83492910D01*
X163872555Y-83482837D01*
X163873986Y-83471962D01*
X163871775Y-83457778D01*
X163858617Y-83454000D01*
X162812115Y-83454000D01*
X162796876Y-83458475D01*
X162795672Y-83459864D01*
X162794000Y-83467548D01*
X162794000Y-85467885D01*
X162286000Y-85467885D01*
X162286000Y-83472115D01*
X162281525Y-83456876D01*
X162280135Y-83455671D01*
X162272452Y-83454000D01*
X160272115Y-83454000D01*
X160256876Y-83458475D01*
X160255672Y-83459864D01*
X160254000Y-83467548D01*
X160254000Y-85467885D01*
X159746000Y-85467885D01*
X159746000Y-83472115D01*
X159741525Y-83456876D01*
X159740135Y-83455671D01*
X159732452Y-83454000D01*
X158683225Y-83454000D01*
X158669694Y-83457973D01*
X158668257Y-83467966D01*
X158698565Y-83602446D01*
X158701645Y-83612275D01*
X158781770Y-83809603D01*
X158786413Y-83818794D01*
X158897694Y-84000388D01*
X158903777Y-84008699D01*
X159043213Y-84169667D01*
X159050580Y-84176883D01*
X159214434Y-84312916D01*
X159222881Y-84318831D01*
X159292479Y-84359501D01*
X159341203Y-84411140D01*
X159354274Y-84480923D01*
X159327543Y-84546694D01*
X159287087Y-84580053D01*
X159278462Y-84584542D01*
X159269738Y-84590036D01*
X159099433Y-84717905D01*
X159091726Y-84724748D01*
X158944590Y-84878717D01*
X158938104Y-84886727D01*
X158818098Y-85062649D01*
X158813000Y-85071623D01*
X158723338Y-85264783D01*
X158719775Y-85274470D01*
X158664389Y-85474183D01*
X133873002Y-85474183D01*
X133873180Y-85472947D01*
X133831214Y-85305875D01*
X133827894Y-85296124D01*
X133742972Y-85100814D01*
X133738105Y-85091739D01*
X133622426Y-84912926D01*
X133616136Y-84904757D01*
X133472806Y-84747240D01*
X133465273Y-84740215D01*
X133298139Y-84608222D01*
X133289552Y-84602517D01*
X133252116Y-84581851D01*
X133202146Y-84531419D01*
X133187374Y-84461976D01*
X133212490Y-84395571D01*
X133239842Y-84368964D01*
X133415327Y-84243792D01*
X133423200Y-84237139D01*
X133574052Y-84086812D01*
X133580730Y-84078965D01*
X133705003Y-83906020D01*
X133710313Y-83897183D01*
X133804670Y-83706267D01*
X133808469Y-83696672D01*
X133870377Y-83492910D01*
X133872555Y-83482837D01*
X133873986Y-83471962D01*
X133871775Y-83457778D01*
X133858617Y-83454000D01*
X132812115Y-83454000D01*
X132796876Y-83458475D01*
X132795672Y-83459864D01*
X132794000Y-83467548D01*
X132794000Y-85467885D01*
X132286000Y-85467885D01*
X132286000Y-83472115D01*
X132281525Y-83456876D01*
X132280135Y-83455671D01*
X132272452Y-83454000D01*
X130272115Y-83454000D01*
X130256876Y-83458475D01*
X130255672Y-83459864D01*
X130254000Y-83467548D01*
X130254000Y-85467885D01*
X129746000Y-85467885D01*
X129746000Y-83472115D01*
X129741525Y-83456876D01*
X129740135Y-83455671D01*
X129732452Y-83454000D01*
X128683225Y-83454000D01*
X128669694Y-83457973D01*
X128668257Y-83467966D01*
X128698565Y-83602446D01*
X128701645Y-83612275D01*
X128781770Y-83809603D01*
X128786413Y-83818794D01*
X128897694Y-84000388D01*
X128903777Y-84008699D01*
X129043213Y-84169667D01*
X129050580Y-84176883D01*
X129214434Y-84312916D01*
X129222881Y-84318831D01*
X129292479Y-84359501D01*
X129341203Y-84411140D01*
X129354274Y-84480923D01*
X129327543Y-84546694D01*
X129287087Y-84580053D01*
X129278462Y-84584542D01*
X129269738Y-84590036D01*
X129099433Y-84717905D01*
X129091726Y-84724748D01*
X128944590Y-84878717D01*
X128938104Y-84886727D01*
X128818098Y-85062649D01*
X128813000Y-85071623D01*
X128723338Y-85264783D01*
X128719775Y-85274470D01*
X128664389Y-85474183D01*
X103873002Y-85474183D01*
X103873180Y-85472947D01*
X103831214Y-85305875D01*
X103827894Y-85296124D01*
X103742972Y-85100814D01*
X103738105Y-85091739D01*
X103622426Y-84912926D01*
X103616136Y-84904757D01*
X103472806Y-84747240D01*
X103465273Y-84740215D01*
X103298139Y-84608222D01*
X103289552Y-84602517D01*
X103252116Y-84581851D01*
X103202146Y-84531419D01*
X103187374Y-84461976D01*
X103212490Y-84395571D01*
X103239842Y-84368964D01*
X103415327Y-84243792D01*
X103423200Y-84237139D01*
X103574052Y-84086812D01*
X103580730Y-84078965D01*
X103705003Y-83906020D01*
X103710313Y-83897183D01*
X103804670Y-83706267D01*
X103808469Y-83696672D01*
X103870377Y-83492910D01*
X103872555Y-83482837D01*
X103873986Y-83471962D01*
X103871775Y-83457778D01*
X103858617Y-83454000D01*
X102812115Y-83454000D01*
X102796876Y-83458475D01*
X102795672Y-83459864D01*
X102794000Y-83467548D01*
X102794000Y-85467885D01*
X102286000Y-85467885D01*
X102286000Y-83472115D01*
X102281525Y-83456876D01*
X102280135Y-83455671D01*
X102272452Y-83454000D01*
X100272115Y-83454000D01*
X100256876Y-83458475D01*
X100255672Y-83459864D01*
X100254000Y-83467548D01*
X100254000Y-85467885D01*
X99746000Y-85467885D01*
X99746000Y-83472115D01*
X99741525Y-83456876D01*
X99740135Y-83455671D01*
X99732452Y-83454000D01*
X98683225Y-83454000D01*
X98669694Y-83457973D01*
X98668257Y-83467966D01*
X98698565Y-83602446D01*
X98701645Y-83612275D01*
X98781770Y-83809603D01*
X98786413Y-83818794D01*
X98897694Y-84000388D01*
X98903777Y-84008699D01*
X99043213Y-84169667D01*
X99050580Y-84176883D01*
X99214434Y-84312916D01*
X99222881Y-84318831D01*
X99292479Y-84359501D01*
X99341203Y-84411140D01*
X99354274Y-84480923D01*
X99327543Y-84546694D01*
X99287087Y-84580053D01*
X99278462Y-84584542D01*
X99269738Y-84590036D01*
X99099433Y-84717905D01*
X99091726Y-84724748D01*
X98944590Y-84878717D01*
X98938104Y-84886727D01*
X98818098Y-85062649D01*
X98813000Y-85071623D01*
X98723338Y-85264783D01*
X98719775Y-85274470D01*
X98664389Y-85474183D01*
X73873002Y-85474183D01*
X73873180Y-85472947D01*
X73831214Y-85305875D01*
X73827894Y-85296124D01*
X73742972Y-85100814D01*
X73738105Y-85091739D01*
X73622426Y-84912926D01*
X73616136Y-84904757D01*
X73472806Y-84747240D01*
X73465273Y-84740215D01*
X73298139Y-84608222D01*
X73289552Y-84602517D01*
X73252116Y-84581851D01*
X73202146Y-84531419D01*
X73187374Y-84461976D01*
X73212490Y-84395571D01*
X73239842Y-84368964D01*
X73415327Y-84243792D01*
X73423200Y-84237139D01*
X73574052Y-84086812D01*
X73580730Y-84078965D01*
X73705003Y-83906020D01*
X73710313Y-83897183D01*
X73804670Y-83706267D01*
X73808469Y-83696672D01*
X73870377Y-83492910D01*
X73872555Y-83482837D01*
X73873986Y-83471962D01*
X73871775Y-83457778D01*
X73858617Y-83454000D01*
X72812115Y-83454000D01*
X72796876Y-83458475D01*
X72795672Y-83459864D01*
X72794000Y-83467548D01*
X72794000Y-85467885D01*
X72286000Y-85467885D01*
X72286000Y-83472115D01*
X72281525Y-83456876D01*
X72280135Y-83455671D01*
X72272452Y-83454000D01*
X70272115Y-83454000D01*
X70256876Y-83458475D01*
X70255672Y-83459864D01*
X70254000Y-83467548D01*
X70254000Y-85467885D01*
X69746000Y-85467885D01*
X69746000Y-83472115D01*
X69741525Y-83456876D01*
X69740135Y-83455671D01*
X69732452Y-83454000D01*
X68683225Y-83454000D01*
X68669694Y-83457973D01*
X68668257Y-83467966D01*
X68698565Y-83602446D01*
X68701645Y-83612275D01*
X68781770Y-83809603D01*
X68786413Y-83818794D01*
X68897694Y-84000388D01*
X68903777Y-84008699D01*
X69043213Y-84169667D01*
X69050580Y-84176883D01*
X69214434Y-84312916D01*
X69222881Y-84318831D01*
X69292479Y-84359501D01*
X69341203Y-84411140D01*
X69354274Y-84480923D01*
X69327543Y-84546694D01*
X69287087Y-84580053D01*
X69278462Y-84584542D01*
X69269738Y-84590036D01*
X69099433Y-84717905D01*
X69091726Y-84724748D01*
X68944590Y-84878717D01*
X68938104Y-84886727D01*
X68818098Y-85062649D01*
X68813000Y-85071623D01*
X68723338Y-85264783D01*
X68719775Y-85274470D01*
X68664389Y-85474183D01*
X40508000Y-85474183D01*
X40508000Y-85444183D01*
X44174389Y-85444183D01*
X44175912Y-85452607D01*
X44188292Y-85456000D01*
X45237885Y-85456000D01*
X45253124Y-85451525D01*
X45254329Y-85450135D01*
X45256000Y-85442452D01*
X45256000Y-85437885D01*
X45764000Y-85437885D01*
X45768475Y-85453124D01*
X45769865Y-85454329D01*
X45777548Y-85456000D01*
X47777885Y-85456000D01*
X47793124Y-85451525D01*
X47794329Y-85450135D01*
X47796000Y-85442452D01*
X47796000Y-85437885D01*
X48304000Y-85437885D01*
X48308475Y-85453124D01*
X48309865Y-85454329D01*
X48317548Y-85456000D01*
X49368344Y-85456000D01*
X49381875Y-85452027D01*
X49383180Y-85442947D01*
X49341214Y-85275875D01*
X49337894Y-85266124D01*
X49252972Y-85070814D01*
X49248105Y-85061739D01*
X49132426Y-84882926D01*
X49126136Y-84874757D01*
X48982806Y-84717240D01*
X48975273Y-84710215D01*
X48808139Y-84578222D01*
X48799552Y-84572517D01*
X48762116Y-84551851D01*
X48712146Y-84501419D01*
X48697374Y-84431976D01*
X48722490Y-84365571D01*
X48749842Y-84338964D01*
X48925327Y-84213792D01*
X48933200Y-84207139D01*
X48971760Y-84168713D01*
X58178493Y-84168713D01*
X58187789Y-84180728D01*
X58238994Y-84216582D01*
X58248489Y-84222065D01*
X58445947Y-84314141D01*
X58456239Y-84317887D01*
X58666688Y-84374276D01*
X58677481Y-84376179D01*
X58894525Y-84395168D01*
X58905475Y-84395168D01*
X59122519Y-84376179D01*
X59133312Y-84374276D01*
X59343761Y-84317887D01*
X59354053Y-84314141D01*
X59551511Y-84222065D01*
X59561006Y-84216582D01*
X59613048Y-84180142D01*
X59621424Y-84169663D01*
X59614356Y-84156217D01*
X58912812Y-83454673D01*
X58898868Y-83447059D01*
X58897035Y-83447190D01*
X58890420Y-83451441D01*
X58184923Y-84156938D01*
X58178493Y-84168713D01*
X48971760Y-84168713D01*
X49084052Y-84056812D01*
X49090730Y-84048965D01*
X49215003Y-83876020D01*
X49220313Y-83867183D01*
X49314670Y-83676267D01*
X49318469Y-83666672D01*
X49380377Y-83462910D01*
X49382555Y-83452837D01*
X49383986Y-83441962D01*
X49381775Y-83427778D01*
X49368617Y-83424000D01*
X48322115Y-83424000D01*
X48306876Y-83428475D01*
X48305671Y-83429865D01*
X48304000Y-83437548D01*
X48304000Y-85437885D01*
X47796000Y-85437885D01*
X47796000Y-83442115D01*
X47791525Y-83426876D01*
X47790135Y-83425671D01*
X47782452Y-83424000D01*
X45782115Y-83424000D01*
X45766876Y-83428475D01*
X45765671Y-83429865D01*
X45764000Y-83437548D01*
X45764000Y-85437885D01*
X45256000Y-85437885D01*
X45256000Y-83442115D01*
X45251525Y-83426876D01*
X45250135Y-83425671D01*
X45242452Y-83424000D01*
X44193225Y-83424000D01*
X44179694Y-83427973D01*
X44178257Y-83437966D01*
X44208565Y-83572446D01*
X44211645Y-83582275D01*
X44291770Y-83779603D01*
X44296413Y-83788794D01*
X44407694Y-83970388D01*
X44413777Y-83978699D01*
X44553213Y-84139667D01*
X44560580Y-84146883D01*
X44724434Y-84282916D01*
X44732881Y-84288831D01*
X44802479Y-84329501D01*
X44851203Y-84381140D01*
X44864274Y-84450923D01*
X44837543Y-84516694D01*
X44797087Y-84550053D01*
X44788462Y-84554542D01*
X44779738Y-84560036D01*
X44609433Y-84687905D01*
X44601726Y-84694748D01*
X44454590Y-84848717D01*
X44448104Y-84856727D01*
X44328098Y-85032649D01*
X44323000Y-85041623D01*
X44233338Y-85234783D01*
X44229775Y-85244470D01*
X44174389Y-85444183D01*
X40508000Y-85444183D01*
X40508000Y-83088126D01*
X57587483Y-83088126D01*
X57606472Y-83305170D01*
X57608375Y-83315963D01*
X57664764Y-83526412D01*
X57668510Y-83536704D01*
X57760586Y-83734162D01*
X57766069Y-83743657D01*
X57802509Y-83795699D01*
X57812988Y-83804075D01*
X57826434Y-83797007D01*
X58527978Y-83095463D01*
X58534356Y-83083783D01*
X59264408Y-83083783D01*
X59264539Y-83085616D01*
X59268790Y-83092231D01*
X59974287Y-83797728D01*
X59986062Y-83804158D01*
X59998077Y-83794862D01*
X60033931Y-83743657D01*
X60039414Y-83734162D01*
X60131490Y-83536704D01*
X60135236Y-83526412D01*
X60191625Y-83315963D01*
X60193528Y-83305170D01*
X60212517Y-83088126D01*
X60212517Y-83077176D01*
X60200007Y-82934183D01*
X68664389Y-82934183D01*
X68665912Y-82942607D01*
X68678292Y-82946000D01*
X69727885Y-82946000D01*
X69743124Y-82941525D01*
X69744329Y-82940135D01*
X69746000Y-82932452D01*
X69746000Y-82927885D01*
X70254000Y-82927885D01*
X70258475Y-82943124D01*
X70259865Y-82944329D01*
X70267548Y-82946000D01*
X72267885Y-82946000D01*
X72283124Y-82941525D01*
X72284329Y-82940135D01*
X72286000Y-82932452D01*
X72286000Y-82927885D01*
X72794000Y-82927885D01*
X72798475Y-82943124D01*
X72799865Y-82944329D01*
X72807548Y-82946000D01*
X73858344Y-82946000D01*
X73871875Y-82942027D01*
X73873002Y-82934183D01*
X98664389Y-82934183D01*
X98665912Y-82942607D01*
X98678292Y-82946000D01*
X99727885Y-82946000D01*
X99743124Y-82941525D01*
X99744329Y-82940135D01*
X99746000Y-82932452D01*
X99746000Y-82927885D01*
X100254000Y-82927885D01*
X100258475Y-82943124D01*
X100259865Y-82944329D01*
X100267548Y-82946000D01*
X102267885Y-82946000D01*
X102283124Y-82941525D01*
X102284329Y-82940135D01*
X102286000Y-82932452D01*
X102286000Y-82927885D01*
X102794000Y-82927885D01*
X102798475Y-82943124D01*
X102799865Y-82944329D01*
X102807548Y-82946000D01*
X103858344Y-82946000D01*
X103871875Y-82942027D01*
X103873002Y-82934183D01*
X128664389Y-82934183D01*
X128665912Y-82942607D01*
X128678292Y-82946000D01*
X129727885Y-82946000D01*
X129743124Y-82941525D01*
X129744329Y-82940135D01*
X129746000Y-82932452D01*
X129746000Y-82927885D01*
X130254000Y-82927885D01*
X130258475Y-82943124D01*
X130259865Y-82944329D01*
X130267548Y-82946000D01*
X132267885Y-82946000D01*
X132283124Y-82941525D01*
X132284329Y-82940135D01*
X132286000Y-82932452D01*
X132286000Y-82927885D01*
X132794000Y-82927885D01*
X132798475Y-82943124D01*
X132799865Y-82944329D01*
X132807548Y-82946000D01*
X133858344Y-82946000D01*
X133871875Y-82942027D01*
X133873002Y-82934183D01*
X158664389Y-82934183D01*
X158665912Y-82942607D01*
X158678292Y-82946000D01*
X159727885Y-82946000D01*
X159743124Y-82941525D01*
X159744329Y-82940135D01*
X159746000Y-82932452D01*
X159746000Y-82927885D01*
X160254000Y-82927885D01*
X160258475Y-82943124D01*
X160259865Y-82944329D01*
X160267548Y-82946000D01*
X162267885Y-82946000D01*
X162283124Y-82941525D01*
X162284329Y-82940135D01*
X162286000Y-82932452D01*
X162286000Y-82927885D01*
X162794000Y-82927885D01*
X162798475Y-82943124D01*
X162799865Y-82944329D01*
X162807548Y-82946000D01*
X163858344Y-82946000D01*
X163871875Y-82942027D01*
X163873002Y-82934183D01*
X188664389Y-82934183D01*
X188665912Y-82942607D01*
X188678292Y-82946000D01*
X189727885Y-82946000D01*
X189743124Y-82941525D01*
X189744329Y-82940135D01*
X189746000Y-82932452D01*
X189746000Y-82927885D01*
X190254000Y-82927885D01*
X190258475Y-82943124D01*
X190259865Y-82944329D01*
X190267548Y-82946000D01*
X192267885Y-82946000D01*
X192283124Y-82941525D01*
X192284329Y-82940135D01*
X192286000Y-82932452D01*
X192286000Y-82927885D01*
X192794000Y-82927885D01*
X192798475Y-82943124D01*
X192799865Y-82944329D01*
X192807548Y-82946000D01*
X193858344Y-82946000D01*
X193871875Y-82942027D01*
X193873180Y-82932947D01*
X193831214Y-82765875D01*
X193827894Y-82756124D01*
X193742972Y-82560814D01*
X193738105Y-82551739D01*
X193622426Y-82372926D01*
X193616136Y-82364757D01*
X193472806Y-82207240D01*
X193465273Y-82200215D01*
X193298139Y-82068222D01*
X193289552Y-82062517D01*
X193252116Y-82041851D01*
X193202146Y-81991419D01*
X193187374Y-81921976D01*
X193212490Y-81855571D01*
X193239842Y-81828964D01*
X193415327Y-81703792D01*
X193423200Y-81697139D01*
X193574052Y-81546812D01*
X193580730Y-81538965D01*
X193705003Y-81366020D01*
X193710313Y-81357183D01*
X193804670Y-81166267D01*
X193808469Y-81156672D01*
X193870377Y-80952910D01*
X193872555Y-80942837D01*
X193873986Y-80931962D01*
X193871775Y-80917778D01*
X193858617Y-80914000D01*
X192812115Y-80914000D01*
X192796876Y-80918475D01*
X192795672Y-80919864D01*
X192794000Y-80927548D01*
X192794000Y-82927885D01*
X192286000Y-82927885D01*
X192286000Y-80932115D01*
X192281525Y-80916876D01*
X192280135Y-80915671D01*
X192272452Y-80914000D01*
X190272115Y-80914000D01*
X190256876Y-80918475D01*
X190255672Y-80919864D01*
X190254000Y-80927548D01*
X190254000Y-82927885D01*
X189746000Y-82927885D01*
X189746000Y-80932115D01*
X189741525Y-80916876D01*
X189740135Y-80915671D01*
X189732452Y-80914000D01*
X188683225Y-80914000D01*
X188669694Y-80917973D01*
X188668257Y-80927966D01*
X188698565Y-81062446D01*
X188701645Y-81072275D01*
X188781770Y-81269603D01*
X188786413Y-81278794D01*
X188897694Y-81460388D01*
X188903777Y-81468699D01*
X189043213Y-81629667D01*
X189050580Y-81636883D01*
X189214434Y-81772916D01*
X189222881Y-81778831D01*
X189292479Y-81819501D01*
X189341203Y-81871140D01*
X189354274Y-81940923D01*
X189327543Y-82006694D01*
X189287087Y-82040053D01*
X189278462Y-82044542D01*
X189269738Y-82050036D01*
X189099433Y-82177905D01*
X189091726Y-82184748D01*
X188944590Y-82338717D01*
X188938104Y-82346727D01*
X188818098Y-82522649D01*
X188813000Y-82531623D01*
X188723338Y-82724783D01*
X188719775Y-82734470D01*
X188664389Y-82934183D01*
X163873002Y-82934183D01*
X163873180Y-82932947D01*
X163831214Y-82765875D01*
X163827894Y-82756124D01*
X163742972Y-82560814D01*
X163738105Y-82551739D01*
X163622426Y-82372926D01*
X163616136Y-82364757D01*
X163472806Y-82207240D01*
X163465273Y-82200215D01*
X163298139Y-82068222D01*
X163289552Y-82062517D01*
X163252116Y-82041851D01*
X163202146Y-81991419D01*
X163187374Y-81921976D01*
X163212490Y-81855571D01*
X163239842Y-81828964D01*
X163415327Y-81703792D01*
X163423200Y-81697139D01*
X163574052Y-81546812D01*
X163580730Y-81538965D01*
X163705003Y-81366020D01*
X163710313Y-81357183D01*
X163804670Y-81166267D01*
X163808469Y-81156672D01*
X163870377Y-80952910D01*
X163872555Y-80942837D01*
X163873986Y-80931962D01*
X163871775Y-80917778D01*
X163858617Y-80914000D01*
X162812115Y-80914000D01*
X162796876Y-80918475D01*
X162795672Y-80919864D01*
X162794000Y-80927548D01*
X162794000Y-82927885D01*
X162286000Y-82927885D01*
X162286000Y-80932115D01*
X162281525Y-80916876D01*
X162280135Y-80915671D01*
X162272452Y-80914000D01*
X160272115Y-80914000D01*
X160256876Y-80918475D01*
X160255672Y-80919864D01*
X160254000Y-80927548D01*
X160254000Y-82927885D01*
X159746000Y-82927885D01*
X159746000Y-80932115D01*
X159741525Y-80916876D01*
X159740135Y-80915671D01*
X159732452Y-80914000D01*
X158683225Y-80914000D01*
X158669694Y-80917973D01*
X158668257Y-80927966D01*
X158698565Y-81062446D01*
X158701645Y-81072275D01*
X158781770Y-81269603D01*
X158786413Y-81278794D01*
X158897694Y-81460388D01*
X158903777Y-81468699D01*
X159043213Y-81629667D01*
X159050580Y-81636883D01*
X159214434Y-81772916D01*
X159222881Y-81778831D01*
X159292479Y-81819501D01*
X159341203Y-81871140D01*
X159354274Y-81940923D01*
X159327543Y-82006694D01*
X159287087Y-82040053D01*
X159278462Y-82044542D01*
X159269738Y-82050036D01*
X159099433Y-82177905D01*
X159091726Y-82184748D01*
X158944590Y-82338717D01*
X158938104Y-82346727D01*
X158818098Y-82522649D01*
X158813000Y-82531623D01*
X158723338Y-82724783D01*
X158719775Y-82734470D01*
X158664389Y-82934183D01*
X133873002Y-82934183D01*
X133873180Y-82932947D01*
X133831214Y-82765875D01*
X133827894Y-82756124D01*
X133742972Y-82560814D01*
X133738105Y-82551739D01*
X133622426Y-82372926D01*
X133616136Y-82364757D01*
X133472806Y-82207240D01*
X133465273Y-82200215D01*
X133298139Y-82068222D01*
X133289552Y-82062517D01*
X133252116Y-82041851D01*
X133202146Y-81991419D01*
X133187374Y-81921976D01*
X133212490Y-81855571D01*
X133239842Y-81828964D01*
X133415327Y-81703792D01*
X133423200Y-81697139D01*
X133574052Y-81546812D01*
X133580730Y-81538965D01*
X133705003Y-81366020D01*
X133710313Y-81357183D01*
X133804670Y-81166267D01*
X133808469Y-81156672D01*
X133870377Y-80952910D01*
X133872555Y-80942837D01*
X133873986Y-80931962D01*
X133871775Y-80917778D01*
X133858617Y-80914000D01*
X132812115Y-80914000D01*
X132796876Y-80918475D01*
X132795672Y-80919864D01*
X132794000Y-80927548D01*
X132794000Y-82927885D01*
X132286000Y-82927885D01*
X132286000Y-80932115D01*
X132281525Y-80916876D01*
X132280135Y-80915671D01*
X132272452Y-80914000D01*
X130272115Y-80914000D01*
X130256876Y-80918475D01*
X130255672Y-80919864D01*
X130254000Y-80927548D01*
X130254000Y-82927885D01*
X129746000Y-82927885D01*
X129746000Y-80932115D01*
X129741525Y-80916876D01*
X129740135Y-80915671D01*
X129732452Y-80914000D01*
X128683225Y-80914000D01*
X128669694Y-80917973D01*
X128668257Y-80927966D01*
X128698565Y-81062446D01*
X128701645Y-81072275D01*
X128781770Y-81269603D01*
X128786413Y-81278794D01*
X128897694Y-81460388D01*
X128903777Y-81468699D01*
X129043213Y-81629667D01*
X129050580Y-81636883D01*
X129214434Y-81772916D01*
X129222881Y-81778831D01*
X129292479Y-81819501D01*
X129341203Y-81871140D01*
X129354274Y-81940923D01*
X129327543Y-82006694D01*
X129287087Y-82040053D01*
X129278462Y-82044542D01*
X129269738Y-82050036D01*
X129099433Y-82177905D01*
X129091726Y-82184748D01*
X128944590Y-82338717D01*
X128938104Y-82346727D01*
X128818098Y-82522649D01*
X128813000Y-82531623D01*
X128723338Y-82724783D01*
X128719775Y-82734470D01*
X128664389Y-82934183D01*
X103873002Y-82934183D01*
X103873180Y-82932947D01*
X103831214Y-82765875D01*
X103827894Y-82756124D01*
X103742972Y-82560814D01*
X103738105Y-82551739D01*
X103622426Y-82372926D01*
X103616136Y-82364757D01*
X103472806Y-82207240D01*
X103465273Y-82200215D01*
X103298139Y-82068222D01*
X103289552Y-82062517D01*
X103252116Y-82041851D01*
X103202146Y-81991419D01*
X103187374Y-81921976D01*
X103212490Y-81855571D01*
X103239842Y-81828964D01*
X103415327Y-81703792D01*
X103423200Y-81697139D01*
X103574052Y-81546812D01*
X103580730Y-81538965D01*
X103705003Y-81366020D01*
X103710313Y-81357183D01*
X103804670Y-81166267D01*
X103808469Y-81156672D01*
X103870377Y-80952910D01*
X103872555Y-80942837D01*
X103873986Y-80931962D01*
X103871775Y-80917778D01*
X103858617Y-80914000D01*
X102812115Y-80914000D01*
X102796876Y-80918475D01*
X102795672Y-80919864D01*
X102794000Y-80927548D01*
X102794000Y-82927885D01*
X102286000Y-82927885D01*
X102286000Y-80932115D01*
X102281525Y-80916876D01*
X102280135Y-80915671D01*
X102272452Y-80914000D01*
X100272115Y-80914000D01*
X100256876Y-80918475D01*
X100255672Y-80919864D01*
X100254000Y-80927548D01*
X100254000Y-82927885D01*
X99746000Y-82927885D01*
X99746000Y-80932115D01*
X99741525Y-80916876D01*
X99740135Y-80915671D01*
X99732452Y-80914000D01*
X98683225Y-80914000D01*
X98669694Y-80917973D01*
X98668257Y-80927966D01*
X98698565Y-81062446D01*
X98701645Y-81072275D01*
X98781770Y-81269603D01*
X98786413Y-81278794D01*
X98897694Y-81460388D01*
X98903777Y-81468699D01*
X99043213Y-81629667D01*
X99050580Y-81636883D01*
X99214434Y-81772916D01*
X99222881Y-81778831D01*
X99292479Y-81819501D01*
X99341203Y-81871140D01*
X99354274Y-81940923D01*
X99327543Y-82006694D01*
X99287087Y-82040053D01*
X99278462Y-82044542D01*
X99269738Y-82050036D01*
X99099433Y-82177905D01*
X99091726Y-82184748D01*
X98944590Y-82338717D01*
X98938104Y-82346727D01*
X98818098Y-82522649D01*
X98813000Y-82531623D01*
X98723338Y-82724783D01*
X98719775Y-82734470D01*
X98664389Y-82934183D01*
X73873002Y-82934183D01*
X73873180Y-82932947D01*
X73831214Y-82765875D01*
X73827894Y-82756124D01*
X73742972Y-82560814D01*
X73738105Y-82551739D01*
X73622426Y-82372926D01*
X73616136Y-82364757D01*
X73472806Y-82207240D01*
X73465273Y-82200215D01*
X73298139Y-82068222D01*
X73289552Y-82062517D01*
X73252116Y-82041851D01*
X73202146Y-81991419D01*
X73187374Y-81921976D01*
X73212490Y-81855571D01*
X73239842Y-81828964D01*
X73415327Y-81703792D01*
X73423200Y-81697139D01*
X73574052Y-81546812D01*
X73580730Y-81538965D01*
X73705003Y-81366020D01*
X73710313Y-81357183D01*
X73804670Y-81166267D01*
X73808469Y-81156672D01*
X73870377Y-80952910D01*
X73872555Y-80942837D01*
X73873986Y-80931962D01*
X73871775Y-80917778D01*
X73858617Y-80914000D01*
X72812115Y-80914000D01*
X72796876Y-80918475D01*
X72795672Y-80919864D01*
X72794000Y-80927548D01*
X72794000Y-82927885D01*
X72286000Y-82927885D01*
X72286000Y-80932115D01*
X72281525Y-80916876D01*
X72280135Y-80915671D01*
X72272452Y-80914000D01*
X70272115Y-80914000D01*
X70256876Y-80918475D01*
X70255672Y-80919864D01*
X70254000Y-80927548D01*
X70254000Y-82927885D01*
X69746000Y-82927885D01*
X69746000Y-80932115D01*
X69741525Y-80916876D01*
X69740135Y-80915671D01*
X69732452Y-80914000D01*
X68683225Y-80914000D01*
X68669694Y-80917973D01*
X68668257Y-80927966D01*
X68698565Y-81062446D01*
X68701645Y-81072275D01*
X68781770Y-81269603D01*
X68786413Y-81278794D01*
X68897694Y-81460388D01*
X68903777Y-81468699D01*
X69043213Y-81629667D01*
X69050580Y-81636883D01*
X69214434Y-81772916D01*
X69222881Y-81778831D01*
X69292479Y-81819501D01*
X69341203Y-81871140D01*
X69354274Y-81940923D01*
X69327543Y-82006694D01*
X69287087Y-82040053D01*
X69278462Y-82044542D01*
X69269738Y-82050036D01*
X69099433Y-82177905D01*
X69091726Y-82184748D01*
X68944590Y-82338717D01*
X68938104Y-82346727D01*
X68818098Y-82522649D01*
X68813000Y-82531623D01*
X68723338Y-82724783D01*
X68719775Y-82734470D01*
X68664389Y-82934183D01*
X60200007Y-82934183D01*
X60193528Y-82860132D01*
X60191625Y-82849339D01*
X60135236Y-82638890D01*
X60131490Y-82628598D01*
X60039414Y-82431140D01*
X60033931Y-82421645D01*
X59997491Y-82369603D01*
X59987012Y-82361227D01*
X59973566Y-82368295D01*
X59272022Y-83069839D01*
X59264408Y-83083783D01*
X58534356Y-83083783D01*
X58535592Y-83081519D01*
X58535461Y-83079686D01*
X58531210Y-83073071D01*
X57825713Y-82367574D01*
X57813938Y-82361144D01*
X57801923Y-82370440D01*
X57766069Y-82421645D01*
X57760586Y-82431140D01*
X57668510Y-82628598D01*
X57664764Y-82638890D01*
X57608375Y-82849339D01*
X57606472Y-82860132D01*
X57587483Y-83077176D01*
X57587483Y-83088126D01*
X40508000Y-83088126D01*
X40508000Y-82904183D01*
X44174389Y-82904183D01*
X44175912Y-82912607D01*
X44188292Y-82916000D01*
X45237885Y-82916000D01*
X45253124Y-82911525D01*
X45254329Y-82910135D01*
X45256000Y-82902452D01*
X45256000Y-82897885D01*
X45764000Y-82897885D01*
X45768475Y-82913124D01*
X45769865Y-82914329D01*
X45777548Y-82916000D01*
X47777885Y-82916000D01*
X47793124Y-82911525D01*
X47794329Y-82910135D01*
X47796000Y-82902452D01*
X47796000Y-82897885D01*
X48304000Y-82897885D01*
X48308475Y-82913124D01*
X48309865Y-82914329D01*
X48317548Y-82916000D01*
X49368344Y-82916000D01*
X49381875Y-82912027D01*
X49383180Y-82902947D01*
X49341214Y-82735875D01*
X49337894Y-82726124D01*
X49252972Y-82530814D01*
X49248105Y-82521739D01*
X49132426Y-82342926D01*
X49126136Y-82334757D01*
X48982806Y-82177240D01*
X48975273Y-82170215D01*
X48808139Y-82038222D01*
X48799552Y-82032517D01*
X48762116Y-82011851D01*
X48746053Y-81995639D01*
X58178576Y-81995639D01*
X58185644Y-82009085D01*
X58887188Y-82710629D01*
X58901132Y-82718243D01*
X58902965Y-82718112D01*
X58909580Y-82713861D01*
X59615077Y-82008364D01*
X59621507Y-81996589D01*
X59612211Y-81984574D01*
X59561006Y-81948720D01*
X59551511Y-81943237D01*
X59354053Y-81851161D01*
X59343761Y-81847415D01*
X59133312Y-81791026D01*
X59122519Y-81789123D01*
X58905475Y-81770134D01*
X58894525Y-81770134D01*
X58677481Y-81789123D01*
X58666688Y-81791026D01*
X58456239Y-81847415D01*
X58445947Y-81851161D01*
X58248489Y-81943237D01*
X58238994Y-81948720D01*
X58186952Y-81985160D01*
X58178576Y-81995639D01*
X48746053Y-81995639D01*
X48712146Y-81961419D01*
X48697374Y-81891976D01*
X48722490Y-81825571D01*
X48749842Y-81798964D01*
X48925327Y-81673792D01*
X48933200Y-81667139D01*
X49084052Y-81516812D01*
X49090730Y-81508965D01*
X49215003Y-81336020D01*
X49220313Y-81327183D01*
X49314670Y-81136267D01*
X49318469Y-81126672D01*
X49380377Y-80922910D01*
X49382555Y-80912837D01*
X49383986Y-80901962D01*
X49381775Y-80887778D01*
X49368617Y-80884000D01*
X48322115Y-80884000D01*
X48306876Y-80888475D01*
X48305671Y-80889865D01*
X48304000Y-80897548D01*
X48304000Y-82897885D01*
X47796000Y-82897885D01*
X47796000Y-80902115D01*
X47791525Y-80886876D01*
X47790135Y-80885671D01*
X47782452Y-80884000D01*
X45782115Y-80884000D01*
X45766876Y-80888475D01*
X45765671Y-80889865D01*
X45764000Y-80897548D01*
X45764000Y-82897885D01*
X45256000Y-82897885D01*
X45256000Y-80902115D01*
X45251525Y-80886876D01*
X45250135Y-80885671D01*
X45242452Y-80884000D01*
X44193225Y-80884000D01*
X44179694Y-80887973D01*
X44178257Y-80897966D01*
X44208565Y-81032446D01*
X44211645Y-81042275D01*
X44291770Y-81239603D01*
X44296413Y-81248794D01*
X44407694Y-81430388D01*
X44413777Y-81438699D01*
X44553213Y-81599667D01*
X44560580Y-81606883D01*
X44724434Y-81742916D01*
X44732881Y-81748831D01*
X44802479Y-81789501D01*
X44851203Y-81841140D01*
X44864274Y-81910923D01*
X44837543Y-81976694D01*
X44797087Y-82010053D01*
X44788462Y-82014542D01*
X44779738Y-82020036D01*
X44609433Y-82147905D01*
X44601726Y-82154748D01*
X44454590Y-82308717D01*
X44448104Y-82316727D01*
X44328098Y-82492649D01*
X44323000Y-82501623D01*
X44233338Y-82694783D01*
X44229775Y-82704470D01*
X44174389Y-82904183D01*
X40508000Y-82904183D01*
X40508000Y-76732931D01*
X40528002Y-76664810D01*
X40581658Y-76618317D01*
X40651932Y-76608213D01*
X40716512Y-76637707D01*
X40723095Y-76643836D01*
X42724417Y-78645158D01*
X42725345Y-78646095D01*
X42788422Y-78710507D01*
X42824872Y-78733998D01*
X42835197Y-78741417D01*
X42869094Y-78768476D01*
X42875435Y-78771541D01*
X42875436Y-78771542D01*
X42899288Y-78783072D01*
X42912705Y-78790601D01*
X42940889Y-78808765D01*
X42947506Y-78811173D01*
X42947511Y-78811176D01*
X42981624Y-78823592D01*
X42993367Y-78828553D01*
X43026051Y-78844353D01*
X43026060Y-78844356D01*
X43032400Y-78847421D01*
X43039265Y-78849006D01*
X43065079Y-78854966D01*
X43079819Y-78859332D01*
X43111336Y-78870803D01*
X43118321Y-78871685D01*
X43118328Y-78871687D01*
X43154343Y-78876237D01*
X43166894Y-78878472D01*
X43209136Y-78888225D01*
X43216180Y-78888250D01*
X43216184Y-78888250D01*
X43249723Y-78888367D01*
X43250593Y-78888396D01*
X43251420Y-78888500D01*
X43287909Y-78888500D01*
X43288348Y-78888501D01*
X43386994Y-78888845D01*
X43386999Y-78888845D01*
X43390521Y-78888857D01*
X43391721Y-78888589D01*
X43393359Y-78888500D01*
X44346726Y-78888500D01*
X44414847Y-78908502D01*
X44441963Y-78932002D01*
X44556250Y-79063938D01*
X44728126Y-79206632D01*
X44773809Y-79233327D01*
X44801955Y-79249774D01*
X44850679Y-79301412D01*
X44863750Y-79371195D01*
X44837019Y-79436967D01*
X44796562Y-79470327D01*
X44788457Y-79474546D01*
X44779738Y-79480036D01*
X44609433Y-79607905D01*
X44601726Y-79614748D01*
X44454590Y-79768717D01*
X44448104Y-79776727D01*
X44328098Y-79952649D01*
X44323000Y-79961623D01*
X44233338Y-80154783D01*
X44229775Y-80164470D01*
X44174389Y-80364183D01*
X44175912Y-80372607D01*
X44188292Y-80376000D01*
X49368344Y-80376000D01*
X49381875Y-80372027D01*
X49383180Y-80362947D01*
X49341214Y-80195875D01*
X49337894Y-80186124D01*
X49252972Y-79990814D01*
X49248105Y-79981739D01*
X49132426Y-79802926D01*
X49126136Y-79794757D01*
X48982806Y-79637240D01*
X48975273Y-79630215D01*
X48808139Y-79498222D01*
X48799556Y-79492520D01*
X48762602Y-79472120D01*
X48712631Y-79421687D01*
X48697859Y-79352245D01*
X48722975Y-79285839D01*
X48750327Y-79259232D01*
X48782011Y-79236632D01*
X48929860Y-79131173D01*
X49088096Y-78973489D01*
X49091112Y-78969291D01*
X49091116Y-78969287D01*
X49111460Y-78940975D01*
X49167454Y-78897326D01*
X49213783Y-78888500D01*
X51308180Y-78888500D01*
X51322400Y-78889320D01*
X51329136Y-78890875D01*
X51336182Y-78890900D01*
X51336185Y-78890900D01*
X51369707Y-78891017D01*
X51370589Y-78891046D01*
X51371420Y-78891151D01*
X51408070Y-78891151D01*
X51408510Y-78891152D01*
X51506994Y-78891496D01*
X51506999Y-78891496D01*
X51510521Y-78891508D01*
X51511721Y-78891240D01*
X51513358Y-78891151D01*
X57475507Y-78891151D01*
X57543628Y-78911153D01*
X57590121Y-78964809D01*
X57597543Y-78986414D01*
X57598255Y-78992967D01*
X57601027Y-79000362D01*
X57601028Y-79000365D01*
X57603567Y-79007137D01*
X57649385Y-79129356D01*
X57736739Y-79245912D01*
X57853295Y-79333266D01*
X57989684Y-79384396D01*
X58051866Y-79391151D01*
X59748134Y-79391151D01*
X59810316Y-79384396D01*
X59946705Y-79333266D01*
X60063261Y-79245912D01*
X60150615Y-79129356D01*
X60196433Y-79007137D01*
X60198972Y-79000365D01*
X60198973Y-79000362D01*
X60201745Y-78992967D01*
X60202372Y-78987198D01*
X60237126Y-78926360D01*
X60300081Y-78893538D01*
X60324493Y-78891151D01*
X68813035Y-78891151D01*
X68881156Y-78911153D01*
X68908272Y-78934653D01*
X69042865Y-79090031D01*
X69042869Y-79090035D01*
X69046250Y-79093938D01*
X69218126Y-79236632D01*
X69259649Y-79260896D01*
X69291955Y-79279774D01*
X69340679Y-79331412D01*
X69353750Y-79401195D01*
X69327019Y-79466967D01*
X69286562Y-79500327D01*
X69278457Y-79504546D01*
X69269738Y-79510036D01*
X69099433Y-79637905D01*
X69091726Y-79644748D01*
X68944590Y-79798717D01*
X68938104Y-79806727D01*
X68818098Y-79982649D01*
X68813000Y-79991623D01*
X68723338Y-80184783D01*
X68719775Y-80194470D01*
X68664389Y-80394183D01*
X68665912Y-80402607D01*
X68678292Y-80406000D01*
X73858344Y-80406000D01*
X73871875Y-80402027D01*
X73873180Y-80392947D01*
X73831214Y-80225875D01*
X73827894Y-80216124D01*
X73742972Y-80020814D01*
X73738105Y-80011739D01*
X73622426Y-79832926D01*
X73616136Y-79824757D01*
X73472806Y-79667240D01*
X73465273Y-79660215D01*
X73298139Y-79528222D01*
X73289556Y-79522520D01*
X73252602Y-79502120D01*
X73202631Y-79451687D01*
X73187859Y-79382245D01*
X73212975Y-79315839D01*
X73240327Y-79289232D01*
X73280053Y-79260896D01*
X73419860Y-79161173D01*
X73451789Y-79129356D01*
X73574435Y-79007137D01*
X73578096Y-79003489D01*
X73589222Y-78988006D01*
X73594276Y-78980973D01*
X73650271Y-78937326D01*
X73696598Y-78928500D01*
X98845389Y-78928500D01*
X98913510Y-78948502D01*
X98940625Y-78972001D01*
X99046250Y-79093938D01*
X99218126Y-79236632D01*
X99259649Y-79260896D01*
X99291955Y-79279774D01*
X99340679Y-79331412D01*
X99353750Y-79401195D01*
X99327019Y-79466967D01*
X99286562Y-79500327D01*
X99278457Y-79504546D01*
X99269738Y-79510036D01*
X99099433Y-79637905D01*
X99091726Y-79644748D01*
X98944590Y-79798717D01*
X98938104Y-79806727D01*
X98818098Y-79982649D01*
X98813000Y-79991623D01*
X98723338Y-80184783D01*
X98719775Y-80194470D01*
X98664389Y-80394183D01*
X98665912Y-80402607D01*
X98678292Y-80406000D01*
X103858344Y-80406000D01*
X103871875Y-80402027D01*
X103873180Y-80392947D01*
X103831214Y-80225875D01*
X103827894Y-80216124D01*
X103742972Y-80020814D01*
X103738105Y-80011739D01*
X103622426Y-79832926D01*
X103616136Y-79824757D01*
X103472806Y-79667240D01*
X103465273Y-79660215D01*
X103298139Y-79528222D01*
X103289556Y-79522520D01*
X103252602Y-79502120D01*
X103202631Y-79451687D01*
X103187859Y-79382245D01*
X103212975Y-79315839D01*
X103240327Y-79289232D01*
X103280053Y-79260896D01*
X103419860Y-79161173D01*
X103451789Y-79129356D01*
X103574435Y-79007137D01*
X103578096Y-79003489D01*
X103589222Y-78988006D01*
X103594276Y-78980973D01*
X103650271Y-78937326D01*
X103696598Y-78928500D01*
X128845389Y-78928500D01*
X128913510Y-78948502D01*
X128940625Y-78972001D01*
X129046250Y-79093938D01*
X129218126Y-79236632D01*
X129259649Y-79260896D01*
X129291955Y-79279774D01*
X129340679Y-79331412D01*
X129353750Y-79401195D01*
X129327019Y-79466967D01*
X129286562Y-79500327D01*
X129278457Y-79504546D01*
X129269738Y-79510036D01*
X129099433Y-79637905D01*
X129091726Y-79644748D01*
X128944590Y-79798717D01*
X128938104Y-79806727D01*
X128818098Y-79982649D01*
X128813000Y-79991623D01*
X128723338Y-80184783D01*
X128719775Y-80194470D01*
X128664389Y-80394183D01*
X128665912Y-80402607D01*
X128678292Y-80406000D01*
X133858344Y-80406000D01*
X133871875Y-80402027D01*
X133873180Y-80392947D01*
X133831214Y-80225875D01*
X133827894Y-80216124D01*
X133742972Y-80020814D01*
X133738105Y-80011739D01*
X133622426Y-79832926D01*
X133616136Y-79824757D01*
X133472806Y-79667240D01*
X133465273Y-79660215D01*
X133298139Y-79528222D01*
X133289556Y-79522520D01*
X133252602Y-79502120D01*
X133202631Y-79451687D01*
X133187859Y-79382245D01*
X133212975Y-79315839D01*
X133240327Y-79289232D01*
X133280053Y-79260896D01*
X133419860Y-79161173D01*
X133451789Y-79129356D01*
X133574435Y-79007137D01*
X133578096Y-79003489D01*
X133589222Y-78988006D01*
X133594276Y-78980973D01*
X133650271Y-78937326D01*
X133696598Y-78928500D01*
X158845389Y-78928500D01*
X158913510Y-78948502D01*
X158940625Y-78972001D01*
X159046250Y-79093938D01*
X159218126Y-79236632D01*
X159259649Y-79260896D01*
X159291955Y-79279774D01*
X159340679Y-79331412D01*
X159353750Y-79401195D01*
X159327019Y-79466967D01*
X159286562Y-79500327D01*
X159278457Y-79504546D01*
X159269738Y-79510036D01*
X159099433Y-79637905D01*
X159091726Y-79644748D01*
X158944590Y-79798717D01*
X158938104Y-79806727D01*
X158818098Y-79982649D01*
X158813000Y-79991623D01*
X158723338Y-80184783D01*
X158719775Y-80194470D01*
X158664389Y-80394183D01*
X158665912Y-80402607D01*
X158678292Y-80406000D01*
X163858344Y-80406000D01*
X163871875Y-80402027D01*
X163873180Y-80392947D01*
X163831214Y-80225875D01*
X163827894Y-80216124D01*
X163742972Y-80020814D01*
X163738105Y-80011739D01*
X163622426Y-79832926D01*
X163616136Y-79824757D01*
X163472806Y-79667240D01*
X163465273Y-79660215D01*
X163298139Y-79528222D01*
X163289556Y-79522520D01*
X163252602Y-79502120D01*
X163202631Y-79451687D01*
X163187859Y-79382245D01*
X163212975Y-79315839D01*
X163240327Y-79289232D01*
X163280053Y-79260896D01*
X163419860Y-79161173D01*
X163451789Y-79129356D01*
X163574435Y-79007137D01*
X163578096Y-79003489D01*
X163589222Y-78988006D01*
X163594276Y-78980973D01*
X163650271Y-78937326D01*
X163696598Y-78928500D01*
X188845389Y-78928500D01*
X188913510Y-78948502D01*
X188940625Y-78972001D01*
X189046250Y-79093938D01*
X189218126Y-79236632D01*
X189259649Y-79260896D01*
X189291955Y-79279774D01*
X189340679Y-79331412D01*
X189353750Y-79401195D01*
X189327019Y-79466967D01*
X189286562Y-79500327D01*
X189278457Y-79504546D01*
X189269738Y-79510036D01*
X189099433Y-79637905D01*
X189091726Y-79644748D01*
X188944590Y-79798717D01*
X188938104Y-79806727D01*
X188818098Y-79982649D01*
X188813000Y-79991623D01*
X188723338Y-80184783D01*
X188719775Y-80194470D01*
X188664389Y-80394183D01*
X188665912Y-80402607D01*
X188678292Y-80406000D01*
X193858344Y-80406000D01*
X193871875Y-80402027D01*
X193873180Y-80392947D01*
X193831214Y-80225875D01*
X193827894Y-80216124D01*
X193742972Y-80020814D01*
X193738105Y-80011739D01*
X193622426Y-79832926D01*
X193616136Y-79824757D01*
X193472806Y-79667240D01*
X193465273Y-79660215D01*
X193298139Y-79528222D01*
X193289556Y-79522520D01*
X193252602Y-79502120D01*
X193202631Y-79451687D01*
X193187859Y-79382245D01*
X193212975Y-79315839D01*
X193240327Y-79289232D01*
X193280053Y-79260896D01*
X193419860Y-79161173D01*
X193451789Y-79129356D01*
X193574435Y-79007137D01*
X193578096Y-79003489D01*
X193602673Y-78969287D01*
X193705435Y-78826277D01*
X193708453Y-78822077D01*
X193727731Y-78783072D01*
X193805136Y-78626453D01*
X193805137Y-78626451D01*
X193807430Y-78621811D01*
X193872370Y-78408069D01*
X193901529Y-78186590D01*
X193903156Y-78120000D01*
X193884852Y-77897361D01*
X193830431Y-77680702D01*
X193741354Y-77475840D01*
X193635038Y-77311500D01*
X193622822Y-77292617D01*
X193622820Y-77292614D01*
X193620014Y-77288277D01*
X193469670Y-77123051D01*
X193465619Y-77119852D01*
X193465615Y-77119848D01*
X193298414Y-76987800D01*
X193298410Y-76987798D01*
X193294359Y-76984598D01*
X193253053Y-76961796D01*
X193203084Y-76911364D01*
X193188312Y-76841921D01*
X193213428Y-76775516D01*
X193240780Y-76748909D01*
X193296063Y-76709476D01*
X193419860Y-76621173D01*
X193432866Y-76608213D01*
X193574435Y-76467137D01*
X193578096Y-76463489D01*
X193708453Y-76282077D01*
X193766506Y-76164616D01*
X193805136Y-76086453D01*
X193805137Y-76086451D01*
X193807430Y-76081811D01*
X193872370Y-75868069D01*
X193901529Y-75646590D01*
X193903156Y-75580000D01*
X193884852Y-75357361D01*
X193849723Y-75217508D01*
X193852527Y-75146567D01*
X193882832Y-75097717D01*
X194085745Y-74894804D01*
X194098136Y-74883937D01*
X194116948Y-74869502D01*
X194123498Y-74864476D01*
X194147985Y-74832564D01*
X194147991Y-74832558D01*
X194216007Y-74743918D01*
X194216008Y-74743916D01*
X194221035Y-74737365D01*
X194282349Y-74589340D01*
X194286536Y-74557530D01*
X194287126Y-74553052D01*
X194287126Y-74553051D01*
X194298011Y-74470374D01*
X194298011Y-74470369D01*
X194302183Y-74438678D01*
X194303261Y-74430489D01*
X194299089Y-74398796D01*
X194298011Y-74382353D01*
X194298011Y-70071992D01*
X194299089Y-70055546D01*
X194302183Y-70032044D01*
X194303261Y-70023856D01*
X194298011Y-69983978D01*
X194298011Y-69983971D01*
X194282349Y-69865006D01*
X194221035Y-69716981D01*
X194183663Y-69668277D01*
X194147988Y-69621784D01*
X194147985Y-69621781D01*
X194123498Y-69589869D01*
X194116943Y-69584839D01*
X194098132Y-69570404D01*
X194085741Y-69559537D01*
X191825405Y-67299201D01*
X191791379Y-67236889D01*
X191788500Y-67210106D01*
X191788500Y-58236899D01*
X191808502Y-58168778D01*
X191842229Y-58133686D01*
X192019789Y-58009357D01*
X192019792Y-58009355D01*
X192024300Y-58006198D01*
X192186198Y-57844300D01*
X192194763Y-57832069D01*
X192257461Y-57742526D01*
X192317523Y-57656749D01*
X192319846Y-57651767D01*
X192319849Y-57651762D01*
X192411961Y-57454225D01*
X192411961Y-57454224D01*
X192414284Y-57449243D01*
X192429500Y-57392459D01*
X192472119Y-57233402D01*
X192472119Y-57233400D01*
X192473543Y-57228087D01*
X192493498Y-57000000D01*
X192473543Y-56771913D01*
X192464149Y-56736854D01*
X192415707Y-56556067D01*
X192415706Y-56556065D01*
X192414284Y-56550757D01*
X192398902Y-56517769D01*
X192319849Y-56348238D01*
X192319846Y-56348233D01*
X192317523Y-56343251D01*
X192205448Y-56183192D01*
X192189357Y-56160211D01*
X192189355Y-56160208D01*
X192186198Y-56155700D01*
X192024300Y-55993802D01*
X192019792Y-55990645D01*
X192019789Y-55990643D01*
X191928804Y-55926935D01*
X191836749Y-55862477D01*
X191831767Y-55860154D01*
X191831762Y-55860151D01*
X191634225Y-55768039D01*
X191634224Y-55768039D01*
X191629243Y-55765716D01*
X191623935Y-55764294D01*
X191623933Y-55764293D01*
X191413402Y-55707881D01*
X191413400Y-55707881D01*
X191408087Y-55706457D01*
X191180000Y-55686502D01*
X190951913Y-55706457D01*
X190946600Y-55707881D01*
X190946598Y-55707881D01*
X190736067Y-55764293D01*
X190736065Y-55764294D01*
X190730757Y-55765716D01*
X190725776Y-55768039D01*
X190725775Y-55768039D01*
X190528238Y-55860151D01*
X190528233Y-55860154D01*
X190523251Y-55862477D01*
X190431196Y-55926935D01*
X190340211Y-55990643D01*
X190340208Y-55990645D01*
X190335700Y-55993802D01*
X190173802Y-56155700D01*
X190170645Y-56160208D01*
X190170643Y-56160211D01*
X190154552Y-56183192D01*
X190042477Y-56343251D01*
X190040154Y-56348233D01*
X190040151Y-56348238D01*
X189961098Y-56517769D01*
X189945716Y-56550757D01*
X189944294Y-56556065D01*
X189944293Y-56556067D01*
X189895851Y-56736854D01*
X189886457Y-56771913D01*
X189866502Y-57000000D01*
X189886457Y-57228087D01*
X189887881Y-57233400D01*
X189887881Y-57233402D01*
X189930501Y-57392459D01*
X189945716Y-57449243D01*
X189948039Y-57454224D01*
X189948039Y-57454225D01*
X190040151Y-57651762D01*
X190040154Y-57651767D01*
X190042477Y-57656749D01*
X190102539Y-57742526D01*
X190165238Y-57832069D01*
X190173802Y-57844300D01*
X190335700Y-58006198D01*
X190340208Y-58009355D01*
X190340211Y-58009357D01*
X190517771Y-58133686D01*
X190562099Y-58189143D01*
X190571500Y-58236899D01*
X190571500Y-67466209D01*
X190570422Y-67482652D01*
X190566250Y-67514345D01*
X190571500Y-67554225D01*
X190571500Y-67554230D01*
X190584609Y-67653802D01*
X190587162Y-67673196D01*
X190648476Y-67821221D01*
X190653503Y-67827772D01*
X190653504Y-67827774D01*
X190721520Y-67916414D01*
X190721526Y-67916420D01*
X190746013Y-67948332D01*
X190752568Y-67953362D01*
X190771379Y-67967797D01*
X190783770Y-67978664D01*
X191914386Y-69109280D01*
X191948412Y-69171592D01*
X191943347Y-69242407D01*
X191900800Y-69299243D01*
X191883471Y-69310138D01*
X191833601Y-69336099D01*
X191813607Y-69346507D01*
X191809474Y-69349610D01*
X191809471Y-69349612D01*
X191639100Y-69477530D01*
X191634965Y-69480635D01*
X191623314Y-69492827D01*
X191484319Y-69638277D01*
X191480629Y-69642138D01*
X191373201Y-69799621D01*
X191318293Y-69844621D01*
X191247768Y-69852792D01*
X191184021Y-69821538D01*
X191163324Y-69797054D01*
X191082822Y-69672617D01*
X191082820Y-69672614D01*
X191080014Y-69668277D01*
X190929670Y-69503051D01*
X190925619Y-69499852D01*
X190925615Y-69499848D01*
X190758414Y-69367800D01*
X190758410Y-69367798D01*
X190754359Y-69364598D01*
X190558789Y-69256638D01*
X190553920Y-69254914D01*
X190553916Y-69254912D01*
X190353087Y-69183795D01*
X190353083Y-69183794D01*
X190348212Y-69182069D01*
X190343119Y-69181162D01*
X190343116Y-69181161D01*
X190133373Y-69143800D01*
X190133367Y-69143799D01*
X190128284Y-69142894D01*
X190054452Y-69141992D01*
X189910081Y-69140228D01*
X189910079Y-69140228D01*
X189904911Y-69140165D01*
X189684091Y-69173955D01*
X189471756Y-69243357D01*
X189441443Y-69259137D01*
X189293601Y-69336099D01*
X189273607Y-69346507D01*
X189269474Y-69349610D01*
X189269471Y-69349612D01*
X189099100Y-69477530D01*
X189094965Y-69480635D01*
X189083314Y-69492827D01*
X188944319Y-69638277D01*
X188940629Y-69642138D01*
X188937720Y-69646403D01*
X188937714Y-69646411D01*
X188925495Y-69664324D01*
X188814743Y-69826680D01*
X188813945Y-69828400D01*
X188763589Y-69877088D01*
X188705074Y-69891500D01*
X167675084Y-69891500D01*
X167606963Y-69871498D01*
X167560470Y-69817842D01*
X167550366Y-69747568D01*
X167579860Y-69682988D01*
X167601023Y-69663564D01*
X167615909Y-69652749D01*
X167615911Y-69652747D01*
X167621253Y-69648866D01*
X167625675Y-69643955D01*
X167744621Y-69511852D01*
X167744622Y-69511851D01*
X167749040Y-69506944D01*
X167844527Y-69341556D01*
X167903542Y-69159928D01*
X167904464Y-69151161D01*
X167922814Y-68976565D01*
X167923504Y-68970000D01*
X167923316Y-68968214D01*
X167942816Y-68901804D01*
X167959719Y-68880830D01*
X174656234Y-62184315D01*
X174668625Y-62173448D01*
X174687437Y-62159013D01*
X174693987Y-62153987D01*
X174718474Y-62122075D01*
X174718477Y-62122072D01*
X174791523Y-62026876D01*
X174791524Y-62026875D01*
X174852838Y-61878850D01*
X174868500Y-61759885D01*
X174868500Y-61759878D01*
X174873750Y-61720000D01*
X174869578Y-61688307D01*
X174868500Y-61671864D01*
X174868500Y-58376899D01*
X174888502Y-58308778D01*
X174922229Y-58273686D01*
X175099789Y-58149357D01*
X175099792Y-58149355D01*
X175104300Y-58146198D01*
X175266198Y-57984300D01*
X175277098Y-57968734D01*
X175333597Y-57888045D01*
X175397523Y-57796749D01*
X175399846Y-57791767D01*
X175399849Y-57791762D01*
X175491961Y-57594225D01*
X175491961Y-57594224D01*
X175494284Y-57589243D01*
X175501490Y-57562352D01*
X175552119Y-57373402D01*
X175552119Y-57373400D01*
X175553543Y-57368087D01*
X175573498Y-57140000D01*
X175561250Y-57000000D01*
X179706502Y-57000000D01*
X179726457Y-57228087D01*
X179727881Y-57233400D01*
X179727881Y-57233402D01*
X179770501Y-57392459D01*
X179785716Y-57449243D01*
X179788039Y-57454224D01*
X179788039Y-57454225D01*
X179880151Y-57651762D01*
X179880154Y-57651767D01*
X179882477Y-57656749D01*
X179942539Y-57742526D01*
X180005238Y-57832069D01*
X180013802Y-57844300D01*
X180175700Y-58006198D01*
X180180208Y-58009355D01*
X180180211Y-58009357D01*
X180182585Y-58011019D01*
X180363251Y-58137523D01*
X180368233Y-58139846D01*
X180368238Y-58139849D01*
X180555162Y-58227012D01*
X180570757Y-58234284D01*
X180576065Y-58235706D01*
X180576067Y-58235707D01*
X180786598Y-58292119D01*
X180786600Y-58292119D01*
X180791913Y-58293543D01*
X181020000Y-58313498D01*
X181248087Y-58293543D01*
X181253400Y-58292119D01*
X181253402Y-58292119D01*
X181463933Y-58235707D01*
X181463935Y-58235706D01*
X181469243Y-58234284D01*
X181484838Y-58227012D01*
X181671762Y-58139849D01*
X181671767Y-58139846D01*
X181676749Y-58137523D01*
X181857415Y-58011019D01*
X181859789Y-58009357D01*
X181859792Y-58009355D01*
X181864300Y-58006198D01*
X182026198Y-57844300D01*
X182034763Y-57832069D01*
X182097461Y-57742526D01*
X182157523Y-57656749D01*
X182159846Y-57651767D01*
X182159849Y-57651762D01*
X182251961Y-57454225D01*
X182251961Y-57454224D01*
X182254284Y-57449243D01*
X182269500Y-57392459D01*
X182312119Y-57233402D01*
X182312119Y-57233400D01*
X182313543Y-57228087D01*
X182333498Y-57000000D01*
X182313543Y-56771913D01*
X182304149Y-56736854D01*
X182289069Y-56680574D01*
X182290759Y-56609597D01*
X182321681Y-56558868D01*
X184991234Y-53889315D01*
X185003625Y-53878448D01*
X185022437Y-53864013D01*
X185028987Y-53858987D01*
X185053474Y-53827075D01*
X185053477Y-53827072D01*
X185126523Y-53731876D01*
X185126524Y-53731875D01*
X185141662Y-53695330D01*
X185184678Y-53591479D01*
X185187838Y-53583850D01*
X185203500Y-53464885D01*
X185203500Y-53464878D01*
X185208750Y-53425000D01*
X185204578Y-53393307D01*
X185203500Y-53376864D01*
X185203500Y-48348999D01*
X185223502Y-48280878D01*
X185274065Y-48235850D01*
X185318684Y-48213991D01*
X185507243Y-48079494D01*
X185510900Y-48075850D01*
X185510906Y-48075845D01*
X185552697Y-48034199D01*
X185615068Y-48000282D01*
X185685875Y-48005470D01*
X185742637Y-48048116D01*
X185759619Y-48079218D01*
X185781677Y-48138056D01*
X185790214Y-48153649D01*
X185866715Y-48255724D01*
X185879276Y-48268285D01*
X185981351Y-48344786D01*
X185996946Y-48353324D01*
X186117394Y-48398478D01*
X186132649Y-48402105D01*
X186183514Y-48407631D01*
X186190328Y-48408000D01*
X186862885Y-48408000D01*
X186878124Y-48403525D01*
X186879329Y-48402135D01*
X186881000Y-48394452D01*
X186881000Y-45610116D01*
X186876525Y-45594877D01*
X186875135Y-45593672D01*
X186867452Y-45592001D01*
X186190331Y-45592001D01*
X186183510Y-45592371D01*
X186132648Y-45597895D01*
X186117396Y-45601521D01*
X185996946Y-45646676D01*
X185981351Y-45655214D01*
X185879276Y-45731715D01*
X185866715Y-45744276D01*
X185790214Y-45846351D01*
X185781675Y-45861948D01*
X185760934Y-45917275D01*
X185718293Y-45974040D01*
X185651731Y-45998740D01*
X185582383Y-45983533D01*
X185559388Y-45966909D01*
X185558887Y-45966358D01*
X185530712Y-45944107D01*
X185381177Y-45826011D01*
X185381172Y-45826008D01*
X185377123Y-45822810D01*
X185372607Y-45820317D01*
X185372604Y-45820315D01*
X185178879Y-45713373D01*
X185178875Y-45713371D01*
X185174355Y-45710876D01*
X185169486Y-45709152D01*
X185169482Y-45709150D01*
X184960903Y-45635288D01*
X184960899Y-45635287D01*
X184956028Y-45633562D01*
X184950935Y-45632655D01*
X184950932Y-45632654D01*
X184733095Y-45593851D01*
X184733089Y-45593850D01*
X184728006Y-45592945D01*
X184650644Y-45592000D01*
X184501581Y-45590179D01*
X184501579Y-45590179D01*
X184496411Y-45590116D01*
X184267464Y-45625150D01*
X184047314Y-45697106D01*
X184042726Y-45699494D01*
X184042722Y-45699496D01*
X183876361Y-45786098D01*
X183841872Y-45804052D01*
X183837739Y-45807155D01*
X183837736Y-45807157D01*
X183699159Y-45911204D01*
X183656655Y-45943117D01*
X183649609Y-45950490D01*
X183532697Y-46072832D01*
X183496639Y-46110564D01*
X183493725Y-46114836D01*
X183493724Y-46114837D01*
X183433087Y-46203728D01*
X183378176Y-46248731D01*
X183307651Y-46256902D01*
X183243904Y-46225648D01*
X183207174Y-46164891D01*
X183202999Y-46132724D01*
X183202999Y-46055331D01*
X183202629Y-46048510D01*
X183197105Y-45997648D01*
X183193479Y-45982396D01*
X183148324Y-45861946D01*
X183139786Y-45846351D01*
X183063285Y-45744276D01*
X183050724Y-45731715D01*
X182948649Y-45655214D01*
X182933054Y-45646676D01*
X182812606Y-45601522D01*
X182797351Y-45597895D01*
X182746486Y-45592369D01*
X182739672Y-45592000D01*
X182067115Y-45592000D01*
X182051876Y-45596475D01*
X182050671Y-45597865D01*
X182049000Y-45605548D01*
X182049000Y-48389884D01*
X182053475Y-48405123D01*
X182054865Y-48406328D01*
X182062548Y-48407999D01*
X182739669Y-48407999D01*
X182746490Y-48407629D01*
X182797352Y-48402105D01*
X182812604Y-48398479D01*
X182933054Y-48353324D01*
X182948649Y-48344786D01*
X183050724Y-48268285D01*
X183063285Y-48255724D01*
X183139786Y-48153649D01*
X183148324Y-48138054D01*
X183193478Y-48017606D01*
X183197105Y-48002351D01*
X183202631Y-47951486D01*
X183203000Y-47944672D01*
X183203000Y-47871070D01*
X183223002Y-47802949D01*
X183276658Y-47756456D01*
X183346932Y-47746352D01*
X183411512Y-47775846D01*
X183436432Y-47805235D01*
X183451798Y-47830309D01*
X183451801Y-47830314D01*
X183454501Y-47834719D01*
X183606147Y-48009784D01*
X183720385Y-48104626D01*
X183778616Y-48152970D01*
X183784349Y-48157730D01*
X183788816Y-48160340D01*
X183924070Y-48239376D01*
X183972794Y-48291014D01*
X183986500Y-48348164D01*
X183986500Y-53120761D01*
X183966498Y-53188882D01*
X183949595Y-53209856D01*
X181461132Y-55698319D01*
X181398820Y-55732345D01*
X181339426Y-55730931D01*
X181253402Y-55707881D01*
X181253400Y-55707881D01*
X181248087Y-55706457D01*
X181020000Y-55686502D01*
X180791913Y-55706457D01*
X180786600Y-55707881D01*
X180786598Y-55707881D01*
X180576067Y-55764293D01*
X180576065Y-55764294D01*
X180570757Y-55765716D01*
X180565776Y-55768039D01*
X180565775Y-55768039D01*
X180368238Y-55860151D01*
X180368233Y-55860154D01*
X180363251Y-55862477D01*
X180271196Y-55926935D01*
X180180211Y-55990643D01*
X180180208Y-55990645D01*
X180175700Y-55993802D01*
X180013802Y-56155700D01*
X180010645Y-56160208D01*
X180010643Y-56160211D01*
X179994552Y-56183192D01*
X179882477Y-56343251D01*
X179880154Y-56348233D01*
X179880151Y-56348238D01*
X179801098Y-56517769D01*
X179785716Y-56550757D01*
X179784294Y-56556065D01*
X179784293Y-56556067D01*
X179735851Y-56736854D01*
X179726457Y-56771913D01*
X179706502Y-57000000D01*
X175561250Y-57000000D01*
X175553543Y-56911913D01*
X175541475Y-56866876D01*
X175495707Y-56696067D01*
X175495706Y-56696065D01*
X175494284Y-56690757D01*
X175458345Y-56613685D01*
X175399849Y-56488238D01*
X175399846Y-56488233D01*
X175397523Y-56483251D01*
X175305058Y-56351197D01*
X175269357Y-56300211D01*
X175269355Y-56300208D01*
X175266198Y-56295700D01*
X175104300Y-56133802D01*
X175099792Y-56130645D01*
X175099789Y-56130643D01*
X175000290Y-56060973D01*
X174916749Y-56002477D01*
X174911767Y-56000154D01*
X174911762Y-56000151D01*
X174714225Y-55908039D01*
X174714224Y-55908039D01*
X174709243Y-55905716D01*
X174703935Y-55904294D01*
X174703933Y-55904293D01*
X174493402Y-55847881D01*
X174493400Y-55847881D01*
X174488087Y-55846457D01*
X174260000Y-55826502D01*
X174031913Y-55846457D01*
X174026600Y-55847881D01*
X174026598Y-55847881D01*
X173816067Y-55904293D01*
X173816065Y-55904294D01*
X173810757Y-55905716D01*
X173805776Y-55908039D01*
X173805775Y-55908039D01*
X173608238Y-56000151D01*
X173608233Y-56000154D01*
X173603251Y-56002477D01*
X173519710Y-56060973D01*
X173420211Y-56130643D01*
X173420208Y-56130645D01*
X173415700Y-56133802D01*
X173253802Y-56295700D01*
X173250645Y-56300208D01*
X173250643Y-56300211D01*
X173214942Y-56351197D01*
X173122477Y-56483251D01*
X173120154Y-56488233D01*
X173120151Y-56488238D01*
X173061655Y-56613685D01*
X173025716Y-56690757D01*
X173024294Y-56696065D01*
X173024293Y-56696067D01*
X172978525Y-56866876D01*
X172966457Y-56911913D01*
X172946502Y-57140000D01*
X172966457Y-57368087D01*
X172967881Y-57373400D01*
X172967881Y-57373402D01*
X173018511Y-57562352D01*
X173025716Y-57589243D01*
X173028039Y-57594224D01*
X173028039Y-57594225D01*
X173120151Y-57791762D01*
X173120154Y-57791767D01*
X173122477Y-57796749D01*
X173186403Y-57888045D01*
X173242903Y-57968734D01*
X173253802Y-57984300D01*
X173415700Y-58146198D01*
X173420208Y-58149355D01*
X173420211Y-58149357D01*
X173597771Y-58273686D01*
X173642099Y-58329143D01*
X173651500Y-58376899D01*
X173651500Y-61415761D01*
X173631498Y-61483882D01*
X173614595Y-61504856D01*
X167094856Y-68024595D01*
X167032544Y-68058621D01*
X167005761Y-68061500D01*
X166914513Y-68061500D01*
X166908061Y-68062872D01*
X166908056Y-68062872D01*
X166821113Y-68081353D01*
X166727712Y-68101206D01*
X166721682Y-68103891D01*
X166721681Y-68103891D01*
X166559278Y-68176197D01*
X166559276Y-68176198D01*
X166553248Y-68178882D01*
X166398747Y-68291134D01*
X166270960Y-68433056D01*
X166175473Y-68598444D01*
X166116458Y-68780072D01*
X166096496Y-68970000D01*
X166097186Y-68976565D01*
X166115537Y-69151161D01*
X166116458Y-69159928D01*
X166175473Y-69341556D01*
X166270960Y-69506944D01*
X166275378Y-69511851D01*
X166275379Y-69511852D01*
X166394325Y-69643955D01*
X166398747Y-69648866D01*
X166404089Y-69652747D01*
X166404091Y-69652749D01*
X166418977Y-69663564D01*
X166462331Y-69719786D01*
X166468406Y-69790523D01*
X166435274Y-69853314D01*
X166373454Y-69888226D01*
X166344916Y-69891500D01*
X163832978Y-69891500D01*
X163764857Y-69871498D01*
X163727186Y-69833940D01*
X163722490Y-69826680D01*
X163629194Y-69682467D01*
X163622822Y-69672617D01*
X163622820Y-69672614D01*
X163620014Y-69668277D01*
X163469670Y-69503051D01*
X163465619Y-69499852D01*
X163465615Y-69499848D01*
X163298414Y-69367800D01*
X163298410Y-69367798D01*
X163294359Y-69364598D01*
X163098789Y-69256638D01*
X163093920Y-69254914D01*
X163093916Y-69254912D01*
X162893087Y-69183795D01*
X162893083Y-69183794D01*
X162888212Y-69182069D01*
X162883119Y-69181162D01*
X162883116Y-69181161D01*
X162673373Y-69143800D01*
X162673367Y-69143799D01*
X162668284Y-69142894D01*
X162594452Y-69141992D01*
X162450081Y-69140228D01*
X162450079Y-69140228D01*
X162444911Y-69140165D01*
X162224091Y-69173955D01*
X162011756Y-69243357D01*
X161981443Y-69259137D01*
X161833601Y-69336099D01*
X161813607Y-69346507D01*
X161809474Y-69349610D01*
X161809471Y-69349612D01*
X161639100Y-69477530D01*
X161634965Y-69480635D01*
X161623314Y-69492827D01*
X161484319Y-69638277D01*
X161480629Y-69642138D01*
X161373201Y-69799621D01*
X161318293Y-69844621D01*
X161247768Y-69852792D01*
X161184021Y-69821538D01*
X161163324Y-69797054D01*
X161082822Y-69672617D01*
X161082820Y-69672614D01*
X161080014Y-69668277D01*
X160929670Y-69503051D01*
X160925619Y-69499852D01*
X160925615Y-69499848D01*
X160758414Y-69367800D01*
X160758410Y-69367798D01*
X160754359Y-69364598D01*
X160558789Y-69256638D01*
X160553920Y-69254914D01*
X160553916Y-69254912D01*
X160353087Y-69183795D01*
X160353083Y-69183794D01*
X160348212Y-69182069D01*
X160343119Y-69181162D01*
X160343116Y-69181161D01*
X160133373Y-69143800D01*
X160133367Y-69143799D01*
X160128284Y-69142894D01*
X160054452Y-69141992D01*
X159910081Y-69140228D01*
X159910079Y-69140228D01*
X159904911Y-69140165D01*
X159684091Y-69173955D01*
X159471756Y-69243357D01*
X159441443Y-69259137D01*
X159293601Y-69336099D01*
X159273607Y-69346507D01*
X159269474Y-69349610D01*
X159269471Y-69349612D01*
X159099100Y-69477530D01*
X159094965Y-69480635D01*
X159083314Y-69492827D01*
X158944319Y-69638277D01*
X158940629Y-69642138D01*
X158937720Y-69646403D01*
X158937714Y-69646411D01*
X158925495Y-69664324D01*
X158814743Y-69826680D01*
X158813945Y-69828400D01*
X158763589Y-69877088D01*
X158705074Y-69891500D01*
X133832978Y-69891500D01*
X133764857Y-69871498D01*
X133727186Y-69833940D01*
X133722490Y-69826680D01*
X133629194Y-69682467D01*
X133622822Y-69672617D01*
X133622820Y-69672614D01*
X133620014Y-69668277D01*
X133469670Y-69503051D01*
X133465619Y-69499852D01*
X133465615Y-69499848D01*
X133298414Y-69367800D01*
X133298410Y-69367798D01*
X133294359Y-69364598D01*
X133098789Y-69256638D01*
X133093920Y-69254914D01*
X133093916Y-69254912D01*
X132893087Y-69183795D01*
X132893083Y-69183794D01*
X132888212Y-69182069D01*
X132883119Y-69181162D01*
X132883116Y-69181161D01*
X132673373Y-69143800D01*
X132673367Y-69143799D01*
X132668284Y-69142894D01*
X132594452Y-69141992D01*
X132450081Y-69140228D01*
X132450079Y-69140228D01*
X132444911Y-69140165D01*
X132224091Y-69173955D01*
X132011756Y-69243357D01*
X131981443Y-69259137D01*
X131833601Y-69336099D01*
X131813607Y-69346507D01*
X131809474Y-69349610D01*
X131809471Y-69349612D01*
X131639100Y-69477530D01*
X131634965Y-69480635D01*
X131623314Y-69492827D01*
X131484319Y-69638277D01*
X131480629Y-69642138D01*
X131373201Y-69799621D01*
X131318293Y-69844621D01*
X131247768Y-69852792D01*
X131184021Y-69821538D01*
X131163324Y-69797054D01*
X131082822Y-69672617D01*
X131082820Y-69672614D01*
X131080014Y-69668277D01*
X130929670Y-69503051D01*
X130925619Y-69499852D01*
X130925615Y-69499848D01*
X130758414Y-69367800D01*
X130758410Y-69367798D01*
X130754359Y-69364598D01*
X130558789Y-69256638D01*
X130553920Y-69254914D01*
X130553916Y-69254912D01*
X130353087Y-69183795D01*
X130353083Y-69183794D01*
X130348212Y-69182069D01*
X130343119Y-69181162D01*
X130343116Y-69181161D01*
X130133373Y-69143800D01*
X130133367Y-69143799D01*
X130128284Y-69142894D01*
X130054452Y-69141992D01*
X129910081Y-69140228D01*
X129910079Y-69140228D01*
X129904911Y-69140165D01*
X129684091Y-69173955D01*
X129471756Y-69243357D01*
X129441443Y-69259137D01*
X129293601Y-69336099D01*
X129273607Y-69346507D01*
X129269474Y-69349610D01*
X129269471Y-69349612D01*
X129099100Y-69477530D01*
X129094965Y-69480635D01*
X129083314Y-69492827D01*
X128944319Y-69638277D01*
X128940629Y-69642138D01*
X128937720Y-69646403D01*
X128937714Y-69646411D01*
X128925495Y-69664324D01*
X128814743Y-69826680D01*
X128813945Y-69828400D01*
X128763589Y-69877088D01*
X128705074Y-69891500D01*
X103832978Y-69891500D01*
X103764857Y-69871498D01*
X103727186Y-69833940D01*
X103722490Y-69826680D01*
X103629194Y-69682467D01*
X103622822Y-69672617D01*
X103622820Y-69672614D01*
X103620014Y-69668277D01*
X103469670Y-69503051D01*
X103465619Y-69499852D01*
X103465615Y-69499848D01*
X103298414Y-69367800D01*
X103298410Y-69367798D01*
X103294359Y-69364598D01*
X103098789Y-69256638D01*
X103093920Y-69254914D01*
X103093916Y-69254912D01*
X102893087Y-69183795D01*
X102893083Y-69183794D01*
X102888212Y-69182069D01*
X102883119Y-69181162D01*
X102883116Y-69181161D01*
X102673373Y-69143800D01*
X102673367Y-69143799D01*
X102668284Y-69142894D01*
X102594452Y-69141992D01*
X102450081Y-69140228D01*
X102450079Y-69140228D01*
X102444911Y-69140165D01*
X102224091Y-69173955D01*
X102011756Y-69243357D01*
X101981443Y-69259137D01*
X101833601Y-69336099D01*
X101813607Y-69346507D01*
X101809474Y-69349610D01*
X101809471Y-69349612D01*
X101639100Y-69477530D01*
X101634965Y-69480635D01*
X101623314Y-69492827D01*
X101484319Y-69638277D01*
X101480629Y-69642138D01*
X101373201Y-69799621D01*
X101318293Y-69844621D01*
X101247768Y-69852792D01*
X101184021Y-69821538D01*
X101163324Y-69797054D01*
X101082822Y-69672617D01*
X101082820Y-69672614D01*
X101080014Y-69668277D01*
X100929670Y-69503051D01*
X100925619Y-69499852D01*
X100925615Y-69499848D01*
X100758414Y-69367800D01*
X100758410Y-69367798D01*
X100754359Y-69364598D01*
X100558789Y-69256638D01*
X100553920Y-69254914D01*
X100553916Y-69254912D01*
X100353087Y-69183795D01*
X100353083Y-69183794D01*
X100348212Y-69182069D01*
X100343119Y-69181162D01*
X100343116Y-69181161D01*
X100133373Y-69143800D01*
X100133367Y-69143799D01*
X100128284Y-69142894D01*
X100054452Y-69141992D01*
X99910081Y-69140228D01*
X99910079Y-69140228D01*
X99904911Y-69140165D01*
X99684091Y-69173955D01*
X99471756Y-69243357D01*
X99441443Y-69259137D01*
X99293601Y-69336099D01*
X99273607Y-69346507D01*
X99269474Y-69349610D01*
X99269471Y-69349612D01*
X99099100Y-69477530D01*
X99094965Y-69480635D01*
X99083314Y-69492827D01*
X98944319Y-69638277D01*
X98940629Y-69642138D01*
X98937720Y-69646403D01*
X98937714Y-69646411D01*
X98925495Y-69664324D01*
X98814743Y-69826680D01*
X98813945Y-69828400D01*
X98763589Y-69877088D01*
X98705074Y-69891500D01*
X91605923Y-69891500D01*
X91537802Y-69871498D01*
X91491309Y-69817842D01*
X91481205Y-69747568D01*
X91500975Y-69695773D01*
X91519254Y-69668261D01*
X91523154Y-69662391D01*
X91525182Y-69657051D01*
X91528276Y-69652251D01*
X91557037Y-69573229D01*
X91557647Y-69571589D01*
X91585063Y-69499418D01*
X91585065Y-69499412D01*
X91587566Y-69492827D01*
X91588361Y-69487169D01*
X91590314Y-69481804D01*
X91600860Y-69398328D01*
X91601091Y-69396593D01*
X91604251Y-69374106D01*
X91612810Y-69313206D01*
X91613127Y-69290489D01*
X91608796Y-69251877D01*
X91608011Y-69237832D01*
X91608011Y-59887320D01*
X100192001Y-59887320D01*
X100192371Y-59894141D01*
X100197895Y-59945003D01*
X100201521Y-59960255D01*
X100246676Y-60080705D01*
X100255214Y-60096300D01*
X100331715Y-60198375D01*
X100344276Y-60210936D01*
X100446351Y-60287437D01*
X100461946Y-60295975D01*
X100582394Y-60341129D01*
X100597649Y-60344756D01*
X100648514Y-60350282D01*
X100655328Y-60350651D01*
X101227885Y-60350651D01*
X101243124Y-60346176D01*
X101244329Y-60344786D01*
X101246000Y-60337103D01*
X101246000Y-60332535D01*
X101754000Y-60332535D01*
X101758475Y-60347774D01*
X101759865Y-60348979D01*
X101767548Y-60350650D01*
X102344669Y-60350650D01*
X102351490Y-60350280D01*
X102402352Y-60344756D01*
X102417604Y-60341130D01*
X102538054Y-60295975D01*
X102553649Y-60287437D01*
X102655724Y-60210936D01*
X102668285Y-60198375D01*
X102744786Y-60096300D01*
X102753324Y-60080705D01*
X102798478Y-59960257D01*
X102802105Y-59945002D01*
X102807631Y-59894137D01*
X102808000Y-59887323D01*
X102808000Y-59314766D01*
X102803525Y-59299527D01*
X102802135Y-59298322D01*
X102794452Y-59296651D01*
X101772115Y-59296651D01*
X101756876Y-59301126D01*
X101755671Y-59302516D01*
X101754000Y-59310199D01*
X101754000Y-60332535D01*
X101246000Y-60332535D01*
X101246000Y-59314766D01*
X101241525Y-59299527D01*
X101240135Y-59298322D01*
X101232452Y-59296651D01*
X100210116Y-59296651D01*
X100194877Y-59301126D01*
X100193672Y-59302516D01*
X100192001Y-59310199D01*
X100192001Y-59887320D01*
X91608011Y-59887320D01*
X91608011Y-58770536D01*
X100192000Y-58770536D01*
X100196475Y-58785775D01*
X100197865Y-58786980D01*
X100205548Y-58788651D01*
X101227885Y-58788651D01*
X101243124Y-58784176D01*
X101244329Y-58782786D01*
X101246000Y-58775103D01*
X101246000Y-58770536D01*
X101754000Y-58770536D01*
X101758475Y-58785775D01*
X101759865Y-58786980D01*
X101767548Y-58788651D01*
X102789884Y-58788651D01*
X102805123Y-58784176D01*
X102806328Y-58782786D01*
X102807999Y-58775103D01*
X102807999Y-58197982D01*
X102807629Y-58191161D01*
X102802105Y-58140299D01*
X102798479Y-58125047D01*
X102753324Y-58004597D01*
X102744786Y-57989002D01*
X102668285Y-57886927D01*
X102655724Y-57874366D01*
X102553649Y-57797865D01*
X102538054Y-57789327D01*
X102417606Y-57744173D01*
X102402351Y-57740546D01*
X102351486Y-57735020D01*
X102344672Y-57734651D01*
X101772115Y-57734651D01*
X101756876Y-57739126D01*
X101755671Y-57740516D01*
X101754000Y-57748199D01*
X101754000Y-58770536D01*
X101246000Y-58770536D01*
X101246000Y-57752767D01*
X101241525Y-57737528D01*
X101240135Y-57736323D01*
X101232452Y-57734652D01*
X100655331Y-57734652D01*
X100648510Y-57735022D01*
X100597648Y-57740546D01*
X100582396Y-57744172D01*
X100461946Y-57789327D01*
X100446351Y-57797865D01*
X100344276Y-57874366D01*
X100331715Y-57886927D01*
X100255214Y-57989002D01*
X100246676Y-58004597D01*
X100201522Y-58125045D01*
X100197895Y-58140300D01*
X100192369Y-58191165D01*
X100192000Y-58197979D01*
X100192000Y-58770536D01*
X91608011Y-58770536D01*
X91608011Y-56753675D01*
X91608018Y-56752356D01*
X91608060Y-56748385D01*
X91608961Y-56662290D01*
X91599801Y-56619925D01*
X91597741Y-56607346D01*
X91593693Y-56571252D01*
X91593692Y-56571249D01*
X91592908Y-56564256D01*
X91581877Y-56532579D01*
X91577715Y-56517769D01*
X91572120Y-56491889D01*
X91572119Y-56491885D01*
X91570630Y-56485000D01*
X91567653Y-56478616D01*
X91567651Y-56478610D01*
X91552307Y-56445704D01*
X91547511Y-56433894D01*
X91545385Y-56427789D01*
X91533256Y-56392959D01*
X91529524Y-56386987D01*
X91529521Y-56386980D01*
X91515484Y-56364516D01*
X91508144Y-56350997D01*
X91499635Y-56332749D01*
X91488974Y-56262557D01*
X91517955Y-56197745D01*
X91577375Y-56158889D01*
X91613830Y-56153500D01*
X100188437Y-56153500D01*
X100189757Y-56153507D01*
X100279872Y-56154451D01*
X100322248Y-56145289D01*
X100334814Y-56143231D01*
X100377906Y-56138397D01*
X100384557Y-56136081D01*
X100384561Y-56136080D01*
X100409581Y-56127367D01*
X100424393Y-56123204D01*
X100450270Y-56117609D01*
X100457161Y-56116119D01*
X100496464Y-56097792D01*
X100508240Y-56093010D01*
X100549203Y-56078745D01*
X100555178Y-56075011D01*
X100555181Y-56075010D01*
X100577646Y-56060973D01*
X100591163Y-56053634D01*
X100615165Y-56042441D01*
X100615166Y-56042440D01*
X100621553Y-56039462D01*
X100636378Y-56027963D01*
X100655804Y-56012894D01*
X100666263Y-56005598D01*
X100697055Y-55986358D01*
X100697058Y-55986356D01*
X100703027Y-55982626D01*
X100708023Y-55977665D01*
X100731830Y-55954024D01*
X100732455Y-55953439D01*
X100733121Y-55952922D01*
X100759108Y-55926935D01*
X100831733Y-55854815D01*
X100832391Y-55853778D01*
X100833494Y-55852549D01*
X101302032Y-55384011D01*
X101364344Y-55349985D01*
X101402108Y-55347585D01*
X101494524Y-55355670D01*
X101494525Y-55355670D01*
X101500000Y-55356149D01*
X101728087Y-55336194D01*
X101733400Y-55334770D01*
X101733402Y-55334770D01*
X101943933Y-55278358D01*
X101943935Y-55278357D01*
X101949243Y-55276935D01*
X101954225Y-55274612D01*
X102151762Y-55182500D01*
X102151767Y-55182497D01*
X102156749Y-55180174D01*
X102299571Y-55080169D01*
X102339789Y-55052008D01*
X102339792Y-55052006D01*
X102344300Y-55048849D01*
X102506198Y-54886951D01*
X102527184Y-54856981D01*
X102634366Y-54703908D01*
X102637523Y-54699400D01*
X102639846Y-54694418D01*
X102639849Y-54694413D01*
X102731961Y-54496876D01*
X102731961Y-54496875D01*
X102734284Y-54491894D01*
X102737783Y-54478838D01*
X102792119Y-54276053D01*
X102792119Y-54276051D01*
X102793543Y-54270738D01*
X102813498Y-54042651D01*
X102793543Y-53814564D01*
X102792119Y-53809249D01*
X102735707Y-53598718D01*
X102735706Y-53598716D01*
X102734284Y-53593408D01*
X102703619Y-53527646D01*
X102639849Y-53390889D01*
X102639846Y-53390884D01*
X102637523Y-53385902D01*
X102562705Y-53279051D01*
X102509357Y-53202862D01*
X102509355Y-53202859D01*
X102506198Y-53198351D01*
X102345405Y-53037558D01*
X102311379Y-52975246D01*
X102308500Y-52948463D01*
X102308500Y-49961537D01*
X102328502Y-49893416D01*
X102345405Y-49872442D01*
X102506198Y-49711649D01*
X102637523Y-49524098D01*
X102639846Y-49519116D01*
X102639849Y-49519111D01*
X102731961Y-49321574D01*
X102731961Y-49321573D01*
X102734284Y-49316592D01*
X102762643Y-49210758D01*
X102792119Y-49100751D01*
X102792119Y-49100749D01*
X102793543Y-49095436D01*
X102813498Y-48867349D01*
X102793543Y-48639262D01*
X102785300Y-48608500D01*
X102735707Y-48423416D01*
X102735706Y-48423414D01*
X102734284Y-48418106D01*
X102729571Y-48407999D01*
X102639849Y-48215587D01*
X102639846Y-48215582D01*
X102637523Y-48210600D01*
X102547821Y-48082492D01*
X102509357Y-48027560D01*
X102509355Y-48027557D01*
X102506198Y-48023049D01*
X102344300Y-47861151D01*
X102339792Y-47857994D01*
X102339789Y-47857992D01*
X102222472Y-47775846D01*
X102156749Y-47729826D01*
X102151767Y-47727503D01*
X102151762Y-47727500D01*
X101954225Y-47635388D01*
X101954224Y-47635388D01*
X101949243Y-47633065D01*
X101943935Y-47631643D01*
X101943933Y-47631642D01*
X101733402Y-47575230D01*
X101733400Y-47575230D01*
X101728087Y-47573806D01*
X101500000Y-47553851D01*
X101271913Y-47573806D01*
X101266600Y-47575230D01*
X101266598Y-47575230D01*
X101056067Y-47631642D01*
X101056065Y-47631643D01*
X101050757Y-47633065D01*
X101045776Y-47635388D01*
X101045775Y-47635388D01*
X100848238Y-47727500D01*
X100848233Y-47727503D01*
X100843251Y-47729826D01*
X100777528Y-47775846D01*
X100660211Y-47857992D01*
X100660208Y-47857994D01*
X100655700Y-47861151D01*
X100493802Y-48023049D01*
X100490645Y-48027557D01*
X100490643Y-48027560D01*
X100452179Y-48082492D01*
X100362477Y-48210600D01*
X100360154Y-48215582D01*
X100360151Y-48215587D01*
X100270429Y-48407999D01*
X100265716Y-48418106D01*
X100264294Y-48423414D01*
X100264293Y-48423416D01*
X100214700Y-48608500D01*
X100206457Y-48639262D01*
X100186502Y-48867349D01*
X100206457Y-49095436D01*
X100207881Y-49100749D01*
X100207881Y-49100751D01*
X100237358Y-49210758D01*
X100265716Y-49316592D01*
X100268039Y-49321573D01*
X100268039Y-49321574D01*
X100360151Y-49519111D01*
X100360154Y-49519116D01*
X100362477Y-49524098D01*
X100493802Y-49711649D01*
X100654595Y-49872442D01*
X100688621Y-49934754D01*
X100691500Y-49961537D01*
X100691500Y-52948463D01*
X100671498Y-53016584D01*
X100654595Y-53037558D01*
X100493802Y-53198351D01*
X100490645Y-53202859D01*
X100490643Y-53202862D01*
X100437295Y-53279051D01*
X100362477Y-53385902D01*
X100360154Y-53390884D01*
X100360151Y-53390889D01*
X100296381Y-53527646D01*
X100265716Y-53593408D01*
X100264294Y-53598716D01*
X100264293Y-53598718D01*
X100207881Y-53809249D01*
X100206457Y-53814564D01*
X100186502Y-54042651D01*
X100186981Y-54048126D01*
X100186981Y-54048127D01*
X100195066Y-54140543D01*
X100181076Y-54210148D01*
X100158640Y-54240619D01*
X99899664Y-54499595D01*
X99837352Y-54533621D01*
X99810569Y-54536500D01*
X90622688Y-54536500D01*
X90554567Y-54516498D01*
X90522861Y-54487381D01*
X90522573Y-54487008D01*
X90519764Y-54482665D01*
X90429848Y-54383848D01*
X90398796Y-54320002D01*
X90407192Y-54249504D01*
X90452369Y-54194736D01*
X90478812Y-54181067D01*
X90538297Y-54158767D01*
X90546705Y-54155615D01*
X90663261Y-54068261D01*
X90750615Y-53951705D01*
X90801745Y-53815316D01*
X90808500Y-53753134D01*
X90808500Y-51856866D01*
X90801745Y-51794684D01*
X90750615Y-51658295D01*
X90663261Y-51541739D01*
X90546705Y-51454385D01*
X90410316Y-51403255D01*
X90348134Y-51396500D01*
X90334500Y-51396500D01*
X90266379Y-51376498D01*
X90219886Y-51322842D01*
X90208500Y-51270500D01*
X90208500Y-46980000D01*
X172946502Y-46980000D01*
X172966457Y-47208087D01*
X172967881Y-47213400D01*
X172967881Y-47213402D01*
X173016873Y-47396239D01*
X173025716Y-47429243D01*
X173028039Y-47434224D01*
X173028039Y-47434225D01*
X173120151Y-47631762D01*
X173120154Y-47631767D01*
X173122477Y-47636749D01*
X173170613Y-47705494D01*
X173240453Y-47805235D01*
X173253802Y-47824300D01*
X173415700Y-47986198D01*
X173420208Y-47989355D01*
X173420211Y-47989357D01*
X173474771Y-48027560D01*
X173603251Y-48117523D01*
X173608233Y-48119846D01*
X173608238Y-48119849D01*
X173803699Y-48210993D01*
X173810757Y-48214284D01*
X173816065Y-48215706D01*
X173816067Y-48215707D01*
X174026598Y-48272119D01*
X174026600Y-48272119D01*
X174031913Y-48273543D01*
X174260000Y-48293498D01*
X174488087Y-48273543D01*
X174493400Y-48272119D01*
X174493402Y-48272119D01*
X174703933Y-48215707D01*
X174703935Y-48215706D01*
X174709243Y-48214284D01*
X174716301Y-48210993D01*
X174911762Y-48119849D01*
X174911767Y-48119846D01*
X174916749Y-48117523D01*
X175045229Y-48027560D01*
X175099789Y-47989357D01*
X175099792Y-47989355D01*
X175104300Y-47986198D01*
X175266198Y-47824300D01*
X175279548Y-47805235D01*
X175393686Y-47642229D01*
X175449143Y-47597901D01*
X175496899Y-47588500D01*
X177893054Y-47588500D01*
X177961175Y-47608502D01*
X178000487Y-47648665D01*
X178111804Y-47830318D01*
X178114501Y-47834719D01*
X178266147Y-48009784D01*
X178380385Y-48104626D01*
X178438616Y-48152970D01*
X178444349Y-48157730D01*
X178644322Y-48274584D01*
X178649147Y-48276426D01*
X178649148Y-48276427D01*
X178695306Y-48294053D01*
X178860694Y-48357209D01*
X178865760Y-48358240D01*
X178865761Y-48358240D01*
X178918846Y-48369040D01*
X179087656Y-48403385D01*
X179217089Y-48408131D01*
X179313949Y-48411683D01*
X179313953Y-48411683D01*
X179319113Y-48411872D01*
X179324233Y-48411216D01*
X179324235Y-48411216D01*
X179398166Y-48401745D01*
X179548847Y-48382442D01*
X179553795Y-48380957D01*
X179553802Y-48380956D01*
X179765747Y-48317369D01*
X179770690Y-48315886D01*
X179816390Y-48293498D01*
X179974049Y-48216262D01*
X179974052Y-48216260D01*
X179978684Y-48213991D01*
X180167243Y-48079494D01*
X180170900Y-48075850D01*
X180170906Y-48075845D01*
X180212697Y-48034199D01*
X180275068Y-48000282D01*
X180345875Y-48005470D01*
X180402637Y-48048116D01*
X180419619Y-48079218D01*
X180441677Y-48138056D01*
X180450214Y-48153649D01*
X180526715Y-48255724D01*
X180539276Y-48268285D01*
X180641351Y-48344786D01*
X180656946Y-48353324D01*
X180777394Y-48398478D01*
X180792649Y-48402105D01*
X180843514Y-48407631D01*
X180850328Y-48408000D01*
X181522885Y-48408000D01*
X181538124Y-48403525D01*
X181539329Y-48402135D01*
X181541000Y-48394452D01*
X181541000Y-45610116D01*
X181536525Y-45594877D01*
X181535135Y-45593672D01*
X181527452Y-45592001D01*
X180850331Y-45592001D01*
X180843510Y-45592371D01*
X180792648Y-45597895D01*
X180777396Y-45601521D01*
X180656946Y-45646676D01*
X180641351Y-45655214D01*
X180539276Y-45731715D01*
X180526715Y-45744276D01*
X180450214Y-45846351D01*
X180441675Y-45861948D01*
X180420934Y-45917275D01*
X180378293Y-45974040D01*
X180311731Y-45998740D01*
X180242383Y-45983533D01*
X180219388Y-45966909D01*
X180218887Y-45966358D01*
X180190712Y-45944107D01*
X180041177Y-45826011D01*
X180041172Y-45826008D01*
X180037123Y-45822810D01*
X180032607Y-45820317D01*
X180032604Y-45820315D01*
X179838879Y-45713373D01*
X179838875Y-45713371D01*
X179834355Y-45710876D01*
X179829486Y-45709152D01*
X179829482Y-45709150D01*
X179620903Y-45635288D01*
X179620899Y-45635287D01*
X179616028Y-45633562D01*
X179610935Y-45632655D01*
X179610932Y-45632654D01*
X179393095Y-45593851D01*
X179393089Y-45593850D01*
X179388006Y-45592945D01*
X179310644Y-45592000D01*
X179161581Y-45590179D01*
X179161579Y-45590179D01*
X179156411Y-45590116D01*
X178927464Y-45625150D01*
X178707314Y-45697106D01*
X178702726Y-45699494D01*
X178702722Y-45699496D01*
X178536361Y-45786098D01*
X178501872Y-45804052D01*
X178497739Y-45807155D01*
X178497736Y-45807157D01*
X178359159Y-45911204D01*
X178316655Y-45943117D01*
X178309609Y-45950490D01*
X178192697Y-46072832D01*
X178156639Y-46110564D01*
X178153725Y-46114836D01*
X178153724Y-46114837D01*
X178119580Y-46164891D01*
X178026119Y-46301899D01*
X178023938Y-46306597D01*
X178023290Y-46307738D01*
X177972250Y-46357088D01*
X177913734Y-46371500D01*
X175496899Y-46371500D01*
X175428778Y-46351498D01*
X175393686Y-46317771D01*
X175269357Y-46140211D01*
X175269355Y-46140208D01*
X175266198Y-46135700D01*
X175104300Y-45973802D01*
X175099792Y-45970645D01*
X175099789Y-45970643D01*
X174993276Y-45896062D01*
X174916749Y-45842477D01*
X174911767Y-45840154D01*
X174911762Y-45840151D01*
X174714225Y-45748039D01*
X174714224Y-45748039D01*
X174709243Y-45745716D01*
X174703935Y-45744294D01*
X174703933Y-45744293D01*
X174493402Y-45687881D01*
X174493400Y-45687881D01*
X174488087Y-45686457D01*
X174260000Y-45666502D01*
X174031913Y-45686457D01*
X174026600Y-45687881D01*
X174026598Y-45687881D01*
X173816067Y-45744293D01*
X173816065Y-45744294D01*
X173810757Y-45745716D01*
X173805776Y-45748039D01*
X173805775Y-45748039D01*
X173608238Y-45840151D01*
X173608233Y-45840154D01*
X173603251Y-45842477D01*
X173526724Y-45896062D01*
X173420211Y-45970643D01*
X173420208Y-45970645D01*
X173415700Y-45973802D01*
X173253802Y-46135700D01*
X173122477Y-46323251D01*
X173120154Y-46328233D01*
X173120151Y-46328238D01*
X173040872Y-46498255D01*
X173025716Y-46530757D01*
X173024294Y-46536065D01*
X173024293Y-46536067D01*
X172968012Y-46746109D01*
X172966457Y-46751913D01*
X172946502Y-46980000D01*
X90208500Y-46980000D01*
X90208500Y-46219214D01*
X90208507Y-46217894D01*
X90209062Y-46164891D01*
X90209451Y-46127779D01*
X90200289Y-46085403D01*
X90198230Y-46072832D01*
X90196256Y-46055229D01*
X90193397Y-46029745D01*
X90182367Y-45998070D01*
X90178204Y-45983258D01*
X90172609Y-45957381D01*
X90171119Y-45950490D01*
X90152792Y-45911187D01*
X90148010Y-45899411D01*
X90146844Y-45896062D01*
X92278493Y-45896062D01*
X92287789Y-45908077D01*
X92338994Y-45943931D01*
X92348489Y-45949414D01*
X92545947Y-46041490D01*
X92556239Y-46045236D01*
X92766688Y-46101625D01*
X92777481Y-46103528D01*
X92994525Y-46122517D01*
X93005475Y-46122517D01*
X93222519Y-46103528D01*
X93233312Y-46101625D01*
X93443761Y-46045236D01*
X93454053Y-46041490D01*
X93651511Y-45949414D01*
X93661006Y-45943931D01*
X93713048Y-45907491D01*
X93721424Y-45897012D01*
X93714356Y-45883566D01*
X93012812Y-45182022D01*
X92998868Y-45174408D01*
X92997035Y-45174539D01*
X92990420Y-45178790D01*
X92284923Y-45884287D01*
X92278493Y-45896062D01*
X90146844Y-45896062D01*
X90133745Y-45858448D01*
X90130010Y-45852470D01*
X90115973Y-45830005D01*
X90108634Y-45816488D01*
X90097441Y-45792486D01*
X90097440Y-45792485D01*
X90094462Y-45786098D01*
X90067894Y-45751847D01*
X90060598Y-45741388D01*
X90041358Y-45710596D01*
X90041356Y-45710593D01*
X90037626Y-45704624D01*
X90032534Y-45699496D01*
X90009024Y-45675821D01*
X90008439Y-45675196D01*
X90007922Y-45674530D01*
X89981932Y-45648540D01*
X89909815Y-45575918D01*
X89908778Y-45575260D01*
X89907549Y-45574157D01*
X89345405Y-45012013D01*
X89311379Y-44949701D01*
X89308500Y-44922918D01*
X89308500Y-44815475D01*
X91687483Y-44815475D01*
X91706472Y-45032519D01*
X91708375Y-45043312D01*
X91764764Y-45253761D01*
X91768510Y-45264053D01*
X91860586Y-45461511D01*
X91866069Y-45471006D01*
X91902509Y-45523048D01*
X91912988Y-45531424D01*
X91926434Y-45524356D01*
X92627978Y-44822812D01*
X92634356Y-44811132D01*
X93364408Y-44811132D01*
X93364539Y-44812965D01*
X93368790Y-44819580D01*
X94074287Y-45525077D01*
X94086062Y-45531507D01*
X94098077Y-45522211D01*
X94133931Y-45471006D01*
X94139414Y-45461511D01*
X94231490Y-45264053D01*
X94235236Y-45253761D01*
X94291625Y-45043312D01*
X94293528Y-45032519D01*
X94312517Y-44815475D01*
X94312517Y-44804525D01*
X94304424Y-44712018D01*
X100192001Y-44712018D01*
X100192371Y-44718839D01*
X100197895Y-44769701D01*
X100201521Y-44784953D01*
X100246676Y-44905403D01*
X100255214Y-44920998D01*
X100331715Y-45023073D01*
X100344276Y-45035634D01*
X100446351Y-45112135D01*
X100461946Y-45120673D01*
X100582394Y-45165827D01*
X100597649Y-45169454D01*
X100648514Y-45174980D01*
X100655328Y-45175349D01*
X101227885Y-45175349D01*
X101243124Y-45170874D01*
X101244329Y-45169484D01*
X101246000Y-45161801D01*
X101246000Y-45157233D01*
X101754000Y-45157233D01*
X101758475Y-45172472D01*
X101759865Y-45173677D01*
X101767548Y-45175348D01*
X102344669Y-45175348D01*
X102351490Y-45174978D01*
X102402352Y-45169454D01*
X102417604Y-45165828D01*
X102538054Y-45120673D01*
X102553649Y-45112135D01*
X102655724Y-45035634D01*
X102668285Y-45023073D01*
X102744786Y-44920998D01*
X102753324Y-44905403D01*
X102798478Y-44784955D01*
X102802105Y-44769700D01*
X102807631Y-44718835D01*
X102808000Y-44712021D01*
X102808000Y-44139464D01*
X102803525Y-44124225D01*
X102802135Y-44123020D01*
X102794452Y-44121349D01*
X101772115Y-44121349D01*
X101756876Y-44125824D01*
X101755671Y-44127214D01*
X101754000Y-44134897D01*
X101754000Y-45157233D01*
X101246000Y-45157233D01*
X101246000Y-44139464D01*
X101241525Y-44124225D01*
X101240135Y-44123020D01*
X101232452Y-44121349D01*
X100210116Y-44121349D01*
X100194877Y-44125824D01*
X100193672Y-44127214D01*
X100192001Y-44134897D01*
X100192001Y-44712018D01*
X94304424Y-44712018D01*
X94293528Y-44587481D01*
X94291625Y-44576688D01*
X94235236Y-44366239D01*
X94231490Y-44355947D01*
X94139414Y-44158489D01*
X94133931Y-44148994D01*
X94097491Y-44096952D01*
X94087012Y-44088576D01*
X94073566Y-44095644D01*
X93372022Y-44797188D01*
X93364408Y-44811132D01*
X92634356Y-44811132D01*
X92635592Y-44808868D01*
X92635461Y-44807035D01*
X92631210Y-44800420D01*
X91925713Y-44094923D01*
X91913938Y-44088493D01*
X91901923Y-44097789D01*
X91866069Y-44148994D01*
X91860586Y-44158489D01*
X91768510Y-44355947D01*
X91764764Y-44366239D01*
X91708375Y-44576688D01*
X91706472Y-44587481D01*
X91687483Y-44804525D01*
X91687483Y-44815475D01*
X89308500Y-44815475D01*
X89308500Y-43961866D01*
X89301745Y-43899684D01*
X89250615Y-43763295D01*
X89220407Y-43722988D01*
X92278576Y-43722988D01*
X92285644Y-43736434D01*
X92987188Y-44437978D01*
X93001132Y-44445592D01*
X93002965Y-44445461D01*
X93009580Y-44441210D01*
X93715077Y-43735713D01*
X93721507Y-43723938D01*
X93712211Y-43711923D01*
X93661006Y-43676069D01*
X93651511Y-43670586D01*
X93489918Y-43595234D01*
X100192000Y-43595234D01*
X100196475Y-43610473D01*
X100197865Y-43611678D01*
X100205548Y-43613349D01*
X101227885Y-43613349D01*
X101243124Y-43608874D01*
X101244329Y-43607484D01*
X101246000Y-43599801D01*
X101246000Y-43595234D01*
X101754000Y-43595234D01*
X101758475Y-43610473D01*
X101759865Y-43611678D01*
X101767548Y-43613349D01*
X102789884Y-43613349D01*
X102805123Y-43608874D01*
X102806328Y-43607484D01*
X102807999Y-43599801D01*
X102807999Y-43022680D01*
X102807629Y-43015859D01*
X102802105Y-42964997D01*
X102798479Y-42949745D01*
X102753324Y-42829295D01*
X102744786Y-42813700D01*
X102668285Y-42711625D01*
X102655724Y-42699064D01*
X102553649Y-42622563D01*
X102538054Y-42614025D01*
X102417606Y-42568871D01*
X102402351Y-42565244D01*
X102351486Y-42559718D01*
X102344672Y-42559349D01*
X101772115Y-42559349D01*
X101756876Y-42563824D01*
X101755671Y-42565214D01*
X101754000Y-42572897D01*
X101754000Y-43595234D01*
X101246000Y-43595234D01*
X101246000Y-42577465D01*
X101241525Y-42562226D01*
X101240135Y-42561021D01*
X101232452Y-42559350D01*
X100655331Y-42559350D01*
X100648510Y-42559720D01*
X100597648Y-42565244D01*
X100582396Y-42568870D01*
X100461946Y-42614025D01*
X100446351Y-42622563D01*
X100344276Y-42699064D01*
X100331715Y-42711625D01*
X100255214Y-42813700D01*
X100246676Y-42829295D01*
X100201522Y-42949743D01*
X100197895Y-42964998D01*
X100192369Y-43015863D01*
X100192000Y-43022677D01*
X100192000Y-43595234D01*
X93489918Y-43595234D01*
X93454053Y-43578510D01*
X93443761Y-43574764D01*
X93233312Y-43518375D01*
X93222519Y-43516472D01*
X93005475Y-43497483D01*
X92994525Y-43497483D01*
X92777481Y-43516472D01*
X92766688Y-43518375D01*
X92556239Y-43574764D01*
X92545947Y-43578510D01*
X92348489Y-43670586D01*
X92338994Y-43676069D01*
X92286952Y-43712509D01*
X92278576Y-43722988D01*
X89220407Y-43722988D01*
X89163261Y-43646739D01*
X89046705Y-43559385D01*
X88910316Y-43508255D01*
X88848134Y-43501500D01*
X87151866Y-43501500D01*
X87089684Y-43508255D01*
X86953295Y-43559385D01*
X86836739Y-43646739D01*
X86749385Y-43763295D01*
X86698255Y-43899684D01*
X86691500Y-43961866D01*
X86691500Y-45658134D01*
X86698255Y-45720316D01*
X86749385Y-45856705D01*
X86836739Y-45973261D01*
X86953295Y-46060615D01*
X87089684Y-46111745D01*
X87151866Y-46118500D01*
X88112918Y-46118500D01*
X88181039Y-46138502D01*
X88202013Y-46155405D01*
X88554595Y-46507987D01*
X88588621Y-46570299D01*
X88591500Y-46597082D01*
X88591500Y-51270500D01*
X88571498Y-51338621D01*
X88517842Y-51385114D01*
X88465500Y-51396500D01*
X88451866Y-51396500D01*
X88389684Y-51403255D01*
X88253295Y-51454385D01*
X88136739Y-51541739D01*
X88049385Y-51658295D01*
X87998255Y-51794684D01*
X87991500Y-51856866D01*
X87991500Y-51860283D01*
X87991390Y-51862314D01*
X87967733Y-51929253D01*
X87911642Y-51972777D01*
X87865574Y-51981500D01*
X79264161Y-51981500D01*
X79196040Y-51961498D01*
X79154768Y-51918023D01*
X79146244Y-51903108D01*
X79088765Y-51802540D01*
X79075837Y-51779921D01*
X79075835Y-51779919D01*
X79073518Y-51775864D01*
X79048612Y-51744270D01*
X78982375Y-51660249D01*
X78907105Y-51564769D01*
X78711317Y-51380591D01*
X78490457Y-51227374D01*
X78448770Y-51206817D01*
X78396522Y-51158748D01*
X78378500Y-51093811D01*
X78378500Y-48942757D01*
X78383402Y-48926062D01*
X81858493Y-48926062D01*
X81867789Y-48938077D01*
X81918994Y-48973931D01*
X81928489Y-48979414D01*
X82125947Y-49071490D01*
X82136239Y-49075236D01*
X82346688Y-49131625D01*
X82357481Y-49133528D01*
X82574525Y-49152517D01*
X82585475Y-49152517D01*
X82802519Y-49133528D01*
X82813312Y-49131625D01*
X83023761Y-49075236D01*
X83034053Y-49071490D01*
X83231511Y-48979414D01*
X83241006Y-48973931D01*
X83293048Y-48937491D01*
X83301424Y-48927012D01*
X83294356Y-48913566D01*
X82592812Y-48212022D01*
X82578868Y-48204408D01*
X82577035Y-48204539D01*
X82570420Y-48208790D01*
X81864923Y-48914287D01*
X81858493Y-48926062D01*
X78383402Y-48926062D01*
X78398502Y-48874636D01*
X78422322Y-48847583D01*
X78424300Y-48846198D01*
X78586198Y-48684300D01*
X78637603Y-48610887D01*
X78714366Y-48501257D01*
X78717523Y-48496749D01*
X78719846Y-48491767D01*
X78719849Y-48491762D01*
X78811961Y-48294225D01*
X78811961Y-48294224D01*
X78814284Y-48289243D01*
X78816526Y-48280878D01*
X78872119Y-48073402D01*
X78872119Y-48073400D01*
X78873543Y-48068087D01*
X78893019Y-47845475D01*
X81267483Y-47845475D01*
X81286472Y-48062519D01*
X81288375Y-48073312D01*
X81344764Y-48283761D01*
X81348510Y-48294053D01*
X81440586Y-48491511D01*
X81446069Y-48501006D01*
X81482509Y-48553048D01*
X81492988Y-48561424D01*
X81506434Y-48554356D01*
X82207978Y-47852812D01*
X82214356Y-47841132D01*
X82944408Y-47841132D01*
X82944539Y-47842965D01*
X82948790Y-47849580D01*
X83654287Y-48555077D01*
X83666062Y-48561507D01*
X83678077Y-48552211D01*
X83713931Y-48501006D01*
X83719414Y-48491511D01*
X83811490Y-48294053D01*
X83815236Y-48283761D01*
X83871625Y-48073312D01*
X83873528Y-48062519D01*
X83892517Y-47845475D01*
X83892517Y-47834525D01*
X83873528Y-47617481D01*
X83871625Y-47606688D01*
X83815236Y-47396239D01*
X83811490Y-47385947D01*
X83719414Y-47188489D01*
X83713931Y-47178994D01*
X83677491Y-47126952D01*
X83667012Y-47118576D01*
X83653566Y-47125644D01*
X82952022Y-47827188D01*
X82944408Y-47841132D01*
X82214356Y-47841132D01*
X82215592Y-47838868D01*
X82215461Y-47837035D01*
X82211210Y-47830420D01*
X81505713Y-47124923D01*
X81493938Y-47118493D01*
X81481923Y-47127789D01*
X81446069Y-47178994D01*
X81440586Y-47188489D01*
X81348510Y-47385947D01*
X81344764Y-47396239D01*
X81288375Y-47606688D01*
X81286472Y-47617481D01*
X81267483Y-47834525D01*
X81267483Y-47845475D01*
X78893019Y-47845475D01*
X78893498Y-47840000D01*
X78873543Y-47611913D01*
X78872119Y-47606598D01*
X78815707Y-47396067D01*
X78815706Y-47396065D01*
X78814284Y-47390757D01*
X78771344Y-47298671D01*
X78719849Y-47188238D01*
X78719846Y-47188233D01*
X78717523Y-47183251D01*
X78609432Y-47028881D01*
X78589357Y-47000211D01*
X78589355Y-47000208D01*
X78586198Y-46995700D01*
X78424300Y-46833802D01*
X78419792Y-46830645D01*
X78419789Y-46830643D01*
X78308886Y-46752988D01*
X81858576Y-46752988D01*
X81865644Y-46766434D01*
X82567188Y-47467978D01*
X82581132Y-47475592D01*
X82582965Y-47475461D01*
X82589580Y-47471210D01*
X83295077Y-46765713D01*
X83301507Y-46753938D01*
X83292211Y-46741923D01*
X83241006Y-46706069D01*
X83231511Y-46700586D01*
X83034053Y-46608510D01*
X83023761Y-46604764D01*
X82813312Y-46548375D01*
X82802519Y-46546472D01*
X82585475Y-46527483D01*
X82574525Y-46527483D01*
X82357481Y-46546472D01*
X82346688Y-46548375D01*
X82136239Y-46604764D01*
X82125947Y-46608510D01*
X81928489Y-46700586D01*
X81918994Y-46706069D01*
X81866952Y-46742509D01*
X81858576Y-46752988D01*
X78308886Y-46752988D01*
X78299760Y-46746598D01*
X78236749Y-46702477D01*
X78231767Y-46700154D01*
X78231762Y-46700151D01*
X78034225Y-46608039D01*
X78034224Y-46608039D01*
X78029243Y-46605716D01*
X78023935Y-46604294D01*
X78023933Y-46604293D01*
X77813402Y-46547881D01*
X77813400Y-46547881D01*
X77808087Y-46546457D01*
X77580000Y-46526502D01*
X77351913Y-46546457D01*
X77346600Y-46547881D01*
X77346598Y-46547881D01*
X77136067Y-46604293D01*
X77136065Y-46604294D01*
X77130757Y-46605716D01*
X77125776Y-46608039D01*
X77125775Y-46608039D01*
X76928238Y-46700151D01*
X76928233Y-46700154D01*
X76923251Y-46702477D01*
X76860240Y-46746598D01*
X76740211Y-46830643D01*
X76740208Y-46830645D01*
X76735700Y-46833802D01*
X76573802Y-46995700D01*
X76570645Y-47000208D01*
X76570643Y-47000211D01*
X76550568Y-47028881D01*
X76442477Y-47183251D01*
X76440154Y-47188233D01*
X76440151Y-47188238D01*
X76388656Y-47298671D01*
X76345716Y-47390757D01*
X76344294Y-47396065D01*
X76344293Y-47396067D01*
X76287881Y-47606598D01*
X76286457Y-47611913D01*
X76266502Y-47840000D01*
X76286457Y-48068087D01*
X76287881Y-48073400D01*
X76287881Y-48073402D01*
X76343475Y-48280878D01*
X76345716Y-48289243D01*
X76348039Y-48294224D01*
X76348039Y-48294225D01*
X76440151Y-48491762D01*
X76440154Y-48491767D01*
X76442477Y-48496749D01*
X76445634Y-48501257D01*
X76522398Y-48610887D01*
X76573802Y-48684300D01*
X76724595Y-48835093D01*
X76758621Y-48897405D01*
X76761500Y-48924188D01*
X76761500Y-51090781D01*
X76741498Y-51158902D01*
X76696588Y-51200982D01*
X76695006Y-51201859D01*
X76690763Y-51203815D01*
X76686854Y-51206378D01*
X76469881Y-51348631D01*
X76469876Y-51348635D01*
X76465968Y-51351197D01*
X76414797Y-51396869D01*
X76293329Y-51505284D01*
X76265426Y-51530188D01*
X76182686Y-51629672D01*
X76105920Y-51721974D01*
X76093544Y-51736854D01*
X76091121Y-51740847D01*
X75990491Y-51906680D01*
X75954096Y-51966656D01*
X75952287Y-51970970D01*
X75952285Y-51970974D01*
X75898684Y-52098800D01*
X75850148Y-52214545D01*
X75783981Y-52475077D01*
X75757050Y-52742526D01*
X75757274Y-52747192D01*
X75757274Y-52747197D01*
X75763930Y-52885757D01*
X75769947Y-53011019D01*
X75822388Y-53274656D01*
X75913220Y-53527646D01*
X75915432Y-53531762D01*
X75915433Y-53531765D01*
X75957399Y-53609866D01*
X76040450Y-53764431D01*
X76043241Y-53768168D01*
X76043245Y-53768175D01*
X76130443Y-53884947D01*
X76201281Y-53979810D01*
X76204590Y-53983090D01*
X76204595Y-53983096D01*
X76363423Y-54140543D01*
X76392180Y-54169050D01*
X76395942Y-54171808D01*
X76395945Y-54171811D01*
X76508299Y-54254192D01*
X76608954Y-54327995D01*
X76613089Y-54330171D01*
X76613093Y-54330173D01*
X76842698Y-54450975D01*
X76846840Y-54453154D01*
X76944852Y-54487381D01*
X77085508Y-54536500D01*
X77100613Y-54541775D01*
X77105206Y-54542647D01*
X77360109Y-54591042D01*
X77360112Y-54591042D01*
X77364698Y-54591913D01*
X77492370Y-54596929D01*
X77628625Y-54602283D01*
X77628630Y-54602283D01*
X77633293Y-54602466D01*
X77737607Y-54591042D01*
X77895844Y-54573713D01*
X77895850Y-54573712D01*
X77900497Y-54573203D01*
X77905021Y-54572012D01*
X78155918Y-54505956D01*
X78155920Y-54505955D01*
X78160441Y-54504765D01*
X78164738Y-54502919D01*
X78403120Y-54400502D01*
X78403122Y-54400501D01*
X78407414Y-54398657D01*
X78548488Y-54311358D01*
X78632017Y-54259669D01*
X78632021Y-54259666D01*
X78635990Y-54257210D01*
X78841149Y-54083530D01*
X79018382Y-53881434D01*
X79163169Y-53656337D01*
X79216843Y-53609866D01*
X79269140Y-53598500D01*
X87865500Y-53598500D01*
X87933621Y-53618502D01*
X87980114Y-53672158D01*
X87991500Y-53724500D01*
X87991500Y-53753134D01*
X87998255Y-53815316D01*
X88049385Y-53951705D01*
X88136739Y-54068261D01*
X88253295Y-54155615D01*
X88261704Y-54158767D01*
X88261705Y-54158768D01*
X88321164Y-54181058D01*
X88377929Y-54223699D01*
X88402629Y-54290261D01*
X88387422Y-54359609D01*
X88368029Y-54386091D01*
X88301639Y-54455564D01*
X88298725Y-54459836D01*
X88298724Y-54459837D01*
X88268076Y-54504765D01*
X88171119Y-54646899D01*
X88073602Y-54856981D01*
X88011707Y-55080169D01*
X87987095Y-55310469D01*
X87987392Y-55315622D01*
X87987392Y-55315625D01*
X87998389Y-55506351D01*
X88000427Y-55541697D01*
X88001564Y-55546743D01*
X88001565Y-55546749D01*
X88026558Y-55657648D01*
X88051346Y-55767642D01*
X88053288Y-55772424D01*
X88053289Y-55772428D01*
X88116028Y-55926935D01*
X88138484Y-55982237D01*
X88189638Y-56065713D01*
X88238404Y-56145291D01*
X88259501Y-56179719D01*
X88411147Y-56354784D01*
X88589349Y-56502730D01*
X88593814Y-56505339D01*
X88597979Y-56507773D01*
X88646700Y-56559414D01*
X88659767Y-56629198D01*
X88633033Y-56694968D01*
X88616323Y-56711221D01*
X88605508Y-56725711D01*
X88612252Y-56738041D01*
X89670115Y-57795905D01*
X89704141Y-57858217D01*
X89699076Y-57929033D01*
X89670115Y-57974095D01*
X89400000Y-58244210D01*
X88610184Y-59034027D01*
X88603424Y-59046407D01*
X88608705Y-59053461D01*
X88785080Y-59156527D01*
X88794363Y-59160974D01*
X89001003Y-59239883D01*
X89010901Y-59242759D01*
X89227653Y-59286857D01*
X89237883Y-59288076D01*
X89458914Y-59296182D01*
X89469223Y-59295714D01*
X89688623Y-59267608D01*
X89698688Y-59265468D01*
X89828804Y-59226432D01*
X89899799Y-59226016D01*
X89959750Y-59264048D01*
X89989621Y-59328455D01*
X89991011Y-59347118D01*
X89991011Y-69231334D01*
X89990017Y-69247126D01*
X89985974Y-69279129D01*
X89990484Y-69325123D01*
X89990889Y-69330390D01*
X89991011Y-69332572D01*
X89991011Y-69336099D01*
X89992265Y-69347279D01*
X89995274Y-69374106D01*
X89995458Y-69375856D01*
X90002486Y-69447530D01*
X90003674Y-69459649D01*
X90005478Y-69465071D01*
X90006114Y-69470744D01*
X90008431Y-69477398D01*
X90008432Y-69477402D01*
X90033797Y-69550241D01*
X90034364Y-69551906D01*
X90058704Y-69625076D01*
X90058707Y-69625082D01*
X90060929Y-69631762D01*
X90063888Y-69636648D01*
X90065766Y-69642041D01*
X90075145Y-69657051D01*
X90101189Y-69698731D01*
X90120324Y-69767101D01*
X90099458Y-69834962D01*
X90045216Y-69880769D01*
X89994334Y-69891500D01*
X78461249Y-69891500D01*
X78393128Y-69871498D01*
X78346635Y-69817842D01*
X78336531Y-69747568D01*
X78343462Y-69720755D01*
X78355550Y-69688934D01*
X78355551Y-69688929D01*
X78358055Y-69682338D01*
X78358850Y-69676680D01*
X78360803Y-69671315D01*
X78371349Y-69587839D01*
X78371580Y-69586104D01*
X78376386Y-69551906D01*
X78383299Y-69502717D01*
X78383616Y-69480000D01*
X78379285Y-69441388D01*
X78378500Y-69427343D01*
X78378500Y-59486752D01*
X78398502Y-59418631D01*
X78438197Y-59379608D01*
X78632017Y-59259669D01*
X78632021Y-59259666D01*
X78635990Y-59257210D01*
X78841149Y-59083530D01*
X79018382Y-58881434D01*
X79080941Y-58784176D01*
X79150227Y-58676458D01*
X79163797Y-58655361D01*
X79274199Y-58410278D01*
X79293103Y-58343251D01*
X79345893Y-58156072D01*
X79345894Y-58156069D01*
X79347163Y-58151568D01*
X79365255Y-58009357D01*
X79380688Y-57888045D01*
X79380688Y-57888041D01*
X79381086Y-57884915D01*
X79381580Y-57866069D01*
X79381853Y-57855638D01*
X87987893Y-57855638D01*
X88000627Y-58076468D01*
X88002061Y-58086670D01*
X88050685Y-58302439D01*
X88053773Y-58312292D01*
X88136986Y-58517220D01*
X88141634Y-58526421D01*
X88230097Y-58670781D01*
X88240553Y-58680242D01*
X88249331Y-58676458D01*
X89027979Y-57897811D01*
X89035592Y-57883868D01*
X89035461Y-57882034D01*
X89031210Y-57875420D01*
X88253862Y-57098073D01*
X88242330Y-57091776D01*
X88230048Y-57101399D01*
X88174467Y-57182877D01*
X88169379Y-57191833D01*
X88076252Y-57392459D01*
X88072689Y-57402146D01*
X88013581Y-57615280D01*
X88011650Y-57625400D01*
X87988145Y-57845349D01*
X87987893Y-57855638D01*
X79381853Y-57855638D01*
X79382682Y-57823955D01*
X79383571Y-57790000D01*
X79376738Y-57698054D01*
X79363996Y-57526592D01*
X79363996Y-57526591D01*
X79363650Y-57521937D01*
X79362619Y-57517379D01*
X79305361Y-57264331D01*
X79305360Y-57264326D01*
X79304327Y-57259763D01*
X79206902Y-57009238D01*
X79073518Y-56775864D01*
X79070404Y-56771913D01*
X79006425Y-56690757D01*
X78907105Y-56564769D01*
X78711317Y-56380591D01*
X78541173Y-56262557D01*
X78494299Y-56230039D01*
X78494296Y-56230037D01*
X78490457Y-56227374D01*
X78486264Y-56225306D01*
X78253564Y-56110551D01*
X78253561Y-56110550D01*
X78249376Y-56108486D01*
X78207565Y-56095102D01*
X78088190Y-56056890D01*
X77993370Y-56026538D01*
X77988763Y-56025788D01*
X77988760Y-56025787D01*
X77748393Y-55986641D01*
X77728063Y-55983330D01*
X77597719Y-55981624D01*
X77463961Y-55979873D01*
X77463958Y-55979873D01*
X77459284Y-55979812D01*
X77192937Y-56016060D01*
X76934874Y-56091278D01*
X76690763Y-56203815D01*
X76686854Y-56206378D01*
X76469881Y-56348631D01*
X76469876Y-56348635D01*
X76465968Y-56351197D01*
X76436024Y-56377923D01*
X76270894Y-56525308D01*
X76265426Y-56530188D01*
X76183080Y-56629198D01*
X76102812Y-56725711D01*
X76093544Y-56736854D01*
X76091121Y-56740847D01*
X76015376Y-56865671D01*
X75954096Y-56966656D01*
X75952287Y-56970970D01*
X75952285Y-56970974D01*
X75897594Y-57101399D01*
X75850148Y-57214545D01*
X75848997Y-57219077D01*
X75846709Y-57228087D01*
X75783981Y-57475077D01*
X75757050Y-57742526D01*
X75757274Y-57747192D01*
X75757274Y-57747197D01*
X75759708Y-57797865D01*
X75769947Y-58011019D01*
X75822388Y-58274656D01*
X75913220Y-58527646D01*
X75915432Y-58531762D01*
X75915433Y-58531765D01*
X75967131Y-58627978D01*
X76040450Y-58764431D01*
X76043241Y-58768168D01*
X76043245Y-58768175D01*
X76124887Y-58877506D01*
X76201281Y-58979810D01*
X76204590Y-58983090D01*
X76204595Y-58983096D01*
X76372963Y-59150000D01*
X76392180Y-59169050D01*
X76395942Y-59171808D01*
X76395945Y-59171811D01*
X76508299Y-59254192D01*
X76608954Y-59327995D01*
X76613089Y-59330171D01*
X76613093Y-59330173D01*
X76694168Y-59372829D01*
X76745141Y-59422249D01*
X76761500Y-59484337D01*
X76761500Y-69420845D01*
X76760506Y-69436637D01*
X76756463Y-69468640D01*
X76760219Y-69506944D01*
X76760973Y-69514634D01*
X76761378Y-69519901D01*
X76761500Y-69522083D01*
X76761500Y-69525610D01*
X76761893Y-69529111D01*
X76765763Y-69563617D01*
X76765947Y-69565367D01*
X76773476Y-69642154D01*
X76774163Y-69649160D01*
X76775967Y-69654582D01*
X76776603Y-69660255D01*
X76786590Y-69688934D01*
X76798823Y-69724063D01*
X76802335Y-69794973D01*
X76766954Y-69856525D01*
X76703912Y-69889177D01*
X76679831Y-69891500D01*
X73832978Y-69891500D01*
X73764857Y-69871498D01*
X73727186Y-69833940D01*
X73722490Y-69826680D01*
X73629194Y-69682467D01*
X73622822Y-69672617D01*
X73622820Y-69672614D01*
X73620014Y-69668277D01*
X73469670Y-69503051D01*
X73465619Y-69499852D01*
X73465615Y-69499848D01*
X73298414Y-69367800D01*
X73298410Y-69367798D01*
X73294359Y-69364598D01*
X73098789Y-69256638D01*
X73093920Y-69254914D01*
X73093916Y-69254912D01*
X72893087Y-69183795D01*
X72893083Y-69183794D01*
X72888212Y-69182069D01*
X72883119Y-69181162D01*
X72883116Y-69181161D01*
X72673373Y-69143800D01*
X72673367Y-69143799D01*
X72668284Y-69142894D01*
X72594452Y-69141992D01*
X72450081Y-69140228D01*
X72450079Y-69140228D01*
X72444911Y-69140165D01*
X72224091Y-69173955D01*
X72011756Y-69243357D01*
X71981443Y-69259137D01*
X71833601Y-69336099D01*
X71813607Y-69346507D01*
X71809474Y-69349610D01*
X71809471Y-69349612D01*
X71639100Y-69477530D01*
X71634965Y-69480635D01*
X71623314Y-69492827D01*
X71484319Y-69638277D01*
X71480629Y-69642138D01*
X71373201Y-69799621D01*
X71318293Y-69844621D01*
X71247768Y-69852792D01*
X71184021Y-69821538D01*
X71163324Y-69797054D01*
X71082822Y-69672617D01*
X71082820Y-69672614D01*
X71080014Y-69668277D01*
X70929670Y-69503051D01*
X70925619Y-69499852D01*
X70925615Y-69499848D01*
X70758414Y-69367800D01*
X70758410Y-69367798D01*
X70754359Y-69364598D01*
X70558789Y-69256638D01*
X70553920Y-69254914D01*
X70553916Y-69254912D01*
X70353087Y-69183795D01*
X70353083Y-69183794D01*
X70348212Y-69182069D01*
X70343119Y-69181162D01*
X70343116Y-69181161D01*
X70133373Y-69143800D01*
X70133367Y-69143799D01*
X70128284Y-69142894D01*
X70054452Y-69141992D01*
X69910081Y-69140228D01*
X69910079Y-69140228D01*
X69904911Y-69140165D01*
X69684091Y-69173955D01*
X69471756Y-69243357D01*
X69441443Y-69259137D01*
X69293601Y-69336099D01*
X69273607Y-69346507D01*
X69269474Y-69349610D01*
X69269471Y-69349612D01*
X69099100Y-69477530D01*
X69094965Y-69480635D01*
X69083314Y-69492827D01*
X68944319Y-69638277D01*
X68940629Y-69642138D01*
X68937720Y-69646403D01*
X68937714Y-69646411D01*
X68925495Y-69664324D01*
X68814743Y-69826680D01*
X68813945Y-69828400D01*
X68763589Y-69877088D01*
X68705074Y-69891500D01*
X49361489Y-69891500D01*
X49293368Y-69871498D01*
X49251505Y-69826187D01*
X49251354Y-69825840D01*
X49248547Y-69821501D01*
X49132822Y-69642617D01*
X49132820Y-69642614D01*
X49130014Y-69638277D01*
X48979670Y-69473051D01*
X48975619Y-69469852D01*
X48975615Y-69469848D01*
X48808414Y-69337800D01*
X48808410Y-69337798D01*
X48804359Y-69334598D01*
X48796938Y-69330501D01*
X48740313Y-69299243D01*
X48608789Y-69226638D01*
X48603920Y-69224914D01*
X48603916Y-69224912D01*
X48403087Y-69153795D01*
X48403083Y-69153794D01*
X48398212Y-69152069D01*
X48393119Y-69151162D01*
X48393116Y-69151161D01*
X48183373Y-69113800D01*
X48183367Y-69113799D01*
X48178284Y-69112894D01*
X48104452Y-69111992D01*
X47960081Y-69110228D01*
X47960079Y-69110228D01*
X47954911Y-69110165D01*
X47734091Y-69143955D01*
X47521756Y-69213357D01*
X47323607Y-69316507D01*
X47319474Y-69319610D01*
X47319471Y-69319612D01*
X47149100Y-69447530D01*
X47144965Y-69450635D01*
X47123544Y-69473051D01*
X47005649Y-69596421D01*
X46990629Y-69612138D01*
X46883201Y-69769621D01*
X46828293Y-69814621D01*
X46757768Y-69822792D01*
X46694021Y-69791538D01*
X46673324Y-69767054D01*
X46592822Y-69642617D01*
X46592820Y-69642614D01*
X46590014Y-69638277D01*
X46439670Y-69473051D01*
X46435619Y-69469852D01*
X46435615Y-69469848D01*
X46268414Y-69337800D01*
X46268410Y-69337798D01*
X46264359Y-69334598D01*
X46256938Y-69330501D01*
X46200313Y-69299243D01*
X46068789Y-69226638D01*
X46063920Y-69224914D01*
X46063916Y-69224912D01*
X45863087Y-69153795D01*
X45863083Y-69153794D01*
X45858212Y-69152069D01*
X45853119Y-69151162D01*
X45853116Y-69151161D01*
X45643373Y-69113800D01*
X45643367Y-69113799D01*
X45638284Y-69112894D01*
X45564452Y-69111992D01*
X45420081Y-69110228D01*
X45420079Y-69110228D01*
X45414911Y-69110165D01*
X45194091Y-69143955D01*
X44981756Y-69213357D01*
X44783607Y-69316507D01*
X44779474Y-69319610D01*
X44779471Y-69319612D01*
X44609100Y-69447530D01*
X44604965Y-69450635D01*
X44583544Y-69473051D01*
X44465649Y-69596421D01*
X44450629Y-69612138D01*
X44447720Y-69616403D01*
X44447714Y-69616411D01*
X44374279Y-69724063D01*
X44324743Y-69796680D01*
X44297282Y-69855840D01*
X44237803Y-69983978D01*
X44230688Y-69999305D01*
X44170989Y-70214570D01*
X44147251Y-70436695D01*
X44160110Y-70659715D01*
X44161247Y-70664761D01*
X44161248Y-70664767D01*
X44185304Y-70771508D01*
X44209222Y-70877639D01*
X44270673Y-71028976D01*
X44290783Y-71078500D01*
X44293266Y-71084616D01*
X44295965Y-71089020D01*
X44407286Y-71270680D01*
X44409987Y-71275088D01*
X44556250Y-71443938D01*
X44728126Y-71586632D01*
X44773809Y-71613327D01*
X44801445Y-71629476D01*
X44850169Y-71681114D01*
X44863240Y-71750897D01*
X44836509Y-71816669D01*
X44796055Y-71850027D01*
X44783607Y-71856507D01*
X44779474Y-71859610D01*
X44779471Y-71859612D01*
X44715291Y-71907800D01*
X44604965Y-71990635D01*
X44450629Y-72152138D01*
X44447720Y-72156403D01*
X44447714Y-72156411D01*
X44409373Y-72212617D01*
X44324743Y-72336680D01*
X44230688Y-72539305D01*
X44170989Y-72754570D01*
X44170440Y-72759706D01*
X44170438Y-72759717D01*
X44168773Y-72775296D01*
X44141645Y-72840905D01*
X44083352Y-72881432D01*
X44012402Y-72884010D01*
X43954392Y-72851000D01*
X43595405Y-72492013D01*
X43561379Y-72429701D01*
X43558500Y-72402918D01*
X43558500Y-67687082D01*
X43578502Y-67618961D01*
X43595405Y-67597987D01*
X50852031Y-60341360D01*
X50914343Y-60307334D01*
X50952107Y-60304934D01*
X51044524Y-60313019D01*
X51044525Y-60313019D01*
X51050000Y-60313498D01*
X51278087Y-60293543D01*
X51283400Y-60292119D01*
X51283402Y-60292119D01*
X51493933Y-60235707D01*
X51493935Y-60235706D01*
X51499243Y-60234284D01*
X51505235Y-60231490D01*
X51701762Y-60139849D01*
X51701767Y-60139846D01*
X51706749Y-60137523D01*
X51780243Y-60086062D01*
X55328493Y-60086062D01*
X55337789Y-60098077D01*
X55388994Y-60133931D01*
X55398489Y-60139414D01*
X55595947Y-60231490D01*
X55606239Y-60235236D01*
X55816688Y-60291625D01*
X55827481Y-60293528D01*
X56044525Y-60312517D01*
X56055475Y-60312517D01*
X56272519Y-60293528D01*
X56283312Y-60291625D01*
X56493761Y-60235236D01*
X56504053Y-60231490D01*
X56701511Y-60139414D01*
X56711006Y-60133931D01*
X56763048Y-60097491D01*
X56771424Y-60087012D01*
X56764356Y-60073566D01*
X56062812Y-59372022D01*
X56048868Y-59364408D01*
X56047035Y-59364539D01*
X56040420Y-59368790D01*
X55334923Y-60074287D01*
X55328493Y-60086062D01*
X51780243Y-60086062D01*
X51855325Y-60033489D01*
X51889789Y-60009357D01*
X51889792Y-60009355D01*
X51894300Y-60006198D01*
X52056198Y-59844300D01*
X52187523Y-59656749D01*
X52189846Y-59651767D01*
X52189849Y-59651762D01*
X52281961Y-59454225D01*
X52281961Y-59454224D01*
X52284284Y-59449243D01*
X52304976Y-59372022D01*
X52342119Y-59233402D01*
X52342119Y-59233400D01*
X52343543Y-59228087D01*
X52363019Y-59005475D01*
X54737483Y-59005475D01*
X54756472Y-59222519D01*
X54758375Y-59233312D01*
X54814764Y-59443761D01*
X54818510Y-59454053D01*
X54910586Y-59651511D01*
X54916069Y-59661006D01*
X54952509Y-59713048D01*
X54962988Y-59721424D01*
X54976434Y-59714356D01*
X55677978Y-59012812D01*
X55684356Y-59001132D01*
X56414408Y-59001132D01*
X56414539Y-59002965D01*
X56418790Y-59009580D01*
X57124287Y-59715077D01*
X57136062Y-59721507D01*
X57148077Y-59712211D01*
X57183931Y-59661006D01*
X57189414Y-59651511D01*
X57281490Y-59454053D01*
X57285236Y-59443761D01*
X57341625Y-59233312D01*
X57343528Y-59222519D01*
X57362517Y-59005475D01*
X57362517Y-58994525D01*
X57343528Y-58777481D01*
X57341625Y-58766688D01*
X57285236Y-58556239D01*
X57281490Y-58545947D01*
X57189414Y-58348489D01*
X57183931Y-58338994D01*
X57147491Y-58286952D01*
X57137012Y-58278576D01*
X57123566Y-58285644D01*
X56422022Y-58987188D01*
X56414408Y-59001132D01*
X55684356Y-59001132D01*
X55685592Y-58998868D01*
X55685461Y-58997035D01*
X55681210Y-58990420D01*
X54975713Y-58284923D01*
X54963938Y-58278493D01*
X54951923Y-58287789D01*
X54916069Y-58338994D01*
X54910586Y-58348489D01*
X54818510Y-58545947D01*
X54814764Y-58556239D01*
X54758375Y-58766688D01*
X54756472Y-58777481D01*
X54737483Y-58994525D01*
X54737483Y-59005475D01*
X52363019Y-59005475D01*
X52363498Y-59000000D01*
X52343543Y-58771913D01*
X52328486Y-58715720D01*
X52285707Y-58556067D01*
X52285706Y-58556065D01*
X52284284Y-58550757D01*
X52261312Y-58501492D01*
X52189849Y-58348238D01*
X52189846Y-58348233D01*
X52187523Y-58343251D01*
X52079615Y-58189143D01*
X52059357Y-58160211D01*
X52059355Y-58160208D01*
X52056198Y-58155700D01*
X51895405Y-57994907D01*
X51861379Y-57932595D01*
X51859271Y-57912988D01*
X55328576Y-57912988D01*
X55335644Y-57926434D01*
X56037188Y-58627978D01*
X56051132Y-58635592D01*
X56052965Y-58635461D01*
X56059580Y-58631210D01*
X56765077Y-57925713D01*
X56771507Y-57913938D01*
X56762211Y-57901923D01*
X56711006Y-57866069D01*
X56701511Y-57860586D01*
X56504053Y-57768510D01*
X56493761Y-57764764D01*
X56283312Y-57708375D01*
X56272519Y-57706472D01*
X56055475Y-57687483D01*
X56044525Y-57687483D01*
X55827481Y-57706472D01*
X55816688Y-57708375D01*
X55606239Y-57764764D01*
X55595947Y-57768510D01*
X55398489Y-57860586D01*
X55388994Y-57866069D01*
X55336952Y-57902509D01*
X55328576Y-57912988D01*
X51859271Y-57912988D01*
X51858500Y-57905812D01*
X51858500Y-54164061D01*
X51878502Y-54095940D01*
X51916058Y-54058270D01*
X51937638Y-54044309D01*
X51941977Y-54041502D01*
X52119670Y-53879814D01*
X52219716Y-53753134D01*
X52265367Y-53695330D01*
X52265370Y-53695325D01*
X52268568Y-53691276D01*
X52282885Y-53665342D01*
X52382177Y-53485474D01*
X52382179Y-53485470D01*
X52384674Y-53480950D01*
X52390366Y-53464878D01*
X52463144Y-53259360D01*
X52463145Y-53259356D01*
X52464870Y-53254485D01*
X52470183Y-53224659D01*
X52506095Y-53023052D01*
X52506096Y-53023046D01*
X52507001Y-53017963D01*
X52509936Y-52777737D01*
X52473596Y-52540256D01*
X52436906Y-52428003D01*
X52400566Y-52316817D01*
X52400563Y-52316811D01*
X52398958Y-52311899D01*
X52391630Y-52297821D01*
X52290416Y-52103393D01*
X52288025Y-52098800D01*
X52193404Y-51972777D01*
X52146882Y-51910815D01*
X52146880Y-51910812D01*
X52143777Y-51906680D01*
X52018837Y-51787285D01*
X51973825Y-51744270D01*
X51973824Y-51744269D01*
X51970088Y-51740699D01*
X51932649Y-51715160D01*
X51887648Y-51660249D01*
X51879477Y-51589725D01*
X51910731Y-51525978D01*
X51935210Y-51505284D01*
X51937326Y-51503915D01*
X51945498Y-51497622D01*
X52115480Y-51342950D01*
X52122506Y-51335417D01*
X52264945Y-51155056D01*
X52270650Y-51146469D01*
X52381714Y-50945278D01*
X52385944Y-50935866D01*
X52462659Y-50719232D01*
X52465293Y-50709261D01*
X52482647Y-50611837D01*
X52481187Y-50598540D01*
X52466630Y-50594000D01*
X49531904Y-50594000D01*
X49518560Y-50597918D01*
X49516573Y-50612194D01*
X49526110Y-50674515D01*
X49528499Y-50684543D01*
X49599898Y-50902988D01*
X49603895Y-50912497D01*
X49710011Y-51116344D01*
X49715505Y-51125069D01*
X49853493Y-51308852D01*
X49860336Y-51316559D01*
X50026491Y-51475339D01*
X50034498Y-51481823D01*
X50067356Y-51504237D01*
X50112359Y-51559148D01*
X50120532Y-51629672D01*
X50089278Y-51693420D01*
X50064796Y-51714116D01*
X50063181Y-51715161D01*
X50058023Y-51718498D01*
X49880330Y-51880186D01*
X49856141Y-51910815D01*
X49734633Y-52064670D01*
X49734630Y-52064675D01*
X49731432Y-52068724D01*
X49728939Y-52073240D01*
X49728937Y-52073243D01*
X49617823Y-52274526D01*
X49615326Y-52279050D01*
X49613602Y-52283919D01*
X49613600Y-52283923D01*
X49544259Y-52479735D01*
X49535130Y-52505515D01*
X49534223Y-52510608D01*
X49534222Y-52510611D01*
X49517704Y-52603346D01*
X49492999Y-52742037D01*
X49490064Y-52982263D01*
X49526404Y-53219744D01*
X49563094Y-53331997D01*
X49599434Y-53443183D01*
X49599437Y-53443189D01*
X49601042Y-53448101D01*
X49603429Y-53452687D01*
X49603431Y-53452691D01*
X49679335Y-53598500D01*
X49711975Y-53661200D01*
X49715085Y-53665342D01*
X49836518Y-53827075D01*
X49856223Y-53853320D01*
X50029912Y-54019301D01*
X50124068Y-54083530D01*
X50186505Y-54126122D01*
X50231507Y-54181033D01*
X50241500Y-54230210D01*
X50241500Y-57905812D01*
X50221498Y-57973933D01*
X50204595Y-57994907D01*
X50043802Y-58155700D01*
X50040645Y-58160208D01*
X50040643Y-58160211D01*
X50020385Y-58189143D01*
X49912477Y-58343251D01*
X49910154Y-58348233D01*
X49910151Y-58348238D01*
X49838688Y-58501492D01*
X49815716Y-58550757D01*
X49814294Y-58556065D01*
X49814293Y-58556067D01*
X49771514Y-58715720D01*
X49756457Y-58771913D01*
X49736502Y-59000000D01*
X49736981Y-59005475D01*
X49736981Y-59005476D01*
X49745066Y-59097892D01*
X49731076Y-59167497D01*
X49708640Y-59197968D01*
X42184842Y-66721766D01*
X42183905Y-66722694D01*
X42119493Y-66785771D01*
X42096002Y-66822221D01*
X42088573Y-66832559D01*
X42062971Y-66864630D01*
X42004840Y-66905389D01*
X41933901Y-66908249D01*
X41872677Y-66872303D01*
X41840606Y-66808963D01*
X41838500Y-66786021D01*
X41838500Y-60084500D01*
X41858502Y-60016379D01*
X41912158Y-59969886D01*
X41964500Y-59958500D01*
X42945389Y-59958500D01*
X43013510Y-59978502D01*
X43040625Y-60002001D01*
X43146250Y-60123938D01*
X43318126Y-60266632D01*
X43511000Y-60379338D01*
X43719692Y-60459030D01*
X43724760Y-60460061D01*
X43724763Y-60460062D01*
X43832017Y-60481883D01*
X43938597Y-60503567D01*
X43943772Y-60503757D01*
X43943774Y-60503757D01*
X44156673Y-60511564D01*
X44156677Y-60511564D01*
X44161837Y-60511753D01*
X44166957Y-60511097D01*
X44166959Y-60511097D01*
X44378288Y-60484025D01*
X44378289Y-60484025D01*
X44383416Y-60483368D01*
X44388366Y-60481883D01*
X44592429Y-60420661D01*
X44592434Y-60420659D01*
X44597384Y-60419174D01*
X44797994Y-60320896D01*
X44979860Y-60191173D01*
X45138096Y-60033489D01*
X45157707Y-60006198D01*
X45265435Y-59856277D01*
X45268453Y-59852077D01*
X45332985Y-59721507D01*
X45365136Y-59656453D01*
X45365137Y-59656451D01*
X45367430Y-59651811D01*
X45418313Y-59484337D01*
X45430865Y-59443023D01*
X45430865Y-59443021D01*
X45432370Y-59438069D01*
X45461529Y-59216590D01*
X45462691Y-59169050D01*
X45463074Y-59153365D01*
X45463074Y-59153361D01*
X45463156Y-59150000D01*
X45444852Y-58927361D01*
X45390431Y-58710702D01*
X45301354Y-58505840D01*
X45217938Y-58376899D01*
X45182822Y-58322617D01*
X45182820Y-58322614D01*
X45180014Y-58318277D01*
X45176540Y-58314459D01*
X45176533Y-58314450D01*
X45032435Y-58156088D01*
X45001383Y-58092242D01*
X45009779Y-58021744D01*
X45054956Y-57966976D01*
X45081400Y-57953307D01*
X45188052Y-57913325D01*
X45203649Y-57904786D01*
X45305724Y-57828285D01*
X45318285Y-57815724D01*
X45394786Y-57713649D01*
X45403324Y-57698054D01*
X45448478Y-57577606D01*
X45452105Y-57562351D01*
X45457631Y-57511486D01*
X45458000Y-57504672D01*
X45458000Y-56882115D01*
X45453525Y-56866876D01*
X45452135Y-56865671D01*
X45444452Y-56864000D01*
X42760116Y-56864000D01*
X42744877Y-56868475D01*
X42743672Y-56869865D01*
X42742001Y-56877548D01*
X42742001Y-57504669D01*
X42742371Y-57511490D01*
X42747895Y-57562352D01*
X42751521Y-57577604D01*
X42796676Y-57698054D01*
X42805214Y-57713649D01*
X42881715Y-57815724D01*
X42894276Y-57828285D01*
X42996351Y-57904786D01*
X43011946Y-57913324D01*
X43120827Y-57954142D01*
X43177591Y-57996784D01*
X43202291Y-58063345D01*
X43187083Y-58132694D01*
X43167691Y-58159175D01*
X43115714Y-58213566D01*
X43040629Y-58292138D01*
X43038632Y-58295065D01*
X42980603Y-58335148D01*
X42941102Y-58341500D01*
X41964500Y-58341500D01*
X41896379Y-58321498D01*
X41849886Y-58267842D01*
X41838500Y-58215500D01*
X41838500Y-56337885D01*
X42742000Y-56337885D01*
X42746475Y-56353124D01*
X42747865Y-56354329D01*
X42755548Y-56356000D01*
X43827885Y-56356000D01*
X43843124Y-56351525D01*
X43844329Y-56350135D01*
X43846000Y-56342452D01*
X43846000Y-56337885D01*
X44354000Y-56337885D01*
X44358475Y-56353124D01*
X44359865Y-56354329D01*
X44367548Y-56356000D01*
X45439884Y-56356000D01*
X45455123Y-56351525D01*
X45456328Y-56350135D01*
X45457999Y-56342452D01*
X45457999Y-55715331D01*
X45457629Y-55708510D01*
X45452105Y-55657648D01*
X45448479Y-55642396D01*
X45403324Y-55521946D01*
X45394786Y-55506351D01*
X45318285Y-55404276D01*
X45305724Y-55391715D01*
X45203649Y-55315214D01*
X45188054Y-55306676D01*
X45067606Y-55261522D01*
X45052351Y-55257895D01*
X45001486Y-55252369D01*
X44994672Y-55252000D01*
X44372115Y-55252000D01*
X44356876Y-55256475D01*
X44355671Y-55257865D01*
X44354000Y-55265548D01*
X44354000Y-56337885D01*
X43846000Y-56337885D01*
X43846000Y-55270116D01*
X43841525Y-55254877D01*
X43840135Y-55253672D01*
X43832452Y-55252001D01*
X43205331Y-55252001D01*
X43198510Y-55252371D01*
X43147648Y-55257895D01*
X43132396Y-55261521D01*
X43011946Y-55306676D01*
X42996351Y-55315214D01*
X42894276Y-55391715D01*
X42881715Y-55404276D01*
X42805214Y-55506351D01*
X42796676Y-55521946D01*
X42751522Y-55642394D01*
X42747895Y-55657649D01*
X42742369Y-55708514D01*
X42742000Y-55715328D01*
X42742000Y-56337885D01*
X41838500Y-56337885D01*
X41838500Y-50587082D01*
X41858502Y-50518961D01*
X41875405Y-50497987D01*
X42033392Y-50340000D01*
X65396654Y-50340000D01*
X65396924Y-50344119D01*
X65414471Y-50611837D01*
X65416017Y-50635426D01*
X65416819Y-50639459D01*
X65416820Y-50639465D01*
X65432687Y-50719232D01*
X65473776Y-50925797D01*
X65475103Y-50929706D01*
X65475104Y-50929710D01*
X65557406Y-51172163D01*
X65568941Y-51206145D01*
X65619591Y-51308852D01*
X65694016Y-51459771D01*
X65699885Y-51471673D01*
X65702179Y-51475106D01*
X65830200Y-51666703D01*
X65864367Y-51717838D01*
X65867081Y-51720932D01*
X65867085Y-51720938D01*
X66033604Y-51910815D01*
X66059573Y-51940427D01*
X66062662Y-51943136D01*
X66279062Y-52132915D01*
X66279068Y-52132919D01*
X66282162Y-52135633D01*
X66285588Y-52137922D01*
X66285593Y-52137926D01*
X66393806Y-52210231D01*
X66528327Y-52300115D01*
X66532026Y-52301939D01*
X66532031Y-52301942D01*
X66562195Y-52316817D01*
X66793855Y-52431059D01*
X66797760Y-52432384D01*
X66797761Y-52432385D01*
X67070290Y-52524896D01*
X67070294Y-52524897D01*
X67074203Y-52526224D01*
X67078247Y-52527028D01*
X67078253Y-52527030D01*
X67360535Y-52583180D01*
X67360541Y-52583181D01*
X67364574Y-52583983D01*
X67368679Y-52584252D01*
X67368686Y-52584253D01*
X67655881Y-52603076D01*
X67660000Y-52603346D01*
X67664119Y-52603076D01*
X67951314Y-52584253D01*
X67951321Y-52584252D01*
X67955426Y-52583983D01*
X67959459Y-52583181D01*
X67959465Y-52583180D01*
X68241747Y-52527030D01*
X68241753Y-52527028D01*
X68245797Y-52526224D01*
X68249706Y-52524897D01*
X68249710Y-52524896D01*
X68522239Y-52432385D01*
X68522240Y-52432384D01*
X68526145Y-52431059D01*
X68757805Y-52316817D01*
X68787969Y-52301942D01*
X68787974Y-52301939D01*
X68791673Y-52300115D01*
X68926194Y-52210231D01*
X69034407Y-52137926D01*
X69034412Y-52137922D01*
X69037838Y-52135633D01*
X69040932Y-52132919D01*
X69040938Y-52132915D01*
X69257338Y-51943136D01*
X69260427Y-51940427D01*
X69286396Y-51910815D01*
X69452915Y-51720938D01*
X69452919Y-51720932D01*
X69455633Y-51717838D01*
X69489801Y-51666703D01*
X69617821Y-51475106D01*
X69620115Y-51471673D01*
X69625985Y-51459771D01*
X69700409Y-51308852D01*
X69751059Y-51206145D01*
X69762594Y-51172163D01*
X69844896Y-50929710D01*
X69844897Y-50929706D01*
X69846224Y-50925797D01*
X69887313Y-50719232D01*
X69903180Y-50639465D01*
X69903181Y-50639459D01*
X69903983Y-50635426D01*
X69905530Y-50611837D01*
X69923076Y-50344119D01*
X69923346Y-50340000D01*
X69921992Y-50319340D01*
X69904253Y-50048686D01*
X69904252Y-50048679D01*
X69903983Y-50044574D01*
X69889297Y-49970739D01*
X69847030Y-49758253D01*
X69847028Y-49758247D01*
X69846224Y-49754203D01*
X69769645Y-49528606D01*
X69752385Y-49477761D01*
X69752384Y-49477760D01*
X69751059Y-49473855D01*
X69675167Y-49319962D01*
X69621942Y-49212031D01*
X69621939Y-49212026D01*
X69620115Y-49208327D01*
X69561860Y-49121142D01*
X69457926Y-48965593D01*
X69457922Y-48965588D01*
X69455633Y-48962162D01*
X69452919Y-48959068D01*
X69452915Y-48959062D01*
X69263136Y-48742662D01*
X69260427Y-48739573D01*
X69235502Y-48717714D01*
X69040938Y-48547085D01*
X69040932Y-48547081D01*
X69037838Y-48544367D01*
X69034412Y-48542078D01*
X69034407Y-48542074D01*
X68825302Y-48402355D01*
X68791673Y-48379885D01*
X68787974Y-48378061D01*
X68787969Y-48378058D01*
X68617623Y-48294053D01*
X68526145Y-48248941D01*
X68522239Y-48247615D01*
X68249710Y-48155104D01*
X68249706Y-48155103D01*
X68245797Y-48153776D01*
X68241753Y-48152972D01*
X68241747Y-48152970D01*
X67959465Y-48096820D01*
X67959459Y-48096819D01*
X67955426Y-48096017D01*
X67951321Y-48095748D01*
X67951314Y-48095747D01*
X67664119Y-48076924D01*
X67660000Y-48076654D01*
X67655881Y-48076924D01*
X67368686Y-48095747D01*
X67368679Y-48095748D01*
X67364574Y-48096017D01*
X67360541Y-48096819D01*
X67360535Y-48096820D01*
X67078253Y-48152970D01*
X67078247Y-48152972D01*
X67074203Y-48153776D01*
X67070294Y-48155103D01*
X67070290Y-48155104D01*
X66797761Y-48247615D01*
X66793855Y-48248941D01*
X66702377Y-48294053D01*
X66532031Y-48378058D01*
X66532026Y-48378061D01*
X66528327Y-48379885D01*
X66494698Y-48402355D01*
X66285593Y-48542074D01*
X66285588Y-48542078D01*
X66282162Y-48544367D01*
X66279068Y-48547081D01*
X66279062Y-48547085D01*
X66084498Y-48717714D01*
X66059573Y-48739573D01*
X66056864Y-48742662D01*
X65867085Y-48959062D01*
X65867081Y-48959068D01*
X65864367Y-48962162D01*
X65862078Y-48965588D01*
X65862074Y-48965593D01*
X65758140Y-49121142D01*
X65699885Y-49208327D01*
X65698061Y-49212026D01*
X65698058Y-49212031D01*
X65644833Y-49319962D01*
X65568941Y-49473855D01*
X65567616Y-49477760D01*
X65567615Y-49477761D01*
X65550356Y-49528606D01*
X65473776Y-49754203D01*
X65472972Y-49758247D01*
X65472970Y-49758253D01*
X65430704Y-49970739D01*
X65416017Y-50044574D01*
X65415748Y-50048679D01*
X65415747Y-50048686D01*
X65398008Y-50319340D01*
X65396654Y-50340000D01*
X42033392Y-50340000D01*
X42666254Y-49707138D01*
X43623015Y-48750376D01*
X43685327Y-48716351D01*
X43756142Y-48721415D01*
X43812978Y-48763962D01*
X43830092Y-48795242D01*
X43833387Y-48804031D01*
X43849385Y-48846705D01*
X43936739Y-48963261D01*
X44053295Y-49050615D01*
X44189684Y-49101745D01*
X44251866Y-49108500D01*
X45948134Y-49108500D01*
X46010316Y-49101745D01*
X46146705Y-49050615D01*
X46263261Y-48963261D01*
X46350615Y-48846705D01*
X46392679Y-48734500D01*
X46398972Y-48717714D01*
X46398973Y-48717711D01*
X46401745Y-48710316D01*
X46402372Y-48704547D01*
X46437126Y-48643709D01*
X46500081Y-48610887D01*
X46524493Y-48608500D01*
X49365500Y-48608500D01*
X49433621Y-48628502D01*
X49480114Y-48682158D01*
X49491500Y-48734500D01*
X49491500Y-48800634D01*
X49498255Y-48862816D01*
X49549385Y-48999205D01*
X49636739Y-49115761D01*
X49753295Y-49203115D01*
X49772368Y-49210265D01*
X49773683Y-49210758D01*
X49830447Y-49253401D01*
X49855146Y-49319962D01*
X49839938Y-49389311D01*
X49828334Y-49406832D01*
X49735055Y-49524944D01*
X49729350Y-49533531D01*
X49618286Y-49734722D01*
X49614056Y-49744134D01*
X49537341Y-49960768D01*
X49534707Y-49970739D01*
X49517353Y-50068163D01*
X49518813Y-50081460D01*
X49533370Y-50086000D01*
X52468096Y-50086000D01*
X52481440Y-50082082D01*
X52483427Y-50067806D01*
X52473890Y-50005485D01*
X52471501Y-49995457D01*
X52400102Y-49777012D01*
X52396105Y-49767503D01*
X52289989Y-49563656D01*
X52284500Y-49554939D01*
X52171098Y-49403901D01*
X52146193Y-49337416D01*
X52161186Y-49268020D01*
X52211316Y-49217747D01*
X52227625Y-49210268D01*
X52246705Y-49203115D01*
X52363261Y-49115761D01*
X52450615Y-48999205D01*
X52501745Y-48862816D01*
X52508500Y-48800634D01*
X52508500Y-46799366D01*
X52501745Y-46737184D01*
X52450615Y-46600795D01*
X52363261Y-46484239D01*
X52246705Y-46396885D01*
X52110316Y-46345755D01*
X52048134Y-46339000D01*
X49951866Y-46339000D01*
X49889684Y-46345755D01*
X49753295Y-46396885D01*
X49636739Y-46484239D01*
X49549385Y-46600795D01*
X49498255Y-46737184D01*
X49491500Y-46799366D01*
X49491500Y-46865500D01*
X49471498Y-46933621D01*
X49417842Y-46980114D01*
X49365500Y-46991500D01*
X46524493Y-46991500D01*
X46456372Y-46971498D01*
X46409879Y-46917842D01*
X46402457Y-46896237D01*
X46401745Y-46889684D01*
X46379612Y-46830643D01*
X46353767Y-46761703D01*
X46350615Y-46753295D01*
X46263261Y-46636739D01*
X46146705Y-46549385D01*
X46010316Y-46498255D01*
X45948134Y-46491500D01*
X44251866Y-46491500D01*
X44189684Y-46498255D01*
X44053295Y-46549385D01*
X43936739Y-46636739D01*
X43849385Y-46753295D01*
X43846233Y-46761703D01*
X43820389Y-46830643D01*
X43798255Y-46889684D01*
X43797628Y-46895453D01*
X43762874Y-46956291D01*
X43699919Y-46989113D01*
X43675507Y-46991500D01*
X43439260Y-46991500D01*
X43437941Y-46991493D01*
X43347779Y-46990549D01*
X43340893Y-46992038D01*
X43340891Y-46992038D01*
X43331563Y-46994055D01*
X43305403Y-46999711D01*
X43292837Y-47001769D01*
X43249745Y-47006603D01*
X43243094Y-47008919D01*
X43243090Y-47008920D01*
X43218070Y-47017633D01*
X43203257Y-47021796D01*
X43170490Y-47028881D01*
X43131189Y-47047207D01*
X43119406Y-47051992D01*
X43078448Y-47066255D01*
X43072471Y-47069990D01*
X43050016Y-47084021D01*
X43036499Y-47091360D01*
X43012481Y-47102560D01*
X43012477Y-47102562D01*
X43006098Y-47105537D01*
X43000534Y-47109853D01*
X43000532Y-47109854D01*
X42971840Y-47132109D01*
X42961385Y-47139403D01*
X42924624Y-47162374D01*
X42919627Y-47167336D01*
X42919626Y-47167337D01*
X42895821Y-47190976D01*
X42895196Y-47191561D01*
X42894530Y-47192078D01*
X42868540Y-47218068D01*
X42795918Y-47290185D01*
X42795260Y-47291222D01*
X42794157Y-47292451D01*
X40723095Y-49363513D01*
X40660783Y-49397539D01*
X40589968Y-49392474D01*
X40533132Y-49349927D01*
X40508321Y-49283407D01*
X40508000Y-49274418D01*
X40508000Y-43886062D01*
X44378493Y-43886062D01*
X44387789Y-43898077D01*
X44438994Y-43933931D01*
X44448489Y-43939414D01*
X44645947Y-44031490D01*
X44656239Y-44035236D01*
X44866688Y-44091625D01*
X44877481Y-44093528D01*
X45094525Y-44112517D01*
X45105475Y-44112517D01*
X45322519Y-44093528D01*
X45333312Y-44091625D01*
X45543761Y-44035236D01*
X45554053Y-44031490D01*
X45751511Y-43939414D01*
X45761006Y-43933931D01*
X45813048Y-43897491D01*
X45821424Y-43887012D01*
X45814356Y-43873566D01*
X45112812Y-43172022D01*
X45098868Y-43164408D01*
X45097035Y-43164539D01*
X45090420Y-43168790D01*
X44384923Y-43874287D01*
X44378493Y-43886062D01*
X40508000Y-43886062D01*
X40508000Y-42805475D01*
X43787483Y-42805475D01*
X43806472Y-43022519D01*
X43808375Y-43033312D01*
X43864764Y-43243761D01*
X43868510Y-43254053D01*
X43960586Y-43451511D01*
X43966069Y-43461006D01*
X44002509Y-43513048D01*
X44012988Y-43521424D01*
X44026434Y-43514356D01*
X44727978Y-42812812D01*
X44734356Y-42801132D01*
X45464408Y-42801132D01*
X45464539Y-42802965D01*
X45468790Y-42809580D01*
X46174287Y-43515077D01*
X46186062Y-43521507D01*
X46198077Y-43512211D01*
X46233931Y-43461006D01*
X46239414Y-43451511D01*
X46331490Y-43254053D01*
X46335236Y-43243761D01*
X46391625Y-43033312D01*
X46393528Y-43022519D01*
X46412517Y-42805475D01*
X46412517Y-42794525D01*
X46393528Y-42577481D01*
X46391625Y-42566688D01*
X46335236Y-42356239D01*
X46331490Y-42345947D01*
X46239414Y-42148489D01*
X46233931Y-42138994D01*
X46197491Y-42086952D01*
X46187012Y-42078576D01*
X46173566Y-42085644D01*
X45472022Y-42787188D01*
X45464408Y-42801132D01*
X44734356Y-42801132D01*
X44735592Y-42798868D01*
X44735461Y-42797035D01*
X44731210Y-42790420D01*
X44025713Y-42084923D01*
X44013938Y-42078493D01*
X44001923Y-42087789D01*
X43966069Y-42138994D01*
X43960586Y-42148489D01*
X43868510Y-42345947D01*
X43864764Y-42356239D01*
X43808375Y-42566688D01*
X43806472Y-42577481D01*
X43787483Y-42794525D01*
X43787483Y-42805475D01*
X40508000Y-42805475D01*
X40508000Y-41712988D01*
X44378576Y-41712988D01*
X44385644Y-41726434D01*
X45087188Y-42427978D01*
X45101132Y-42435592D01*
X45102965Y-42435461D01*
X45109580Y-42431210D01*
X45815077Y-41725713D01*
X45821507Y-41713938D01*
X45812211Y-41701923D01*
X45761006Y-41666069D01*
X45751511Y-41660586D01*
X45554053Y-41568510D01*
X45543761Y-41564764D01*
X45333312Y-41508375D01*
X45322519Y-41506472D01*
X45105475Y-41487483D01*
X45094525Y-41487483D01*
X44877481Y-41506472D01*
X44866688Y-41508375D01*
X44656239Y-41564764D01*
X44645947Y-41568510D01*
X44448489Y-41660586D01*
X44438994Y-41666069D01*
X44386952Y-41702509D01*
X44378576Y-41712988D01*
X40508000Y-41712988D01*
X40508000Y-40634000D01*
X40528002Y-40565879D01*
X40581658Y-40519386D01*
X40634000Y-40508000D01*
X199366000Y-40508000D01*
X199434121Y-40528002D01*
G37*
%TD.AperFunction*%
%TD*%
M02*
