M48
; DRILL file {KiCad (6.0.1)} date Sun Dec  4 20:41:46 2022
; FORMAT={-:-/ absolute / inch / decimal}
; #@! TF.CreationDate,2022-12-04T20:41:46-08:00
; #@! TF.GenerationSoftware,Kicad,Pcbnew,(6.0.1)
; #@! TF.FileFunction,Plated,1,2,PTH
FMAT,2
INCH
; #@! TA.AperFunction,Plated,PTH,ComponentDrill
T1C0.0315
; #@! TA.AperFunction,Plated,PTH,ComponentDrill
T2C0.0354
; #@! TA.AperFunction,Plated,PTH,ComponentDrill
T3C0.0394
; #@! TA.AperFunction,Plated,PTH,ComponentDrill
T4C0.0433
; #@! TA.AperFunction,Plated,PTH,ComponentDrill
T5C0.0512
; #@! TA.AperFunction,Plated,PTH,ComponentDrill
T6C0.0630
; #@! TA.AperFunction,Plated,PTH,ComponentDrill
T7C0.1693
%
G90
G05
T1
X1.8386Y-3.2524
X2.0354Y-3.2524
X2.0382Y-3.576
X2.235Y-3.576
X2.4024Y-2.7768
X2.4055Y-3.1748
X2.4055Y-3.2756
X2.4244Y-1.8835
X2.5992Y-2.7768
X2.6024Y-3.1748
X2.6024Y-3.2756
X2.6213Y-1.8835
X2.7024Y-1.7642
X2.8992Y-1.7642
X3.1882Y-1.9827
X3.1882Y-2.1795
X3.4496Y-1.9823
X3.4496Y-2.1791
X3.5933Y-2.7764
X3.5992Y-3.1744
X3.5992Y-3.2756
X3.7902Y-2.7764
X3.7961Y-3.1744
X3.7961Y-3.2756
X4.7673Y-3.1764
X4.7673Y-3.276
X4.7736Y-2.776
X4.9642Y-3.1764
X4.9642Y-3.276
X4.9705Y-2.776
X5.9583Y-2.776
X5.9598Y-3.1756
X5.9598Y-3.2756
X6.1551Y-2.776
X6.1567Y-3.1756
X6.1567Y-3.2756
X6.6543Y-2.0063
X7.0543Y-2.0063
X7.1303Y-3.2752
X7.1311Y-3.176
X7.1323Y-2.7764
X7.2693Y-2.1697
X7.3272Y-3.2752
X7.328Y-3.176
X7.3291Y-2.7764
X7.3976Y-2.0303
X7.6693Y-2.1697
X7.7976Y-2.0303
T2
X7.0573Y-1.811
X7.1573Y-1.811
X7.2675Y-1.811
X7.3675Y-1.811
X7.4805Y-1.811
X7.5805Y-1.811
T3
X1.7508Y-2.874
X1.7508Y-2.974
X2.7559Y-2.7756
X2.7559Y-2.8756
X2.7559Y-2.9756
X2.7559Y-3.0756
X2.7559Y-3.1756
X2.7559Y-3.2756
X2.7559Y-3.3756
X2.7559Y-3.4756
X2.8559Y-2.7756
X2.8559Y-2.8756
X2.8559Y-2.9756
X2.8559Y-3.0756
X2.8559Y-3.1756
X2.8559Y-3.2756
X2.8559Y-3.3756
X2.8559Y-3.4756
X2.899Y-2.0789
X2.899Y-2.1789
X2.899Y-2.2789
X3.937Y-2.7756
X3.937Y-2.8756
X3.937Y-2.9756
X3.937Y-3.0756
X3.937Y-3.1756
X3.937Y-3.2756
X3.937Y-3.3756
X3.937Y-3.4756
X4.037Y-2.7756
X4.037Y-2.8756
X4.037Y-2.9756
X4.037Y-3.0756
X4.037Y-3.1756
X4.037Y-3.2756
X4.037Y-3.3756
X4.037Y-3.4756
X5.1181Y-2.7756
X5.1181Y-2.8756
X5.1181Y-2.9756
X5.1181Y-3.0756
X5.1181Y-3.1756
X5.1181Y-3.2756
X5.1181Y-3.3756
X5.1181Y-3.4756
X5.2181Y-2.7756
X5.2181Y-2.8756
X5.2181Y-2.9756
X5.2181Y-3.0756
X5.2181Y-3.1756
X5.2181Y-3.2756
X5.2181Y-3.3756
X5.2181Y-3.4756
X6.2992Y-2.7756
X6.2992Y-2.8756
X6.2992Y-2.9756
X6.2992Y-3.0756
X6.2992Y-3.1756
X6.2992Y-3.2756
X6.2992Y-3.3756
X6.2992Y-3.4756
X6.3992Y-2.7756
X6.3992Y-2.8756
X6.3992Y-2.9756
X6.3992Y-3.0756
X6.3992Y-3.1756
X6.3992Y-3.2756
X6.3992Y-3.3756
X6.3992Y-3.4756
X7.4803Y-2.7756
X7.4803Y-2.8756
X7.4803Y-2.9756
X7.4803Y-3.0756
X7.4803Y-3.1756
X7.4803Y-3.2756
X7.4803Y-3.3756
X7.4803Y-3.4756
X7.5803Y-2.7756
X7.5803Y-2.8756
X7.5803Y-2.9756
X7.5803Y-3.0756
X7.5803Y-3.1756
X7.5803Y-3.2756
X7.5803Y-3.3756
X7.5803Y-3.4756
T4
X1.8378Y-3.4569
X1.9378Y-3.4569
X2.0378Y-3.4569
T5
X2.424Y-2.0783
X2.424Y-2.2752
T6
X4.7657Y-3.7488
T7
X1.7949Y-3.7244
X7.6677Y-3.7244
T0
M30
